<svg width="144" height="96" viewBox="0 0 144 96" fill="none" xmlns="http://www.w3.org/2000/svg">
<g clip-path="url(#clip0_2560_1440)">
<path d="M70.4342 48.7958C70.2618 48.7928 70.2248 48.9069 70.212 49.0373C70.2031 49.1285 70.202 49.2205 70.1975 49.3059C70.0096 49.3558 69.9201 49.3278 69.8441 49.167C69.7484 48.9647 69.6683 48.7549 69.5943 48.5443C69.572 48.4805 69.5622 48.3816 69.5981 48.3356C69.7154 48.184 69.663 48.0211 69.6677 47.8612C69.675 47.611 69.9244 47.3282 70.1744 47.3203C70.2827 47.3169 70.4038 47.3631 70.5002 47.4175C70.6289 47.4903 70.5921 47.599 70.5423 47.7185C70.4734 47.8837 70.5439 48.0177 70.7294 48.1344C70.8621 47.9569 70.7575 47.7985 70.669 47.6091C70.7649 47.6003 70.8416 47.595 70.9181 47.5862C71.1422 47.5605 71.2156 47.4796 71.2872 47.2728C71.4038 46.9356 71.5345 46.6024 71.6748 46.2736C71.7185 46.1708 71.8126 46.088 71.8828 45.9955C71.9388 45.9219 71.9935 45.8476 72.0668 45.7493C71.9796 45.7061 71.921 45.665 71.8554 45.6474C71.7624 45.6226 71.6634 45.6192 71.5684 45.5999C71.365 45.5588 71.2778 45.465 71.2499 45.2666C71.2114 44.9915 71.035 44.9134 70.7959 45.0686C70.7406 45.1046 70.6917 45.1504 70.6438 45.1953C70.4656 45.3623 70.2943 45.5365 70.1099 45.6971C69.9627 45.8251 69.7861 45.9007 69.5814 45.906C69.1282 45.918 68.9019 45.5723 69.0809 45.1686C69.1552 45.001 69.2076 44.8119 69.213 44.6311C69.2301 44.0441 69.3552 43.4813 69.5943 42.9456C69.6666 42.7837 69.7497 42.611 69.9348 42.508C70.0889 42.4224 70.1759 42.2753 70.1623 42.0904C70.1498 41.9189 70.2332 41.7892 70.3541 41.6712C70.4038 41.6229 70.4556 41.5597 70.4683 41.4961C70.5011 41.3324 70.5559 41.1907 70.7212 41.1329C70.7468 40.9871 70.7729 40.8608 70.7903 40.7337C70.8206 40.5123 70.9821 40.3507 71.0666 40.1572C71.204 39.8427 71.2921 39.5084 71.4 39.1821C71.4112 39.1485 71.406 39.1064 71.4252 39.079C71.5365 38.9208 71.646 38.7609 71.7693 38.6115C71.8737 38.4852 71.9326 38.3542 71.9718 38.1928C72.0158 38.0123 72.1478 37.8515 72.2421 37.6824C72.249 37.6702 72.2671 37.6627 72.2713 37.6503C72.4163 37.2218 72.7388 36.8784 72.8946 36.4548C72.9417 36.327 72.9932 36.2001 73.053 36.0774C73.1866 35.8026 73.3293 35.5388 73.5425 35.3023C73.7026 35.1246 73.7606 34.8656 73.8873 34.6558C73.9742 34.5116 74.1013 34.3895 74.21 34.257C74.3003 34.1468 74.4042 34.0436 74.4762 33.9231C74.6245 33.6756 74.7425 33.4106 74.8995 33.1687C74.9829 33.0401 75.1299 32.9508 75.2322 32.831C75.2858 32.7682 75.3029 32.6775 75.3393 32.6008C75.4033 32.4658 75.4532 32.3211 75.5384 32.1995C75.7035 31.964 75.8888 31.7418 76.0659 31.5141C76.0703 31.5083 76.0737 31.4989 76.0792 31.4974C76.3428 31.4312 76.3986 31.1859 76.5415 31.0138C76.6653 30.8648 76.8022 30.7233 77.0136 30.6702C77.0937 30.6501 77.1597 30.5754 77.2302 30.523C77.3303 30.4482 77.4269 30.3695 77.5277 30.2956C77.647 30.2083 77.7554 30.2061 77.8954 30.2868C78.1332 30.4241 78.3769 30.5461 78.5616 30.7535C78.5943 30.7905 78.665 30.8081 78.7203 30.8132C79.2119 30.858 79.5094 31.129 79.6044 31.6022C79.6434 31.7973 79.7306 31.9696 79.9676 32.0212C80.0439 32.0376 80.1122 32.088 80.1521 32.1072C80.1956 32.2753 80.2301 32.409 80.2638 32.5392C80.3746 32.5465 80.4476 32.5512 80.5515 32.558C80.7286 32.9352 80.9083 33.3184 81.1043 33.7356C81.1848 33.7788 81.2535 33.7202 81.2812 33.6163C81.3383 33.4021 81.3793 33.1839 81.4355 32.9695C81.4714 32.832 81.5263 32.6993 81.5666 32.563C81.6351 32.3316 81.6991 32.0989 81.7638 31.8664C81.7731 31.8326 81.7678 31.7934 81.7832 31.763C81.9573 31.4175 82.1074 31.0573 82.3186 30.7336C82.485 30.4786 82.6699 30.2061 82.9899 30.095C83.2125 30.018 83.4415 29.9608 83.6897 30.033C83.805 30.0666 83.9488 30.0614 84.0657 30.0283C84.3121 29.9578 84.4972 30.0548 84.6544 30.2036C84.85 30.389 85.0828 30.4506 85.3429 30.4647C85.3933 30.4675 85.4557 30.4679 85.4909 30.4951C85.6627 30.6283 85.8248 30.7725 85.9947 30.908C86.1243 31.0112 86.2626 31.1041 86.3928 31.2062C86.5471 31.3274 86.7133 31.44 86.8451 31.5815C87.0179 31.7669 87.1582 31.9796 87.3201 32.1749C87.4006 32.272 87.5148 32.3461 87.5839 32.4491C87.6626 32.5666 87.7059 32.7053 87.7686 32.8331C87.7964 32.8903 87.8243 32.9521 87.8685 32.9969C88.048 33.1786 88.1481 33.3978 88.2123 33.6354C88.2612 33.8159 88.2859 34.0059 88.3611 34.1755C88.4568 34.3908 88.5926 34.5897 88.7108 34.7958C88.7643 34.8892 88.8176 34.9829 88.8709 35.0762C88.9068 35.139 88.9264 35.2237 88.9811 35.261C89.2893 35.4701 89.3954 35.8486 89.7351 36.0427C89.9378 36.1587 90.0863 36.3696 90.2411 36.552C90.2968 36.6177 90.3176 36.7243 90.3218 36.8138C90.3274 36.9309 90.3715 37.0107 90.4581 37.0927C90.5787 37.2066 90.6744 37.3444 90.7852 37.4684C90.8271 37.5153 90.882 37.5512 90.9433 37.6026C90.9007 37.6471 90.8586 37.6912 90.7955 37.7571C90.8461 37.7893 90.8923 37.8154 90.9346 37.846C91.0749 37.9474 91.219 38.0448 91.3517 38.1549C91.4346 38.2236 91.4955 38.3263 91.3985 38.4165C91.3376 38.473 91.2355 38.4884 91.1278 38.5323C91.1202 38.6877 91.1436 38.8617 91.3472 38.9876C91.4273 39.037 91.4665 39.1592 91.5055 39.2556C91.5858 39.4531 91.6213 39.6679 91.8512 39.7841C91.9237 39.8207 91.9531 39.9363 92.0022 40.0155C92.1173 40.2015 92.2444 40.3751 92.4973 40.4408C92.4464 40.6947 92.6159 40.8621 92.7954 41.0143C93.1402 41.3067 93.2977 41.6481 93.1458 42.0865C93.1433 42.0934 93.1382 42.1009 93.1395 42.1071C93.1888 42.337 93.2343 42.5677 93.2928 42.7955C93.3023 42.8327 93.3648 42.8689 93.4105 42.8843C93.6859 42.9768 93.9598 42.9852 94.2318 42.8638C94.4136 42.7827 94.4729 42.8017 94.5641 42.949C94.679 43.1346 94.6687 43.2863 94.5282 43.3827C94.4129 43.4617 94.2892 43.5291 94.1745 43.6091C94.0441 43.7003 93.9114 43.7915 93.7943 43.8975C93.4841 44.1777 92.8499 44.1383 92.5673 43.9709C92.3499 43.8423 92.142 43.7095 91.9852 43.5083C91.735 43.1872 91.3639 43.0205 91.0093 42.8355C90.9061 42.7816 90.8084 42.788 90.7353 42.8809C90.7667 43.0746 90.768 43.2728 90.8363 43.4471C90.8992 43.6083 91.0223 43.7528 91.1398 43.8878C91.2395 44.0026 91.3784 44.0852 91.4828 44.197C91.5711 44.2914 91.632 44.4091 91.7103 44.5129C91.8131 44.6495 91.9052 44.7987 92.0307 44.9134C92.1946 45.0635 92.2138 45.1151 92.0666 45.2842C91.8833 45.4948 91.8496 45.8634 91.9872 46.1023C92.0116 46.1443 92.0211 46.1959 92.029 46.2442C92.0477 46.3617 92.0611 46.4799 92.0557 46.5998C92.0655 46.7368 92.0617 46.8764 92.088 47.0106C92.1266 47.2064 92.0765 47.3081 91.8323 47.4002C91.8035 47.206 91.7756 47.0198 91.7468 46.8263C91.5932 46.8273 91.5203 46.9134 91.5089 47.0487C91.494 47.2259 91.4705 47.4004 91.6046 47.5618C91.7167 47.6968 91.6023 48.0167 91.4357 48.0974C91.3722 48.128 91.3093 48.1596 91.258 48.1849C91.258 48.2262 91.2515 48.2466 91.2589 48.2536C91.4355 48.4212 91.4168 48.5741 91.2665 48.7605C91.1168 48.9459 91.012 49.1644 90.8849 49.3667C90.8544 49.4151 90.8222 49.4725 90.7747 49.4992C90.5754 49.6116 90.4873 49.8023 90.3731 49.9794C90.2801 50.1237 90.1563 50.2495 90.0455 50.3831C89.9347 50.5165 89.8225 50.6487 89.7123 50.7827C89.694 50.8048 89.6893 50.8382 89.6691 50.8577C89.37 51.1447 89.0685 51.4299 88.7694 51.7169C88.6822 51.8008 88.6071 51.8972 88.515 51.9755C88.2235 52.223 88.0148 52.5423 87.6385 52.7234C87.393 52.8416 87.1281 53.0173 86.9856 53.2918C86.9024 53.4519 86.5264 53.5281 86.3565 53.4647C86.2849 53.438 86.1874 53.4532 86.108 53.4729C85.9934 53.5015 85.8841 53.5679 85.7847 53.4425C85.6923 53.67 85.6872 53.6719 85.4544 53.6041C85.4263 53.5959 85.3962 53.5899 85.367 53.5893C85.3458 53.5889 85.3241 53.5991 85.2871 53.6088C85.2561 53.7897 85.2242 53.9757 85.1894 54.1778C85.1196 54.1602 85.0737 54.1589 85.0402 54.1386C84.8621 54.0309 84.8177 54.0311 84.6714 54.1602C84.6107 54.2135 84.5628 54.2884 84.4928 54.3218C84.3913 54.37 84.2606 54.4374 84.1674 54.4119C83.898 54.3383 83.6991 54.4419 83.5206 54.5986C83.3454 54.7525 83.1366 54.794 82.9219 54.7769C82.8289 54.7694 82.7439 54.6667 82.6375 54.5952C82.2961 54.8244 81.8608 54.7195 81.4745 54.8555C81.4694 54.8418 81.464 54.8281 81.4589 54.8144C81.3945 54.8929 81.334 54.9749 81.2645 55.0492C81.1902 55.1286 81.1052 55.1768 80.989 55.1108C80.752 54.9758 80.6191 55.0008 80.4641 55.2031C80.2834 55.4388 80.2509 55.4441 80.0482 55.2371C79.9797 55.1671 79.915 55.1297 79.8138 55.1569C79.6572 55.1988 79.4984 55.2607 79.3646 55.1299C79.1889 55.3009 79.0023 55.3534 78.8049 55.2877C78.7745 55.2162 78.7357 55.1466 78.7163 55.0725C78.6987 55.0049 78.7021 54.9321 78.6951 54.8508C78.4017 54.8264 78.465 55.1031 78.3386 55.2363C78.246 55.1905 78.1555 55.144 78.0631 55.1008C77.99 55.0665 77.9168 55.0158 77.8403 55.009C77.7161 54.9978 77.6318 54.9499 77.5636 54.8531C77.5359 54.8139 77.4844 54.7639 77.4434 54.7636C77.1289 54.7611 76.9722 54.4894 76.7211 54.3777C76.614 54.3302 76.5255 54.2039 76.472 54.0938C76.2737 53.6861 76.0986 53.2678 75.9022 52.8589C75.8571 52.7652 75.769 52.686 75.6874 52.6143C75.5119 52.4599 75.3292 52.3126 75.145 52.1679C75.108 52.1388 75.0514 52.1264 75.0019 52.1202C74.9356 52.1119 74.8674 52.1159 74.8 52.1168C74.5804 52.1196 74.3371 52.0637 74.2374 52.3672C74.2211 52.3557 74.2051 52.3441 74.1888 52.3328C74.1792 52.2486 74.1696 52.1643 74.1613 52.0907C74.4479 51.929 74.5063 51.7126 74.3944 51.2931C74.2858 51.2545 74.1761 51.2122 74.0641 51.1766C73.8489 51.1083 73.6419 51.0732 73.4731 51.2792C73.4098 51.3564 73.3197 51.3825 73.2109 51.338C73.1375 51.3078 73.0532 51.3025 72.9705 51.2854C72.8619 51.0512 72.7512 50.8127 72.6446 50.583C72.4747 50.5749 72.3384 50.5683 72.1707 50.5603C72.0853 50.6723 72.0229 50.8189 72.0702 50.991C72.1041 51.115 72.0637 51.2002 71.9121 51.2796C71.8565 51.2244 71.7914 51.1651 71.7334 51.0998C71.7102 51.0737 71.7053 51.0336 71.6882 51.0019C71.5537 50.7504 71.4642 50.7138 71.1462 50.7915C70.8804 50.6207 70.733 50.3576 70.6677 50.0597C70.6277 49.8781 70.5972 49.693 70.6864 49.4941C70.7836 49.2775 70.628 49.0816 70.5111 48.8975C70.4879 48.8609 70.4578 48.8284 70.431 48.7939H70.6828C70.7198 48.473 70.7105 48.4514 70.5171 48.3795C70.3309 48.4887 70.413 48.6488 70.4346 48.7973L70.4342 48.7958ZM85.1549 45.2364C85.1977 45.1065 85.243 45.0166 85.2555 44.9224C85.2911 44.6559 85.4182 44.4354 85.5917 44.2318C85.7487 44.0478 85.8875 44.0052 86.1252 44.0822C86.3825 44.1657 86.4526 44.1297 86.466 43.8673C86.4838 43.5156 86.6919 43.3163 87.0134 43.2144C87.1548 43.1695 87.2376 43.0939 87.3069 42.9744C87.4943 42.6516 87.788 42.4718 88.168 42.4215C88.3091 42.4029 88.4229 42.4215 88.5105 42.5596C88.6051 42.7088 88.7045 42.7013 88.8341 42.5701C89.07 42.331 89.0118 42.0658 88.7019 41.9114C88.5852 41.8534 88.4523 41.7834 88.3859 41.6828C88.1664 41.3512 87.9418 41.0171 87.8917 40.6104C87.8843 40.5504 87.8531 40.4774 87.8069 40.4406C87.5487 40.2351 87.298 40.0146 87.015 39.8451C86.6252 39.6116 86.449 39.2412 86.2942 38.8685C86.185 38.605 86.0683 38.3561 85.8895 38.132C85.7818 37.9971 85.6553 37.953 85.4778 37.9926C85.2173 38.0508 85.1518 38.0159 85.0128 37.8055C84.8369 37.539 84.4446 37.499 84.2405 37.7439C84.123 37.8849 83.9847 37.9543 83.8086 37.984C83.6268 38.0147 83.4636 38.0795 83.3661 38.2458C83.2967 38.364 83.2249 38.4809 83.1522 38.5971C83.0503 38.7596 82.9544 38.7677 82.8193 38.6294C82.758 38.5667 82.6977 38.5023 82.6299 38.4466C82.51 38.3482 82.4069 38.355 82.3001 38.4676C82.2606 38.5094 82.2437 38.5727 82.2009 38.6093C82.1375 38.663 82.0581 38.7423 81.9892 38.739C81.7872 38.7292 81.6755 38.8386 81.5541 38.9617C81.4973 39.0195 81.4116 39.077 81.3338 39.0843C81.1862 39.0982 81.1117 39.1691 81.0414 39.2836C80.9975 39.3549 80.9032 39.4461 80.8365 39.4424C80.7671 39.4388 80.696 39.3376 80.64 39.2684C80.5856 39.201 80.5497 39.1199 80.5055 39.0447L80.4114 39.0098C80.3749 39.0723 80.3477 39.143 80.2993 39.1952C80.2413 39.2575 80.1728 39.3234 80.0945 39.3532C79.9654 39.4024 79.8622 39.463 79.7779 39.5758C79.661 39.7319 79.552 39.7276 79.4123 39.5925C79.3492 39.5313 79.2797 39.4754 79.2237 39.4088C79.1222 39.2881 78.9911 39.2282 78.8348 39.2232C78.614 39.2162 78.4282 39.1445 78.285 38.9794C78.2097 38.8927 78.1149 38.8593 78.0049 38.9088C77.8464 38.9801 77.7081 38.9413 77.5567 38.8737C77.3007 38.7592 77.0384 38.653 76.7697 38.5708C76.583 38.5136 76.4815 38.5922 76.4563 38.7714C76.4303 38.9559 76.4193 39.1425 76.3914 39.3269C76.3778 39.417 76.3538 39.5101 76.3114 39.5908C76.2309 39.7443 76.1305 39.7588 75.9878 39.658C75.934 39.6199 75.8754 39.5882 75.7864 39.5336C75.7791 39.917 75.8841 40.2824 75.5643 40.5549C75.4292 40.4926 75.3177 40.4413 75.1729 40.3745C75.1256 40.513 75.081 40.6238 75.0509 40.7384C75.0157 40.8722 74.9524 40.9852 74.8116 41.0284C74.5748 41.101 74.4805 41.2727 74.414 41.4835C74.3741 41.6102 74.3096 41.7353 74.2311 41.8442C74.0871 42.0444 73.9163 42.2269 73.7713 42.4267C73.5224 42.7696 73.3699 43.1416 73.3897 43.5736C73.3951 43.6913 73.3451 43.8463 73.261 43.9262C73.0592 44.118 73.0024 44.3569 72.9435 44.6011C72.852 44.9804 73.0233 45.1544 73.4227 45.0718C73.6498 45.0249 73.8337 45.0787 74.0048 45.2161C74.0906 45.285 74.1854 45.3441 74.2711 45.4132C74.3647 45.489 74.4582 45.4954 74.5579 45.4299C74.6194 45.3895 74.6816 45.3495 74.7407 45.306C74.951 45.1512 75.0418 45.163 75.2006 45.3711C75.2313 45.4113 75.2574 45.4548 75.2833 45.4982C75.3854 45.6693 75.4693 45.692 75.67 45.6412C75.8312 45.6005 75.9994 45.5847 76.18 45.5556C76.2603 45.7814 76.3252 45.9709 76.3948 46.1584C76.4811 46.3906 76.5413 46.4317 76.7697 46.3367C76.9666 46.2547 77.087 46.3119 77.2195 46.4469C77.3549 46.5848 77.5141 46.701 77.6497 46.8158C78.0096 46.6372 77.9559 46.6353 78.2418 46.9215C78.2982 46.978 78.3339 47.053 78.3878 47.112C78.5158 47.2529 78.5892 47.2602 78.7549 47.1596C78.9599 47.0352 79.1211 47.0459 79.304 47.1977C79.3379 47.2257 79.3677 47.2585 79.4008 47.2876C79.6797 47.5335 79.9208 47.5748 80.254 47.4017C80.4063 47.3225 80.5154 47.3554 80.6088 47.4642C80.7772 47.6598 80.925 47.8668 80.9411 48.1355C80.9502 48.2855 80.9712 48.4354 80.9951 48.5839C81.0156 48.7111 81.0767 48.8187 81.2167 48.92C81.2426 48.8123 81.2682 48.7318 81.2803 48.6498C81.3137 48.4229 81.332 48.1935 81.3746 47.9683C81.4128 47.7668 81.5124 47.7165 81.7107 47.7906C81.8193 47.8311 81.9172 47.8976 82.0448 47.9657C82.0764 47.8771 82.1159 47.8011 82.1293 47.721C82.1603 47.5369 82.1728 47.3501 82.2047 47.1662C82.2187 47.0855 82.2386 46.9851 82.2954 46.9354C82.5269 46.7327 82.7952 46.6229 83.1183 46.7105C83.1656 46.7233 83.2171 46.7205 83.2718 46.7254C83.3063 46.6415 83.3329 46.5672 83.3674 46.4966C83.4022 46.4251 83.4459 46.3577 83.4839 46.2877C83.5351 46.1933 83.6036 46.1353 83.7238 46.1199C83.9718 46.0882 84.032 46.0205 84.0853 45.7801C84.1159 45.6421 84.1547 45.5055 84.1837 45.3916C84.3398 45.3458 84.4834 45.3394 84.5739 45.2696C84.7546 45.1307 84.9214 45.0472 85.1544 45.2373L85.1549 45.2364ZM69.8595 44.7539C70.2484 44.8528 70.2479 44.4688 70.4745 44.3924C70.3099 44.2946 70.1623 44.2068 69.9864 44.1021C69.8566 44.3068 69.8563 44.5232 69.8597 44.7537L69.8595 44.7539ZM70.5254 44.1961C70.7526 44.1886 70.8601 44.0495 70.8804 43.7365C70.5352 43.7175 70.4072 43.8831 70.5254 44.1961ZM80.6675 50.3394C80.7964 50.2198 80.8024 50.1292 80.6918 49.9738C80.5029 50.0622 80.4971 50.1502 80.6675 50.3394ZM90.5707 43.1177C90.5114 42.9051 90.4871 42.8955 90.3091 43.0053C90.3483 43.1292 90.4291 43.1645 90.5707 43.1177ZM82.0682 50.4925C82.008 50.6091 81.9834 50.711 82.1121 50.8024C82.233 50.649 82.2279 50.6113 82.0682 50.4925ZM91.6086 46.4063C91.599 46.427 91.5894 46.4478 91.5796 46.4686L91.665 46.6492C91.684 46.6516 91.7029 46.6539 91.7219 46.6563C91.7424 46.585 91.7627 46.5135 91.7832 46.4422C91.725 46.4302 91.6668 46.4183 91.6086 46.4063ZM71.7397 45.3351C71.908 45.3203 71.9636 45.2784 71.9107 45.1093C71.8456 45.1953 71.8055 45.2482 71.7397 45.3351ZM71.3806 44.5865C71.3547 44.575 71.3289 44.5632 71.303 44.5516C71.2722 44.6135 71.2415 44.6754 71.2107 44.7372C71.2328 44.7477 71.2548 44.7582 71.2769 44.7689L71.3806 44.5865ZM70.1376 48C70.1271 47.9923 70.1164 47.9843 70.1059 47.9766C70.0994 47.9871 70.0863 47.9995 70.0885 48.0074C70.0914 48.0173 70.1077 48.0235 70.1182 48.0312C70.1246 48.0209 70.1311 48.0102 70.1376 48ZM89.577 49.9661C89.5698 49.9573 89.5622 49.9411 89.5555 49.9415C89.5451 49.9419 89.535 49.9537 89.5248 49.9605C89.5319 49.9691 89.5393 49.9849 89.546 49.9845C89.5567 49.9841 89.5667 49.9727 89.577 49.9661ZM82.053 49.1326C82.0532 49.1377 82.0537 49.143 82.0539 49.1482C82.0622 49.1454 82.0704 49.1424 82.0787 49.1396C82.0753 49.1356 82.0729 49.1287 82.0686 49.1278C82.0642 49.1268 82.0581 49.1306 82.053 49.1326ZM93.1139 42.8154C93.119 42.813 93.1268 42.8118 93.1286 42.8077C93.1304 42.8038 93.1266 42.7974 93.1251 42.7921C93.1172 42.7963 93.1092 42.8006 93.1014 42.8049C93.1054 42.8083 93.1099 42.812 93.1139 42.8154ZM90.0466 42.7762C90.0421 42.7762 90.0377 42.7758 90.033 42.7756C90.0321 42.7929 90.0312 42.8103 90.0303 42.8276C90.035 42.8276 90.0395 42.828 90.0442 42.8282C90.0451 42.8109 90.0457 42.7936 90.0466 42.7762ZM70.8064 43.5854C70.8057 43.5792 70.8053 43.5727 70.8046 43.5665C70.7948 43.57 70.7847 43.5734 70.7749 43.5768C70.7789 43.5817 70.7823 43.5897 70.7872 43.5912C70.7925 43.5927 70.7997 43.5877 70.8061 43.5856L70.8064 43.5854ZM86.2438 53.103C86.2507 53.1104 86.257 53.1188 86.2652 53.1248C86.267 53.1261 86.28 53.1192 86.2802 53.1156C86.2809 53.106 86.2775 53.0963 86.2757 53.0865C86.265 53.0918 86.2545 53.0974 86.2438 53.103Z" fill="#95989D"/>
<path d="M60.7474 42.3413C60.8313 42.3616 60.9149 42.3826 60.9987 42.4021C61.1007 42.4256 61.2012 42.4706 61.176 42.5823C61.1635 42.6377 61.075 42.6992 61.0086 42.7182C60.546 42.8514 60.5155 42.897 60.8121 43.2731C61.2543 43.8343 61.7242 44.3753 62.1765 44.9293C62.3747 45.1722 62.5736 45.4169 62.7449 45.6774C63.0408 46.1278 63.4148 46.5007 63.8539 46.8222C64.3263 47.1681 64.7348 47.5781 65.0997 48.0276C65.1677 48.1115 65.2297 48.2063 65.2652 48.3057C65.2846 48.3602 65.2647 48.4634 65.223 48.4925C65.1813 48.5216 65.0743 48.5079 65.0245 48.4741C64.9416 48.4176 64.8796 48.3313 64.8118 48.2553C64.4226 47.8197 64.0377 47.3807 63.643 46.9498C63.5558 46.8545 63.4412 46.7783 63.3281 46.7105C63.2304 46.6518 63.1084 46.6242 63.0197 46.7233C62.9302 46.8231 62.9954 46.9275 63.0524 47.0202C63.0783 47.0622 63.1231 47.0934 63.1604 47.1287C63.5866 47.5314 64.0188 47.9283 64.4349 48.3403C64.5283 48.4328 64.5892 48.5719 64.6236 48.6997C64.6889 48.9436 64.8417 49.1022 65.0673 49.2096C65.1209 49.2351 65.1733 49.2649 65.2295 49.2835C65.5843 49.3997 65.8169 49.6258 65.9676 49.9584C66.0388 50.1153 66.1686 50.2677 66.3117 50.3711C66.9219 50.8119 67.4458 51.3284 67.8815 51.9286C67.9897 52.0776 68.1224 52.1684 68.3213 52.1885C68.5934 52.2159 68.6502 52.3694 68.4792 52.568C68.4364 52.6179 68.3927 52.6671 68.3469 52.7145C68.1297 52.9388 68.0481 52.9523 67.6986 52.7823C67.652 52.845 67.6007 52.9339 67.5301 53.0049C67.3496 53.1867 67.2299 53.2017 67.0225 53.0458C66.6993 52.8031 66.3878 52.5462 66.0475 52.3159C66.297 52.5642 66.5408 52.8183 66.7981 53.0591C66.979 53.2282 67.1233 53.4161 67.2031 53.645C67.2633 53.8173 67.3148 54.0029 67.1628 54.1523C66.9977 54.3143 66.7935 54.324 66.582 54.2309C66.562 54.2221 66.5401 54.2169 66.5194 54.2103C66.3066 54.5727 66.0053 54.6472 65.6791 54.373C65.411 54.1478 65.1568 53.8935 64.9534 53.6139C64.4398 52.9075 63.9469 52.1868 63.4672 51.4586C62.8872 50.5777 62.3034 49.7011 61.6031 48.9007C60.9066 48.1044 60.3939 47.1919 59.8299 46.3108C59.2461 45.3985 58.5985 44.5268 57.8338 43.7425C57.7252 43.6312 57.5876 43.5456 57.4315 43.4231C57.4315 43.8367 57.4109 44.1998 57.4357 44.56C57.4901 45.3548 57.5809 46.1475 57.6317 46.9425C57.7049 48.0875 57.8828 49.2101 58.3008 50.2906C58.3657 50.4582 58.4169 50.6316 58.4609 50.8057C58.4852 50.9018 58.4952 51.0052 58.4881 51.1036C58.4696 51.3624 58.233 51.547 57.9647 51.5191C57.8842 51.5108 57.805 51.4892 57.7637 51.4812C57.5867 51.6045 57.4341 51.7109 57.2455 51.8424C57.2455 51.9211 57.2406 52.0558 57.2464 52.1898C57.2707 52.7491 57.3008 53.3083 57.322 53.8676C57.326 53.9736 57.3115 54.0832 57.2861 54.1868C57.185 54.5973 56.8938 54.6977 56.5307 54.4381C56.5017 54.5027 56.4785 54.5676 56.4449 54.6269C56.2972 54.8855 55.9518 54.9013 55.7832 54.6532C55.6378 54.4396 55.6166 54.1934 55.6257 53.9479C55.6409 53.5471 55.669 53.1469 55.6902 52.772C55.4768 52.7147 55.2819 52.6624 55.0738 52.6066C55.0696 52.6179 55.0528 52.6633 55.0363 52.7087C54.9884 52.8399 54.9427 52.9709 54.76 52.9762C54.578 52.9818 54.3593 52.8737 54.3093 52.7145C54.2605 52.5586 54.2308 52.3916 54.2279 52.2292C54.223 51.9425 54.2571 51.6553 54.2531 51.3684C54.2362 50.1768 54.2119 48.9853 54.1889 47.7938C54.1784 47.2553 54.1686 46.7165 54.151 46.1779C54.1041 44.7353 54.0529 43.293 54.0042 41.8506C53.9634 40.6378 53.9268 39.4247 53.8827 38.2118C53.8376 36.9703 53.7922 35.7289 53.7304 34.488C53.7197 34.2716 53.655 34.0477 53.5669 33.8467C53.296 33.2281 53.3832 32.7963 53.9237 32.3722C54.1015 32.2329 54.3031 32.1119 54.512 32.021C55.6773 31.5128 56.8998 31.273 58.1832 31.2354C60.393 31.1703 62.2115 31.9867 63.7853 33.4072C63.9813 33.5843 64.1804 33.7611 64.3539 33.9574C64.7056 34.3551 65.1108 34.683 65.5689 34.966C66.1117 35.3012 66.5936 35.7133 67.0053 36.1945C67.1095 36.3163 67.2013 36.448 67.2937 36.5788C67.6045 37.0193 67.6728 37.5016 67.5758 38.0196C67.4848 38.504 67.3499 38.972 67.0762 39.3919C67.0029 39.5043 66.8987 39.6039 66.7901 39.6869C66.7455 39.721 66.6324 39.7218 66.586 39.6899C66.5406 39.6587 66.5091 39.5581 66.5261 39.5033C66.5767 39.3393 66.6541 39.1828 66.7205 39.0233C66.8256 38.7705 66.9467 38.5226 67.0316 38.2636C67.2129 37.7101 67.1333 37.1888 66.7821 36.708C66.4881 36.3056 66.1507 35.9426 65.7549 35.6307C65.6974 35.5853 65.6333 35.5472 65.5702 35.5089C65.5466 35.4945 65.5167 35.4898 65.4862 35.4793C65.3996 35.6144 65.4763 35.6895 65.5653 35.7775C65.8512 36.0603 66.1467 36.3371 66.4045 36.6425C66.783 37.0912 66.9491 37.6056 66.8418 38.1923C66.7466 38.7134 66.6043 39.216 66.3086 39.6674C66.2464 39.7625 66.1614 39.8505 66.0682 39.9172C66.0194 39.9521 65.9117 39.9616 65.8635 39.9324C65.8191 39.9055 65.7901 39.8047 65.8048 39.7486C65.8408 39.6107 65.9027 39.4786 65.9596 39.3463C66.0622 39.1077 66.1831 38.8752 66.2709 38.6316C66.4875 38.0312 66.4409 37.4579 66.0359 36.9341C65.9175 36.7808 65.7961 36.6299 65.6759 36.4779L65.6247 36.5028C65.6481 36.6032 65.6873 36.7031 65.6913 36.8044C65.6971 36.9508 65.7234 37.1199 65.6608 37.2415C65.4072 37.7343 65.2348 38.2514 65.0919 38.7797C64.996 39.1344 64.8256 39.4461 64.56 39.7128C63.9603 40.3154 63.3769 40.9347 62.6555 41.4108C62.1412 41.75 61.6 42.0362 60.99 42.1878C60.9062 42.2086 60.827 42.2462 60.7456 42.276C60.7461 42.298 60.7465 42.3201 60.747 42.3421L60.7474 42.3413ZM63.4244 48.3641C63.4131 48.3551 63.4019 48.3463 63.4175 48.3585C63.3979 48.3555 63.4126 48.3579 63.4276 48.36C63.672 48.5574 63.8399 48.7971 63.9193 49.1002C63.9534 49.2304 64.0455 49.3464 64.2522 49.3978C64.1465 49.1647 64.0758 48.9613 63.9661 48.7794C63.8459 48.5796 63.6758 48.4172 63.4244 48.3641ZM64.1907 51.2062C64.2056 51.2368 64.2206 51.2674 64.2355 51.298C64.2505 51.2862 64.2656 51.2747 64.2806 51.2629L64.1867 51.2094C64.1769 51.1828 64.172 51.1531 64.1564 51.13C63.802 50.6077 63.4541 50.0815 63.0884 49.5667C62.9024 49.3049 62.6838 49.0645 62.4798 48.8143C62.4668 48.8226 62.4539 48.8312 62.441 48.8395C62.474 48.8913 62.5038 48.9451 62.5404 48.9945C62.6785 49.1814 62.8216 49.3648 62.9577 49.5532C63.3192 50.0539 63.6771 50.5569 64.0393 51.057C64.0801 51.1133 64.1396 51.1567 64.1907 51.2062ZM57.5978 41.5546C57.6808 41.463 57.7522 41.3808 57.8273 41.3018C57.9807 41.1404 58.1009 41.1192 58.2727 41.2611C58.4676 41.4223 58.6701 41.4135 58.8772 41.3198C59.0864 41.2249 59.2907 41.1175 59.4878 41.001C60.4401 40.4393 61.2887 39.764 61.9419 38.884C62.3339 38.3557 62.6332 37.7809 62.655 37.121C62.6925 35.9877 62.1988 35.1054 61.2044 34.4932C60.5135 34.0678 59.7365 33.8938 58.9285 33.8375C58.6551 33.8184 58.379 33.8345 58.057 33.8345C58.0227 34.0263 57.962 34.2269 57.9553 34.4292C57.9377 34.9532 57.9596 35.4785 57.9346 36.0021C57.9201 36.3075 57.8824 36.6211 57.7901 36.912C57.6609 37.3183 57.6473 37.7092 57.7493 38.1191C57.8193 38.4006 57.8175 38.6825 57.6509 38.9529C57.5793 39.0691 57.5642 39.2235 57.5472 39.3633C57.4997 39.7543 57.4689 40.1474 57.4234 40.5387C57.3898 40.8283 57.3436 41.1164 57.3046 41.3938C57.4176 41.4559 57.4948 41.4985 57.5976 41.555L57.5978 41.5546ZM60.0692 32.5272C58.8217 32.0291 57.5751 31.9711 56.295 32.2348C56.3534 32.2967 56.4174 32.3459 56.4888 32.3594C56.6271 32.3857 56.7693 32.4016 56.9105 32.405C57.6422 32.4223 58.3741 32.4288 59.1054 32.4508C59.4149 32.4602 59.7238 32.499 60.0692 32.5272ZM62.2565 40.3749C61.7719 40.739 61.2235 40.9818 60.6749 41.2256C60.4999 41.3035 60.3284 41.3936 60.1694 41.4981C60.0521 41.5752 59.949 41.6798 59.9354 41.8971C60.5565 41.5696 61.143 41.2755 61.7122 40.9531C61.9465 40.8204 62.1321 40.6168 62.2565 40.3749ZM56.0595 33.6532C56.0392 33.9295 56.0209 34.1781 56.0002 34.4602C56.417 34.1744 56.444 33.8443 56.0595 33.6532ZM54.8138 44.2725C54.8178 44.2725 54.822 44.2725 54.826 44.2725V43.8361C54.822 43.8361 54.8178 43.8361 54.8138 43.8361V44.2725ZM54.8245 44.4727C54.8231 44.4727 54.8218 44.4727 54.8205 44.4727V44.5337C54.8218 44.5337 54.8231 44.5337 54.8245 44.5337V44.4727ZM54.8686 45.044L54.8579 45.0464C54.8599 45.0656 54.8619 45.0849 54.8686 45.15V45.044ZM54.8557 45.4156C54.8597 45.416 54.8635 45.4165 54.8675 45.4169C54.8695 45.4002 54.872 45.3835 54.8731 45.3668C54.8731 45.3642 54.8664 45.3615 54.8626 45.3587L54.8557 45.4156Z" fill="#95989D"/>
<path d="M35.0386 51.9755C35.2217 51.8903 35.4046 51.8051 35.6178 51.7058C35.6013 51.5001 35.5828 51.259 35.562 51.0182C35.5003 50.2988 35.5324 49.5804 35.6497 48.8703C35.8056 47.9278 35.9971 46.9907 36.176 46.0518C36.2184 45.8294 36.2079 45.8003 35.9728 45.726C35.7313 45.6496 35.4844 45.5886 35.2451 45.507C34.9666 45.4122 34.7396 45.2572 34.6553 44.9633C34.5852 44.719 34.6615 44.5375 34.8999 44.4286C35.0134 44.3768 35.1408 44.3532 35.2599 44.3115C35.4233 44.2545 35.5848 44.1925 35.792 44.1162C35.6965 44.0051 35.6423 43.9313 35.5767 43.8688C35.5081 43.8033 35.4224 43.7543 35.3544 43.6883C35.1613 43.5012 35.157 43.3257 35.3807 43.1855C35.7855 42.9321 35.8932 42.551 35.9296 42.1308C35.9443 41.9592 35.949 41.7864 35.9501 41.6141C35.961 39.926 35.9704 38.2377 35.9795 36.5496C35.9797 36.4923 35.9795 36.4342 35.9708 36.3775C35.9427 36.1906 35.8796 36.1247 35.6798 36.1149C35.4184 36.1018 35.1557 36.0954 34.8943 36.1052C34.2211 36.1309 34.0148 35.6882 34.0003 35.2072C33.9929 34.9602 34.1272 34.8224 34.3836 34.7817C34.4722 34.7678 34.5627 34.7661 34.651 34.7515C34.7001 34.7434 34.7659 34.7342 34.7911 34.7016C34.9365 34.5135 35.1439 34.5051 35.3566 34.5047C35.4826 34.5045 35.6086 34.5047 35.7621 34.5047C35.7056 34.1605 35.6918 33.8355 35.3647 33.633C35.2581 33.5671 35.1548 33.4937 35.0614 33.4117C34.914 33.2822 34.8892 33.133 34.9887 32.9647C35.1533 32.6863 35.3959 32.5152 35.736 32.4743C35.8341 32.4626 35.9374 32.4262 36.0205 32.3748C36.4124 32.1335 36.7306 32.14 37.0881 32.4281C37.2636 32.5698 37.4509 32.6312 37.6815 32.6355C37.9998 32.6415 38.3173 32.6835 38.6666 32.7128C38.692 32.6621 38.7301 32.5871 38.7676 32.5116C38.8285 32.3885 38.8775 32.2586 38.9516 32.1434C39.1318 31.8632 39.324 31.7949 39.6752 31.881C39.7375 31.8163 39.7981 31.7313 39.8795 31.6733C40.1447 31.4845 40.4103 31.5502 40.5296 31.8431C40.6023 32.022 40.6369 32.2151 40.6897 32.4016C40.7593 32.6475 40.7767 32.6717 41.0416 32.6696C41.9243 32.6621 42.807 32.6449 43.6899 32.633C44.3859 32.6235 45.0819 32.618 45.7779 32.6075C46.3763 32.5985 46.9746 32.5869 47.5727 32.5722C47.6441 32.5704 47.7273 32.5576 47.7835 32.5201C48.0172 32.3641 48.2687 32.4067 48.5196 32.4437C48.6603 32.4645 48.7433 32.5621 48.7805 32.6848C48.8434 32.8909 48.9028 33.0992 48.9451 33.3098C48.9804 33.4843 48.9036 33.5866 48.7214 33.6215C48.5682 33.6508 48.4106 33.6602 48.2293 33.6812C48.1229 33.8794 47.907 33.8998 47.6869 33.8908C47.4106 33.8794 47.1341 33.8619 46.8595 33.8313C46.0411 33.7401 45.2289 33.8188 44.4216 33.9295C43.1038 34.11 41.7896 34.3153 40.4738 34.5103C40.4228 34.5178 40.3724 34.5291 40.3077 34.5413C40.3556 34.7134 40.4921 34.6941 40.6099 34.6834C40.915 34.6552 41.2187 34.6158 41.5233 34.5828C42.3926 34.4886 43.2617 34.3921 44.1314 34.3026C44.9566 34.2176 45.7822 34.1329 46.6089 34.0622C47.0477 34.0248 47.4893 34.001 47.9298 34.0006C48.5428 34.0002 48.6632 34.5118 48.5807 34.9088C48.5343 35.1323 48.345 35.2156 48.1329 35.2387C47.9476 35.259 47.7786 35.276 47.6191 35.4031C47.5228 35.4797 47.3522 35.4881 47.213 35.4952C45.5471 35.5791 43.8808 35.6548 42.2149 35.7375C41.6324 35.7664 41.0503 35.8079 40.4683 35.8449C40.4167 35.8481 40.3661 35.8606 40.2821 35.8738C40.2473 36.0348 40.2149 36.2013 40.1739 36.366C40.1552 36.4411 40.1398 36.54 40.0849 36.5783C40.0173 36.6256 39.9038 36.6481 39.8231 36.6293C39.7716 36.6173 39.7103 36.5104 39.7118 36.4477C39.7163 36.2861 39.7533 36.1254 39.7798 35.9479C39.5595 36.0027 39.5173 36.1622 39.4712 36.3216C39.301 36.9105 39.2642 37.5048 39.4012 38.1039C39.4529 38.33 39.4357 38.5487 39.3409 38.7574C39.188 39.0935 39.1572 39.4491 39.1271 39.8078C39.1075 40.0429 39.0586 40.2754 39.0261 40.5095C39.0087 40.6341 38.9982 40.7593 38.981 40.9184C39.1706 40.8916 39.3193 40.8707 39.4607 40.8507C39.5869 41.083 39.5711 41.1329 39.3557 41.2356C39.1917 41.3138 39.1168 41.448 39.1311 41.6383C39.2076 41.6488 39.2921 41.6742 39.3748 41.6695C39.8751 41.6413 40.375 41.6094 40.8746 41.5721C41.5231 41.5238 42.171 41.466 42.8197 41.4184C43.7889 41.3474 44.7579 41.2637 45.7286 41.2206C46.3243 41.1941 46.9238 41.2209 47.5203 41.2478C47.8383 41.2622 48.0671 41.4152 48.13 41.7483C48.1601 41.9076 48.2721 42.0251 48.413 42.1221C48.7495 42.3537 48.7734 42.5474 48.5506 42.8882C48.4775 42.9999 48.4391 43.1361 48.4028 43.2656C48.3403 43.4871 48.2741 43.5533 48.0364 43.5695C47.9104 43.5781 47.7832 43.571 47.6383 43.571C47.5725 43.8022 47.3796 43.8024 47.1878 43.8078C46.3727 43.8305 45.5571 43.8429 44.7429 43.881C44.1607 43.9082 43.579 43.9623 42.9988 44.018C42.2026 44.0944 41.4071 44.1781 40.6128 44.2699C40.3012 44.3059 39.9941 44.365 39.731 44.5568C39.4438 44.7663 39.2897 45.0376 39.2651 45.3794C39.258 45.4796 39.256 45.5804 39.2553 45.681C39.2477 46.9093 39.2388 48.1378 39.235 49.3661C39.2343 49.617 39.2475 49.8683 39.2636 50.1189C39.2847 50.4529 39.442 50.6087 39.7925 50.5961C40.2029 50.5813 40.6117 50.5291 41.0216 50.4985C41.9459 50.4291 42.8699 50.3499 43.7954 50.2994C44.6388 50.2536 45.4842 50.2356 46.329 50.2172C46.4893 50.2138 46.6595 50.2435 46.81 50.2973C47.0917 50.3976 47.151 50.6468 46.9628 50.8686C46.794 51.0677 46.587 51.1882 46.3045 51.1781C46.2184 51.1751 46.1187 51.2162 46.0449 51.2648C45.8975 51.362 45.7431 51.4123 45.5643 51.4189C45.1243 51.4348 44.6838 51.45 44.2452 51.4832C43.4548 51.5429 42.6658 51.6178 41.8757 51.6822C41.2724 51.7315 40.6685 51.7747 40.0495 51.8218C40.088 52.0074 39.9687 52.0605 39.8142 52.0838C39.77 52.0904 39.7272 52.1108 39.6833 52.1125C39.4536 52.1213 39.2439 52.1741 39.0838 52.3691C39.1893 52.5076 39.3579 52.4974 39.5133 52.4753C39.7865 52.4366 40.055 52.3694 40.3275 52.3261C40.9763 52.2232 41.6266 52.1292 42.2755 52.0273C42.4 52.0078 42.5262 51.9806 42.6428 51.9359C42.9174 51.831 43.1966 51.8124 43.4782 51.8834C43.8335 51.9729 44.1767 51.9076 44.5193 51.8282C45.3107 51.6446 46.1017 51.459 46.8914 51.2693C47.5027 51.1225 48.1229 51.1424 48.744 51.1653C48.7663 51.1661 48.7886 51.17 48.8106 51.1734C49.2658 51.2419 49.3782 51.4262 49.2228 51.8492C49.1411 52.0714 49.1764 52.1566 49.407 52.2165C49.5423 52.2516 49.6113 52.3238 49.6373 52.4477C49.6625 52.5672 49.6942 52.6857 49.7125 52.8063C49.7497 53.0529 49.6532 53.17 49.3909 53.1965C49.2573 53.21 49.1224 53.2108 48.9761 53.2179C48.8662 53.4232 48.6626 53.4562 48.4458 53.4508C48.1021 53.4425 47.7574 53.4043 47.4155 53.4221C46.9994 53.4439 46.5732 53.4656 46.1738 53.5681C45.5418 53.7304 44.9144 53.7886 44.2648 53.7321C43.9769 53.707 43.6807 53.7327 43.3919 53.7642C43.1993 53.7852 43.0264 53.8877 42.8215 53.905C41.8454 53.9868 40.8704 54.0825 39.8965 54.1857C39.4081 54.2375 38.9085 54.2321 38.4442 54.4286C38.3182 54.4819 38.1808 54.4806 38.0602 54.3916C37.9572 54.3156 37.8577 54.3449 37.7444 54.3845C37.6001 54.4351 37.446 54.4684 37.2933 54.4856C37.1405 54.5025 37.0384 54.4203 36.9973 54.276C36.9699 54.179 36.9371 54.0829 36.9195 53.9842C36.8979 53.8629 36.8272 53.8119 36.7038 53.8123C36.5092 53.8132 36.3138 53.8008 36.1202 53.8136C35.7806 53.8361 35.5275 53.6983 35.3256 53.4512C35.261 53.372 35.1967 53.2922 35.141 53.2072C35.0295 53.0368 34.8818 52.9478 34.664 52.9362C34.3636 52.9204 34.2824 52.8459 34.2574 52.632C34.224 52.346 34.3399 52.1384 34.5926 52.0722C34.7351 52.0348 34.8868 52.0294 35.0342 52.0095C35.0357 51.9984 35.0371 51.9871 35.0384 51.9759L35.0386 51.9755ZM42.4633 43.025C42.5376 42.8199 42.4932 42.7285 42.2751 42.721C41.8509 42.7064 41.4219 42.696 41.0015 42.7411C40.5131 42.7938 40.0336 42.9186 39.547 42.9918C39.1795 43.0472 38.8073 43.0744 38.4364 43.1074C38.1938 43.1288 38.113 43.174 38.0401 43.3874C38.1407 43.4193 38.2402 43.4709 38.3434 43.4786C38.483 43.4893 38.6309 43.4867 38.7658 43.4537C39.0907 43.3743 39.4063 43.2594 39.7321 43.1855C40.2676 43.0644 40.8164 43.0926 41.3616 43.0821C41.7336 43.0751 42.1054 43.0442 42.4633 43.0245V43.025ZM37.4054 48.4512C37.3773 49.1019 37.3613 49.752 37.4846 50.3932C37.502 50.3921 37.5196 50.391 37.537 50.3899C37.4931 49.7437 37.4494 49.0974 37.4054 48.4512Z" fill="#95989D"/>
<path d="M97.404 49.8478C97.4995 49.4695 97.6694 49.3811 98.0233 49.5487C98.2631 49.6622 98.4852 49.8131 98.7066 49.9591C98.9734 50.1348 99.2363 50.2866 99.5793 50.3138C99.8937 50.3386 100.178 50.4912 100.423 50.6882C100.488 50.7397 100.533 50.8136 100.593 50.884C100.425 51.027 100.261 51.0294 100.094 50.9609C99.8955 50.8791 99.7046 50.7791 99.5061 50.6961C99.3859 50.646 99.2579 50.6134 99.1219 50.5946C99.352 50.7793 99.6781 50.8451 99.8554 51.1775C99.6825 51.2096 99.5516 51.234 99.4087 51.2606C99.507 51.3074 99.6051 51.3714 99.7133 51.3993C99.7798 51.4162 99.8901 51.4025 99.931 51.3592C100.048 51.2351 100.155 51.2794 100.271 51.3406C100.492 51.4566 100.507 51.4577 100.663 51.2781C100.739 51.1903 100.8 51.0904 100.87 50.997C100.926 50.9215 100.98 50.8429 101.045 50.7742C101.207 50.6019 101.394 50.5244 101.604 50.6772C101.715 50.5762 101.804 50.4771 101.911 50.4022C102.064 50.2958 102.242 50.318 102.359 50.4379C102.453 50.5351 102.453 50.6924 102.314 50.8232C102.167 50.9628 101.987 51.0709 101.823 51.1946C101.68 51.3023 101.494 51.3676 101.418 51.5724C101.615 51.7347 101.838 51.69 102.054 51.6576C102.141 51.6446 102.22 51.5915 102.306 51.5701C102.514 51.5185 102.724 51.4723 102.934 51.4288C103.029 51.4091 103.126 51.398 103.222 51.3879C103.593 51.3494 103.963 51.2978 104.334 51.279C104.975 51.2464 105.54 51.0309 106.066 50.6899C106.771 50.2322 107.379 49.6902 107.75 48.9395C108.025 48.3855 108.074 47.8112 107.903 47.2187C107.809 46.8905 107.613 46.6737 107.245 46.6276C107.194 46.6212 107.142 46.6062 107.094 46.5872C106.961 46.5343 106.918 46.4348 106.97 46.3093C107.09 46.0197 106.999 45.7376 106.701 45.6168C106.499 45.5353 106.269 45.4843 106.051 45.483C105.732 45.4811 105.409 45.5222 105.093 45.5719C104.915 45.5997 104.757 45.5798 104.629 45.4741C104.056 45.0001 103.351 44.7311 102.728 44.3355C102.516 44.2008 102.245 44.1531 102.004 44.0574C101.785 43.9705 101.571 43.8722 101.354 43.7796C101.185 43.7074 101.022 43.6107 100.846 43.5704C100.595 43.5135 100.402 43.3972 100.275 43.1883C100.114 42.922 99.9017 42.7024 99.6415 42.5279C98.9682 42.0765 98.6139 41.4236 98.3686 40.6992C98.2644 40.3916 98.1333 40.0831 98.2332 39.7546C98.2912 39.5645 98.3703 39.3718 98.4825 39.207C98.7187 38.8596 98.8001 38.5096 98.6623 38.1042C98.573 37.8417 98.6281 37.572 98.7847 37.3385C99.1573 36.7825 99.5249 36.2204 100.169 35.9017C100.273 35.8503 100.365 35.7692 100.447 35.6874C100.568 35.5671 100.53 35.4359 100.358 35.4055C100.266 35.3892 100.146 35.4098 100.065 35.4569C99.598 35.7309 99.2068 36.0791 98.962 36.5608C98.8964 36.6896 98.8226 36.8147 98.7521 36.9414C98.6012 37.2128 98.3469 37.2312 98.164 36.9634C98.0942 37.0685 98.0311 37.1696 97.9618 37.2661C97.8875 37.3697 97.791 37.4237 97.6538 37.3791C97.5193 37.3355 97.4555 37.2361 97.4732 37.1139C97.4961 36.9525 97.5287 36.7862 97.5958 36.6378C97.8141 36.1551 98.1665 35.7638 98.5644 35.41C98.6504 35.3336 98.7573 35.2704 98.8656 35.227C99.1756 35.1028 99.4856 34.9733 99.8065 34.8815C100.08 34.8031 100.269 34.646 100.397 34.4193C100.77 33.7587 101.325 33.2737 102 32.9235C102.344 32.7454 102.727 32.6323 103.099 32.5122C103.236 32.4681 103.396 32.4754 103.545 32.4812C104.026 32.4996 104.481 32.4044 104.915 32.2117C105.488 31.9572 106.079 31.9129 106.689 32.0567C107.252 32.1894 107.62 32.5223 107.803 33.0476C107.818 33.0883 107.83 33.1296 107.846 33.1698C107.851 33.1825 107.864 33.1919 107.882 33.2131H108.272C108.206 33.0063 108.234 32.9536 108.443 32.9571C108.757 32.962 109.073 32.9648 109.382 33.0069C109.685 33.0483 109.879 33.3158 109.879 33.6112C109.879 33.7572 109.81 33.864 109.681 33.9244C109.569 33.9773 109.443 34.0042 109.324 34.0445C109.154 34.1016 108.986 34.1603 108.817 34.2183C108.822 34.2371 108.826 34.2562 108.83 34.275C109.005 34.2992 109.181 34.3148 109.352 34.3493C109.62 34.4028 109.764 34.5531 109.787 34.7783C109.806 34.969 109.73 35.0842 109.537 35.1276C109.4 35.1587 109.257 35.1692 109.088 35.1929C108.945 35.3911 108.698 35.4158 108.45 35.4138C107.991 35.4102 107.54 35.4592 107.091 35.5429C106.843 35.5889 106.738 35.5669 106.595 35.4826C106.611 35.2702 106.869 35.2659 106.973 35.0996C106.821 35.0872 106.691 35.0765 106.556 35.0653C106.548 35.0698 106.533 35.0743 106.522 35.0835C106.147 35.3959 106.068 35.4038 105.625 35.1874C105.499 35.1257 105.371 35.0621 105.237 35.0195C105.05 34.9602 104.874 34.9487 104.684 35.0692C104.578 35.1362 104.38 35.1467 104.258 35.0992C103.9 34.9585 103.657 35.0741 103.413 35.3246C102.672 36.0832 101.99 36.8791 101.558 37.8447C101.379 38.2444 101.244 38.6577 101.344 39.0989C101.455 39.5912 101.615 40.0697 101.898 40.4999C102.061 40.7478 102.287 40.9321 102.553 41.0762C103.623 41.6554 104.725 42.1685 105.879 42.5735C106.13 42.6615 106.398 42.7024 106.659 42.7623C106.682 42.7677 106.71 42.7531 106.71 42.7531C106.552 42.3723 106.179 42.2002 105.883 41.9521C105.717 41.8138 105.669 41.6963 105.733 41.6066C105.801 41.5126 105.935 41.5291 106.131 41.667C106.469 41.9046 106.801 42.1501 107.142 42.3843C107.231 42.4455 107.342 42.4778 107.46 42.5311C107.503 42.3584 107.401 42.3051 107.325 42.2469C107.108 42.0816 106.882 41.9266 106.668 41.7595C106.582 41.6929 106.503 41.6113 106.445 41.5223C106.417 41.4803 106.423 41.3881 106.454 41.3491C106.486 41.3097 106.569 41.292 106.629 41.2943C106.684 41.2964 106.742 41.3301 106.79 41.3628C107.765 42.0418 108.752 42.7071 109.606 43.5308C110.082 43.9904 110.406 44.5373 110.512 45.1802C110.549 45.4 110.501 45.6337 110.481 45.8602C110.473 45.9518 110.437 46.0417 110.409 46.131C110.313 46.4393 110.391 46.7103 110.59 46.959C110.943 47.3978 111.107 47.8765 110.926 48.4287C110.854 48.6471 110.867 48.8684 110.928 49.0874C111.03 49.4522 110.943 49.7664 110.721 50.0813C110.471 50.4358 110.273 50.8247 110.057 51.2006C110.006 51.2882 109.965 51.3819 109.931 51.4768C109.762 51.9607 109.388 52.2604 108.933 52.4753C108.183 52.8307 107.433 53.1884 106.667 53.511C106.19 53.712 105.686 53.8569 105.19 54.0142C104.892 54.1088 104.597 54.0249 104.308 53.947C104.15 53.9042 103.995 53.85 103.839 53.7991C103.466 53.6771 103.096 53.6867 102.713 53.779C102.229 53.8959 101.738 53.9928 101.245 54.0737C101.074 54.1018 100.889 54.0628 100.712 54.0431C100.402 54.0087 100.092 53.9652 99.7818 53.926C99.767 53.9241 99.7514 53.928 99.7369 53.9252C98.9294 53.7693 98.2845 53.3712 97.8367 52.707C97.6984 52.5019 97.7107 52.2688 97.8947 52.0671C98.0111 51.9393 98.0289 51.7826 97.9393 51.6454C97.8217 51.4658 97.685 51.2939 97.5338 51.1394C97.4016 51.0043 97.2341 50.902 97.0891 50.7776C96.906 50.6205 96.7825 50.4257 96.7294 50.1937C96.6982 50.0577 96.6772 49.9148 96.7957 49.809C96.9143 49.703 97.0595 49.7334 97.1984 49.7775C97.2617 49.7977 97.3242 49.8208 97.4036 49.8482L97.404 49.8478ZM99.2688 40.9501C99.2546 40.9195 99.2403 40.8891 99.2262 40.8585C99.2015 40.7836 99.1787 40.708 99.1513 40.6341C99.009 40.2523 98.8511 39.8734 98.9174 39.4551C98.8251 39.9611 98.9544 40.4231 99.2296 40.8557C99.2439 40.8861 99.2584 40.9165 99.2726 40.9467C99.2869 40.9901 99.3012 41.0336 99.3155 41.077C99.3364 41.2485 99.4296 41.3814 99.5704 41.4889C99.4843 41.3525 99.3982 41.216 99.3121 41.0796C99.2976 41.0364 99.2831 40.9931 99.2686 40.9499L99.2688 40.9501ZM104.8 52.8309C104.818 53.0201 104.943 53.0435 105.073 53.039C105.169 53.0358 105.264 53.0075 105.359 52.9861C105.627 52.9251 105.893 52.8219 106.164 52.8093C106.555 52.7911 106.865 52.6511 107.15 52.4113C107.266 52.3139 107.41 52.1868 107.545 52.1829C107.881 52.1735 108.108 51.9222 108.42 51.8751C108.47 51.8676 108.522 51.7938 108.548 51.7394C108.724 51.3749 108.892 51.0073 109.062 50.6404C109.072 50.6182 109.073 50.5916 109.078 50.567C109.064 50.5578 109.05 50.5484 109.036 50.5392C108.851 50.7132 108.655 50.878 108.482 51.0632C108.185 51.3821 107.849 51.6506 107.472 51.8766C106.725 52.3249 105.883 52.5306 105.048 52.7543C104.965 52.7765 104.884 52.8048 104.8 52.8311L104.8 52.8309ZM98.2196 50.875C98.1083 50.9348 98.0579 51.0084 98.1346 51.1069C98.2805 51.2942 98.4745 51.4215 98.7182 51.5423C98.6148 51.2156 98.4852 51.0473 98.2194 50.8748L98.2196 50.875ZM107.721 33.9818C107.981 34.0025 108.064 33.7769 108.255 33.7028C108.152 33.55 108.033 33.4847 107.879 33.4826C107.824 33.6553 107.775 33.8112 107.721 33.9818ZM107.351 34.0717C107.255 34.0301 107.184 33.9991 107.098 33.9619C107.068 34.0441 107.045 34.1083 107.019 34.1811C107.084 34.2117 107.135 34.2356 107.193 34.2628C107.244 34.201 107.289 34.1464 107.351 34.0717Z" fill="#95989D"/>
<path d="M43.394 58.5795V58.8848C43.3327 58.9074 43.3062 58.925 43.2787 58.9263C42.6753 58.9539 42.0714 58.9749 41.4681 59.0076C41.1412 59.0252 40.8156 59.062 40.4918 59.0898C40.447 59.2153 40.4108 59.3167 40.3745 59.4182C40.36 59.4146 40.3457 59.4111 40.3312 59.4075V59.1221C40.2808 59.1106 40.23 59.0988 40.1486 59.08V60.9188C40.3096 60.9207 40.5105 60.9344 40.7099 60.9235C41.2848 60.8922 41.8588 60.8426 42.434 60.819C42.6224 60.8113 42.8135 60.8618 43.0102 60.8867C43.0348 60.9515 43.0566 61.0093 43.0787 61.0671C43.159 61.0915 43.237 61.1151 43.3231 61.1412C43.3405 61.2011 43.3581 61.2623 43.3755 61.3225C43.4442 61.3638 43.5118 61.4047 43.6008 61.4584C43.5461 61.5941 43.4964 61.7183 43.4496 61.8347C42.9146 61.8696 42.3963 61.8737 41.8885 61.9452C41.3807 62.0167 40.851 61.9214 40.3647 62.125C40.1245 62.6437 40.3154 63.1711 40.3134 63.6926C40.3129 63.8056 40.3368 63.9186 40.3511 64.0468C40.442 64.0468 40.5221 64.0507 40.6015 64.0462C41.2435 64.0102 41.8858 63.9779 42.527 63.9327C42.7214 63.919 42.7785 64.0137 42.7799 64.1843C43.0038 64.2129 43.2156 64.2258 43.419 64.2729C43.4989 64.2913 43.5595 64.3859 43.6166 64.4602C43.7958 64.5088 43.8805 64.6272 43.8708 64.8151C44.0595 65.0247 44.0611 65.0426 43.9005 65.2591C43.6489 65.2591 43.3876 65.2383 43.1311 65.2629C42.3144 65.3415 41.4993 65.4374 40.6836 65.5254C40.5018 65.545 40.3172 65.5478 40.1383 65.5804C39.9668 65.6116 39.8647 65.5611 39.8154 65.3896C39.7275 65.3824 39.6385 65.3789 39.5509 65.3663C39.4853 65.3569 39.4086 65.3522 39.3598 65.3164C39.1916 65.1938 39.0373 65.0536 38.8698 64.93C38.796 64.8757 38.7026 64.8459 38.618 64.8048C38.6047 64.5529 38.66 64.5034 38.9905 64.4666C39.0257 63.8101 39.0607 63.1546 39.0973 62.4735C38.9209 62.3382 38.7215 62.1856 38.5335 62.0415C38.5739 61.8039 38.7929 61.86 38.9173 61.7525C38.8649 61.677 38.8103 61.5978 38.7443 61.5027C39.0621 61.2822 38.9749 60.9641 38.9619 60.6615C38.9427 60.2169 38.9256 59.7722 38.9066 59.3276C38.9046 59.2786 38.8955 59.2296 38.8897 59.1817C38.5739 59.1007 38.3562 58.901 38.1504 58.7137C38.1796 58.5153 38.2733 58.4427 38.4477 58.4568C38.5578 58.4658 38.6693 58.4586 38.7735 58.4586C38.8486 58.1627 38.5618 58.0912 38.4457 57.899C38.5132 57.8132 38.583 57.7245 38.6658 57.6192C39.0391 57.7654 39.4033 57.9074 39.7993 57.7952C39.897 57.5634 40.0243 57.4567 40.1811 57.4749C40.2061 57.5368 40.2326 57.6027 40.2445 57.6321C40.3618 57.6946 40.4474 57.7483 40.5399 57.7864C40.5924 57.808 40.6561 57.8112 40.7148 57.8108C41.3508 57.805 41.9868 57.798 42.6229 57.7879C42.7043 57.7866 42.7852 57.765 42.8666 57.7552C43.1246 57.7239 43.157 57.7415 43.2591 57.9673H43.7404C43.8592 57.6777 43.95 57.6111 44.2611 57.7014C44.8026 57.8585 45.3445 57.7001 45.9368 57.7746C45.8681 57.668 45.8289 57.6068 45.7865 57.5407C45.8712 57.418 46.0024 57.3713 46.1326 57.4268C46.2455 57.4747 46.3331 57.5773 46.441 57.6629C46.493 57.6027 46.5429 57.5452 46.5882 57.4927C46.7097 57.5053 46.8329 57.5815 46.958 57.7213C46.9865 57.6916 47.0157 57.665 47.0398 57.6346C47.0617 57.607 47.0777 57.5753 47.1054 57.531C47.1881 57.5537 47.2927 57.5518 47.3364 57.6004C47.4419 57.7179 47.5733 57.7089 47.7044 57.7106C48.0186 57.7147 48.3362 57.6864 48.6466 57.7198C48.97 57.7545 49.2822 57.7207 49.6174 57.671C49.7784 57.9215 50.1749 57.9818 50.1921 58.3545C50.2704 58.3642 50.3359 58.3721 50.4367 58.3843C50.4695 58.5249 50.5041 58.673 50.546 58.852C50.4381 58.8593 50.3419 58.895 50.2877 58.8638C50.149 58.7839 50.0364 58.8308 49.9062 58.8728C49.8083 58.9042 49.6939 58.9646 49.5944 58.8586C49.5824 58.8458 49.5523 58.8441 49.5306 58.8447C49.2742 58.8529 49.0177 58.8646 48.7612 58.8708C48.5442 58.8762 48.327 58.8698 48.1105 58.8798C48.0126 58.8843 47.9162 58.9162 47.7729 58.9447C47.7693 58.9434 47.7155 58.9252 47.633 58.8974C47.6205 59.0113 47.5973 59.1084 47.6011 59.2046C47.6248 59.7857 47.6542 60.3665 47.6823 60.9474C47.6874 61.0551 47.6964 61.1624 47.7031 61.27C47.7053 61.3058 47.6906 61.3567 47.71 61.3754C47.9 61.5588 47.8297 61.7988 47.8607 62.0137C47.9013 62.2962 47.9091 62.5831 47.9406 62.8671C47.9624 63.0664 48.0177 63.2636 48.0264 63.4631C48.0402 63.7758 48.0188 64.0899 48.0286 64.403C48.0387 64.7258 48.0708 65.048 48.088 65.3706C48.0927 65.4575 48.0786 65.5455 48.073 65.633C48.0496 65.6403 48.0262 65.6476 48.0028 65.6549C47.931 65.5658 47.8589 65.4768 47.776 65.3738C47.6955 65.508 47.6185 65.6367 47.5115 65.815C47.4087 65.6927 47.3393 65.6099 47.2631 65.5191C47.0791 65.5226 46.8815 65.3785 46.8222 65.2051C46.7073 65.1606 46.6103 65.1231 46.5505 65.1C46.3909 63.0305 46.2343 61.0018 46.0766 58.961C45.8182 58.949 45.5492 59.096 45.3965 58.889C45.2076 58.9115 45.0655 58.9286 44.8898 58.9496C44.8855 58.9577 44.8639 58.9986 44.8409 59.0423H43.8314C43.8082 58.9819 43.7834 58.9173 43.7573 58.8494C43.6712 58.8419 43.5912 58.8351 43.5294 58.83C43.477 58.7371 43.4337 58.6606 43.3905 58.584C43.3697 58.5181 43.3488 58.4523 43.3296 58.3916C43.1962 58.3635 43.1003 58.3582 43.1371 58.5352C43.2223 58.5504 43.3082 58.5656 43.3938 58.5808L43.394 58.5795ZM46.8884 59.5796C46.9181 59.3568 46.9027 59.1367 46.8503 58.9192C46.7827 59.1442 46.809 59.3625 46.8917 59.5768C46.8991 60.1678 46.9065 60.7586 46.9138 61.3497C46.9426 61.3488 46.9711 61.3477 46.9999 61.3469C46.9749 60.7756 46.9504 60.204 46.9239 59.6327C46.923 59.6145 46.9007 59.5974 46.8884 59.5796ZM46.5256 61.7983C46.5458 61.7971 46.5661 61.796 46.5862 61.7947C46.5813 61.6949 46.5764 61.5952 46.5715 61.4952C46.5561 61.4957 46.5407 61.4961 46.5256 61.4965V61.7981V61.7983ZM47.3349 58.9967L47.3126 58.9901V59.3219H47.3349V58.9965V58.9967ZM39.4204 62.5685C39.4149 62.5687 39.4093 62.5692 39.4037 62.5694V62.8115C39.4093 62.8111 39.4149 62.8106 39.4204 62.8102V62.5685ZM45.1119 58.7071C45.1123 58.6938 45.1126 58.6808 45.113 58.6675H44.9651C44.9649 58.6808 44.9645 58.6938 44.9643 58.7071H45.1119ZM46.8333 61.8925C46.8255 61.8915 46.8177 61.8902 46.8099 61.8891C46.8112 61.9169 46.8128 61.9445 46.8141 61.9724C46.8204 61.9722 46.8268 61.9717 46.8331 61.9715L46.8333 61.8925ZM46.4399 59.7395C46.4399 59.7284 46.4399 59.7172 46.4393 59.7063C46.4393 59.7059 46.429 59.7063 46.4236 59.7063C46.4236 59.7174 46.4236 59.7288 46.4243 59.7399C46.4243 59.7404 46.4346 59.7399 46.4399 59.7399V59.7395ZM44.6032 58.6848C44.5972 58.6865 44.5912 58.6882 44.5851 58.69C44.5927 58.6934 44.6005 58.6968 44.6081 58.7002C44.6065 58.6951 44.605 58.6897 44.6032 58.6848ZM49.2889 57.997C49.284 57.9955 49.2788 57.994 49.2739 57.9925C49.2771 57.9975 49.2804 58.0024 49.2835 58.0073C49.2853 58.0039 49.2871 58.0005 49.2889 57.997Z" fill="#95989D"/>
<path d="M68.545 62.2888C68.4749 62.1085 68.4154 61.9233 68.3293 61.7506C68.2987 61.6892 68.2033 61.6575 68.1712 61.6352C67.9281 60.8896 67.5811 60.2162 67.287 59.5233C67.2796 59.5057 67.2633 59.4916 67.2276 59.4454C67.2276 59.5094 67.2225 59.5406 67.2285 59.5697C67.2745 59.7969 67.2852 60.0182 67.2212 60.2496C67.1806 60.3967 67.2174 60.5623 67.2087 60.719C67.1951 60.9699 67.1603 61.2204 67.1587 61.471C67.1578 61.6023 67.2078 61.7341 67.2361 61.8653C67.2466 61.9137 67.2865 61.9737 67.2691 62.0077C67.1103 62.3198 67.2167 62.6428 67.2225 62.9594C67.2287 63.3036 67.2566 63.6483 67.2948 63.9907C67.3282 64.2898 67.3893 64.5858 67.4377 64.8832C67.4491 64.954 67.4598 65.0249 67.4674 65.0962C67.4816 65.2291 67.4359 65.3216 67.2522 65.3417C67.2038 65.2732 67.1478 65.1942 67.0891 65.1111C66.865 65.1096 66.861 65.1058 66.7698 64.7804C66.7397 64.9536 66.7111 65.1272 66.6786 65.3002C66.6592 65.4036 66.6213 65.4954 66.4926 65.5134C66.3595 65.5318 66.3077 65.4447 66.2595 65.3515C66.2497 65.3327 66.2395 65.3141 66.2303 65.2972C65.9676 65.2539 65.9447 65.2126 65.9549 64.9594C65.9627 64.7665 65.9322 64.5726 65.9339 64.3793C65.9373 64.0216 65.9547 63.6639 65.9603 63.3062C65.962 63.1921 65.9368 63.0776 65.9386 62.9633C65.9467 62.4484 65.9687 61.9338 65.9687 61.419C65.9687 61.0174 65.946 60.6159 65.9297 60.2145C65.907 59.6552 65.8811 59.0958 65.8557 58.5365C65.8525 58.465 65.845 58.3939 65.8392 58.3192C65.7703 58.2638 65.7025 58.2094 65.6465 58.1644C65.6677 58.0386 65.6864 57.926 65.7123 57.7725C65.7908 57.6927 65.9273 57.6639 66.1217 57.686C66.1572 57.7494 66.1953 57.8181 66.235 57.8892C66.3211 57.9108 66.407 57.9322 66.5222 57.9611C66.5539 57.8966 66.6005 57.8326 66.617 57.7622C66.6712 57.531 66.7207 57.5006 66.9879 57.5702C67.0044 57.6237 67.0229 57.6834 67.0421 57.7451C67.1275 57.7648 67.212 57.7843 67.3043 57.8055C67.3191 58.0182 67.3681 58.1955 67.6114 58.2561C67.6618 58.2685 67.6995 58.3498 67.7312 58.4057C67.9631 58.815 68.2174 59.2148 68.4156 59.6387C68.7198 60.289 69.121 60.8856 69.4711 61.5104C69.551 61.6528 69.6143 61.8035 69.7035 61.9876C69.7439 61.8711 69.7722 61.7915 69.7994 61.7114C70.1277 60.7428 70.4506 59.7723 70.788 58.8066C70.8705 58.5703 71.0003 58.3492 71.1102 58.1218C71.1256 58.0899 71.1466 58.0473 71.1756 58.0371C71.47 57.9315 71.5659 57.6605 71.7211 57.4401C71.7853 57.3489 71.8544 57.284 72.0094 57.345C72.0221 57.4291 72.0371 57.5287 72.0529 57.6346C72.1383 57.5595 72.2356 57.5173 72.3674 57.6301C72.416 57.6719 72.5558 57.6154 72.6894 57.5995C72.7057 57.6092 72.7556 57.6389 72.8105 57.6715V57.8427C72.916 57.8538 73.0107 57.8639 73.1149 57.875V58.1056C73.314 58.1238 73.37 58.2222 73.3283 58.4029C73.3067 58.4971 73.3446 58.6024 73.3421 58.7024C73.3397 58.8056 73.3207 58.9085 73.2824 59.0102C73.3149 59.0855 73.3477 59.1609 73.3803 59.2362C73.362 59.2489 73.3439 59.2617 73.3256 59.2743C73.2748 59.2223 73.2239 59.1703 73.1686 59.1136C73.1367 59.1981 73.1049 59.2831 73.0698 59.3756C73.0988 59.3792 73.1399 59.3846 73.1916 59.3912C73.2257 59.5357 73.2826 59.6806 73.2864 59.8268C73.2888 59.9238 73.2369 60.0398 73.1706 60.1167C73.0703 60.2327 73.0868 60.332 73.1553 60.465C73.2139 60.3881 73.2643 60.3222 73.3352 60.2297C73.5471 61.0645 73.4539 61.885 73.5475 62.6923C73.5255 62.6997 73.5031 62.7072 73.4811 62.7149C73.4548 62.6758 73.4122 62.6392 73.4048 62.597C73.3776 62.4418 73.3627 62.2845 73.3421 62.1282C73.2975 61.7885 73.2525 61.4488 73.2077 61.1091C73.1885 61.1108 73.1693 61.1125 73.1499 61.1142C73.1945 61.5913 73.2306 62.0691 73.2859 62.5452C73.3421 63.0296 73.4258 63.511 73.4813 63.9955C73.535 64.4658 73.5685 64.9382 73.6126 65.4297C73.5379 65.4331 73.467 65.4363 73.3932 65.4397C73.3533 65.3654 73.3198 65.3034 73.285 65.2385C73.2025 65.231 73.1214 65.2237 73.0402 65.2162C72.9773 65.3147 72.9146 65.4132 72.8243 65.5545C72.7273 65.4429 72.6615 65.3674 72.5857 65.28C72.515 65.2558 72.4164 65.2222 72.3009 65.1829C72.2766 64.4741 72.2162 63.7848 72.2378 63.0979C72.271 62.0428 72.2563 60.9909 72.1729 59.9392C72.1548 59.7104 72.1283 59.482 72.0975 59.2544C72.0884 59.187 72.0509 59.1232 72.0565 59.0624C72.0723 58.9261 72.0881 58.7899 72.1038 58.6536C71.7115 59.0894 71.6655 59.6746 71.3266 60.1289C71.3413 60.1383 71.3558 60.1475 71.3705 60.1569C71.4102 60.1338 71.4499 60.1107 71.4726 60.0974C71.5357 60.2059 71.5942 60.3063 71.6493 60.4009C71.6172 60.4733 71.573 60.5388 71.5589 60.6097C71.4998 60.9113 71.3799 61.1861 71.2329 61.4588C71.1363 61.6382 71.1176 61.8561 71.0605 62.0556C70.9408 62.4746 70.8411 62.9005 70.6896 63.309C70.5906 63.5763 70.6283 63.8082 70.722 64.0571C70.8257 64.3332 70.9198 64.6135 70.9992 64.8967C71.0284 65.0005 71.0039 65.1182 71.0039 65.2139C70.7278 65.3145 70.7086 65.3066 70.5891 65.0649C70.261 65.1034 70.3125 64.8204 70.2282 64.6535C70.2095 64.6453 70.1957 64.6336 70.1827 64.6344C69.7048 64.6676 69.4151 64.3795 69.1531 64.0633C68.6866 63.5008 68.5095 62.8134 68.2566 62.149C68.4285 62.0991 68.4589 62.2417 68.545 62.2898C68.5505 62.3037 68.5561 62.3177 68.5447 62.2892C68.5679 62.3095 68.5566 62.2997 68.5452 62.2896L68.545 62.2888ZM68.8119 61.3867C68.8048 61.3769 68.7974 61.3668 68.7903 61.3569C68.7987 61.3659 68.8072 61.3749 68.8155 61.3839C68.8306 61.4124 68.8456 61.4409 68.8607 61.4693C69.0035 61.8632 69.2176 62.2173 69.4836 62.5422C69.5014 62.5321 69.5191 62.5219 69.5369 62.5118C69.3103 62.1652 69.0837 61.8189 68.8572 61.4723C68.842 61.4439 68.8271 61.4154 68.8119 61.3867ZM68.2361 60.3843C68.2499 60.4155 68.2637 60.447 68.2778 60.4782L68.3179 60.6112C68.4053 60.8256 68.5111 61.0292 68.6785 61.1955C68.6948 61.1857 68.7109 61.1756 68.7272 61.1658C68.5898 60.9819 68.4522 60.798 68.3148 60.6142C68.3012 60.5698 68.2876 60.5257 68.274 60.4814C68.2604 60.45 68.2468 60.4185 68.2332 60.387C68.2176 60.359 68.202 60.3307 68.1864 60.3027C68.1701 60.2766 68.1536 60.2507 68.1373 60.2246C68.1335 60.2121 68.1297 60.1997 68.1335 60.2119C68.1257 60.2006 68.1331 60.2111 68.1404 60.2218C68.1569 60.2477 68.1736 60.2736 68.1901 60.2995C68.2055 60.3277 68.2209 60.3558 68.2363 60.384L68.2361 60.3843ZM67.9584 59.8369C67.9504 59.8253 67.9424 59.8138 67.9344 59.8022C67.9435 59.8127 67.9526 59.8232 67.9618 59.8335C67.9671 59.8435 67.9723 59.8536 67.9754 59.8592C67.9718 59.8542 67.9651 59.8457 67.9584 59.8369ZM70.8297 59.7374C70.8455 59.6956 70.8616 59.6539 70.8774 59.6121C70.9363 59.4676 70.995 59.3234 71.0538 59.1789C71.0306 59.1718 71.0074 59.1647 70.9845 59.1577C70.8977 59.296 70.91 59.461 70.8808 59.6147C70.8647 59.6567 70.8489 59.6986 70.8328 59.7406C70.823 59.762 70.8132 59.7836 70.8034 59.805C70.8107 59.8069 70.8181 59.8091 70.8257 59.811C70.827 59.7864 70.8284 59.762 70.8297 59.7374ZM70.4334 60.9121C70.2218 61.2358 70.1424 61.598 70.0947 61.9698C70.1602 61.818 70.2115 61.6622 70.2586 61.5051C70.3177 61.3071 70.373 61.108 70.4301 60.9093C70.441 60.8963 70.4521 60.8832 70.4356 60.9027C70.4412 60.877 70.4374 60.8946 70.4336 60.9123L70.4334 60.9121ZM71.2737 59.9129C71.3779 59.6534 71.5505 59.4253 71.5353 59.1288C71.2956 59.2452 71.1397 59.7091 71.2737 59.9129ZM70.7235 64.9279C70.7436 64.9275 70.7637 64.9268 70.7838 64.9264C70.7708 64.8446 70.7577 64.7627 70.7447 64.6809C70.7376 64.6824 70.7307 64.6837 70.7235 64.6852V64.9279ZM70.4399 64.6389C70.4256 64.6473 70.4113 64.6558 70.3971 64.6642L70.4428 64.7243C70.4504 64.7209 70.4582 64.7177 70.4657 64.7143C70.457 64.6892 70.4484 64.664 70.4399 64.6389ZM71.3072 60.2806C71.3045 60.2712 71.3018 60.262 71.2989 60.2526C71.2936 60.2554 71.2866 60.2573 71.2829 60.2614C71.2791 60.2657 71.278 60.2723 71.2757 60.2779C71.2862 60.2787 71.2965 60.2798 71.3069 60.2804L71.3072 60.2806ZM71.2367 60.0343L71.2523 60.0251C71.2481 60.021 71.2414 60.0126 71.2398 60.0133C71.2327 60.0169 71.2269 60.0231 71.2204 60.0285C71.2258 60.0304 71.2313 60.0323 71.2367 60.0343ZM68.6123 62.5204L68.6197 62.508L68.6087 62.506L68.6123 62.5204ZM71.096 59.0185C71.0929 59.0138 71.09 59.0089 71.0868 59.0042C71.0826 59.0081 71.0739 59.0138 71.0746 59.0151C71.0781 59.0218 71.0842 59.0275 71.0893 59.0335C71.0915 59.0286 71.0937 59.0237 71.096 59.0185ZM70.5025 60.7336L70.4936 60.7467L70.5054 60.7497L70.5025 60.7336Z" fill="#95989D"/>
<path d="M93.2482 60.0869C93.1715 61.9497 93.1828 63.787 93.4362 65.624C93.3263 65.6002 93.2584 65.5261 93.2326 65.4018C93.0397 65.4774 92.9433 65.347 92.8376 65.228C92.7999 65.1856 92.7542 65.1398 92.7022 65.121C92.5247 65.0565 92.4485 64.9303 92.438 64.7412C92.1093 64.6588 92.1407 64.3891 92.132 64.1513C92.1064 63.4626 92.1006 62.7734 92.0725 62.085C92.0502 61.5331 92.0134 60.9815 91.971 60.4305C91.9244 59.8219 91.8682 59.214 91.8073 58.6067C91.7866 58.401 91.7379 58.198 91.7034 57.9936C91.6898 57.9133 91.6806 57.8322 91.6699 57.7566C91.8305 57.7108 91.9601 57.674 92.1309 57.6252C92.1982 57.6766 92.295 57.7504 92.4079 57.8365C92.4453 57.7819 92.4799 57.7314 92.5151 57.68C92.7417 57.6935 92.923 57.7761 93.0791 57.9234C93.2308 58.0666 93.4324 58.1606 93.51 58.3755C93.5274 58.4237 93.6317 58.4427 93.731 58.4926C94.357 59.9154 95.041 61.3505 95.933 62.7509C96.0643 62.8247 96.4196 63.3573 96.4116 63.5787C96.3126 63.4449 96.2358 63.3413 96.1594 63.2377C96.1589 63.4725 96.309 63.6266 96.4383 63.7914C96.4566 63.7893 96.4751 63.7872 96.4934 63.7848C96.4972 63.4612 96.5222 63.1362 96.5003 62.814C96.4435 61.976 96.3696 61.139 96.2954 60.302C96.2528 59.823 96.1982 59.345 96.1446 58.867C96.1359 58.7897 96.1139 58.7116 96.0837 58.6392C95.9957 58.4269 96.0066 58.3896 96.2138 58.2854C96.239 58.2727 96.2664 58.2642 96.2878 58.2556C96.2878 58.0167 96.2885 57.7877 96.2876 57.5588C96.2871 57.4293 96.3105 57.317 96.4809 57.2851C96.5898 57.3822 96.6825 57.4792 96.5623 57.6659C96.6513 57.5976 96.7015 57.5591 96.7593 57.515C96.8179 57.5599 96.8679 57.5982 96.9171 57.6361C96.9733 57.6136 97.0278 57.5916 97.1183 57.5552C97.1767 57.6408 97.2358 57.7271 97.3054 57.8288C97.4724 57.8155 97.5128 57.85 97.5619 58.0375C97.5804 58.1079 97.6359 58.1694 97.6769 58.2389V58.6703H97.4455C97.4035 59.3638 97.3612 60.0638 97.319 60.7638C97.3076 60.7676 97.296 60.7713 97.2847 60.7751C97.2568 60.6841 97.2093 60.5942 97.2046 60.5022C97.1843 60.1081 97.1736 59.7134 97.1658 59.3186C97.1633 59.1992 97.1819 59.0793 97.1908 58.9597L97.1408 58.9517C97.121 59.0695 97.0889 59.1866 97.084 59.3049C97.073 59.5607 97.086 59.8174 97.0706 60.0728C97.055 60.3301 97.123 60.569 97.2236 60.7982C97.2791 60.9247 97.329 61.0346 97.2269 61.1429C97.284 61.2505 97.3545 61.3402 97.3797 61.4402C97.4254 61.623 97.4368 61.8071 97.2724 61.9595C97.2291 61.9995 97.1999 62.0753 97.2008 62.1342C97.2055 62.4189 97.2195 62.7038 97.2367 62.9881C97.2459 63.142 97.2679 63.2953 97.3174 63.4481C97.4187 63.2197 97.3404 62.9857 97.3422 62.7552C97.3438 62.521 97.3426 62.2866 97.3683 62.0357C97.3884 62.0691 97.4234 62.1012 97.4265 62.1361C97.4504 62.4127 97.4635 62.6903 97.4892 62.9667C97.517 63.2664 97.5599 63.5645 97.586 63.8642C97.6009 64.0355 97.5875 64.2091 97.6022 64.3803C97.6178 64.5606 97.6517 64.7391 97.6794 64.9303C97.7155 64.9472 97.7608 64.9681 97.8085 64.9904C97.8391 65.1972 97.8694 65.4025 97.9037 65.6337C97.8319 65.6696 97.7525 65.7094 97.6484 65.7617C97.6094 65.648 97.5799 65.5628 97.5471 65.4671C97.486 65.4855 97.4249 65.5039 97.3556 65.5249C97.3137 65.471 97.2749 65.4211 97.232 65.3661C97.1778 65.3873 97.1245 65.4082 97.0717 65.429C96.9515 65.3601 96.8366 65.2944 96.708 65.2205C96.6654 65.2757 96.6279 65.3243 96.5835 65.3821C96.5233 65.3847 96.4575 65.3877 96.3973 65.3903C96.3725 65.3695 96.3538 65.3571 96.3398 65.3412C96.3014 65.2976 96.2706 65.2203 96.2265 65.2128C95.9705 65.1687 95.9158 64.9437 95.7909 64.7849C95.237 64.0794 94.8628 63.2848 94.5238 62.4681C94.1895 61.6628 93.7573 60.9006 93.3175 60.1438C93.3079 60.1276 93.2868 60.1175 93.2486 60.0865L93.2482 60.0869ZM93.8322 60.0062C93.8264 59.9925 93.8206 59.979 93.8287 59.9981C93.8119 59.9854 93.8238 59.9944 93.8356 60.0032C93.8494 60.0325 93.863 60.0621 93.8768 60.0914C93.8904 60.2198 93.9683 60.3055 94.0492 60.3887C94.0626 60.3797 94.0762 60.3705 94.0896 60.3615C94.0196 60.2706 93.9498 60.1798 93.8797 60.089C93.8639 60.0614 93.8481 60.0338 93.8322 60.0064V60.0062ZM94.2415 60.6867C94.2415 60.6867 94.2403 60.6888 94.2399 60.6897C94.2216 60.6379 94.2033 60.5861 94.185 60.5341C94.1719 60.5399 94.1585 60.5456 94.1453 60.5516C94.1775 60.5966 94.2093 60.6415 94.2415 60.6867ZM92.9297 62.8175C92.9498 62.8192 92.9696 62.8209 92.9897 62.8226C93.0107 62.6417 93.0497 62.4608 93.049 62.2802C93.047 61.7303 93.0292 61.1805 93.0189 60.6306C93.018 60.5878 93.0285 60.545 93.0305 60.5022C93.0417 60.2671 93.0568 60.0323 93.0588 59.7973C93.0593 59.7356 93.018 59.6736 92.9962 59.6117C92.9741 59.616 92.952 59.6203 92.9299 59.6245V62.8177L92.9297 62.8175ZM97.2144 65.0705C97.2229 65.069 97.2316 65.0675 97.2401 65.066C97.2376 65.0422 97.2354 65.0187 97.2329 64.9949C97.2267 64.9953 97.2207 64.9955 97.2144 64.996V65.0705ZM96.5949 57.7725L96.6034 57.7588L96.5911 57.7564L96.5949 57.7725Z" fill="#95989D"/>
<path d="M105.903 60.8862C105.927 60.9637 105.943 61.017 105.958 61.0656C106.046 61.0924 106.124 61.1161 106.21 61.1424C106.226 61.2034 106.242 61.2651 106.257 61.3261C106.326 61.3661 106.395 61.4057 106.483 61.4571C106.43 61.5941 106.381 61.7187 106.332 61.8454C105.942 61.8636 105.569 61.876 105.197 61.8991C104.698 61.9302 104.198 61.9636 103.7 62.0087C103.546 62.0227 103.397 62.0785 103.258 62.1121C103.003 62.6434 103.204 63.1711 103.198 63.6921C103.197 63.8049 103.221 63.9182 103.236 64.0468C103.326 64.0468 103.406 64.0507 103.486 64.0462C104.127 64.0102 104.769 63.9723 105.411 63.9359C105.597 63.9254 105.614 63.9409 105.671 64.1761C105.868 64.2046 106.079 64.2209 106.281 64.2703C106.368 64.2917 106.437 64.3818 106.501 64.4578C106.676 64.5065 106.763 64.6323 106.761 64.8352C106.944 65.0097 106.947 65.0426 106.794 65.2488C106.78 65.2531 106.765 65.2629 106.752 65.2608C106.369 65.1978 105.996 65.3016 105.621 65.316C104.953 65.3417 104.299 65.4511 103.638 65.52C103.434 65.5414 103.227 65.5452 103.024 65.5784C102.855 65.6063 102.748 65.5656 102.7 65.3894C102.619 65.3836 102.538 65.3821 102.458 65.3704C102.386 65.3597 102.3 65.356 102.246 65.3171C102.076 65.1961 101.923 65.0553 101.756 64.932C101.682 64.8776 101.589 64.847 101.504 64.805C101.485 64.558 101.549 64.5002 101.875 64.4677C101.91 63.812 101.945 63.157 101.981 62.4765C101.806 62.3403 101.607 62.1864 101.422 62.0428C101.455 61.7985 101.681 61.8632 101.799 61.7487C101.749 61.6763 101.695 61.5973 101.627 61.5001C101.9 61.324 101.87 61.0555 101.857 60.7899C101.833 60.2954 101.813 59.8005 101.79 59.306C101.788 59.2641 101.779 59.2225 101.773 59.1799C101.454 59.1046 101.244 58.8948 101.033 58.7116C101.064 58.4996 101.178 58.4423 101.354 58.4566C101.456 58.465 101.56 58.4581 101.711 58.4581C101.655 58.3284 101.63 58.2248 101.571 58.1447C101.508 58.0598 101.413 57.997 101.318 57.9121C101.399 57.8104 101.469 57.722 101.554 57.6162C101.924 57.777 102.291 57.8996 102.684 57.7956C102.78 57.5618 102.908 57.4554 103.068 57.4762C103.092 57.5381 103.118 57.6042 103.128 57.6312C103.245 57.6909 103.326 57.7406 103.414 57.7748C103.473 57.798 103.542 57.8099 103.606 57.8095C104.234 57.8048 104.863 57.798 105.491 57.7873C105.595 57.7855 105.698 57.7575 105.802 57.7487C106.022 57.7301 106.049 57.7498 106.126 57.9532C106.437 58.0362 106.46 58.0782 106.332 58.3579C106.243 58.3652 106.148 58.3731 106.037 58.3823C106.028 58.4241 106.019 58.468 106.009 58.5151C106.111 58.5491 106.2 58.5789 106.305 58.6142C106.289 58.7163 106.274 58.8053 106.26 58.8931C106.217 58.9083 106.19 58.9248 106.162 58.9261C105.596 58.9535 105.03 58.9755 104.465 59.0063C104.1 59.026 103.737 59.0577 103.375 59.084C103.33 59.212 103.295 59.3133 103.259 59.4143C103.245 59.4111 103.23 59.4077 103.216 59.4045V59.123C103.169 59.1095 103.123 59.0962 103.033 59.0703V60.9006C103.397 61.0099 103.8 60.8918 104.202 60.883C104.568 60.8751 104.933 60.8267 105.299 60.8196C105.496 60.8158 105.693 60.8612 105.903 60.886V60.8862ZM102.283 62.8573C102.289 62.8573 102.296 62.8573 102.303 62.8571V62.5679C102.296 62.5679 102.289 62.5681 102.283 62.5683V62.8575V62.8573Z" fill="#95989D"/>
<path d="M89.991 61.836C90.012 61.7559 90.03 61.6874 90.0555 61.5909C90.1531 61.6192 90.2408 61.6444 90.3527 61.6765V61.2794C90.4373 61.2574 90.5006 61.2407 90.5822 61.2193C90.6264 61.2745 90.669 61.331 90.7153 61.3848C90.7419 61.4156 90.7715 61.4627 90.8043 61.4665C90.9885 61.4875 91.016 61.6192 91.0487 61.7557C91.1373 62.1258 91.1041 62.4979 91.0786 62.8706C91.0739 62.9399 91.0603 63.0268 91.0951 63.0771C91.1957 63.2218 91.1772 63.3755 91.1799 63.5333C91.1899 64.1643 91.2098 64.7954 91.2196 65.4267C91.2258 65.8276 91.2207 66.2285 91.2207 66.6468C91.1513 66.6667 91.0829 66.6862 90.9921 66.7123C90.9627 66.6179 90.9379 66.5387 90.9042 66.4315C90.8195 66.4685 90.7381 66.504 90.6442 66.5449C90.6241 66.494 90.6041 66.4437 90.5842 66.3934C90.5749 66.3938 90.5657 66.3944 90.5563 66.3949C90.543 66.5969 90.5296 66.7992 90.5164 67.0002C90.3828 66.9921 90.2864 66.9291 90.2272 66.8112C89.964 66.7603 89.9047 66.6901 89.9136 66.4385C89.927 66.0594 89.9428 65.6801 89.9529 65.301C89.9551 65.2171 89.9379 65.1325 89.929 65.0414C89.4623 65.1702 89.0149 65.3136 88.5401 65.3042C88.2567 65.2987 87.9705 65.2884 87.6911 65.2464C87.2734 65.1835 86.9485 64.9345 86.6124 64.7074C86.1338 64.3838 85.9072 63.9205 85.7977 63.3935C85.7674 63.2473 85.7117 63.1386 85.5832 63.0613C85.2384 62.8534 85.128 62.5201 85.027 62.1657C84.9153 61.7739 84.9503 61.3961 85.0658 61.0217C85.1978 60.5938 85.3981 60.1918 85.6724 59.8298C85.8437 59.6038 86.0252 59.3827 86.2235 59.1782C86.3689 59.0284 86.5462 58.9064 86.7141 58.7775C86.8303 58.6882 86.9645 58.6189 87.0734 58.5226C87.3668 58.2635 87.731 58.1338 88.0865 57.9855C88.1541 57.9572 88.2241 57.9296 88.2834 57.8887C88.6978 57.6023 89.1632 57.5638 89.6496 57.6207C89.8933 57.6494 90.0251 57.8461 90.1939 57.9765C90.5282 58.2351 90.4993 58.3609 90.105 58.5286C90.0035 58.5716 89.8949 58.5992 89.76 58.6437C89.7374 58.6765 89.6971 58.7351 89.6511 58.8017C89.3719 58.7816 89.0907 58.7591 88.8091 58.7424C88.7388 58.7383 88.6469 58.7276 88.6003 58.7627C88.4206 58.8991 88.2286 59.0329 88.0894 59.2039C87.6762 59.7117 87.3807 60.2834 87.1849 60.9001C87.0419 61.3499 87.0036 61.8129 86.9966 62.2817C86.9904 62.7186 87.0493 63.1341 87.2457 63.5365C87.5049 64.0672 88.1242 64.211 88.6083 64.0509C88.9248 63.9462 89.2466 63.8546 89.5564 63.7343C89.7914 63.6431 89.8188 63.5785 89.7905 63.3325C89.7461 62.9476 89.6984 62.563 89.6395 62.1798C89.5934 61.8792 89.6525 61.8112 89.991 61.836ZM89.747 64.0147C89.4808 64.0714 89.2145 64.128 88.948 64.1847C88.9533 64.2031 88.9585 64.2215 88.9636 64.2399C89.2328 64.1956 89.5167 64.2031 89.7439 64.0113C89.7555 64.004 89.7671 63.9967 89.7787 63.9895C89.7682 63.9978 89.7575 64.0064 89.747 64.0147ZM85.6622 60.3526C85.2703 60.8209 85.0275 61.644 85.25 61.958C85.283 61.7709 85.3044 61.5793 85.3533 61.3944C85.4021 61.209 85.4853 61.0324 85.5404 60.8483C85.5892 60.6848 85.6202 60.5165 85.6593 60.3502L85.6708 60.3172C85.6679 60.329 85.665 60.3406 85.6622 60.3526ZM87.6385 59.3169C87.4841 59.5158 87.2915 59.6971 87.1826 59.9165C86.8111 60.6657 86.6485 61.462 86.6976 62.2939C86.7003 62.3382 86.7203 62.3814 86.7324 62.4251C86.754 62.2658 86.7402 62.1102 86.7565 61.9576C86.8165 61.3916 86.9659 60.8447 87.1833 60.3166C87.3225 59.9782 87.4835 59.6481 87.6347 59.3142C87.6445 59.303 87.6543 59.2921 87.6407 59.3075C87.6449 59.288 87.6418 59.3026 87.6385 59.3172V59.3169ZM87.1548 64.2134C87.0375 64.1483 86.8892 64.0661 86.7119 63.9678C86.9416 64.5813 87.025 64.655 87.4393 64.6301C87.3492 64.4981 87.2609 64.369 87.1548 64.2134ZM87.8597 64.4568C87.8521 64.476 87.8448 64.4951 87.8372 64.5143C87.936 64.67 88.1757 64.7243 88.6083 64.6588C88.3588 64.5914 88.1092 64.5242 87.8597 64.4568ZM85.5504 61.6478C85.5348 61.6478 85.5192 61.6481 85.5034 61.6483C85.4061 61.9497 85.5272 62.2198 85.6178 62.4945C85.6338 62.4923 85.6497 62.4902 85.6657 62.488C85.6274 62.208 85.5888 61.9278 85.5504 61.6478ZM90.2555 66.3516C90.2606 66.3516 90.2658 66.3516 90.2709 66.3518V66.1752C90.2658 66.1752 90.2606 66.1752 90.2555 66.1752V66.3518V66.3516ZM85.5625 61.3929C85.5531 61.3938 85.5437 61.3948 85.5344 61.3957V61.4903L85.5553 61.4912C85.5578 61.4584 85.56 61.4257 85.5625 61.3929Z" fill="#95989D"/>
<path d="M58.9702 62.9018C59.0451 63.0765 59.12 63.2514 59.195 63.4261C59.2108 63.4203 59.2266 63.4147 59.2422 63.4089C59.1722 63.2208 59.1022 63.0326 59.0302 62.8385C58.9717 62.8256 58.916 62.8132 58.8513 62.7989C58.6769 62.2359 58.5485 61.6755 58.6394 61.0832C58.666 60.9104 58.629 60.7282 58.6171 60.5508C58.5821 60.0253 58.6994 59.5192 58.8767 59.0318C58.9628 58.7953 59.1472 58.5917 59.2862 58.3727C59.564 57.9343 60.0435 57.8055 60.5052 57.6783C61.1222 57.5086 61.7529 57.6188 62.3762 57.6809C62.4891 57.692 62.6059 57.7511 62.7025 57.814C62.9676 57.9866 63.2408 58.1542 63.477 58.3594C63.6679 58.5256 63.8044 58.7482 63.9745 58.9383C64.276 59.2752 64.4078 59.6851 64.5399 60.0974C64.6114 60.3215 64.7203 60.5369 64.772 60.7644C64.832 61.0288 64.8724 61.3019 64.8775 61.5721C64.8889 62.147 64.855 62.7227 64.6853 63.2779C64.5954 63.5718 64.4663 63.8552 64.342 64.1384C64.1041 64.6809 63.6527 65.0364 63.1264 65.2826C62.5756 65.5401 61.9895 65.5313 61.4019 65.3417C60.8704 65.1702 60.4463 64.8455 60.0201 64.518C59.8803 64.4105 59.7217 64.3191 59.6044 64.1924C59.4528 64.0288 59.3306 63.8394 59.2025 63.6568C59.1278 63.5504 59.0641 63.4365 58.9998 63.3237C58.9262 63.1944 58.8575 63.0626 58.9175 62.9132C58.9352 62.9093 58.9528 62.9055 58.9706 62.9016L58.9702 62.9018ZM60.4162 58.0214C60.3854 58.0349 60.3546 58.0486 60.3236 58.0621C60.2937 58.0767 60.2639 58.0914 60.234 58.106C60.2036 58.1201 60.1733 58.1343 60.1428 58.1484C60.1127 58.1627 60.0828 58.1773 60.0527 58.1916C60.0449 58.1976 60.0371 58.2038 60.0292 58.2096C60.0359 58.2025 60.0426 58.1957 60.0495 58.1886C60.0796 58.1741 60.1095 58.1595 60.1396 58.1447C60.17 58.1306 60.2003 58.1163 60.2308 58.1021C60.261 58.0876 60.2908 58.0732 60.3209 58.0587C60.3517 58.0448 60.3825 58.0311 60.4133 58.0172C60.4296 58.0155 60.4461 58.0137 60.4229 58.0161C60.4414 58.0024 60.4287 58.0116 60.4162 58.021V58.0214ZM59.3319 63.632L59.3136 63.5956C59.321 63.6067 59.3283 63.6179 59.3357 63.629C59.3653 63.6731 59.3948 63.717 59.4244 63.7611C59.4372 63.7504 59.4496 63.7399 59.4624 63.7292C59.4189 63.6968 59.3754 63.6645 59.3321 63.6322L59.3319 63.632ZM59.5607 63.7146C59.5556 63.7013 59.5502 63.6883 59.5574 63.7063C59.5424 63.6936 59.5531 63.7028 59.564 63.7118C59.6075 63.7985 59.6508 63.885 59.6943 63.9717C59.7123 63.9604 59.7304 63.949 59.7485 63.9379C59.686 63.8636 59.6234 63.7891 59.5609 63.7148L59.5607 63.7146ZM59.0665 59.4413C59.2616 59.1239 59.4568 58.8066 59.6559 58.4825C59.3812 58.7638 59.0953 59.0299 59.0705 59.4443C59.0596 59.4554 59.0484 59.4664 59.0645 59.4503C59.0596 59.4723 59.0632 59.4567 59.0665 59.4411V59.4413ZM63.4672 62.07C63.3909 61.6012 63.3327 61.1382 63.237 60.6826C63.1188 60.1212 62.9757 59.5642 62.8309 59.0081C62.7556 58.7186 62.4931 58.5031 62.2417 58.5373C61.8883 58.5855 61.5386 58.6623 61.1898 58.7375C61.1238 58.7516 61.0604 58.8073 61.0114 58.8578C60.8943 58.9785 60.7795 59.1025 60.6762 59.2341C60.3894 59.5991 60.2335 60.0103 60.2442 60.4703C60.2503 60.7315 60.2295 60.9806 60.1147 61.2259C60.0573 61.3484 60.048 61.5025 60.056 61.6401C60.0743 61.955 60.1122 62.2693 60.1506 62.5829C60.1974 62.9667 60.1961 63.3606 60.3647 63.7219C60.6414 64.3148 60.8009 64.4794 61.3689 64.4767C61.62 64.4754 61.9043 64.4906 62.1151 64.3878C62.6565 64.1237 63.0551 63.6864 63.2683 63.145C63.3996 62.8113 63.4052 62.432 63.4676 62.0702L63.4672 62.07ZM63.4277 59.3484C63.8724 60.2432 63.8925 61.2172 64.0274 62.2029C64.0758 62.1483 64.1233 62.1199 64.126 62.0877C64.1487 61.82 64.1654 61.5515 64.1779 61.2831C64.1797 61.2435 64.1451 61.2037 64.1353 61.1621C64.0863 60.9558 64.0167 60.7509 63.9975 60.542C63.9547 60.0756 63.7812 59.6742 63.4277 59.3484ZM62.1483 64.6246C62.75 64.5741 63.0622 64.1669 63.394 63.7349C63.1617 63.7071 63.0539 63.8398 62.9719 63.9657C62.8109 64.2125 62.5792 64.3683 62.3245 64.5058C62.2623 64.5394 62.2069 64.5846 62.1483 64.6246ZM63.6306 63.0649C63.7531 62.7802 63.7807 62.2701 63.7018 61.818C63.6924 62.0021 63.6844 62.1353 63.6793 62.2686C63.6739 62.4041 63.6543 62.542 63.6726 62.6749C63.6893 62.7965 63.5278 62.9016 63.6309 63.0651L63.6306 63.0649ZM59.3379 59.7222C59.3544 59.7271 59.3711 59.732 59.3876 59.7369C59.4046 59.6817 59.4213 59.6263 59.4383 59.571C59.4249 59.5674 59.4113 59.5638 59.3979 59.5601C59.3781 59.6143 59.358 59.6682 59.3381 59.7224L59.3379 59.7222ZM64.0374 62.3084C64.0234 62.3048 64.0091 62.3009 63.995 62.2973C63.9834 62.3354 63.9719 62.3735 63.96 62.4116C63.9743 62.4153 63.9886 62.4191 64.0031 62.4227C64.0147 62.3846 64.0258 62.3465 64.0374 62.3084ZM58.9412 61.3146C58.9472 61.3143 58.9534 61.3139 58.9595 61.3137V61.1842C58.9505 61.1844 58.9416 61.1846 58.9327 61.185C58.9356 61.2283 58.9383 61.2715 58.9412 61.3148V61.3146ZM63.6657 61.6014C63.673 61.599 63.6806 61.5969 63.688 61.5945C63.6848 61.5761 63.6817 61.5579 63.6786 61.5395C63.6728 61.5406 63.667 61.5415 63.6612 61.5425C63.6628 61.5622 63.6643 61.5817 63.6657 61.6014ZM59.2773 60.6645C59.269 60.666 59.2605 60.6674 59.2523 60.6692C59.2554 60.6865 59.2583 60.7038 59.2614 60.721C59.2668 60.7199 59.2721 60.7188 59.2773 60.7175V60.6645Z" fill="#95989D"/>
<path d="M84.1327 64.8755C84.1465 64.9744 84.1559 65.0741 84.1755 65.1719C84.2014 65.301 84.1735 65.4113 84.0819 65.5044C83.8379 65.4588 83.5032 65.1886 83.4447 64.9859C83.2382 64.2673 83.0351 63.5479 82.8306 62.8286C82.819 62.7877 82.8071 62.7468 82.7927 62.6963C82.7456 62.6918 82.7021 62.6794 82.6611 62.685C82.2541 62.7396 81.8457 62.789 81.4417 62.8596C81.3415 62.8772 81.2545 62.9652 81.1419 63.0324C81.1274 63.0144 81.0897 62.9675 81.028 62.8909C80.9912 62.9791 80.9492 63.0392 80.9421 63.1028C80.8852 63.6022 80.8308 64.1021 80.7849 64.6025C80.7726 64.7372 80.7869 64.875 80.7983 65.0105C80.8219 65.2914 80.8041 65.3186 80.5429 65.3693C80.4791 65.4496 80.4218 65.5215 80.3578 65.6024C80.2909 65.5568 80.2378 65.5204 80.1881 65.4866C80.1081 65.5435 80.0284 65.6005 79.9624 65.6476C79.7746 65.6114 79.8322 65.4772 79.8039 65.3665C79.7401 65.3849 79.6801 65.4021 79.6172 65.42C79.5057 65.3841 79.4787 65.3049 79.5003 65.2004C79.5699 64.8628 79.633 64.524 79.71 64.1879C79.7709 63.9218 79.854 63.6607 79.9151 63.3946C79.9399 63.2871 79.9323 63.1726 79.9415 63.0285C79.5374 63.0977 79.3777 62.7674 79.0893 62.6614L79.084 62.6023C79.1471 62.567 79.206 62.5146 79.2738 62.5C79.441 62.4639 79.6134 62.4499 79.7816 62.4174C79.8812 62.3981 79.9771 62.3602 80.0478 62.3388C80.1865 62.0899 79.8743 62.0833 79.8641 61.9019C79.894 61.8553 79.9363 61.7893 79.9829 61.717H80.15C80.3873 60.4934 80.6228 59.2782 80.8658 58.0242C80.9707 58.0833 81.0302 58.1169 81.0842 58.1471C81.1653 58.0546 81.2505 57.966 81.3244 57.8692C81.3618 57.82 81.3736 57.7534 81.406 57.6993C81.4561 57.6147 81.499 57.5165 81.5741 57.4591C81.6178 57.4257 81.7331 57.4386 81.7871 57.4728C81.8194 57.4934 81.8065 57.5974 81.7933 57.6599C81.7842 57.7034 81.7403 57.7404 81.7204 57.7969C81.8475 57.7526 81.9425 57.5792 82.0926 57.7031C82.1417 57.8451 82.187 57.9765 82.2324 58.1079C82.2568 58.1036 82.2813 58.0996 82.3056 58.0953C82.4077 57.9193 82.2229 57.7481 82.2603 57.5475C82.3239 57.5434 82.3923 57.539 82.4608 57.5347C82.4952 57.6179 82.5221 57.6837 82.5502 57.7526C82.6198 57.762 82.6854 57.771 82.7777 57.7836C82.8359 57.9992 82.9282 58.2167 82.9479 58.4404C82.9827 58.8368 83.1185 59.2078 83.1996 59.5918C83.327 60.1942 83.5201 60.7745 83.7375 61.3499C83.7583 61.4045 83.7592 61.4661 83.7692 61.5246C83.7527 61.5327 83.7362 61.5406 83.7197 61.5487C83.6405 61.4659 83.5611 61.3831 83.4704 61.2882C83.3718 61.4265 83.4443 61.5068 83.5179 61.5858C83.585 61.6579 83.6541 61.7283 83.7208 61.8007C83.7498 61.8322 83.7681 61.8835 83.8033 61.8972C84.0375 61.9874 84.021 62.1785 83.9842 62.3523C83.9461 62.5321 83.9739 62.6869 84.0444 62.8522C84.3836 63.648 84.7143 64.4471 85.0477 65.2454C85.0645 65.2854 85.099 65.3314 85.0897 65.3654C85.072 65.4286 85.0415 65.5146 84.9913 65.5356C84.9469 65.5542 84.8609 65.5074 84.8062 65.4716C84.7157 65.4123 84.6354 65.3385 84.5457 65.2796L84.1289 64.8782L84.1069 64.8468C84.1155 64.8564 84.124 64.8658 84.1327 64.8755ZM82.736 58.6266L82.6981 58.3329C82.6769 58.3378 82.6559 58.343 82.6348 58.3479L82.74 58.6234C82.7371 58.8678 82.7962 59.0971 82.9211 59.3103C82.934 59.3705 82.947 59.4306 82.9601 59.4908C82.9539 59.5524 82.9307 59.6179 82.9447 59.6749C82.978 59.8106 83.0268 59.9431 83.073 60.0758C83.1247 60.2237 83.1805 60.3703 83.2344 60.5174C83.2393 60.533 83.2442 60.5486 83.2382 60.5292C83.2518 60.5448 83.2413 60.5328 83.2309 60.5206C83.1397 60.1783 83.0482 59.836 82.957 59.4938C82.9441 59.4334 82.9311 59.373 82.9182 59.3127C82.8575 59.0838 82.7967 58.8552 82.736 58.6264V58.6266ZM81.9552 59.7376C81.9329 59.7401 81.9104 59.7425 81.8881 59.7451C81.7412 60.3774 81.5228 60.9954 81.4624 61.6665C81.8266 61.6309 82.1597 61.5986 82.5201 61.5635C82.3261 60.9359 82.1408 60.3369 81.9555 59.7378L81.9552 59.7376ZM81.1694 61.663L81.2606 61.6838C81.4129 61.3313 81.4499 60.9483 81.5282 60.5752C81.6094 60.1873 81.7026 59.8016 81.7949 59.3959C81.7144 59.4798 81.6535 59.5434 81.5815 59.6186C81.5529 60.3046 81.2144 60.9594 81.1694 61.663ZM81.8727 61.8745C81.8727 61.8788 81.8727 61.8833 81.873 61.8876H82.0384C82.0382 61.8833 82.038 61.8788 82.0378 61.8745H81.8727ZM83.486 61.1681C83.4831 61.1681 83.4802 61.1681 83.4771 61.1681V61.2129C83.48 61.2129 83.4829 61.2129 83.486 61.2129V61.1681ZM81.0124 58.4943V58.4568C81.0088 58.4594 81.0021 58.4624 81.0023 58.4641C81.0041 58.4729 81.0077 58.4812 81.0124 58.4943ZM83.2962 60.6949L83.3016 60.7075L83.3062 60.6949H83.2962Z" fill="#95989D"/>
<path d="M74.8746 62.7477C74.7402 62.5956 74.7301 62.453 74.8445 62.32C74.8233 61.3456 74.8077 60.3712 74.7785 59.3972C74.7666 59.0031 74.7274 58.6099 74.6942 58.2167C74.689 58.1569 74.6427 58.1015 74.6262 58.0414C74.603 57.9568 74.5731 57.868 74.5815 57.7845C74.5847 57.7539 74.6944 57.7051 74.7472 57.7132C74.865 57.7312 74.9471 57.8037 74.9408 57.9347C74.9406 57.9395 74.9491 57.9448 74.9497 57.9455C75.0193 57.9499 75.0849 57.9542 75.158 57.9592C75.212 57.899 75.2136 57.7547 75.3701 57.8545C75.3893 57.7145 75.4036 57.6092 75.4178 57.5058C75.5687 57.4725 75.6658 57.5751 75.7089 57.8134C75.7586 57.6967 75.8329 57.7014 75.9366 57.756C76.0155 57.7975 76.1078 57.8339 76.1957 57.8378C76.6361 57.8564 77.077 57.872 77.5179 57.8712C77.7557 57.8707 77.9568 57.9514 78.1406 58.0756C78.5676 58.3642 78.8908 58.7332 79.0092 59.2326C79.0429 59.3743 79.0016 59.5308 79.0177 59.6783C79.0607 60.0756 78.9869 60.4519 78.7976 60.8021C78.6932 60.9954 78.5543 61.172 78.4265 61.3533C78.3321 61.4873 78.2351 61.62 78.1314 61.7476C77.8326 62.1147 77.4682 62.399 77.0001 62.545C76.9597 62.5576 76.9116 62.5467 76.8531 62.518C77.2751 62.3493 77.5547 62.0278 77.8453 61.7106C77.6948 61.7983 77.5402 61.8805 77.3944 61.9749C77.0947 62.1691 76.7813 62.3209 76.4169 62.3784C76.2688 62.4018 76.088 62.4437 76.0557 62.6441C76.0862 62.6672 76.1143 62.6888 76.1424 62.7102C76.1388 62.7235 76.1399 62.7417 76.1313 62.7492C76.0197 62.843 76.0059 62.9504 76.0182 63.094C76.0432 63.3875 76.0202 63.6844 76.0278 63.9798C76.0338 64.2164 76.0708 64.4529 76.0655 64.6888C76.0621 64.8326 76.09 64.9401 76.2091 65.0007C76.2207 65.1948 76.2329 65.3723 76.2414 65.55C76.2477 65.682 76.1837 65.7311 76.0507 65.7043C75.9807 65.6904 75.91 65.6803 75.832 65.6673C75.7954 65.6026 75.7568 65.5341 75.7008 65.4352C75.5706 65.4598 75.4343 65.4857 75.249 65.5209C75.2274 65.4569 75.1937 65.3569 75.1554 65.2424C75.0987 65.27 75.0367 65.2999 74.9767 65.3293C74.7874 65.094 74.7278 63.5271 74.875 62.7479L74.8746 62.7477ZM76.0938 61.4616C76.5927 61.2859 76.9575 60.9785 77.2998 60.6321C77.5801 60.3485 77.6852 60.0135 77.7066 59.6387C77.7146 59.4991 77.656 59.4017 77.5219 59.3514C77.1422 59.2088 76.7621 59.0665 76.3795 58.931C76.3235 58.9111 76.2532 58.9282 76.1759 58.9282C76.1194 59.7855 75.98 60.6114 76.0936 61.4614L76.0938 61.4616ZM78.2336 59.4591C78.3689 59.1457 78.137 58.8886 77.6986 58.9023C77.935 59.0637 77.9742 59.348 78.2336 59.4591ZM77.4 58.9162C77.4066 58.8978 77.4133 58.8792 77.42 58.8608C77.2137 58.6544 76.9321 58.6583 76.6513 58.6591L77.4 58.9162ZM75.1806 62.9341C75.1612 62.9341 75.1418 62.9341 75.1226 62.9341C75.1025 63.1347 75.0162 63.3351 75.1313 63.5365C75.1478 63.3357 75.1641 63.1349 75.1806 62.9341ZM75.0626 60.0081C75.0708 60.009 75.0791 60.0101 75.0873 60.0109V59.3587C75.0791 59.3587 75.0708 59.3587 75.0626 59.3587V60.0081ZM74.9879 58.749C75.0019 58.7482 75.0162 58.7473 75.0302 58.7465C75.0229 58.6255 75.0153 58.5044 75.0079 58.3834C74.9943 58.3843 74.9807 58.3849 74.9671 58.3858C74.974 58.5069 74.981 58.6279 74.9879 58.749ZM75.1217 61.6033C75.1257 61.6029 75.1295 61.6025 75.1335 61.602V61.3777C75.1295 61.3777 75.1257 61.3781 75.1217 61.3783V61.6033ZM75.0951 60.2162C75.0893 60.2147 75.0838 60.213 75.078 60.2115V60.4425H75.0951V60.2162ZM78.4191 60.8049C78.4064 60.7974 78.3935 60.7899 78.3808 60.7824C78.3569 60.8216 78.3328 60.8605 78.309 60.8997C78.3201 60.9063 78.3315 60.913 78.3426 60.9196C78.368 60.8813 78.3937 60.8432 78.4191 60.8049ZM76.4149 58.0829C76.4035 58.0848 76.3922 58.0867 76.4149 58.0829C76.4035 58.0842 76.3919 58.0857 76.4149 58.0829ZM78.0824 61.1696C78.0937 61.1776 78.1049 61.1853 78.1163 61.1932C78.1189 61.1756 78.1218 61.1581 78.1245 61.1403C78.1105 61.1502 78.0964 61.1598 78.0824 61.1696ZM75.4339 64.2401C75.4388 64.2397 75.4435 64.2393 75.4484 64.2388C75.4475 64.2224 75.4464 64.2059 75.4455 64.1894C75.4397 64.1898 75.4341 64.1903 75.4283 64.1907C75.4301 64.2072 75.4321 64.2236 75.4339 64.2401ZM75.7976 64.5813L75.8059 64.5689L75.7943 64.5664L75.7976 64.5813Z" fill="#95989D"/>
<path d="M55.2535 57.6768C55.3686 57.6663 55.5133 57.7457 55.5662 57.5582C55.6692 57.6689 55.7598 57.6959 55.8916 57.6289C56.0644 57.5409 56.2417 57.6081 56.4103 57.6706C56.6212 57.7487 56.8289 57.8354 57.0423 57.9071C57.1161 57.932 57.2022 57.923 57.3269 57.933C57.3567 57.9859 57.4002 58.0632 57.4604 58.1696C57.5325 58.1616 57.6779 58.1276 57.72 58.3226C57.6861 58.3684 57.6435 58.4256 57.6007 58.4832C57.5867 58.672 57.7704 58.675 57.9096 58.7747C57.8978 58.861 57.8833 58.9657 57.8719 59.0474C57.4074 58.9455 56.9758 58.8511 56.561 58.7602C56.4241 58.855 56.3117 58.9663 56.1748 59.0194C56.0055 59.0849 55.8173 59.1232 55.6347 59.1354C55.3334 59.1558 55.0892 59.2516 54.9103 59.4942C54.8463 59.5809 54.7462 59.6425 54.6782 59.7271C54.5985 59.826 54.5377 59.9388 54.465 60.043C54.4137 60.1165 54.3427 60.1794 54.3033 60.2577C54.0499 60.7612 53.9445 61.2998 53.886 61.8523C53.8448 62.2425 53.9141 62.6118 54.0823 62.9607C54.3111 63.435 54.6617 63.7934 55.2078 63.9355C55.2638 63.9501 55.3242 63.9563 55.3822 63.9556C55.7022 63.9524 56.0222 63.9454 56.3423 63.9407C56.4089 63.9398 56.4834 63.9631 56.5412 63.9422C56.908 63.8099 57.3043 63.7386 57.5882 63.4368C57.6955 63.3227 57.8465 63.2443 57.9843 63.16C58.0751 63.1045 58.1698 63.1112 58.2517 63.2165C58.2466 63.2649 58.2399 63.3259 58.2334 63.3847C58.3404 63.3894 58.4359 63.3935 58.5336 63.3978C58.5498 63.6786 58.5164 63.8852 58.268 64.0419C58.0862 64.1564 57.9225 64.3268 57.9966 64.5845C58.0048 64.613 57.9789 64.6505 57.9711 64.6768C57.8233 64.6854 57.6765 64.6659 57.5539 64.7096C57.4471 64.7477 57.3677 64.8568 57.2423 64.9634C57.3652 64.987 57.4352 65.0003 57.5191 65.0163C57.5454 65.0732 57.5751 65.1375 57.6103 65.2135C57.6721 65.231 57.7423 65.2511 57.8208 65.2736C57.9009 65.3888 57.8692 65.481 57.745 65.5688C57.5291 65.5688 57.3075 65.5701 57.0858 65.5684C56.8715 65.5667 56.6569 65.5628 56.4426 65.5581C56.3833 65.5568 56.3238 65.5519 56.2651 65.5431C56.1616 65.5277 56.0548 65.4808 55.9567 65.4947C55.4279 65.5697 55.0753 65.2466 54.7002 64.9881C54.3002 64.7126 53.9072 64.4253 53.5332 64.1183C53.3793 63.9922 53.25 63.8156 53.1666 63.6375C52.8046 62.8637 52.6539 62.046 52.7444 61.2024C52.8055 60.6326 52.9443 60.0801 53.2594 59.5723C53.4016 59.3431 53.5341 59.1279 53.7404 58.9408C53.8412 58.8494 53.9701 58.7186 53.971 58.5335C53.9712 58.4697 54.0901 58.3943 54.169 58.3453C54.3905 58.2075 54.6195 58.0805 54.8608 57.9403C54.4977 57.951 54.2152 58.1272 53.9739 58.3297C53.7437 58.5228 53.5743 58.7824 53.378 59.0128C53.3619 59.0036 53.3459 58.9941 53.3298 58.9849L53.6247 58.396C53.6269 58.3963 53.6291 58.3965 53.6313 58.3969C53.6557 58.3372 53.6617 58.2526 53.7069 58.222C53.9783 58.0394 54.2232 57.8123 54.5642 57.7393C54.6474 57.7215 54.7183 57.6565 54.8004 57.6269C54.8452 57.6109 54.9014 57.6241 54.9997 57.6241C55.0896 57.5394 55.2419 57.4925 55.4618 57.5702C55.3735 57.6175 55.3151 57.6488 55.2566 57.68C55.2303 57.6822 55.204 57.6843 55.1777 57.6862C55.1804 57.6948 55.1828 57.7031 55.1855 57.7117C55.2083 57.6999 55.231 57.6884 55.2537 57.6766L55.2535 57.6768ZM55.1574 64.3382C54.7725 64.0569 54.4246 63.8028 54.0767 63.5485C54.2326 64.1147 54.5939 64.3746 55.1574 64.3382ZM56.6614 64.8795C56.8947 64.9585 56.9903 64.9153 57.1886 64.6742C57.1592 64.6567 57.119 64.6188 57.105 64.6263C56.9669 64.6993 56.8331 64.7798 56.6614 64.8795ZM53.7649 60.8169C53.8532 60.5728 53.9416 60.3286 54.0296 60.0846C53.8557 60.259 53.791 60.4307 53.7649 60.8169ZM55.9647 64.8108C56.1692 64.8915 56.3802 64.8493 56.5421 64.6937C56.3374 64.7352 56.1654 64.7701 55.9647 64.8108ZM53.5912 62.0991H53.6235V61.5323H53.5912V62.0991ZM55.6964 64.5807C55.698 64.5863 55.6993 64.5918 55.7009 64.5972C55.7111 64.5925 55.7221 64.5888 55.731 64.5826C55.733 64.5811 55.7281 64.5706 55.7265 64.5644C55.7165 64.5698 55.7065 64.5753 55.6964 64.5807Z" fill="#95989D"/>
<path d="M100.122 57.8448C100.173 57.8179 100.223 57.7909 100.27 57.7663C100.417 57.8656 100.418 57.9878 100.392 58.1353C100.296 58.6863 100.213 59.2392 100.125 59.7915C100.121 59.8127 100.118 59.8356 100.123 59.8559C100.232 60.3204 100.131 60.7854 100.13 61.2499C100.129 61.4351 100.173 61.62 100.19 61.8056C100.216 62.0766 100.255 62.3482 100.255 62.6197C100.259 63.4382 100.301 64.2517 100.505 65.051C100.53 65.1473 100.538 65.2477 100.555 65.3573C100.46 65.4115 100.371 65.4615 100.255 65.527C100.23 65.4074 100.209 65.3068 100.184 65.1882C100.105 65.225 100.04 65.255 99.9477 65.298C99.8855 65.2164 99.8226 65.1338 99.7464 65.0336H99.5329V65.6619C99.2814 65.679 99.2684 65.6651 99.2653 65.4162H98.964C98.948 64.5726 98.9337 63.7568 98.9163 62.9408C98.8989 62.1327 98.8731 61.3246 98.8601 60.5165C98.8472 59.7035 98.8456 58.8905 98.8164 58.0752C98.8668 57.9549 98.9217 57.7907 99.0956 57.8074C99.1699 57.8144 99.2317 57.9429 99.322 58.0413C99.4038 57.9608 99.5051 57.8611 99.613 57.7549C99.6665 57.7943 99.706 57.8236 99.7508 57.8568C99.8168 57.7442 99.762 57.5648 99.9613 57.525C100.09 57.5927 100.116 57.7155 100.125 57.8474C100.114 57.8699 100.104 57.8921 100.093 57.9146C100.1 57.9168 100.106 57.9189 100.112 57.921C100.115 57.8956 100.118 57.8703 100.122 57.8448ZM99.9373 61.8223V61.6643C99.9274 61.6654 99.9179 61.6665 99.908 61.6675C99.919 61.718 99.9297 61.7686 99.9406 61.8193V62.8534H100.004C100.004 62.619 100.011 62.3842 100.001 62.15C99.9964 62.0402 99.9596 61.9315 99.9373 61.8223ZM99.2174 63.3393L99.1817 63.3387C99.1817 63.4879 99.1766 63.6375 99.1833 63.7865C99.1897 63.9325 99.2085 64.0781 99.2218 64.2238L99.2711 64.22C99.2533 63.9265 99.2352 63.633 99.2174 63.3396V63.3393ZM99.2386 64.9163C99.2459 64.9189 99.2533 64.9215 99.2606 64.924V64.3878C99.2533 64.3878 99.2459 64.3878 99.2386 64.3878V64.9163ZM100.007 63.7578C100.016 63.7563 100.025 63.7551 100.034 63.7536C100.028 63.6821 100.021 63.6108 100.015 63.5393C100.001 63.5412 99.9874 63.5429 99.9738 63.5448C99.985 63.6159 99.9961 63.6868 100.008 63.7578H100.007ZM100.051 58.1135C100.057 58.1139 100.063 58.1141 100.068 58.1145C100.07 58.0974 100.071 58.0805 100.071 58.0634C100.071 58.063 100.06 58.0625 100.055 58.0621C100.054 58.0792 100.053 58.0964 100.051 58.1135Z" fill="#95989D"/>
<path d="M92.508 45.4678C92.6916 45.4925 92.7701 45.5849 92.7549 45.7521C92.8004 45.7677 92.8475 45.7838 92.9213 45.809C92.8198 45.8987 92.7326 45.9762 92.5975 46.0959C92.5952 45.8521 92.4331 45.6836 92.508 45.4678Z" fill="#95989D"/>
<path d="M80.9102 64.7198C80.9135 64.3236 80.9213 63.9299 81.0536 63.5521C81.12 63.6955 81.0098 64.6162 80.9102 64.7198Z" fill="#95989D"/>
<path d="M91.9369 47.5139C91.9363 47.52 91.9374 47.5302 91.9349 47.5311C91.9287 47.5333 91.9212 47.5311 91.9141 47.5306C91.9147 47.5245 91.9136 47.5144 91.9161 47.5135C91.9223 47.5114 91.9299 47.5135 91.9369 47.5139Z" fill="#95989D"/>
<path d="M85.7258 53.7937C85.7204 53.7952 85.7142 53.7991 85.7097 53.7978C85.7052 53.7965 85.7026 53.7899 85.6992 53.7856L85.7242 53.7777L85.7258 53.7937Z" fill="#95989D"/>
</g>
<defs>
<clipPath id="clip0_2560_1440">
<rect width="77" height="37" fill="white" transform="translate(34 30)"/>
</clipPath>
</defs>
</svg>
