<svg width="200" height="171" viewBox="0 0 200 171" fill="none" xmlns="http://www.w3.org/2000/svg">
<rect width="200" height="171" fill="white"/>
<path d="M106 66C106 59.9249 110.925 55 117 55H169C175.075 55 180 59.9249 180 66V66C180 72.0751 175.075 77 169 77H117C110.925 77 106 72.0751 106 66V66Z" fill="#D9F4F7"/>
<path d="M114.61 70V62.85H116.15L118.15 68.35H118.17L120.16 62.85H121.7V70H120.54V64.58H120.52L118.63 70H117.68L115.79 64.58H115.77V70H114.61ZM125.92 66.23C125.92 65.86 125.7 65.58 125 65.58C124.16 65.58 123.85 65.84 123.8 66.5H122.78C122.83 65.52 123.46 64.75 125 64.75C126.13 64.75 126.97 65.18 126.97 66.54V68.97C126.97 69.33 127.05 69.52 127.46 69.48V69.98C127.22 70.07 127.05 70.09 126.85 70.09C126.29 70.09 126.03 69.89 125.93 69.39H125.91C125.59 69.84 125.01 70.15 124.22 70.15C123.18 70.15 122.54 69.55 122.54 68.69C122.54 67.57 123.37 67.22 124.65 66.97C125.44 66.82 125.92 66.72 125.92 66.23ZM124.45 69.32C125.32 69.32 125.92 68.89 125.92 68.06V67.29C125.75 67.41 125.34 67.53 124.85 67.63C123.98 67.82 123.6 68.07 123.6 68.59C123.6 69.06 123.88 69.32 124.45 69.32ZM130.824 64.75C131.774 64.75 132.524 65.3 132.524 66.47V70H131.464V66.77C131.464 66.08 131.174 65.64 130.454 65.64C129.644 65.64 129.124 66.13 129.124 66.89V70H128.074V64.89H129.124V65.55H129.144C129.414 65.15 129.944 64.75 130.824 64.75ZM136.574 66.23C136.574 65.86 136.354 65.58 135.654 65.58C134.814 65.58 134.504 65.84 134.454 66.5H133.434C133.484 65.52 134.114 64.75 135.654 64.75C136.784 64.75 137.624 65.18 137.624 66.54V68.97C137.624 69.33 137.704 69.52 138.114 69.48V69.98C137.874 70.07 137.704 70.09 137.504 70.09C136.944 70.09 136.684 69.89 136.584 69.39H136.564C136.244 69.84 135.664 70.15 134.874 70.15C133.834 70.15 133.194 69.55 133.194 68.69C133.194 67.57 134.024 67.22 135.304 66.97C136.094 66.82 136.574 66.72 136.574 66.23ZM135.104 69.32C135.974 69.32 136.574 68.89 136.574 68.06V67.29C136.404 67.41 135.994 67.53 135.504 67.63C134.634 67.82 134.254 68.07 134.254 68.59C134.254 69.06 134.534 69.32 135.104 69.32ZM142.269 64.89H143.319V69.65C143.319 71.12 142.429 71.77 140.979 71.77C139.509 71.77 138.699 71 138.589 70.14H139.649C139.749 70.59 140.109 70.93 140.939 70.93C141.819 70.93 142.269 70.53 142.269 69.61V68.99H142.249C141.979 69.37 141.509 69.75 140.699 69.75C139.419 69.75 138.459 68.86 138.459 67.25C138.459 65.63 139.419 64.75 140.699 64.75C141.509 64.75 141.979 65.13 142.249 65.49H142.269V64.89ZM140.899 68.89C141.749 68.89 142.259 68.33 142.259 67.25C142.259 66.17 141.749 65.61 140.899 65.61C139.979 65.61 139.509 66.3 139.509 67.25C139.509 68.19 139.979 68.89 140.899 68.89ZM146.574 69.29C147.444 69.29 147.794 68.75 147.884 68.44H148.934C148.674 69.41 147.914 70.15 146.604 70.15C145.014 70.15 144.044 69.05 144.044 67.45C144.044 65.79 145.014 64.75 146.554 64.75C148.204 64.75 149.014 65.9 149.014 67.72H145.094C145.094 68.58 145.644 69.29 146.574 69.29ZM146.554 65.58C145.704 65.58 145.094 66.15 145.094 66.94H147.964C147.964 66.15 147.404 65.58 146.554 65.58ZM155.374 64.75C156.404 64.75 156.934 65.37 156.934 66.47V70H155.874V66.77C155.874 66.08 155.734 65.64 155.014 65.64C154.304 65.64 153.864 66.13 153.864 66.89V70H152.804V66.77C152.804 66.08 152.664 65.64 151.934 65.64C151.234 65.64 150.784 66.13 150.784 66.89V70H149.734V64.89H150.784V65.55H150.804C151.074 65.15 151.554 64.75 152.324 64.75C153.044 64.75 153.474 65.08 153.684 65.63H153.704C154.084 65.14 154.584 64.75 155.374 64.75ZM160.168 69.29C161.038 69.29 161.388 68.75 161.478 68.44H162.528C162.268 69.41 161.508 70.15 160.198 70.15C158.608 70.15 157.638 69.05 157.638 67.45C157.638 65.79 158.608 64.75 160.148 64.75C161.798 64.75 162.608 65.9 162.608 67.72H158.688C158.688 68.58 159.238 69.29 160.168 69.29ZM160.148 65.58C159.298 65.58 158.688 66.15 158.688 66.94H161.558C161.558 66.15 160.998 65.58 160.148 65.58ZM166.078 64.75C167.028 64.75 167.778 65.3 167.778 66.47V70H166.718V66.77C166.718 66.08 166.428 65.64 165.708 65.64C164.898 65.64 164.378 66.13 164.378 66.89V70H163.328V64.89H164.378V65.55H164.398C164.668 65.15 165.198 64.75 166.078 64.75ZM171.081 65.75H170.121V68.52C170.121 69.1 170.401 69.17 171.081 69.13V69.99C170.871 70.04 170.641 70.07 170.361 70.07C169.521 70.07 169.061 69.69 169.061 68.61V65.75H168.321V64.89H169.061V63.28H170.121V64.89H171.081V65.75Z" fill="black"/>
<path d="M114 104C114 97.9249 118.925 93 125 93H169C175.075 93 180 97.9249 180 104V104C180 110.075 175.075 115 169 115H125C118.925 115 114 110.075 114 104V104Z" fill="#FFDCEA"/>
<path d="M122.61 108V100.85H125.39C127.36 100.85 128.57 102.13 128.57 104.43C128.57 106.73 127.4 108 125.42 108H122.61ZM123.8 101.86V106.99H125.33C126.93 106.99 127.38 105.8 127.38 104.43C127.38 103.06 126.93 101.86 125.33 101.86H123.8ZM131.674 107.29C132.544 107.29 132.894 106.75 132.984 106.44H134.034C133.774 107.41 133.014 108.15 131.704 108.15C130.114 108.15 129.144 107.05 129.144 105.45C129.144 103.79 130.114 102.75 131.654 102.75C133.304 102.75 134.114 103.9 134.114 105.72H130.194C130.194 106.58 130.744 107.29 131.674 107.29ZM131.654 103.58C130.804 103.58 130.194 104.15 130.194 104.94H133.064C133.064 104.15 132.504 103.58 131.654 103.58ZM134.217 102.89H135.327L136.617 106.89H136.627L137.917 102.89H139.027L137.217 108H136.027L134.217 102.89ZM141.664 107.29C142.534 107.29 142.884 106.75 142.974 106.44H144.024C143.764 107.41 143.004 108.15 141.694 108.15C140.104 108.15 139.134 107.05 139.134 105.45C139.134 103.79 140.104 102.75 141.644 102.75C143.294 102.75 144.104 103.9 144.104 105.72H140.184C140.184 106.58 140.734 107.29 141.664 107.29ZM141.644 103.58C140.794 103.58 140.184 104.15 140.184 104.94H143.054C143.054 104.15 142.494 103.58 141.644 103.58ZM144.844 100.85H145.904V108H144.844V100.85ZM149.224 108.15C147.624 108.15 146.654 107.04 146.654 105.45C146.654 103.86 147.624 102.75 149.224 102.75C150.824 102.75 151.794 103.86 151.794 105.45C151.794 107.04 150.824 108.15 149.224 108.15ZM149.224 107.29C150.224 107.29 150.744 106.5 150.744 105.45C150.744 104.39 150.224 103.61 149.224 103.61C148.224 103.61 147.704 104.39 147.704 105.45C147.704 106.5 148.224 107.29 149.224 107.29ZM155.17 102.75C156.47 102.75 157.44 103.77 157.44 105.45C157.44 107.13 156.47 108.15 155.17 108.15C154.37 108.15 153.87 107.77 153.6 107.39H153.58V109.74H152.52V102.89H153.58V103.49H153.6C153.87 103.13 154.37 102.75 155.17 102.75ZM154.97 107.29C155.89 107.29 156.38 106.45 156.38 105.45C156.38 104.45 155.89 103.61 154.97 103.61C154.12 103.61 153.59 104.31 153.59 105.45C153.59 106.58 154.12 107.29 154.97 107.29ZM160.463 107.29C161.333 107.29 161.683 106.75 161.773 106.44H162.823C162.563 107.41 161.803 108.15 160.493 108.15C158.903 108.15 157.933 107.05 157.933 105.45C157.933 103.79 158.903 102.75 160.443 102.75C162.093 102.75 162.903 103.9 162.903 105.72H158.983C158.983 106.58 159.533 107.29 160.463 107.29ZM160.443 103.58C159.593 103.58 158.983 104.15 158.983 104.94H161.853C161.853 104.15 161.293 103.58 160.443 103.58ZM166.053 102.77C166.233 102.77 166.363 102.78 166.513 102.8V103.79H166.493C165.483 103.62 164.673 104.3 164.673 105.39V108H163.623V102.89H164.673V103.85H164.693C164.963 103.21 165.383 102.77 166.053 102.77ZM169.398 104.91C170.338 105.13 171.358 105.34 171.358 106.56C171.358 107.54 170.518 108.15 169.278 108.15C167.628 108.15 166.918 107.38 166.868 106.3H167.888C167.938 106.85 168.178 107.32 169.257 107.32C169.988 107.32 170.298 106.96 170.298 106.64C170.298 106 169.688 105.95 168.938 105.77C168.128 105.58 167.028 105.42 167.028 104.26C167.028 103.42 167.768 102.75 169.048 102.75C170.438 102.75 171.098 103.5 171.168 104.39H170.148C170.078 103.99 169.878 103.58 169.058 103.58C168.428 103.58 168.088 103.82 168.088 104.18C168.088 104.7 168.658 104.74 169.398 104.91Z" fill="black"/>
<path d="M135 142C135 135.925 139.925 131 146 131H169C175.075 131 180 135.925 180 142V142C180 148.075 175.075 153 169 153H146C139.925 153 135 148.075 135 142V142Z" fill="#E8F9DD"/>
<path d="M146.32 141.74C147.85 142.13 149.01 142.46 149.01 144.06C149.01 145.2 148.15 146.15 146.35 146.15C144.6 146.15 143.27 145.24 143.2 143.62H144.39C144.45 144.53 145.07 145.13 146.35 145.13C147.41 145.13 147.82 144.66 147.82 144.11C147.82 143.26 147.21 143.1 145.8 142.75C144.68 142.47 143.47 142.04 143.47 140.68C143.47 139.41 144.45 138.7 146.01 138.7C147.58 138.7 148.72 139.52 148.82 140.99H147.63C147.52 140.16 147 139.72 146.01 139.72C145.16 139.72 144.65 140.04 144.65 140.57C144.65 141.35 145.32 141.49 146.32 141.74ZM152.108 145.29C152.978 145.29 153.328 144.75 153.418 144.44H154.468C154.208 145.41 153.448 146.15 152.138 146.15C150.548 146.15 149.578 145.05 149.578 143.45C149.578 141.79 150.548 140.75 152.088 140.75C153.738 140.75 154.548 141.9 154.548 143.72H150.628C150.628 144.58 151.178 145.29 152.108 145.29ZM152.088 141.58C151.238 141.58 150.628 142.15 150.628 142.94H153.498C153.498 142.15 152.938 141.58 152.088 141.58ZM158.018 140.75C158.968 140.75 159.718 141.3 159.718 142.47V146H158.658V142.77C158.658 142.08 158.368 141.64 157.648 141.64C156.838 141.64 156.318 142.13 156.318 142.89V146H155.268V140.89H156.318V141.55H156.338C156.608 141.15 157.138 140.75 158.018 140.75ZM161.268 140.03C160.978 140.03 160.678 139.83 160.678 139.47C160.678 139.11 160.978 138.92 161.268 138.92C161.578 138.92 161.868 139.11 161.868 139.47C161.868 139.83 161.578 140.03 161.268 140.03ZM160.748 140.89H161.798V146H160.748V140.89ZM165.165 146.15C163.565 146.15 162.595 145.04 162.595 143.45C162.595 141.86 163.565 140.75 165.165 140.75C166.765 140.75 167.735 141.86 167.735 143.45C167.735 145.04 166.765 146.15 165.165 146.15ZM165.165 145.29C166.165 145.29 166.685 144.5 166.685 143.45C166.685 142.39 166.165 141.61 165.165 141.61C164.165 141.61 163.645 142.39 163.645 143.45C163.645 144.5 164.165 145.29 165.165 145.29ZM170.891 140.77C171.071 140.77 171.201 140.78 171.351 140.8V141.79H171.331C170.321 141.62 169.511 142.3 169.511 143.39V146H168.461V140.89H169.511V141.85H169.531C169.801 141.21 170.221 140.77 170.891 140.77Z" fill="black"/>
<path opacity="0.1" d="M20 85L180 85" stroke="black" stroke-linecap="square"/>
<path opacity="0.1" d="M20 123L180 123" stroke="black" stroke-linecap="square"/>
<path d="M20.768 70V61.42H24.344C25.964 61.42 27.164 62.176 27.164 63.976C27.164 65.776 25.964 66.52 24.344 66.52H22.088V70H20.768ZM22.088 65.38H24.284C25.28 65.38 25.784 64.936 25.784 63.976C25.784 63.004 25.28 62.56 24.284 62.56H22.088V65.38ZM29.395 70.168C28.171 70.168 27.391 69.46 27.391 68.416C27.391 67.048 28.423 66.652 29.947 66.352C30.907 66.172 31.495 66.052 31.495 65.452C31.495 65.008 31.231 64.636 30.331 64.636C29.263 64.636 28.939 64.972 28.879 65.788H27.679C27.739 64.612 28.507 63.688 30.379 63.688C31.639 63.688 32.647 64.216 32.647 65.8V68.608C32.647 69.052 32.707 69.28 32.935 69.28C32.971 69.28 33.007 69.28 33.079 69.268V69.988C32.875 70.036 32.671 70.06 32.479 70.06C31.903 70.06 31.579 69.832 31.519 69.136H31.495C31.087 69.772 30.391 70.168 29.395 70.168ZM29.659 69.22C30.715 69.22 31.495 68.68 31.495 67.612V66.736C31.303 66.916 30.775 67.048 30.151 67.18C29.071 67.408 28.627 67.696 28.627 68.332C28.627 68.908 28.927 69.22 29.659 69.22ZM35.2303 69.244H35.2063V70H34.0303V61.42H35.2063V64.6H35.2303C35.5663 64.168 36.1543 63.7 37.1143 63.7C38.6743 63.7 39.8623 64.924 39.8623 66.94C39.8623 68.956 38.6743 70.168 37.1143 70.168C36.1543 70.168 35.5663 69.736 35.2303 69.244ZM36.9223 64.684C35.8663 64.684 35.2183 65.548 35.2183 66.94C35.2183 68.32 35.8663 69.196 36.9223 69.196C38.0743 69.196 38.6263 68.14 38.6263 66.94C38.6263 65.74 38.0743 64.684 36.9223 64.684ZM40.8388 61.42H42.0148V70H40.8388V61.42ZM46.0489 70.18C44.1409 70.18 42.9889 68.86 42.9889 66.94C42.9889 65.032 44.1409 63.688 46.0489 63.688C47.9569 63.688 49.1089 65.02 49.1089 66.928C49.1089 68.848 47.9569 70.18 46.0489 70.18ZM46.0489 69.208C47.2969 69.208 47.8849 68.212 47.8849 66.94C47.8849 65.656 47.2969 64.672 46.0489 64.672C44.7889 64.672 44.2129 65.656 44.2129 66.94C44.2129 68.212 44.7889 69.208 46.0489 69.208Z" fill="black"/>
<path d="M20.768 108V99.42H24.032C26.408 99.42 27.848 100.956 27.848 103.716C27.848 106.476 26.432 108 24.056 108H20.768ZM22.088 100.56V106.86H23.972C25.964 106.86 26.48 105.372 26.48 103.716C26.48 102.06 25.964 100.56 23.972 100.56H22.088ZM30.5083 108.168C29.2843 108.168 28.5043 107.46 28.5043 106.416C28.5043 105.048 29.5363 104.652 31.0603 104.352C32.0203 104.172 32.6083 104.052 32.6083 103.452C32.6083 103.008 32.3443 102.636 31.4443 102.636C30.3763 102.636 30.0523 102.972 29.9923 103.788H28.7923C28.8523 102.612 29.6203 101.688 31.4923 101.688C32.7523 101.688 33.7603 102.216 33.7603 103.8V106.608C33.7603 107.052 33.8203 107.28 34.0483 107.28C34.0843 107.28 34.1203 107.28 34.1923 107.268V107.988C33.9883 108.036 33.7843 108.06 33.5923 108.06C33.0163 108.06 32.6923 107.832 32.6323 107.136H32.6083C32.2003 107.772 31.5043 108.168 30.5083 108.168ZM30.7723 107.22C31.8283 107.22 32.6083 106.68 32.6083 105.612V104.736C32.4163 104.916 31.8883 105.048 31.2643 105.18C30.1843 105.408 29.7402 105.696 29.7402 106.332C29.7402 106.908 30.0403 107.22 30.7723 107.22ZM35.1435 108V101.88H36.3195V102.648H36.3435C36.6675 102.18 37.3035 101.7 38.3595 101.7C39.4875 101.7 40.3995 102.348 40.3995 103.752V108H39.2115V104.076C39.2115 103.26 38.8515 102.708 37.9755 102.708C36.9675 102.708 36.3195 103.32 36.3195 104.244V108H35.1435Z" fill="black"/>
<path d="M24.008 140.96C25.664 141.38 27.224 141.776 27.224 143.588C27.224 145.064 26.216 146.168 24.08 146.168C21.908 146.168 20.372 145.04 20.288 143.108H21.656C21.752 144.26 22.436 145.04 24.044 145.04C25.412 145.04 25.844 144.44 25.844 143.66C25.844 142.568 25.004 142.412 23.444 142.016C22.1 141.668 20.624 141.224 20.624 139.592C20.624 138.104 21.776 137.252 23.624 137.252C25.58 137.252 26.852 138.248 26.984 139.976H25.604C25.472 138.944 24.884 138.38 23.624 138.38C22.556 138.38 21.992 138.776 21.992 139.52C21.992 140.48 22.904 140.684 24.008 140.96ZM29.9857 145.94L27.5017 139.88H28.7857L30.5737 144.56H30.5977L32.2897 139.88H33.5137L31.1017 146.144C30.5017 147.656 29.9137 148.148 28.9657 148.148C28.7017 148.148 28.5217 148.124 28.2097 148.064V147.104C28.4137 147.128 28.5217 147.14 28.7137 147.14C29.1937 147.14 29.7337 146.9 29.9857 145.94ZM38.2925 140.624H38.3165V137.42H39.5045V146H38.3165V145.28H38.2925C37.9685 145.712 37.3685 146.168 36.4085 146.168C34.8485 146.168 33.6725 144.956 33.6725 142.94C33.6725 140.924 34.8485 139.7 36.4085 139.7C37.3685 139.7 37.9685 140.144 38.2925 140.624ZM36.6005 145.196C37.6565 145.196 38.3165 144.32 38.3165 142.94C38.3165 141.548 37.6565 140.684 36.6005 140.684C35.4485 140.684 34.8965 141.74 34.8965 142.94C34.8965 144.14 35.4485 145.196 36.6005 145.196ZM40.8154 146V139.88H41.9914V140.648H42.0154C42.3394 140.18 42.9754 139.7 44.0314 139.7C45.1594 139.7 46.0714 140.348 46.0714 141.752V146H44.8834V142.076C44.8834 141.26 44.5234 140.708 43.6474 140.708C42.6394 140.708 41.9914 141.32 41.9914 142.244V146H40.8154ZM50.0207 146.18C48.0767 146.18 46.9967 144.8 46.9967 142.928C46.9967 141.008 48.1487 139.688 50.0207 139.688C51.8807 139.688 52.9247 140.912 52.9247 142.808C52.9247 142.976 52.9247 143.156 52.9127 143.252H48.2087C48.2327 144.284 48.8327 145.22 50.0447 145.22C51.1247 145.22 51.5327 144.524 51.6527 144.116H52.8407C52.5287 145.292 51.6287 146.18 50.0207 146.18ZM49.9847 140.648C49.0007 140.648 48.2807 141.32 48.2087 142.328H51.6887C51.6887 141.368 51.0287 140.648 49.9847 140.648ZM55.5677 145.94L53.0837 139.88H54.3677L56.1557 144.56H56.1797L57.8717 139.88H59.0957L56.6837 146.144C56.0837 147.656 55.4957 148.148 54.5477 148.148C54.2837 148.148 54.1037 148.124 53.7917 148.064V147.104C53.9957 147.128 54.1037 147.14 54.2957 147.14C54.7757 147.14 55.3157 146.9 55.5677 145.94Z" fill="black"/>
<path d="M22.436 29.162H27.294V30.492H22.436V33.67H28.12V35H20.896V24.99H27.98V26.32H22.436V29.162ZM29.2729 35V27.86H30.6449V28.756H30.6729C31.0509 28.21 31.7089 27.65 32.7869 27.65C33.7809 27.65 34.3829 28.098 34.6769 28.896H34.7049C35.2229 28.21 35.9369 27.65 37.0429 27.65C38.4849 27.65 39.2129 28.518 39.2129 30.044V35H37.8409V30.422C37.8409 29.47 37.6449 28.826 36.5949 28.826C35.5729 28.826 34.9289 29.54 34.9289 30.618V35H33.5569V30.422C33.5569 29.47 33.3609 28.826 32.3109 28.826C31.2889 28.826 30.6449 29.54 30.6449 30.618V35H29.2729ZM42.0889 34.118H42.0609V37.478H40.6889V27.86H42.0609V28.7H42.0889C42.4809 28.196 43.1669 27.65 44.2869 27.65C46.1069 27.65 47.4929 29.078 47.4929 31.43C47.4929 33.782 46.1069 35.196 44.2869 35.196C43.1669 35.196 42.4809 34.692 42.0889 34.118ZM44.0629 28.798C42.8309 28.798 42.0749 29.806 42.0749 31.43C42.0749 33.04 42.8309 34.062 44.0629 34.062C45.4069 34.062 46.0509 32.83 46.0509 31.43C46.0509 30.03 45.4069 28.798 44.0629 28.798ZM48.6323 24.99H50.0043V35H48.6323V24.99ZM54.7107 35.21C52.4847 35.21 51.1407 33.67 51.1407 31.43C51.1407 29.204 52.4847 27.636 54.7107 27.636C56.9367 27.636 58.2807 29.19 58.2807 31.416C58.2807 33.656 56.9367 35.21 54.7107 35.21ZM54.7107 34.076C56.1667 34.076 56.8527 32.914 56.8527 31.43C56.8527 29.932 56.1667 28.784 54.7107 28.784C53.2407 28.784 52.5687 29.932 52.5687 31.43C52.5687 32.914 53.2407 34.076 54.7107 34.076ZM61.359 34.93L58.461 27.86H59.959L62.045 33.32H62.073L64.047 27.86H65.475L62.661 35.168C61.961 36.932 61.275 37.506 60.169 37.506C59.861 37.506 59.651 37.478 59.287 37.408V36.288C59.525 36.316 59.651 36.33 59.875 36.33C60.435 36.33 61.065 36.05 61.359 34.93ZM69.1882 35.21C66.9202 35.21 65.6602 33.6 65.6602 31.416C65.6602 29.176 67.0042 27.636 69.1882 27.636C71.3582 27.636 72.5762 29.064 72.5762 31.276C72.5762 31.472 72.5762 31.682 72.5622 31.794H67.0742C67.1022 32.998 67.8022 34.09 69.2162 34.09C70.4762 34.09 70.9522 33.278 71.0922 32.802H72.4782C72.1142 34.174 71.0642 35.21 69.1882 35.21ZM69.1462 28.756C67.9982 28.756 67.1582 29.54 67.0742 30.716H71.1342C71.1342 29.596 70.3642 28.756 69.1462 28.756ZM76.9402 35.21C74.6722 35.21 73.4122 33.6 73.4122 31.416C73.4122 29.176 74.7562 27.636 76.9402 27.636C79.1102 27.636 80.3282 29.064 80.3282 31.276C80.3282 31.472 80.3282 31.682 80.3142 31.794H74.8262C74.8542 32.998 75.5542 34.09 76.9682 34.09C78.2282 34.09 78.7042 33.278 78.8442 32.802H80.2302C79.8662 34.174 78.8162 35.21 76.9402 35.21ZM76.8982 28.756C75.7502 28.756 74.9102 29.54 74.8262 30.716H78.8862C78.8862 29.596 78.1162 28.756 76.8982 28.756ZM84.4428 30.688C85.7448 30.996 87.1728 31.374 87.1728 32.97C87.1728 34.356 86.1088 35.196 84.2328 35.196C82.0628 35.196 80.9848 34.076 80.9428 32.62H82.3288C82.3988 33.446 82.8888 34.09 84.2188 34.09C85.4228 34.09 85.7448 33.558 85.7448 33.04C85.7448 32.144 84.7928 32.046 83.8688 31.85C82.6228 31.57 81.1948 31.192 81.1948 29.708C81.1948 28.476 82.1888 27.65 83.9248 27.65C85.8708 27.65 86.8088 28.7 86.9068 29.932H85.5208C85.4228 29.386 85.1428 28.756 83.9388 28.756C83.0288 28.756 82.6228 29.12 82.6228 29.652C82.6228 30.394 83.4208 30.45 84.4428 30.688Z" fill="black"/>
<path d="M0 124H200V159C200 165.627 194.627 171 188 171H12C5.37258 171 0 165.627 0 159V124Z" fill="url(#paint0_linear_2663_5145)"/>
<defs>
<linearGradient id="paint0_linear_2663_5145" x1="100" y1="124" x2="100" y2="171" gradientUnits="userSpaceOnUse">
<stop stop-color="white" stop-opacity="0"/>
<stop offset="0.84" stop-color="white"/>
</linearGradient>
</defs>
</svg>
