<svg width="213" height="126" viewBox="0 0 213 126" fill="none" xmlns="http://www.w3.org/2000/svg">
<rect width="213" height="126" fill="white"/>
<rect opacity="0.2" x="20" y="52" width="48" height="48" rx="8" fill="#FFB800"/>
<rect x="21" y="53" width="46" height="46" rx="7" stroke="#FFB800" stroke-width="2"/>
<g clip-path="url(#clip0_2663_5062)">
<path d="M52.4877 67.8825C52.4877 69.6572 51.0473 71.059 49.3073 71.059C47.5709 71.059 46.1348 69.6538 46.1348 67.8825C46.1348 66.1284 47.5588 64.7061 49.3073 64.7061C51.0636 64.7061 52.4877 66.1284 52.4877 67.8825Z" fill="#FFB800"/>
<path d="M41.7407 72.7213C41.8274 72.6041 41.7428 72.4383 41.597 72.4398L36.1422 72.4969C35.428 72.4969 34.7516 71.8838 34.7516 71.0195C34.7516 70.2096 35.3798 69.5421 36.1422 69.5421H41.7681C45.8716 69.3582 47.8352 72.4289 48.3625 72.7961C48.8213 73.2385 49.2863 73.8509 49.9075 73.8509H53.8845C54.6663 73.8509 55.3014 74.4821 55.3062 75.2639C55.3111 76.0525 54.6732 76.6944 53.8845 76.6944H47.9236C47.7066 76.6944 47.5005 76.5993 47.3598 76.4341C47.0478 76.0677 46.4747 76.0916 46.1943 76.4826L45.579 77.3406C45.3344 77.6817 45.3479 78.1442 45.6121 78.4704C46.1384 79.1205 47.2355 80.4744 47.1696 80.393C48.2001 81.5028 48.059 83.6102 46.8519 84.5101L43.6566 86.9673C43.1131 87.3648 42.3931 87.3573 41.8566 86.9448C41.4401 86.6073 41.2284 86.1049 41.2284 85.6024C41.2284 85.0774 41.4613 84.5525 41.9272 84.2225L44.1413 82.4703C44.3672 82.2978 44.4095 81.9528 44.226 81.7203C42.8877 80.04 41.2461 80.2364 40.7037 80.1455L35.6496 86.625C35.0745 87.3952 34.028 87.4926 33.3342 86.9099C32.6213 86.3025 32.4942 85.2 33.0661 84.4351L41.7407 72.7213Z" fill="#FFB800"/>
</g>
<path d="M20.896 35V24.99H25.11C27.168 24.99 28.372 25.914 28.372 27.51C28.372 28.742 27.644 29.316 26.818 29.596V29.624C27.868 29.806 28.764 30.576 28.764 32.074C28.764 33.992 27.434 35 25.362 35H20.896ZM22.436 29.148H25.068C26.328 29.148 26.762 28.63 26.762 27.734C26.762 26.852 26.23 26.32 25.18 26.32H22.436V29.148ZM22.436 33.67H25.25C26.734 33.67 27.154 32.956 27.154 32.018C27.154 30.968 26.51 30.366 25.46 30.366H22.436V33.67ZM33.1218 35.21C30.8538 35.21 29.5938 33.6 29.5938 31.416C29.5938 29.176 30.9378 27.636 33.1218 27.636C35.2918 27.636 36.5098 29.064 36.5098 31.276C36.5098 31.472 36.5098 31.682 36.4958 31.794H31.0078C31.0358 32.998 31.7358 34.09 33.1498 34.09C34.4098 34.09 34.8858 33.278 35.0258 32.802H36.4118C36.0478 34.174 34.9978 35.21 33.1218 35.21ZM33.0798 28.756C31.9318 28.756 31.0918 29.54 31.0078 30.716H35.0678C35.0678 29.596 34.2978 28.756 33.0798 28.756ZM37.6538 35V27.86H39.0258V28.756H39.0538C39.4318 28.21 40.1738 27.65 41.4058 27.65C42.7218 27.65 43.7858 28.406 43.7858 30.044V35H42.3998V30.422C42.3998 29.47 41.9798 28.826 40.9578 28.826C39.7818 28.826 39.0258 29.54 39.0258 30.618V35H37.6538ZM48.3933 35.21C46.1253 35.21 44.8653 33.6 44.8653 31.416C44.8653 29.176 46.2093 27.636 48.3933 27.636C50.5633 27.636 51.7813 29.064 51.7813 31.276C51.7813 31.472 51.7813 31.682 51.7673 31.794H46.2793C46.3073 32.998 47.0073 34.09 48.4213 34.09C49.6813 34.09 50.1573 33.278 50.2973 32.802H51.6833C51.3193 34.174 50.2693 35.21 48.3933 35.21ZM48.3513 28.756C47.2033 28.756 46.3633 29.54 46.2793 30.716H50.3393C50.3393 29.596 49.5693 28.756 48.3513 28.756ZM54.5692 35H53.1972V28.994H52.2172V27.86H53.1972V26.992C53.1972 25.34 53.8832 24.892 55.0452 24.892C55.2972 24.892 55.5212 24.92 55.9132 24.976V26.082C55.6332 26.054 55.5212 26.04 55.3252 26.04C54.7512 26.04 54.5692 26.208 54.5692 26.964V27.86H55.9132V28.994H54.5692V35ZM56.7532 25.102H58.3072V26.586H56.7532V25.102ZM56.8372 27.86H58.2092V35H56.8372V27.86ZM59.1895 27.86H60.2255V25.564H61.5975V27.86H62.9695V28.994H61.5975V33.026C61.5975 33.782 61.8075 33.95 62.3955 33.95C62.6195 33.95 62.7315 33.936 62.9835 33.894V35C62.6195 35.07 62.4095 35.084 62.1015 35.084C60.9395 35.084 60.2255 34.636 60.2255 32.984V28.994H59.1895V27.86ZM67.1068 30.688C68.4088 30.996 69.8368 31.374 69.8368 32.97C69.8368 34.356 68.7728 35.196 66.8968 35.196C64.7268 35.196 63.6488 34.076 63.6068 32.62H64.9928C65.0628 33.446 65.5528 34.09 66.8828 34.09C68.0868 34.09 68.4088 33.558 68.4088 33.04C68.4088 32.144 67.4568 32.046 66.5328 31.85C65.2868 31.57 63.8588 31.192 63.8588 29.708C63.8588 28.476 64.8528 27.65 66.5888 27.65C68.5348 27.65 69.4728 28.7 69.5708 29.932H68.1848C68.0868 29.386 67.8068 28.756 66.6028 28.756C65.6928 28.756 65.2868 29.12 65.2868 29.652C65.2868 30.394 66.0848 30.45 67.1068 30.688ZM73.504 27.86H74.54V25.564H75.912V27.86H77.284V28.994H75.912V33.026C75.912 33.782 76.122 33.95 76.71 33.95C76.934 33.95 77.046 33.936 77.298 33.894V35C76.934 35.07 76.724 35.084 76.416 35.084C75.254 35.084 74.54 34.636 74.54 32.984V28.994H73.504V27.86ZM80.3436 35.196C78.9156 35.196 78.0056 34.37 78.0056 33.152C78.0056 31.556 79.2096 31.094 80.9876 30.744C82.1076 30.534 82.7936 30.394 82.7936 29.694C82.7936 29.176 82.4856 28.742 81.4356 28.742C80.1896 28.742 79.8116 29.134 79.7416 30.086H78.3416C78.4116 28.714 79.3076 27.636 81.4916 27.636C82.9616 27.636 84.1376 28.252 84.1376 30.1V33.376C84.1376 33.894 84.2076 34.16 84.4736 34.16C84.5156 34.16 84.5576 34.16 84.6416 34.146V34.986C84.4036 35.042 84.1656 35.07 83.9416 35.07C83.2696 35.07 82.8916 34.804 82.8216 33.992H82.7936C82.3176 34.734 81.5056 35.196 80.3436 35.196ZM80.6516 34.09C81.8836 34.09 82.7936 33.46 82.7936 32.214V31.192C82.5696 31.402 81.9536 31.556 81.2256 31.71C79.9656 31.976 79.4476 32.312 79.4476 33.054C79.4476 33.726 79.7976 34.09 80.6516 34.09ZM85.6534 25.102H87.2074V26.586H85.6534V25.102ZM85.7514 27.86H87.1234V35H85.7514V27.86ZM88.7046 24.99H90.0766V35H88.7046V24.99ZM94.783 35.21C92.557 35.21 91.213 33.67 91.213 31.43C91.213 29.204 92.557 27.636 94.783 27.636C97.009 27.636 98.353 29.19 98.353 31.416C98.353 33.656 97.009 35.21 94.783 35.21ZM94.783 34.076C96.239 34.076 96.925 32.914 96.925 31.43C96.925 29.932 96.239 28.784 94.783 28.784C93.313 28.784 92.641 29.932 92.641 31.43C92.641 32.914 93.313 34.076 94.783 34.076ZM99.4917 27.86H100.864V29.218H100.892C101.256 28.322 101.844 27.692 102.81 27.692C103.062 27.692 103.258 27.706 103.468 27.734V29.05C103.286 29.022 103.16 29.008 103.006 29.008C101.76 29.008 100.864 29.946 100.864 31.304V35H99.4917V27.86ZM107.305 35.21C105.037 35.21 103.777 33.6 103.777 31.416C103.777 29.176 105.121 27.636 107.305 27.636C109.475 27.636 110.693 29.064 110.693 31.276C110.693 31.472 110.693 31.682 110.679 31.794H105.191C105.219 32.998 105.919 34.09 107.333 34.09C108.593 34.09 109.069 33.278 109.209 32.802H110.595C110.231 34.174 109.181 35.21 107.305 35.21ZM107.263 28.756C106.115 28.756 105.275 29.54 105.191 30.716H109.251C109.251 29.596 108.481 28.756 107.263 28.756ZM116.919 28.728H116.947V24.99H118.333V35H116.947V34.16H116.919C116.541 34.664 115.841 35.196 114.721 35.196C112.901 35.196 111.529 33.782 111.529 31.43C111.529 29.078 112.901 27.65 114.721 27.65C115.841 27.65 116.541 28.168 116.919 28.728ZM114.945 34.062C116.177 34.062 116.947 33.04 116.947 31.43C116.947 29.806 116.177 28.798 114.945 28.798C113.601 28.798 112.957 30.03 112.957 31.43C112.957 32.83 113.601 34.062 114.945 34.062ZM122.395 27.86H123.431V25.564H124.803V27.86H126.175V28.994H124.803V33.026C124.803 33.782 125.013 33.95 125.601 33.95C125.825 33.95 125.937 33.936 126.189 33.894V35C125.825 35.07 125.615 35.084 125.307 35.084C124.145 35.084 123.431 34.636 123.431 32.984V28.994H122.395V27.86ZM130.357 35.21C128.131 35.21 126.787 33.67 126.787 31.43C126.787 29.204 128.131 27.636 130.357 27.636C132.583 27.636 133.927 29.19 133.927 31.416C133.927 33.656 132.583 35.21 130.357 35.21ZM130.357 34.076C131.813 34.076 132.499 32.914 132.499 31.43C132.499 29.932 131.813 28.784 130.357 28.784C128.887 28.784 128.215 29.932 128.215 31.43C128.215 32.914 128.887 34.076 130.357 34.076ZM140.41 34.93L137.512 27.86H139.01L141.096 33.32H141.124L143.098 27.86H144.526L141.712 35.168C141.012 36.932 140.326 37.506 139.22 37.506C138.912 37.506 138.702 37.478 138.338 37.408V36.288C138.576 36.316 138.702 36.33 138.926 36.33C139.486 36.33 140.116 36.05 140.41 34.93ZM148.281 35.21C146.055 35.21 144.711 33.67 144.711 31.43C144.711 29.204 146.055 27.636 148.281 27.636C150.507 27.636 151.851 29.19 151.851 31.416C151.851 33.656 150.507 35.21 148.281 35.21ZM148.281 34.076C149.737 34.076 150.423 32.914 150.423 31.43C150.423 29.932 149.737 28.784 148.281 28.784C146.811 28.784 146.139 29.932 146.139 31.43C146.139 32.914 146.811 34.076 148.281 34.076ZM154.306 32.424C154.306 33.39 154.726 34.034 155.748 34.034C156.924 34.034 157.68 33.32 157.68 32.242V27.86H159.052V35H157.68V34.104H157.652C157.274 34.65 156.532 35.196 155.3 35.196C153.984 35.196 152.92 34.44 152.92 32.802V27.86H154.306V32.424Z" fill="black"/>
<rect opacity="0.2" x="78" y="53.5215" width="44" height="44" rx="8" fill="#FD1774"/>
<g clip-path="url(#clip1_2663_5062)">
<path d="M105.91 71.5969H105.906C104.255 71.5969 102.912 70.2624 102.912 68.6207C102.912 66.979 104.255 65.6445 105.91 65.6445C107.561 65.6445 108.904 66.979 108.904 68.6207C108.904 70.258 107.561 71.5925 105.91 71.5969Z" fill="#FD1774"/>
<path d="M100.024 78.3218C101.613 78.3218 103.11 79.5114 103.926 81.4296C104.334 82.391 104.08 83.5015 103.294 84.1907C102.535 84.8579 101.6 85.2706 100.594 85.3847L100.542 85.3891C100.37 85.3935 100.199 85.3979 100.028 85.3979C99.8569 85.3979 99.6857 85.3935 99.5145 85.3891L99.4618 85.3847C98.4522 85.2706 97.5172 84.8579 96.7622 84.1907C95.9765 83.5015 95.7219 82.391 96.1301 81.4296C96.9378 79.5114 98.4347 78.3218 100.024 78.3218Z" fill="#FD1774"/>
<path d="M100.024 77.5843C98.83 77.5843 97.8555 76.6186 97.8555 75.429C97.8555 74.2394 98.8256 73.2737 100.024 73.2737C101.218 73.2737 102.192 74.2394 102.192 75.429C102.192 76.6186 101.218 77.5843 100.024 77.5843Z" fill="#FD1774"/>
<path d="M94.1453 71.5969H94.1365C92.846 71.5969 91.7969 70.5521 91.7969 69.2704C91.7969 67.9886 92.846 66.9438 94.1409 66.9438C95.4315 66.9438 96.485 67.9886 96.485 69.2704C96.4806 70.5477 95.4359 71.5925 94.1453 71.5969Z" fill="#FD1774"/>
<path d="M89.0746 77.0925C89.237 75.3455 90.1983 73.8398 91.7083 72.9663C92.4765 72.5185 93.293 72.2947 94.1314 72.2903H94.1446C95.1805 72.2903 96.2165 72.6546 97.1383 73.3438L97.4105 73.5457L97.2393 73.8398C96.9583 74.3227 96.8091 74.8758 96.8091 75.4333C96.8091 76.1927 97.0856 76.9301 97.5861 77.5096L97.867 77.8344L97.5071 78.0714C96.5106 78.7343 95.6985 79.7527 95.1586 81.03C95.1454 81.0652 95.1323 81.0959 95.1191 81.131C94.7416 82.1011 94.8733 83.1985 95.4351 84.0764L95.6854 84.4671L94.5616 83.993C93.2447 83.4356 92.0332 82.6849 90.9533 81.7587C89.5925 80.5823 88.9034 78.8835 89.0746 77.0925Z" fill="#FD1774"/>
<path d="M104.935 81.1266C104.922 81.0915 104.909 81.0608 104.896 81.0257C104.356 79.7527 103.544 78.7299 102.547 78.067L102.188 77.83L102.468 77.5052C102.969 76.9257 103.245 76.1883 103.245 75.4289C103.245 74.8714 103.096 74.3183 102.815 73.8354L102.644 73.5413L102.916 73.3394C103.838 72.6546 104.87 72.2903 105.906 72.2903H105.914C106.753 72.2903 107.569 72.5185 108.342 72.9663C109.852 73.8398 110.813 75.3455 110.976 77.0925C111.142 78.8835 110.458 80.5867 109.092 81.7587C108.017 82.6849 106.801 83.4356 105.484 83.993L104.246 84.5242L104.523 84.1379C105.155 83.2688 105.326 82.1318 104.935 81.1266Z" fill="#FD1774"/>
</g>
<rect opacity="0.2" x="128.451" y="53.2261" width="44" height="44" rx="8.10518" fill="#01B8C7"/>
<path fill-rule="evenodd" clip-rule="evenodd" d="M149.757 68.4521C149.954 70.3118 149.055 71.9313 147.749 72.0692C146.442 72.2072 145.224 70.8114 145.027 68.9517C144.829 67.092 145.729 65.4726 147.035 65.3346C148.341 65.1966 149.56 66.5924 149.757 68.4521ZM155.873 68.9612C156.07 67.1014 155.171 65.482 153.865 65.344C152.559 65.2061 151.34 66.6018 151.143 68.4616C150.946 70.3213 151.845 71.9407 153.151 72.0787C154.458 72.2166 155.676 70.8209 155.873 68.9612ZM157.633 80.5521L157.566 80.3323L157.434 79.9805L157.346 79.7606L157.104 79.3209L156.774 78.9031L156.333 78.5074L155.827 78.0457L155.408 77.6499L155.012 77.2102L154.682 76.7704L154.373 76.3087L154.043 75.6931L153.845 75.2754L153.603 74.8136L153.294 74.3079L152.942 73.8462L152.7 73.6044L152.458 73.3845L152.127 73.1427L151.731 72.9668L151.224 72.7909L150.718 72.7249H150.189L149.683 72.7909L148.956 73.0547L148.251 73.5384L147.789 74.0001L147.503 74.4399L147.216 74.9456L146.842 75.7151L146.49 76.3967L146.093 76.9244L145.609 77.54L144.177 78.8592L144.045 78.9691L143.715 79.4308L143.451 79.9585L143.297 80.6181L143.209 81.2117L143.187 81.8713L143.253 82.3111L143.451 82.9267L143.737 83.4984L144.045 83.8941L144.442 84.2899L144.97 84.6417L145.587 84.9275L146.049 85.0374L146.754 85.0594L147.437 84.9055L147.855 84.7076L148.031 84.5757L148.428 84.3558L148.802 84.136L149.132 83.9381L149.485 83.7842L149.771 83.6523L150.101 83.5643L150.454 83.5423L150.872 83.6083L151.18 83.6742L151.687 83.9161L152.303 84.2239L152.81 84.5537L153.272 84.8176L153.735 85.0154L154.175 85.1034L154.55 85.1254L154.858 85.1034L155.342 84.9715L155.959 84.6856L156.399 84.3778L156.862 83.9161L157.192 83.4764L157.478 82.8827L157.655 82.3111L157.721 81.8274V81.3217L157.699 81.0359L157.633 80.5521ZM160.239 74.4736C160.644 72.6601 159.932 70.9589 158.65 70.6738C157.368 70.3887 156.001 71.6277 155.596 73.4411C155.192 75.2546 155.903 76.9558 157.185 77.2409C158.467 77.526 159.835 76.2871 160.239 74.4736ZM145.309 73.441C145.714 75.2544 145.002 76.9556 143.72 77.2407C142.438 77.5258 141.071 76.2869 140.666 74.4734C140.262 72.66 140.973 70.9587 142.255 70.6736C143.537 70.3885 144.905 71.6275 145.309 73.441Z" fill="#01B8C7"/>
<path opacity="0.2" d="M178.701 60.8296C178.701 56.5054 182.207 53 186.531 53H206.201V97H186.531C182.207 97 178.701 93.4946 178.701 89.1704V60.8296Z" fill="#64D71E"/>
<g clip-path="url(#clip2_2663_5062)">
<path d="M206.191 72.547L208.897 70.1626C209.456 69.6695 209.898 69.0587 210.193 68.3741C210.487 67.6894 210.626 66.9481 210.6 66.2033C210.591 65.9144 210.472 65.6398 210.268 65.4354C210.063 65.2311 209.788 65.1124 209.499 65.1035C208.755 65.077 208.013 65.216 207.328 65.5104C206.644 65.8048 206.033 66.2473 205.539 66.806L203.154 69.5115L193.474 66.0714C193.233 65.9867 192.973 65.972 192.724 66.0288C192.475 66.0856 192.247 66.2117 192.066 66.3925L190.918 67.5231C190.876 67.5641 190.844 67.6139 190.825 67.6689C190.806 67.7238 190.799 67.7824 190.805 67.8404C190.811 67.8983 190.831 67.9541 190.862 68.0035C190.893 68.0529 190.934 68.0947 190.984 68.1258L199.586 73.5676L195.525 78.1691L193.826 78.3099C193.507 78.338 193.209 78.4765 192.981 78.7015L192.343 79.3569C192.296 79.4045 192.263 79.4632 192.245 79.5275C192.227 79.5919 192.226 79.6596 192.242 79.7244C192.258 79.7892 192.29 79.8488 192.336 79.8977C192.381 79.9465 192.438 79.983 192.502 80.0036L194.939 80.7647L195.701 83.2194C195.723 83.2815 195.761 83.3368 195.811 83.3803C195.861 83.4237 195.921 83.4539 195.985 83.4679C196.05 83.482 196.117 83.4795 196.18 83.4606C196.243 83.4418 196.301 83.4072 196.347 83.3602L197.003 82.7047C197.228 82.4774 197.366 82.1786 197.395 81.8601L197.535 80.162L202.138 76.1015L207.563 84.7196C207.594 84.7689 207.636 84.8105 207.686 84.8414C207.735 84.8723 207.791 84.8917 207.849 84.898C207.907 84.9044 207.965 84.8976 208.02 84.8781C208.075 84.8586 208.125 84.827 208.166 84.7855L209.31 83.6418C209.491 83.4612 209.617 83.2333 209.674 82.9842C209.731 82.7351 209.716 82.4751 209.632 82.234L206.191 72.547Z" fill="#64D71E"/>
</g>
<rect x="181" y="51.1001" width="28" height="48.8" fill="url(#paint0_linear_2663_5062)"/>
<defs>
<linearGradient id="paint0_linear_2663_5062" x1="209" y1="75.9001" x2="181" y2="75.9001" gradientUnits="userSpaceOnUse">
<stop stop-color="white"/>
<stop offset="1" stop-color="white" stop-opacity="0"/>
</linearGradient>
<clipPath id="clip0_2663_5062">
<rect width="24" height="24" fill="white" transform="translate(32 64)"/>
</clipPath>
<clipPath id="clip1_2663_5062">
<rect x="89" y="64.5215" width="22" height="22" rx="8" fill="white"/>
</clipPath>
<clipPath id="clip2_2663_5062">
<rect width="16.5" height="22" fill="white" transform="translate(189.703 63.9995)"/>
</clipPath>
</defs>
</svg>
