<svg width="1128" height="900" viewBox="0 0 1128 900" fill="none" xmlns="http://www.w3.org/2000/svg">
<rect width="1128" height="900" fill="#EDD9FF"/>
<path d="M144 200C144 177.909 161.909 160 184 160H944C966.091 160 984 177.909 984 200V900H144V200Z" fill="#FDFDFD"/>
<path d="M531.999 537.333C535.681 537.333 538.665 534.349 538.665 530.667C538.665 526.985 535.681 524 531.999 524C528.317 524 525.332 526.985 525.332 530.667C525.332 534.349 528.317 537.333 531.999 537.333Z" stroke="black" stroke-width="3" stroke-linecap="round" stroke-linejoin="round"/>
<path d="M542.665 548.001C542.665 545.172 541.542 542.459 539.541 540.458C537.541 538.458 534.828 537.334 531.999 537.334C529.17 537.334 526.457 538.458 524.456 540.458C522.456 542.459 521.332 545.172 521.332 548.001" stroke="black" stroke-width="3" stroke-linecap="round" stroke-linejoin="round"/>
<path d="M531.999 649.333C535.681 649.333 538.665 646.349 538.665 642.667C538.665 638.985 535.681 636 531.999 636C528.317 636 525.332 638.985 525.332 642.667C525.332 646.349 528.317 649.333 531.999 649.333Z" stroke="black" stroke-width="3" stroke-linecap="round" stroke-linejoin="round"/>
<path d="M542.665 660.001C542.665 657.172 541.542 654.459 539.541 652.458C537.541 650.458 534.828 649.334 531.999 649.334C529.17 649.334 526.457 650.458 524.456 652.458C522.456 654.459 521.332 657.172 521.332 660.001" stroke="black" stroke-width="3" stroke-linecap="round" stroke-linejoin="round"/>
<path d="M531.999 425.333C535.681 425.333 538.665 422.349 538.665 418.667C538.665 414.985 535.681 412 531.999 412C528.317 412 525.332 414.985 525.332 418.667C525.332 422.349 528.317 425.333 531.999 425.333Z" stroke="black" stroke-width="3" stroke-linecap="round" stroke-linejoin="round"/>
<path d="M542.665 436.001C542.665 433.172 541.542 430.459 539.541 428.458C537.541 426.458 534.828 425.334 531.999 425.334C529.17 425.334 526.457 426.458 524.456 428.458C522.456 430.459 521.332 433.172 521.332 436.001" stroke="black" stroke-width="3" stroke-linecap="round" stroke-linejoin="round"/>
<path opacity="0.1" d="M208 368L920 368" stroke="black" stroke-width="2" stroke-linecap="square"/>
<path opacity="0.1" d="M208 480L920 480" stroke="black" stroke-width="2" stroke-linecap="square"/>
<path opacity="0.1" d="M208 592L920 592" stroke="black" stroke-width="2" stroke-linecap="square"/>
<path d="M215.756 436.828V434.336C211.864 433.944 208.924 431.676 208.728 427.616H211.584C211.78 430.052 213.18 431.536 215.756 431.872V425.18L215.7 425.152C212.788 424.368 209.512 423.164 209.512 419.804C209.512 416.64 211.92 414.568 215.756 414.428V412.44H217.436V414.512C220.852 414.904 223.232 417.032 223.456 420.672H220.6C220.348 418.572 219.256 417.368 217.436 417.004V422.94C221.272 424.06 223.96 425.068 223.96 428.932C223.96 431.872 221.776 434.224 217.436 434.392V436.828H215.756ZM212.368 419.524C212.368 421.176 213.74 421.82 215.756 422.436V416.892C213.684 417.004 212.368 417.956 212.368 419.524ZM221.076 429.016C221.076 427.168 219.9 426.412 217.436 425.656V431.956C220.124 431.816 221.076 430.64 221.076 429.016ZM233.996 420.98C237.664 420.98 240.212 423.696 240.212 427.392C240.212 431.676 237.132 434.392 233.156 434.392C228.536 434.392 226.016 431.592 225.904 428.344H228.984C229.18 430.108 230.216 431.788 232.988 431.788C235.452 431.788 237.076 430.276 237.076 427.392C237.076 424.676 235.592 423.444 233.184 423.444C231.616 423.444 230.188 423.976 229.264 425.18H226.156L228.228 414.652H239.232V417.256H230.552L229.488 422.604V422.66C230.496 421.624 231.924 420.98 233.996 420.98ZM250.295 434.392C244.891 434.392 242.595 429.884 242.595 424.34C242.595 418.796 244.891 414.26 250.295 414.26C255.699 414.26 257.995 418.796 257.995 424.34C257.995 429.884 255.699 434.392 250.295 434.392ZM250.295 431.788C253.795 431.788 254.831 428.316 254.831 424.34C254.831 420.364 253.795 416.864 250.295 416.864C246.823 416.864 245.759 420.364 245.759 424.34C245.759 428.316 246.823 431.788 250.295 431.788ZM268.451 434.392C263.047 434.392 260.751 429.884 260.751 424.34C260.751 418.796 263.047 414.26 268.451 414.26C273.855 414.26 276.151 418.796 276.151 424.34C276.151 429.884 273.855 434.392 268.451 434.392ZM268.451 431.788C271.951 431.788 272.987 428.316 272.987 424.34C272.987 420.364 271.951 416.864 268.451 416.864C264.979 416.864 263.915 420.364 263.915 424.34C263.915 428.316 264.979 431.788 268.451 431.788Z" fill="black"/>
<path d="M564.872 422.324H574.588V424.984H564.872V431.34H576.24V434H561.792V413.98H575.96V416.64H564.872V422.324ZM576.301 419.72H579.241L582.965 431.172H583.021L586.689 419.72H589.573L584.477 434H581.397L576.301 419.72ZM597.017 434.42C592.481 434.42 589.961 431.2 589.961 426.832C589.961 422.352 592.649 419.272 597.017 419.272C601.357 419.272 603.793 422.128 603.793 426.552C603.793 426.944 603.793 427.364 603.765 427.588H592.789C592.845 429.996 594.245 432.18 597.073 432.18C599.593 432.18 600.545 430.556 600.825 429.604H603.597C602.869 432.348 600.769 434.42 597.017 434.42ZM596.933 421.512C594.637 421.512 592.957 423.08 592.789 425.432H600.909C600.909 423.192 599.369 421.512 596.933 421.512ZM606.081 419.72H608.825V422.436H608.881C609.609 420.644 610.785 419.384 612.717 419.384C613.221 419.384 613.613 419.412 614.033 419.468V422.1C613.669 422.044 613.417 422.016 613.109 422.016C610.617 422.016 608.825 423.892 608.825 426.608V434H606.081V419.72ZM620.542 433.86L614.746 419.72H617.742L621.914 430.64H621.97L625.918 419.72H628.774L623.146 434.336C621.746 437.864 620.374 439.012 618.162 439.012C617.546 439.012 617.126 438.956 616.398 438.816V436.576C616.874 436.632 617.126 436.66 617.574 436.66C618.694 436.66 619.954 436.1 620.542 433.86ZM636.285 434.42C631.833 434.42 629.145 431.34 629.145 426.86C629.145 422.408 631.833 419.272 636.285 419.272C640.737 419.272 643.425 422.38 643.425 426.832C643.425 431.312 640.737 434.42 636.285 434.42ZM636.285 432.152C639.197 432.152 640.569 429.828 640.569 426.86C640.569 423.864 639.197 421.568 636.285 421.568C633.345 421.568 632.001 423.864 632.001 426.86C632.001 429.828 633.345 432.152 636.285 432.152ZM645.702 434V419.72H648.446V421.512H648.502C649.258 420.42 650.742 419.3 653.206 419.3C655.838 419.3 657.966 420.812 657.966 424.088V434H655.194V424.844C655.194 422.94 654.354 421.652 652.31 421.652C649.958 421.652 648.446 423.08 648.446 425.236V434H645.702ZM667.181 434.42C662.645 434.42 660.125 431.2 660.125 426.832C660.125 422.352 662.813 419.272 667.181 419.272C671.521 419.272 673.957 422.128 673.957 426.552C673.957 426.944 673.957 427.364 673.929 427.588H662.953C663.009 429.996 664.409 432.18 667.237 432.18C669.757 432.18 670.709 430.556 670.989 429.604H673.761C673.033 432.348 670.933 434.42 667.181 434.42ZM667.097 421.512C664.801 421.512 663.121 423.08 662.953 425.432H671.073C671.073 423.192 669.533 421.512 667.097 421.512Z" fill="black"/>
<path d="M804.976 434.392C799.012 434.392 795.176 429.996 795.176 423.976C795.176 417.956 799.012 413.588 804.976 413.588C810.968 413.588 814.804 417.956 814.804 423.976C814.804 429.996 810.968 434.392 804.976 434.392ZM804.976 431.732C809.708 431.732 811.612 428.092 811.612 423.976C811.612 419.86 809.708 416.248 804.976 416.248C800.272 416.248 798.368 419.86 798.368 423.976C798.368 428.092 800.272 431.732 804.976 431.732ZM817.44 434V419.72H820.184V421.512H820.24C820.996 420.42 822.48 419.3 824.944 419.3C827.576 419.3 829.704 420.812 829.704 424.088V434H826.932V424.844C826.932 422.94 826.092 421.652 824.048 421.652C821.696 421.652 820.184 423.08 820.184 425.236V434H817.44ZM842.447 424.9C842.335 423.416 841.495 421.568 838.863 421.568C835.839 421.568 834.719 424.172 834.719 426.86C834.719 429.548 835.839 432.124 838.863 432.124C841.495 432.124 842.335 430.332 842.447 428.708H845.303C845.107 431.984 842.531 434.42 838.891 434.42C834.635 434.42 831.863 431.34 831.863 426.86C831.863 422.38 834.635 419.3 838.863 419.3C842.531 419.3 844.967 421.68 845.303 424.9H842.447ZM853.931 434.42C849.395 434.42 846.875 431.2 846.875 426.832C846.875 422.352 849.563 419.272 853.931 419.272C858.271 419.272 860.707 422.128 860.707 426.552C860.707 426.944 860.707 427.364 860.679 427.588H849.703C849.759 429.996 851.159 432.18 853.987 432.18C856.507 432.18 857.459 430.556 857.739 429.604H860.511C859.783 432.348 857.683 434.42 853.931 434.42ZM853.847 421.512C851.551 421.512 849.871 423.08 849.703 425.432H857.823C857.823 423.192 856.283 421.512 853.847 421.512Z" fill="black"/>
<path d="M767.5 417.999V423.151L771.771 425.713C771.944 425.813 772.095 425.945 772.216 426.104C772.336 426.262 772.424 426.443 772.475 426.636C772.525 426.829 772.536 427.03 772.508 427.227C772.479 427.424 772.412 427.614 772.309 427.785C772.207 427.956 772.071 428.104 771.911 428.222C771.75 428.34 771.568 428.425 771.374 428.472C771.18 428.518 770.979 428.526 770.782 428.494C770.586 428.462 770.397 428.391 770.228 428.286L765.228 425.286C765.006 425.152 764.822 424.964 764.695 424.739C764.567 424.513 764.5 424.259 764.5 423.999V417.999C764.5 417.602 764.658 417.22 764.939 416.939C765.22 416.657 765.602 416.499 766 416.499C766.397 416.499 766.779 416.657 767.06 416.939C767.342 417.22 767.5 417.602 767.5 417.999ZM778 414.499C777.602 414.499 777.22 414.657 776.939 414.939C776.658 415.22 776.5 415.602 776.5 415.999V416.921C775.973 416.337 775.427 415.757 774.838 415.161C773.101 413.424 770.89 412.237 768.482 411.749C766.074 411.261 763.576 411.494 761.3 412.417C759.023 413.341 757.069 414.916 755.682 416.943C754.295 418.971 753.537 421.363 753.501 423.82C753.466 426.276 754.155 428.689 755.483 430.756C756.811 432.823 758.718 434.453 760.967 435.442C763.216 436.431 765.707 436.736 768.128 436.318C770.549 435.899 772.793 434.777 774.58 433.091C774.869 432.818 775.038 432.441 775.05 432.043C775.061 431.645 774.914 431.259 774.641 430.969C774.368 430.68 773.991 430.511 773.593 430.499C773.195 430.488 772.809 430.635 772.52 430.908C771.162 432.19 769.457 433.042 767.617 433.36C765.778 433.678 763.885 433.447 762.176 432.696C760.467 431.945 759.017 430.706 758.008 429.136C756.998 427.566 756.474 425.733 756.5 423.866C756.526 421.999 757.102 420.182 758.155 418.64C759.208 417.099 760.692 415.902 762.422 415.199C764.151 414.495 766.049 414.318 767.879 414.687C769.709 415.056 771.39 415.957 772.711 417.276C773.451 418.024 774.125 418.749 774.778 419.499H773C772.602 419.499 772.22 419.657 771.939 419.939C771.658 420.22 771.5 420.602 771.5 420.999C771.5 421.397 771.658 421.779 771.939 422.06C772.22 422.341 772.602 422.499 773 422.499H778C778.397 422.499 778.779 422.341 779.06 422.06C779.342 421.779 779.5 421.397 779.5 420.999V415.999C779.5 415.602 779.342 415.22 779.06 414.939C778.779 414.657 778.397 414.499 778 414.499Z" fill="black"/>
<path d="M767.5 529.999V535.151L771.771 537.713C771.944 537.813 772.095 537.945 772.216 538.104C772.336 538.262 772.424 538.443 772.475 538.636C772.525 538.829 772.536 539.03 772.508 539.227C772.479 539.424 772.412 539.614 772.309 539.785C772.207 539.956 772.071 540.104 771.911 540.222C771.75 540.34 771.568 540.425 771.374 540.472C771.18 540.518 770.979 540.526 770.782 540.494C770.586 540.462 770.397 540.391 770.228 540.286L765.228 537.286C765.006 537.152 764.822 536.964 764.695 536.739C764.567 536.513 764.5 536.259 764.5 535.999V529.999C764.5 529.602 764.658 529.22 764.939 528.939C765.22 528.657 765.602 528.499 766 528.499C766.397 528.499 766.779 528.657 767.06 528.939C767.342 529.22 767.5 529.602 767.5 529.999ZM778 526.499C777.602 526.499 777.22 526.657 776.939 526.939C776.658 527.22 776.5 527.602 776.5 527.999V528.921C775.973 528.337 775.427 527.757 774.838 527.161C773.101 525.424 770.89 524.237 768.482 523.749C766.074 523.261 763.576 523.494 761.3 524.417C759.023 525.341 757.069 526.916 755.682 528.943C754.295 530.971 753.537 533.363 753.501 535.82C753.466 538.276 754.155 540.689 755.483 542.756C756.811 544.823 758.718 546.453 760.967 547.442C763.216 548.431 765.707 548.736 768.128 548.318C770.549 547.899 772.793 546.777 774.58 545.091C774.869 544.818 775.038 544.441 775.05 544.043C775.061 543.645 774.914 543.259 774.641 542.969C774.368 542.68 773.991 542.511 773.593 542.499C773.195 542.488 772.809 542.635 772.52 542.908C771.162 544.19 769.457 545.042 767.617 545.36C765.778 545.678 763.885 545.447 762.176 544.696C760.467 543.945 759.017 542.706 758.008 541.136C756.998 539.566 756.474 537.733 756.5 535.866C756.526 533.999 757.102 532.182 758.155 530.64C759.208 529.099 760.692 527.902 762.422 527.199C764.151 526.495 766.049 526.318 767.879 526.687C769.709 527.056 771.39 527.957 772.711 529.276C773.451 530.024 774.125 530.749 774.778 531.499H773C772.602 531.499 772.22 531.657 771.939 531.939C771.658 532.22 771.5 532.602 771.5 532.999C771.5 533.397 771.658 533.779 771.939 534.06C772.22 534.341 772.602 534.499 773 534.499H778C778.397 534.499 778.779 534.341 779.06 534.06C779.342 533.779 779.5 533.397 779.5 532.999V527.999C779.5 527.602 779.342 527.22 779.06 526.939C778.779 526.657 778.397 526.499 778 526.499Z" fill="black"/>
<path d="M767.5 641.999V647.151L771.771 649.713C771.944 649.813 772.095 649.945 772.216 650.104C772.336 650.262 772.424 650.443 772.475 650.636C772.525 650.829 772.536 651.03 772.508 651.227C772.479 651.424 772.412 651.614 772.309 651.785C772.207 651.956 772.071 652.104 771.911 652.222C771.75 652.34 771.568 652.425 771.374 652.472C771.18 652.518 770.979 652.526 770.782 652.494C770.586 652.462 770.397 652.391 770.228 652.286L765.228 649.286C765.006 649.152 764.822 648.964 764.695 648.739C764.567 648.513 764.5 648.259 764.5 647.999V641.999C764.5 641.602 764.658 641.22 764.939 640.939C765.22 640.657 765.602 640.499 766 640.499C766.397 640.499 766.779 640.657 767.06 640.939C767.342 641.22 767.5 641.602 767.5 641.999ZM778 638.499C777.602 638.499 777.22 638.657 776.939 638.939C776.658 639.22 776.5 639.602 776.5 639.999V640.921C775.973 640.337 775.427 639.757 774.838 639.161C773.101 637.424 770.89 636.237 768.482 635.749C766.074 635.261 763.576 635.494 761.3 636.417C759.023 637.341 757.069 638.916 755.682 640.943C754.295 642.971 753.537 645.363 753.501 647.82C753.466 650.276 754.155 652.689 755.483 654.756C756.811 656.823 758.718 658.453 760.967 659.442C763.216 660.431 765.707 660.736 768.128 660.318C770.549 659.899 772.793 658.777 774.58 657.091C774.869 656.818 775.038 656.441 775.05 656.043C775.061 655.645 774.914 655.259 774.641 654.969C774.368 654.68 773.991 654.511 773.593 654.499C773.195 654.488 772.809 654.635 772.52 654.908C771.162 656.19 769.457 657.042 767.617 657.36C765.778 657.678 763.885 657.447 762.176 656.696C760.467 655.945 759.017 654.706 758.008 653.136C756.998 651.566 756.474 649.733 756.5 647.866C756.526 645.999 757.102 644.182 758.155 642.64C759.208 641.099 760.692 639.902 762.422 639.199C764.151 638.495 766.049 638.318 767.879 638.687C769.709 639.056 771.39 639.957 772.711 641.276C773.451 642.024 774.125 642.749 774.778 643.499H773C772.602 643.499 772.22 643.657 771.939 643.939C771.658 644.22 771.5 644.602 771.5 644.999C771.5 645.397 771.658 645.779 771.939 646.06C772.22 646.341 772.602 646.499 773 646.499H778C778.397 646.499 778.779 646.341 779.06 646.06C779.342 645.779 779.5 645.397 779.5 644.999V639.999C779.5 639.602 779.342 639.22 779.06 638.939C778.779 638.657 778.397 638.499 778 638.499Z" fill="black"/>
<path d="M215.756 548.828V546.336C211.864 545.944 208.924 543.676 208.728 539.616H211.584C211.78 542.052 213.18 543.536 215.756 543.872V537.18L215.7 537.152C212.788 536.368 209.512 535.164 209.512 531.804C209.512 528.64 211.92 526.568 215.756 526.428V524.44H217.436V526.512C220.852 526.904 223.232 529.032 223.456 532.672H220.6C220.348 530.572 219.256 529.368 217.436 529.004V534.94C221.272 536.06 223.96 537.068 223.96 540.932C223.96 543.872 221.776 546.224 217.436 546.392V548.828H215.756ZM212.368 531.524C212.368 533.176 213.74 533.82 215.756 534.436V528.892C213.684 529.004 212.368 529.956 212.368 531.524ZM221.076 541.016C221.076 539.168 219.9 538.412 217.436 537.656V543.956C220.124 543.816 221.076 542.64 221.076 541.016ZM230.608 526.652H233.016V546H229.992V531.636C229.18 532.42 227.668 532.56 225.932 532.56V530.096C229.348 530.012 230.384 528.976 230.608 526.652ZM236.248 549.808V548.296C237.284 547.988 237.732 547.456 237.704 546H236.248V542.948H239.3V546C239.3 547.82 238.516 549.248 236.248 549.808ZM245.126 533.484H242.046C242.046 529.368 244.258 526.26 249.158 526.26C252.658 526.26 255.514 528.36 255.514 532.056C255.514 535.808 252.462 537.712 249.662 539.448C247.786 540.568 245.994 541.632 245.434 543.34V543.396H255.29V546H241.542C241.542 542.36 243.754 539.868 247.45 537.544C250.726 535.556 252.35 534.744 252.35 532.168C252.35 530.572 251.734 528.864 249.074 528.864C246.05 528.864 245.126 530.824 245.126 533.484ZM265.416 546.392C260.012 546.392 257.716 541.884 257.716 536.34C257.716 530.796 260.012 526.26 265.416 526.26C270.82 526.26 273.116 530.796 273.116 536.34C273.116 541.884 270.82 546.392 265.416 546.392ZM265.416 543.788C268.916 543.788 269.952 540.316 269.952 536.34C269.952 532.364 268.916 528.864 265.416 528.864C261.944 528.864 260.88 532.364 260.88 536.34C260.88 540.316 261.944 543.788 265.416 543.788ZM283.572 546.392C278.168 546.392 275.872 541.884 275.872 536.34C275.872 530.796 278.168 526.26 283.572 526.26C288.976 526.26 291.272 530.796 291.272 536.34C291.272 541.884 288.976 546.392 283.572 546.392ZM283.572 543.788C287.072 543.788 288.108 540.316 288.108 536.34C288.108 532.364 287.072 528.864 283.572 528.864C280.1 528.864 279.036 532.364 279.036 536.34C279.036 540.316 280.1 543.788 283.572 543.788Z" fill="black"/>
<path d="M215.756 660.828V658.336C211.864 657.944 208.924 655.676 208.728 651.616H211.584C211.78 654.052 213.18 655.536 215.756 655.872V649.18L215.7 649.152C212.788 648.368 209.512 647.164 209.512 643.804C209.512 640.64 211.92 638.568 215.756 638.428V636.44H217.436V638.512C220.852 638.904 223.232 641.032 223.456 644.672H220.6C220.348 642.572 219.256 641.368 217.436 641.004V646.94C221.272 648.06 223.96 649.068 223.96 652.932C223.96 655.872 221.776 658.224 217.436 658.392V660.828H215.756ZM212.368 643.524C212.368 645.176 213.74 645.82 215.756 646.436V640.892C213.684 641.004 212.368 641.956 212.368 643.524ZM221.076 653.016C221.076 651.168 219.9 650.412 217.436 649.656V655.956C220.124 655.816 221.076 654.64 221.076 653.016ZM230.608 638.652H233.016V658H229.992V643.636C229.18 644.42 227.668 644.56 225.932 644.56V642.096C229.348 642.012 230.384 640.976 230.608 638.652ZM236.248 661.808V660.296C237.284 659.988 237.732 659.456 237.704 658H236.248V654.948H239.3V658C239.3 659.82 238.516 661.248 236.248 661.808ZM245.126 645.484H242.046C242.046 641.368 244.258 638.26 249.158 638.26C252.658 638.26 255.514 640.36 255.514 644.056C255.514 647.808 252.462 649.712 249.662 651.448C247.786 652.568 245.994 653.632 245.434 655.34V655.396H255.29V658H241.542C241.542 654.36 243.754 651.868 247.45 649.544C250.726 647.556 252.35 646.744 252.35 644.168C252.35 642.572 251.734 640.864 249.074 640.864C246.05 640.864 245.126 642.824 245.126 645.484ZM265.416 658.392C260.012 658.392 257.716 653.884 257.716 648.34C257.716 642.796 260.012 638.26 265.416 638.26C270.82 638.26 273.116 642.796 273.116 648.34C273.116 653.884 270.82 658.392 265.416 658.392ZM265.416 655.788C268.916 655.788 269.952 652.316 269.952 648.34C269.952 644.364 268.916 640.864 265.416 640.864C261.944 640.864 260.88 644.364 260.88 648.34C260.88 652.316 261.944 655.788 265.416 655.788ZM283.572 658.392C278.168 658.392 275.872 653.884 275.872 648.34C275.872 642.796 278.168 638.26 283.572 638.26C288.976 638.26 291.272 642.796 291.272 648.34C291.272 653.884 288.976 658.392 283.572 658.392ZM283.572 655.788C287.072 655.788 288.108 652.316 288.108 648.34C288.108 644.364 287.072 640.864 283.572 640.864C280.1 640.864 279.036 644.364 279.036 648.34C279.036 652.316 280.1 655.788 283.572 655.788Z" fill="black"/>
<path d="M794.28 525.98H797.612L802.96 535.556H803.016L808.42 525.98H811.724L804.528 537.992V546H801.448V537.992L794.28 525.98ZM816.251 546.42C811.715 546.42 809.195 543.2 809.195 538.832C809.195 534.352 811.883 531.272 816.251 531.272C820.591 531.272 823.027 534.128 823.027 538.552C823.027 538.944 823.027 539.364 822.999 539.588H812.023C812.079 541.996 813.479 544.18 816.307 544.18C818.827 544.18 819.779 542.556 820.059 541.604H822.831C822.103 544.348 820.003 546.42 816.251 546.42ZM816.167 533.512C813.871 533.512 812.191 535.08 812.023 537.432H820.143C820.143 535.192 818.603 533.512 816.167 533.512ZM829.347 546.392C826.491 546.392 824.671 544.74 824.671 542.304C824.671 539.112 827.079 538.188 830.635 537.488C832.875 537.068 834.247 536.788 834.247 535.388C834.247 534.352 833.631 533.484 831.531 533.484C829.039 533.484 828.283 534.268 828.143 536.172H825.343C825.483 533.428 827.275 531.272 831.643 531.272C834.583 531.272 836.935 532.504 836.935 536.2V542.752C836.935 543.788 837.075 544.32 837.607 544.32C837.691 544.32 837.775 544.32 837.943 544.292V545.972C837.467 546.084 836.991 546.14 836.543 546.14C835.199 546.14 834.443 545.608 834.303 543.984H834.247C833.295 545.468 831.671 546.392 829.347 546.392ZM829.963 544.18C832.427 544.18 834.247 542.92 834.247 540.428V538.384C833.799 538.804 832.567 539.112 831.111 539.42C828.591 539.952 827.555 540.624 827.555 542.108C827.555 543.452 828.255 544.18 829.963 544.18ZM840.163 531.72H842.907V534.436H842.963C843.691 532.644 844.867 531.384 846.799 531.384C847.303 531.384 847.695 531.412 848.115 531.468V534.1C847.751 534.044 847.499 534.016 847.191 534.016C844.699 534.016 842.907 535.892 842.907 538.608V546H840.163V531.72ZM850.007 525.98H852.751V546H850.007V525.98ZM860.12 545.86L854.324 531.72H857.32L861.492 542.64H861.548L865.496 531.72H868.352L862.724 546.336C861.324 549.864 859.952 551.012 857.74 551.012C857.124 551.012 856.704 550.956 855.976 550.816V548.576C856.452 548.632 856.704 548.66 857.152 548.66C858.272 548.66 859.532 548.1 860.12 545.86Z" fill="black"/>
<path d="M794.28 637.98H797.612L802.96 647.556H803.016L808.42 637.98H811.724L804.528 649.992V658H801.448V649.992L794.28 637.98ZM816.251 658.42C811.715 658.42 809.195 655.2 809.195 650.832C809.195 646.352 811.883 643.272 816.251 643.272C820.591 643.272 823.027 646.128 823.027 650.552C823.027 650.944 823.027 651.364 822.999 651.588H812.023C812.079 653.996 813.479 656.18 816.307 656.18C818.827 656.18 819.779 654.556 820.059 653.604H822.831C822.103 656.348 820.003 658.42 816.251 658.42ZM816.167 645.512C813.871 645.512 812.191 647.08 812.023 649.432H820.143C820.143 647.192 818.603 645.512 816.167 645.512ZM829.347 658.392C826.491 658.392 824.671 656.74 824.671 654.304C824.671 651.112 827.079 650.188 830.635 649.488C832.875 649.068 834.247 648.788 834.247 647.388C834.247 646.352 833.631 645.484 831.531 645.484C829.039 645.484 828.283 646.268 828.143 648.172H825.343C825.483 645.428 827.275 643.272 831.643 643.272C834.583 643.272 836.935 644.504 836.935 648.2V654.752C836.935 655.788 837.075 656.32 837.607 656.32C837.691 656.32 837.775 656.32 837.943 656.292V657.972C837.467 658.084 836.991 658.14 836.543 658.14C835.199 658.14 834.443 657.608 834.303 655.984H834.247C833.295 657.468 831.671 658.392 829.347 658.392ZM829.963 656.18C832.427 656.18 834.247 654.92 834.247 652.428V650.384C833.799 650.804 832.567 651.112 831.111 651.42C828.591 651.952 827.555 652.624 827.555 654.108C827.555 655.452 828.255 656.18 829.963 656.18ZM840.163 643.72H842.907V646.436H842.963C843.691 644.644 844.867 643.384 846.799 643.384C847.303 643.384 847.695 643.412 848.115 643.468V646.1C847.751 646.044 847.499 646.016 847.191 646.016C844.699 646.016 842.907 647.892 842.907 650.608V658H840.163V643.72ZM850.007 637.98H852.751V658H850.007V637.98ZM860.12 657.86L854.324 643.72H857.32L861.492 654.64H861.548L865.496 643.72H868.352L862.724 658.336C861.324 661.864 859.952 663.012 857.74 663.012C857.124 663.012 856.704 662.956 855.976 662.816V660.576C856.452 660.632 856.704 660.66 857.152 660.66C858.272 660.66 859.532 660.1 860.12 657.86Z" fill="black"/>
<path d="M561.792 546V525.98H565.852L571.62 541.716H571.676L577.472 525.98H581.532V546H578.508V530.46H578.452L572.936 546H570.388L564.872 530.46H564.816V546H561.792ZM588.593 546.392C585.737 546.392 583.917 544.74 583.917 542.304C583.917 539.112 586.325 538.188 589.881 537.488C592.121 537.068 593.493 536.788 593.493 535.388C593.493 534.352 592.877 533.484 590.777 533.484C588.285 533.484 587.529 534.268 587.389 536.172H584.589C584.729 533.428 586.521 531.272 590.889 531.272C593.829 531.272 596.181 532.504 596.181 536.2V542.752C596.181 543.788 596.321 544.32 596.853 544.32C596.937 544.32 597.021 544.32 597.189 544.292V545.972C596.713 546.084 596.237 546.14 595.789 546.14C594.445 546.14 593.689 545.608 593.549 543.984H593.493C592.541 545.468 590.917 546.392 588.593 546.392ZM589.209 544.18C591.673 544.18 593.493 542.92 593.493 540.428V538.384C593.045 538.804 591.813 539.112 590.357 539.42C587.837 539.952 586.801 540.624 586.801 542.108C586.801 543.452 587.501 544.18 589.209 544.18ZM599.409 546V531.72H602.153V533.512H602.209C602.965 532.42 604.449 531.3 606.913 531.3C609.545 531.3 611.673 532.812 611.673 536.088V546H608.901V536.844C608.901 534.94 608.061 533.652 606.017 533.652C603.665 533.652 602.153 535.08 602.153 537.236V546H599.409ZM618.48 546.392C615.624 546.392 613.804 544.74 613.804 542.304C613.804 539.112 616.212 538.188 619.768 537.488C622.008 537.068 623.38 536.788 623.38 535.388C623.38 534.352 622.764 533.484 620.664 533.484C618.172 533.484 617.416 534.268 617.276 536.172H614.476C614.616 533.428 616.408 531.272 620.776 531.272C623.716 531.272 626.068 532.504 626.068 536.2V542.752C626.068 543.788 626.208 544.32 626.74 544.32C626.824 544.32 626.908 544.32 627.076 544.292V545.972C626.6 546.084 626.124 546.14 625.676 546.14C624.332 546.14 623.576 545.608 623.436 543.984H623.38C622.428 545.468 620.804 546.392 618.48 546.392ZM619.096 544.18C621.56 544.18 623.38 542.92 623.38 540.428V538.384C622.932 538.804 621.7 539.112 620.244 539.42C617.724 539.952 616.688 540.624 616.688 542.108C616.688 543.452 617.388 544.18 619.096 544.18ZM639.24 545.048V543.116H639.184C638.4 544.264 637.084 545.272 634.788 545.272C631.232 545.272 628.488 542.864 628.488 538.3C628.488 533.708 631.232 531.3 634.788 531.3C637.084 531.3 638.4 532.392 639.184 533.4H639.24V531.72H641.984V544.88C641.984 549.192 639.38 551.124 635.292 551.124C631.204 551.124 629.16 549.164 628.88 546.588H631.708C631.988 547.876 632.968 548.884 635.292 548.884C637.896 548.884 639.24 547.736 639.24 545.048ZM635.292 533.596C632.604 533.596 631.344 535.612 631.344 538.3C631.344 540.988 632.604 543.004 635.292 543.004C637.756 543.004 639.212 541.408 639.212 538.3C639.212 535.164 637.756 533.596 635.292 533.596ZM645.073 546V531.72H647.817V533.512H647.873C648.629 532.42 649.945 531.3 652.101 531.3C654.089 531.3 655.293 532.196 655.881 533.792H655.937C656.973 532.42 658.401 531.3 660.613 531.3C663.497 531.3 664.953 533.036 664.953 536.088V546H662.209V536.844C662.209 534.94 661.817 533.652 659.717 533.652C657.673 533.652 656.385 535.08 656.385 537.236V546H653.641V536.844C653.641 534.94 653.249 533.652 651.149 533.652C649.105 533.652 647.817 535.08 647.817 537.236V546H645.073ZM674.181 546.42C669.645 546.42 667.125 543.2 667.125 538.832C667.125 534.352 669.813 531.272 674.181 531.272C678.521 531.272 680.957 534.128 680.957 538.552C680.957 538.944 680.957 539.364 680.929 539.588H669.953C670.009 541.996 671.409 544.18 674.237 544.18C676.757 544.18 677.709 542.556 677.989 541.604H680.761C680.033 544.348 677.933 546.42 674.181 546.42ZM674.097 533.512C671.801 533.512 670.121 535.08 669.953 537.432H678.073C678.073 535.192 676.533 533.512 674.097 533.512ZM683.245 546V531.72H685.989V533.512H686.045C686.801 532.42 688.285 531.3 690.749 531.3C693.381 531.3 695.509 532.812 695.509 536.088V546H692.737V536.844C692.737 534.94 691.897 533.652 689.853 533.652C687.501 533.652 685.989 535.08 685.989 537.236V546H683.245ZM697.059 531.72H699.131V527.128H701.875V531.72H704.619V533.988H701.875V542.052C701.875 543.564 702.295 543.9 703.471 543.9C703.919 543.9 704.143 543.872 704.647 543.788V546C703.919 546.14 703.499 546.168 702.883 546.168C700.559 546.168 699.131 545.272 699.131 541.968V533.988H697.059V531.72Z" fill="black"/>
<path d="M569.352 646.24C573.216 647.22 576.856 648.144 576.856 652.372C576.856 655.816 574.504 658.392 569.52 658.392C564.452 658.392 560.868 655.76 560.672 651.252H563.864C564.088 653.94 565.684 655.76 569.436 655.76C572.628 655.76 573.636 654.36 573.636 652.54C573.636 649.992 571.676 649.628 568.036 648.704C564.9 647.892 561.456 646.856 561.456 643.048C561.456 639.576 564.144 637.588 568.456 637.588C573.02 637.588 575.988 639.912 576.296 643.944H573.076C572.768 641.536 571.396 640.22 568.456 640.22C565.964 640.22 564.648 641.144 564.648 642.88C564.648 645.12 566.776 645.596 569.352 646.24ZM585.587 658.42C581.051 658.42 578.531 655.2 578.531 650.832C578.531 646.352 581.219 643.272 585.587 643.272C589.927 643.272 592.363 646.128 592.363 650.552C592.363 650.944 592.363 651.364 592.335 651.588H581.359C581.415 653.996 582.815 656.18 585.643 656.18C588.163 656.18 589.115 654.556 589.395 653.604H592.167C591.439 656.348 589.339 658.42 585.587 658.42ZM585.503 645.512C583.207 645.512 581.527 647.08 581.359 649.432H589.479C589.479 647.192 587.939 645.512 585.503 645.512ZM594.651 658V643.72H597.395V645.512H597.451C598.207 644.42 599.691 643.3 602.155 643.3C604.787 643.3 606.915 644.812 606.915 648.088V658H604.143V648.844C604.143 646.94 603.303 645.652 601.259 645.652C598.907 645.652 597.395 647.08 597.395 649.236V658H594.651ZM609.658 638.204H612.766V641.172H609.658V638.204ZM609.854 643.72H612.598V658H609.854V643.72ZM622.011 658.42C617.559 658.42 614.871 655.34 614.871 650.86C614.871 646.408 617.559 643.272 622.011 643.272C626.463 643.272 629.151 646.38 629.151 650.832C629.151 655.312 626.463 658.42 622.011 658.42ZM622.011 656.152C624.923 656.152 626.295 653.828 626.295 650.86C626.295 647.864 624.923 645.568 622.011 645.568C619.071 645.568 617.727 647.864 617.727 650.86C617.727 653.828 619.071 656.152 622.011 656.152ZM631.429 643.72H634.173V646.436H634.229C634.957 644.644 636.133 643.384 638.065 643.384C638.569 643.384 638.961 643.412 639.381 643.468V646.1C639.017 646.044 638.765 646.016 638.457 646.016C635.965 646.016 634.173 647.892 634.173 650.608V658H631.429V643.72Z" fill="black"/>
<path d="M328 424C328 406.327 342.327 392 360 392H431C448.673 392 463 406.327 463 424V424C463 441.673 448.673 456 431 456H360C342.327 456 328 441.673 328 424V424Z" fill="#FFF4D9"/>
<path d="M368.016 422.92C371.328 423.76 374.448 424.552 374.448 428.176C374.448 431.128 372.432 433.336 368.16 433.336C363.816 433.336 360.744 431.08 360.576 427.216H363.312C363.504 429.52 364.872 431.08 368.088 431.08C370.824 431.08 371.688 429.88 371.688 428.32C371.688 426.136 370.008 425.824 366.888 425.032C364.2 424.336 361.248 423.448 361.248 420.184C361.248 417.208 363.552 415.504 367.248 415.504C371.16 415.504 373.704 417.496 373.968 420.952H371.208C370.944 418.888 369.768 417.76 367.248 417.76C365.112 417.76 363.984 418.552 363.984 420.04C363.984 421.96 365.808 422.368 368.016 422.92ZM378.789 431.488H378.741V437.248H376.389V420.76H378.741V422.2H378.789C379.461 421.336 380.637 420.4 382.557 420.4C385.677 420.4 388.053 422.848 388.053 426.88C388.053 430.912 385.677 433.336 382.557 433.336C380.637 433.336 379.461 432.472 378.789 431.488ZM382.173 422.368C380.061 422.368 378.765 424.096 378.765 426.88C378.765 429.64 380.061 431.392 382.173 431.392C384.477 431.392 385.581 429.28 385.581 426.88C385.581 424.48 384.477 422.368 382.173 422.368ZM395.598 433.36C391.782 433.36 389.478 430.72 389.478 426.88C389.478 423.064 391.782 420.376 395.598 420.376C399.414 420.376 401.718 423.04 401.718 426.856C401.718 430.696 399.414 433.36 395.598 433.36ZM395.598 431.416C398.094 431.416 399.27 429.424 399.27 426.88C399.27 424.312 398.094 422.344 395.598 422.344C393.078 422.344 391.926 424.312 391.926 426.88C391.926 429.424 393.078 431.416 395.598 431.416ZM403.67 420.76H406.022V423.088H406.07C406.694 421.552 407.702 420.472 409.358 420.472C409.79 420.472 410.126 420.496 410.486 420.544V422.8C410.174 422.752 409.958 422.728 409.694 422.728C407.558 422.728 406.022 424.336 406.022 426.664V433H403.67V420.76ZM411.596 420.76H413.372V416.824H415.724V420.76H418.076V422.704H415.724V429.616C415.724 430.912 416.084 431.2 417.092 431.2C417.476 431.2 417.668 431.176 418.1 431.104V433C417.476 433.12 417.116 433.144 416.588 433.144C414.596 433.144 413.372 432.376 413.372 429.544V422.704H411.596V420.76ZM425.169 425.608C427.401 426.136 429.849 426.784 429.849 429.52C429.849 431.896 428.025 433.336 424.809 433.336C421.089 433.336 419.241 431.416 419.169 428.92H421.545C421.665 430.336 422.505 431.44 424.785 431.44C426.849 431.44 427.401 430.528 427.401 429.64C427.401 428.104 425.769 427.936 424.185 427.6C422.049 427.12 419.601 426.472 419.601 423.928C419.601 421.816 421.305 420.4 424.281 420.4C427.617 420.4 429.225 422.2 429.393 424.312H427.017C426.849 423.376 426.369 422.296 424.305 422.296C422.745 422.296 422.049 422.92 422.049 423.832C422.049 425.104 423.417 425.2 425.169 425.608Z" fill="black"/>
<path d="M328 536C328 518.327 342.327 504 360 504H429C446.673 504 461 518.327 461 536V536C461 553.673 446.673 568 429 568H360C342.327 568 328 553.673 328 536V536Z" fill="#D9F4F7"/>
<path d="M361.536 527.84H364.176V535.016H372.6V527.84H375.264V545H372.6V537.296H364.176V545H361.536V527.84ZM383.385 545.36C379.497 545.36 377.337 542.6 377.337 538.856C377.337 535.016 379.641 532.376 383.385 532.376C387.105 532.376 389.193 534.824 389.193 538.616C389.193 538.952 389.193 539.312 389.169 539.504H379.761C379.809 541.568 381.009 543.44 383.433 543.44C385.593 543.44 386.409 542.048 386.649 541.232H389.025C388.401 543.584 386.601 545.36 383.385 545.36ZM383.313 534.296C381.345 534.296 379.905 535.64 379.761 537.656H386.721C386.721 535.736 385.401 534.296 383.313 534.296ZM394.61 545.336C392.162 545.336 390.602 543.92 390.602 541.832C390.602 539.096 392.666 538.304 395.714 537.704C397.634 537.344 398.81 537.104 398.81 535.904C398.81 535.016 398.282 534.272 396.482 534.272C394.346 534.272 393.698 534.944 393.578 536.576H391.178C391.298 534.224 392.834 532.376 396.578 532.376C399.098 532.376 401.114 533.432 401.114 536.6V542.216C401.114 543.104 401.234 543.56 401.69 543.56C401.762 543.56 401.834 543.56 401.978 543.536V544.976C401.57 545.072 401.162 545.12 400.778 545.12C399.626 545.12 398.978 544.664 398.858 543.272H398.81C397.994 544.544 396.602 545.336 394.61 545.336ZM395.138 543.44C397.25 543.44 398.81 542.36 398.81 540.224V538.472C398.426 538.832 397.37 539.096 396.122 539.36C393.962 539.816 393.074 540.392 393.074 541.664C393.074 542.816 393.674 543.44 395.138 543.44ZM403.881 527.84H406.233V545H403.881V527.84ZM407.893 532.76H409.669V528.824H412.021V532.76H414.373V534.704H412.021V541.616C412.021 542.912 412.381 543.2 413.389 543.2C413.773 543.2 413.965 543.176 414.397 543.104V545C413.773 545.12 413.413 545.144 412.885 545.144C410.893 545.144 409.669 544.376 409.669 541.544V534.704H407.893V532.76ZM424.626 537.152C424.626 535.52 423.906 534.416 422.154 534.416C420.138 534.416 418.842 535.64 418.842 537.488V545H416.49V527.84H418.842V534.296H418.89C419.538 533.36 420.81 532.4 422.922 532.4C425.178 532.4 427.002 533.696 427.002 536.504V545H424.626V537.152Z" fill="black"/>
<path d="M328 648C328 630.327 342.327 616 360 616H463C480.673 616 495 630.327 495 648V648C495 665.673 480.673 680 463 680H360C342.327 680 328 665.673 328 648V648Z" fill="#E8F9DD"/>
<path d="M360.504 639.84H363.24L366.264 653.352H366.312L369.888 639.84H372.672L376.248 653.352H376.296L379.32 639.84H382.056L377.784 657H374.952L371.304 643.2H371.256L367.608 657H364.776L360.504 639.84ZM387.721 657.36C383.833 657.36 381.673 654.6 381.673 650.856C381.673 647.016 383.977 644.376 387.721 644.376C391.441 644.376 393.529 646.824 393.529 650.616C393.529 650.952 393.529 651.312 393.505 651.504H384.097C384.145 653.568 385.345 655.44 387.769 655.44C389.929 655.44 390.745 654.048 390.985 653.232H393.361C392.737 655.584 390.937 657.36 387.721 657.36ZM387.649 646.296C385.681 646.296 384.241 647.64 384.097 649.656H391.057C391.057 647.736 389.737 646.296 387.649 646.296ZM395.49 639.84H397.842V657H395.49V639.84ZM400.553 639.84H402.905V657H400.553V639.84ZM407.921 655.488H407.873V657H405.521V639.84H407.873V646.2H407.921C408.593 645.336 409.769 644.4 411.689 644.4C414.809 644.4 417.185 646.848 417.185 650.88C417.185 654.912 414.809 657.336 411.689 657.336C409.769 657.336 408.593 656.472 407.921 655.488ZM411.305 646.368C409.193 646.368 407.897 648.096 407.897 650.88C407.897 653.64 409.193 655.392 411.305 655.392C413.609 655.392 414.713 653.28 414.713 650.88C414.713 648.48 413.609 646.368 411.305 646.368ZM424.659 657.36C420.771 657.36 418.611 654.6 418.611 650.856C418.611 647.016 420.915 644.376 424.659 644.376C428.379 644.376 430.467 646.824 430.467 650.616C430.467 650.952 430.467 651.312 430.443 651.504H421.035C421.083 653.568 422.283 655.44 424.707 655.44C426.867 655.44 427.683 654.048 427.923 653.232H430.299C429.675 655.584 427.875 657.36 424.659 657.36ZM424.587 646.296C422.619 646.296 421.179 647.64 421.035 649.656H427.995C427.995 647.736 426.675 646.296 424.587 646.296ZM432.26 640.032H434.924V642.576H432.26V640.032ZM432.428 644.76H434.78V657H432.428V644.76ZM437.396 657V644.76H439.748V646.296H439.796C440.444 645.36 441.716 644.4 443.828 644.4C446.084 644.4 447.908 645.696 447.908 648.504V657H445.532V649.152C445.532 647.52 444.812 646.416 443.06 646.416C441.044 646.416 439.748 647.64 439.748 649.488V657H437.396ZM458.975 656.184V654.528H458.927C458.255 655.512 457.127 656.376 455.159 656.376C452.111 656.376 449.759 654.312 449.759 650.4C449.759 646.464 452.111 644.4 455.159 644.4C457.127 644.4 458.255 645.336 458.927 646.2H458.975V644.76H461.327V656.04C461.327 659.736 459.095 661.392 455.591 661.392C452.087 661.392 450.335 659.712 450.095 657.504H452.519C452.759 658.608 453.599 659.472 455.591 659.472C457.823 659.472 458.975 658.488 458.975 656.184ZM455.591 646.368C453.287 646.368 452.207 648.096 452.207 650.4C452.207 652.704 453.287 654.432 455.591 654.432C457.703 654.432 458.951 653.064 458.951 650.4C458.951 647.712 457.703 646.368 455.591 646.368Z" fill="black"/>
<path d="M487.515 291.12H475.555L473.195 298H468.555L479.195 269.4H483.955L494.675 298H489.875L487.515 291.12ZM476.835 287.4H486.235L481.595 273.48H481.515L476.835 287.4ZM497.264 269.4H501.184V298H497.264V269.4ZM505.701 269.4H509.621V298H505.701V269.4ZM523.068 298.6C516.708 298.6 512.868 294.2 512.868 287.8C512.868 281.44 516.708 276.96 523.068 276.96C529.428 276.96 533.268 281.4 533.268 287.76C533.268 294.16 529.428 298.6 523.068 298.6ZM523.068 295.36C527.228 295.36 529.188 292.04 529.188 287.8C529.188 283.52 527.228 280.24 523.068 280.24C518.868 280.24 516.948 283.52 516.948 287.8C516.948 292.04 518.868 295.36 523.068 295.36ZM550.761 285C550.601 282.88 549.401 280.24 545.641 280.24C541.321 280.24 539.721 283.96 539.721 287.8C539.721 291.64 541.321 295.32 545.641 295.32C549.401 295.32 550.601 292.76 550.761 290.44H554.841C554.561 295.12 550.881 298.6 545.681 298.6C539.601 298.6 535.641 294.2 535.641 287.8C535.641 281.4 539.601 277 545.641 277C550.881 277 554.361 280.4 554.841 285H550.761ZM563.727 298.56C559.647 298.56 557.047 296.2 557.047 292.72C557.047 288.16 560.487 286.84 565.567 285.84C568.767 285.24 570.727 284.84 570.727 282.84C570.727 281.36 569.847 280.12 566.847 280.12C563.287 280.12 562.207 281.24 562.007 283.96H558.007C558.207 280.04 560.767 276.96 567.007 276.96C571.207 276.96 574.567 278.72 574.567 284V293.36C574.567 294.84 574.767 295.6 575.527 295.6C575.647 295.6 575.767 295.6 576.007 295.56V297.96C575.327 298.12 574.647 298.2 574.007 298.2C572.087 298.2 571.007 297.44 570.807 295.12H570.727C569.367 297.24 567.047 298.56 563.727 298.56ZM564.607 295.4C568.127 295.4 570.727 293.6 570.727 290.04V287.12C570.087 287.72 568.327 288.16 566.247 288.6C562.647 289.36 561.167 290.32 561.167 292.44C561.167 294.36 562.167 295.4 564.607 295.4ZM576.802 277.6H579.762V271.04H583.682V277.6H587.602V280.84H583.682V292.36C583.682 294.52 584.282 295 585.962 295C586.602 295 586.922 294.96 587.642 294.84V298C586.602 298.2 586.002 298.24 585.122 298.24C581.802 298.24 579.762 296.96 579.762 292.24V280.84H576.802V277.6ZM590.851 269.72H595.291V273.96H590.851V269.72ZM591.131 277.6H595.051V298H591.131V277.6ZM608.498 298.6C602.138 298.6 598.298 294.2 598.298 287.8C598.298 281.44 602.138 276.96 608.498 276.96C614.858 276.96 618.698 281.4 618.698 287.76C618.698 294.16 614.858 298.6 608.498 298.6ZM608.498 295.36C612.658 295.36 614.618 292.04 614.618 287.8C614.618 283.52 612.658 280.24 608.498 280.24C604.298 280.24 602.378 283.52 602.378 287.8C602.378 292.04 604.298 295.36 608.498 295.36ZM621.951 298V277.6H625.871V280.16H625.951C627.031 278.6 629.151 277 632.671 277C636.431 277 639.471 279.16 639.471 283.84V298H635.511V284.92C635.511 282.2 634.311 280.36 631.391 280.36C628.031 280.36 625.871 282.4 625.871 285.48V298H621.951ZM652.235 285.68C655.955 286.56 660.035 287.64 660.035 292.2C660.035 296.16 656.995 298.56 651.635 298.56C645.435 298.56 642.355 295.36 642.235 291.2H646.195C646.395 293.56 647.795 295.4 651.595 295.4C655.035 295.4 655.955 293.88 655.955 292.4C655.955 289.84 653.235 289.56 650.595 289C647.035 288.2 642.955 287.12 642.955 282.88C642.955 279.36 645.795 277 650.755 277C656.315 277 658.995 280 659.275 283.52H655.315C655.035 281.96 654.235 280.16 650.795 280.16C648.195 280.16 647.035 281.2 647.035 282.72C647.035 284.84 649.315 285 652.235 285.68Z" fill="black"/>
<path d="M0 528H1128V780C1128 846.274 1074.27 900 1008 900H120C53.7258 900 0 846.274 0 780V528Z" fill="url(#paint0_linear_2668_5241)"/>
<defs>
<linearGradient id="paint0_linear_2668_5241" x1="564" y1="528" x2="564" y2="900" gradientUnits="userSpaceOnUse">
<stop stop-color="#EDD9FF" stop-opacity="0"/>
<stop offset="0.59" stop-color="#EDD9FF"/>
</linearGradient>
</defs>
</svg>
