<svg width="188" height="209" viewBox="0 0 188 209" fill="none" xmlns="http://www.w3.org/2000/svg">
<rect width="188" height="209" fill="white"/>
<path d="M20.896 24.99H22.436V29.176H27.35V24.99H28.904V35H27.35V30.506H22.436V35H20.896V24.99ZM33.6414 35.21C31.3734 35.21 30.1134 33.6 30.1134 31.416C30.1134 29.176 31.4574 27.636 33.6414 27.636C35.8114 27.636 37.0294 29.064 37.0294 31.276C37.0294 31.472 37.0294 31.682 37.0154 31.794H31.5274C31.5554 32.998 32.2554 34.09 33.6694 34.09C34.9294 34.09 35.4054 33.278 35.5454 32.802H36.9314C36.5674 34.174 35.5174 35.21 33.6414 35.21ZM33.5994 28.756C32.4514 28.756 31.6114 29.54 31.5274 30.716H35.5874C35.5874 29.596 34.8174 28.756 33.5994 28.756ZM40.1893 35.196C38.7613 35.196 37.8513 34.37 37.8513 33.152C37.8513 31.556 39.0553 31.094 40.8333 30.744C41.9533 30.534 42.6393 30.394 42.6393 29.694C42.6393 29.176 42.3313 28.742 41.2813 28.742C40.0353 28.742 39.6573 29.134 39.5873 30.086H38.1873C38.2573 28.714 39.1533 27.636 41.3373 27.636C42.8073 27.636 43.9833 28.252 43.9833 30.1V33.376C43.9833 33.894 44.0533 34.16 44.3193 34.16C44.3613 34.16 44.4033 34.16 44.4873 34.146V34.986C44.2493 35.042 44.0113 35.07 43.7873 35.07C43.1153 35.07 42.7373 34.804 42.6673 33.992H42.6393C42.1633 34.734 41.3513 35.196 40.1893 35.196ZM40.4973 34.09C41.7293 34.09 42.6393 33.46 42.6393 32.214V31.192C42.4153 31.402 41.7993 31.556 41.0713 31.71C39.8113 31.976 39.2933 32.312 39.2933 33.054C39.2933 33.726 39.6433 34.09 40.4973 34.09ZM45.5971 24.99H46.9691V35H45.5971V24.99ZM47.9375 27.86H48.9735V25.564H50.3455V27.86H51.7175V28.994H50.3455V33.026C50.3455 33.782 50.5555 33.95 51.1435 33.95C51.3675 33.95 51.4795 33.936 51.7315 33.894V35C51.3675 35.07 51.1575 35.084 50.8495 35.084C49.6875 35.084 48.9735 34.636 48.9735 32.984V28.994H47.9375V27.86ZM57.6986 30.422C57.6986 29.47 57.2786 28.826 56.2566 28.826C55.0806 28.826 54.3246 29.54 54.3246 30.618V35H52.9526V24.99H54.3246V28.756H54.3526C54.7306 28.21 55.4726 27.65 56.7046 27.65C58.0206 27.65 59.0846 28.406 59.0846 30.044V35H57.6986V30.422Z" fill="black"/>
<path d="M64.768 70V61.42H68.344C69.964 61.42 71.164 62.176 71.164 63.976C71.164 65.776 69.964 66.52 68.344 66.52H66.088V70H64.768ZM66.088 65.38H68.284C69.28 65.38 69.784 64.936 69.784 63.976C69.784 63.004 69.28 62.56 68.284 62.56H66.088V65.38ZM74.509 70.18C72.565 70.18 71.485 68.8 71.485 66.928C71.485 65.008 72.637 63.688 74.509 63.688C76.369 63.688 77.413 64.912 77.413 66.808C77.413 66.976 77.413 67.156 77.401 67.252H72.697C72.721 68.284 73.321 69.22 74.533 69.22C75.613 69.22 76.021 68.524 76.141 68.116H77.329C77.017 69.292 76.117 70.18 74.509 70.18ZM74.473 64.648C73.489 64.648 72.769 65.32 72.697 66.328H76.177C76.177 65.368 75.517 64.648 74.473 64.648ZM78.3935 63.88H79.5695V65.044H79.5935C79.9055 64.276 80.4095 63.736 81.2375 63.736C81.4535 63.736 81.6215 63.748 81.8015 63.772V64.9C81.6455 64.876 81.5375 64.864 81.4055 64.864C80.3375 64.864 79.5695 65.668 79.5695 66.832V70H78.3935V63.88ZM85.2054 66.304C86.3214 66.568 87.5454 66.892 87.5454 68.26C87.5454 69.448 86.6334 70.168 85.0254 70.168C83.1654 70.168 82.2414 69.208 82.2054 67.96H83.3934C83.4534 68.668 83.8734 69.22 85.0134 69.22C86.0454 69.22 86.3214 68.764 86.3214 68.32C86.3214 67.552 85.5054 67.468 84.7134 67.3C83.6454 67.06 82.4214 66.736 82.4214 65.464C82.4214 64.408 83.2734 63.7 84.7614 63.7C86.4294 63.7 87.2334 64.6 87.3174 65.656H86.1294C86.0454 65.188 85.8054 64.648 84.7734 64.648C83.9934 64.648 83.6454 64.96 83.6454 65.416C83.6454 66.052 84.3294 66.1 85.2054 66.304ZM91.1973 70.18C89.2893 70.18 88.1373 68.86 88.1373 66.94C88.1373 65.032 89.2893 63.688 91.1973 63.688C93.1053 63.688 94.2573 65.02 94.2573 66.928C94.2573 68.848 93.1053 70.18 91.1973 70.18ZM91.1973 69.208C92.4453 69.208 93.0333 68.212 93.0333 66.94C93.0333 65.656 92.4453 64.672 91.1973 64.672C89.9373 64.672 89.3613 65.656 89.3613 66.94C89.3613 68.212 89.9373 69.208 91.1973 69.208ZM95.2334 70V63.88H96.4094V64.648H96.4334C96.7574 64.18 97.3934 63.7 98.4494 63.7C99.5774 63.7 100.489 64.348 100.489 65.752V70H99.3014V66.076C99.3014 65.26 98.9414 64.708 98.0654 64.708C97.0574 64.708 96.4094 65.32 96.4094 66.244V70H95.2334ZM103.407 70.168C102.183 70.168 101.403 69.46 101.403 68.416C101.403 67.048 102.435 66.652 103.959 66.352C104.919 66.172 105.507 66.052 105.507 65.452C105.507 65.008 105.243 64.636 104.343 64.636C103.275 64.636 102.951 64.972 102.891 65.788H101.691C101.751 64.612 102.519 63.688 104.391 63.688C105.651 63.688 106.659 64.216 106.659 65.8V68.608C106.659 69.052 106.719 69.28 106.947 69.28C106.983 69.28 107.019 69.28 107.091 69.268V69.988C106.887 70.036 106.683 70.06 106.491 70.06C105.915 70.06 105.591 69.832 105.531 69.136H105.507C105.099 69.772 104.403 70.168 103.407 70.168ZM103.671 69.22C104.727 69.22 105.507 68.68 105.507 67.612V66.736C105.315 66.916 104.787 67.048 104.163 67.18C103.083 67.408 102.639 67.696 102.639 68.332C102.639 68.908 102.939 69.22 103.671 69.22ZM108.042 61.42H109.218V70H108.042V61.42ZM117.376 66.1C117.328 65.464 116.968 64.672 115.84 64.672C114.544 64.672 114.064 65.788 114.064 66.94C114.064 68.092 114.544 69.196 115.84 69.196C116.968 69.196 117.328 68.428 117.376 67.732H118.6C118.516 69.136 117.412 70.18 115.852 70.18C114.028 70.18 112.84 68.86 112.84 66.94C112.84 65.02 114.028 63.7 115.84 63.7C117.412 63.7 118.456 64.72 118.6 66.1H117.376ZM121.266 70.168C120.042 70.168 119.262 69.46 119.262 68.416C119.262 67.048 120.294 66.652 121.818 66.352C122.778 66.172 123.366 66.052 123.366 65.452C123.366 65.008 123.102 64.636 122.202 64.636C121.134 64.636 120.81 64.972 120.75 65.788H119.55C119.61 64.612 120.378 63.688 122.25 63.688C123.51 63.688 124.518 64.216 124.518 65.8V68.608C124.518 69.052 124.578 69.28 124.806 69.28C124.842 69.28 124.878 69.28 124.95 69.268V69.988C124.746 70.036 124.542 70.06 124.35 70.06C123.774 70.06 123.45 69.832 123.39 69.136H123.366C122.958 69.772 122.262 70.168 121.266 70.168ZM121.53 69.22C122.586 69.22 123.366 68.68 123.366 67.612V66.736C123.174 66.916 122.646 67.048 122.022 67.18C120.942 67.408 120.498 67.696 120.498 68.332C120.498 68.908 120.798 69.22 121.53 69.22ZM125.901 63.88H127.077V65.044H127.101C127.413 64.276 127.917 63.736 128.745 63.736C128.961 63.736 129.129 63.748 129.309 63.772V64.9C129.153 64.876 129.045 64.864 128.913 64.864C127.845 64.864 127.077 65.668 127.077 66.832V70H125.901V63.88ZM132.599 70.18C130.655 70.18 129.575 68.8 129.575 66.928C129.575 65.008 130.727 63.688 132.599 63.688C134.459 63.688 135.503 64.912 135.503 66.808C135.503 66.976 135.503 67.156 135.491 67.252H130.787C130.811 68.284 131.411 69.22 132.623 69.22C133.703 69.22 134.111 68.524 134.231 68.116H135.419C135.107 69.292 134.207 70.18 132.599 70.18ZM132.563 64.648C131.579 64.648 130.859 65.32 130.787 66.328H134.267C134.267 65.368 133.607 64.648 132.563 64.648Z" fill="black"/>
<path d="M64.768 106V97.42H68.344C69.964 97.42 71.164 98.176 71.164 99.976C71.164 101.776 69.964 102.52 68.344 102.52H66.088V106H64.768ZM66.088 101.38H68.284C69.28 101.38 69.784 100.936 69.784 99.976C69.784 99.004 69.28 98.56 68.284 98.56H66.088V101.38ZM73.395 106.168C72.171 106.168 71.391 105.46 71.391 104.416C71.391 103.048 72.423 102.652 73.947 102.352C74.907 102.172 75.495 102.052 75.495 101.452C75.495 101.008 75.231 100.636 74.331 100.636C73.263 100.636 72.939 100.972 72.879 101.788H71.679C71.739 100.612 72.507 99.688 74.379 99.688C75.639 99.688 76.647 100.216 76.647 101.8V104.608C76.647 105.052 76.707 105.28 76.935 105.28C76.971 105.28 77.007 105.28 77.079 105.268V105.988C76.875 106.036 76.671 106.06 76.479 106.06C75.903 106.06 75.579 105.832 75.519 105.136H75.495C75.087 105.772 74.391 106.168 73.395 106.168ZM73.659 105.22C74.715 105.22 75.495 104.68 75.495 103.612V102.736C75.303 102.916 74.775 103.048 74.151 103.18C73.071 103.408 72.627 103.696 72.627 104.332C72.627 104.908 72.927 105.22 73.659 105.22ZM78.0303 99.88H79.2063V101.044H79.2303C79.5423 100.276 80.0463 99.736 80.8743 99.736C81.0903 99.736 81.2583 99.748 81.4383 99.772V100.9C81.2823 100.876 81.1743 100.864 81.0423 100.864C79.9743 100.864 79.2063 101.668 79.2063 102.832V106H78.0303V99.88ZM83.6372 106.168C82.4132 106.168 81.6332 105.46 81.6332 104.416C81.6332 103.048 82.6652 102.652 84.1892 102.352C85.1492 102.172 85.7372 102.052 85.7372 101.452C85.7372 101.008 85.4732 100.636 84.5732 100.636C83.5052 100.636 83.1812 100.972 83.1212 101.788H81.9212C81.9812 100.612 82.7492 99.688 84.6212 99.688C85.8812 99.688 86.8892 100.216 86.8892 101.8V104.608C86.8892 105.052 86.9492 105.28 87.1772 105.28C87.2132 105.28 87.2492 105.28 87.3212 105.268V105.988C87.1172 106.036 86.9132 106.06 86.7212 106.06C86.1452 106.06 85.8212 105.832 85.7612 105.136H85.7372C85.3292 105.772 84.6332 106.168 83.6372 106.168ZM83.9012 105.22C84.9572 105.22 85.7372 104.68 85.7372 103.612V102.736C85.5452 102.916 85.0172 103.048 84.3932 103.18C83.3132 103.408 82.8692 103.696 82.8692 104.332C82.8692 104.908 83.1692 105.22 83.9012 105.22ZM88.2724 106V99.88H89.4484V100.648H89.4724C89.7964 100.18 90.3604 99.7 91.2844 99.7C92.1364 99.7 92.6524 100.084 92.9044 100.768H92.9284C93.3724 100.18 93.9844 99.7 94.9324 99.7C96.1684 99.7 96.7924 100.444 96.7924 101.752V106H95.6164V102.076C95.6164 101.26 95.4484 100.708 94.5484 100.708C93.6724 100.708 93.1204 101.32 93.1204 102.244V106H91.9444V102.076C91.9444 101.26 91.7764 100.708 90.8764 100.708C90.0004 100.708 89.4484 101.32 89.4484 102.244V106H88.2724ZM100.747 106.18C98.8033 106.18 97.7233 104.8 97.7233 102.928C97.7233 101.008 98.8753 99.688 100.747 99.688C102.607 99.688 103.651 100.912 103.651 102.808C103.651 102.976 103.651 103.156 103.639 103.252H98.9353C98.9593 104.284 99.5593 105.22 100.771 105.22C101.851 105.22 102.259 104.524 102.379 104.116H103.567C103.255 105.292 102.355 106.18 100.747 106.18ZM100.711 100.648C99.7273 100.648 99.0073 101.32 98.9353 102.328H102.415C102.415 101.368 101.755 100.648 100.711 100.648ZM108.988 100.624H109.012V97.42H110.2V106H109.012V105.28H108.988C108.664 105.712 108.064 106.168 107.104 106.168C105.544 106.168 104.368 104.956 104.368 102.94C104.368 100.924 105.544 99.7 107.104 99.7C108.064 99.7 108.664 100.144 108.988 100.624ZM107.296 105.196C108.352 105.196 109.012 104.32 109.012 102.94C109.012 101.548 108.352 100.684 107.296 100.684C106.144 100.684 105.592 101.74 105.592 102.94C105.592 104.14 106.144 105.196 107.296 105.196ZM111.427 97.516H112.759V98.788H111.427V97.516ZM111.511 99.88H112.687V106H111.511V99.88ZM118.197 102.1C118.149 101.464 117.789 100.672 116.661 100.672C115.365 100.672 114.885 101.788 114.885 102.94C114.885 104.092 115.365 105.196 116.661 105.196C117.789 105.196 118.149 104.428 118.197 103.732H119.421C119.337 105.136 118.233 106.18 116.673 106.18C114.849 106.18 113.661 104.86 113.661 102.94C113.661 101.02 114.849 99.7 116.661 99.7C118.233 99.7 119.277 100.72 119.421 102.1H118.197ZM122.086 106.168C120.862 106.168 120.082 105.46 120.082 104.416C120.082 103.048 121.114 102.652 122.638 102.352C123.598 102.172 124.186 102.052 124.186 101.452C124.186 101.008 123.922 100.636 123.022 100.636C121.954 100.636 121.63 100.972 121.57 101.788H120.37C120.43 100.612 121.198 99.688 123.07 99.688C124.33 99.688 125.338 100.216 125.338 101.8V104.608C125.338 105.052 125.398 105.28 125.626 105.28C125.662 105.28 125.698 105.28 125.77 105.268V105.988C125.566 106.036 125.362 106.06 125.17 106.06C124.594 106.06 124.27 105.832 124.21 105.136H124.186C123.778 105.772 123.082 106.168 122.086 106.168ZM122.35 105.22C123.406 105.22 124.186 104.68 124.186 103.612V102.736C123.994 102.916 123.466 103.048 122.842 103.18C121.762 103.408 121.318 103.696 121.318 104.332C121.318 104.908 121.618 105.22 122.35 105.22ZM126.722 97.42H127.898V106H126.722V97.42ZM136.056 102.1C136.008 101.464 135.648 100.672 134.52 100.672C133.224 100.672 132.744 101.788 132.744 102.94C132.744 104.092 133.224 105.196 134.52 105.196C135.648 105.196 136.008 104.428 136.056 103.732H137.28C137.196 105.136 136.092 106.18 134.532 106.18C132.708 106.18 131.52 104.86 131.52 102.94C131.52 101.02 132.708 99.7 134.52 99.7C136.092 99.7 137.136 100.72 137.28 102.1H136.056ZM139.946 106.168C138.722 106.168 137.942 105.46 137.942 104.416C137.942 103.048 138.974 102.652 140.498 102.352C141.458 102.172 142.046 102.052 142.046 101.452C142.046 101.008 141.782 100.636 140.882 100.636C139.814 100.636 139.49 100.972 139.43 101.788H138.23C138.29 100.612 139.058 99.688 140.93 99.688C142.19 99.688 143.198 100.216 143.198 101.8V104.608C143.198 105.052 143.258 105.28 143.486 105.28C143.522 105.28 143.558 105.28 143.63 105.268V105.988C143.426 106.036 143.222 106.06 143.03 106.06C142.454 106.06 142.13 105.832 142.07 105.136H142.046C141.638 105.772 140.942 106.168 139.946 106.168ZM140.21 105.22C141.266 105.22 142.046 104.68 142.046 103.612V102.736C141.854 102.916 141.326 103.048 140.702 103.18C139.622 103.408 139.178 103.696 139.178 104.332C139.178 104.908 139.478 105.22 140.21 105.22ZM144.581 99.88H145.757V101.044H145.781C146.093 100.276 146.597 99.736 147.425 99.736C147.641 99.736 147.809 99.748 147.989 99.772V100.9C147.833 100.876 147.725 100.864 147.593 100.864C146.525 100.864 145.757 101.668 145.757 102.832V106H144.581V99.88ZM151.279 106.18C149.335 106.18 148.255 104.8 148.255 102.928C148.255 101.008 149.407 99.688 151.279 99.688C153.139 99.688 154.183 100.912 154.183 102.808C154.183 102.976 154.183 103.156 154.171 103.252H149.467C149.491 104.284 150.091 105.22 151.303 105.22C152.383 105.22 152.791 104.524 152.911 104.116H154.099C153.787 105.292 152.887 106.18 151.279 106.18ZM151.243 100.648C150.259 100.648 149.539 101.32 149.467 102.328H152.947C152.947 101.368 152.287 100.648 151.243 100.648Z" fill="black"/>
<path d="M64.768 133.42H66.088V142H64.768V133.42ZM67.4834 142V135.88H68.6594V136.648H68.6834C69.0074 136.18 69.6434 135.7 70.6994 135.7C71.8274 135.7 72.7394 136.348 72.7394 137.752V142H71.5514V138.076C71.5514 137.26 71.1914 136.708 70.3154 136.708C69.3074 136.708 68.6594 137.32 68.6594 138.244V142H67.4834ZM78.2847 136.624H78.3087V133.42H79.4967V142H78.3087V141.28H78.2847C77.9607 141.712 77.3607 142.168 76.4007 142.168C74.8407 142.168 73.6647 140.956 73.6647 138.94C73.6647 136.924 74.8407 135.7 76.4007 135.7C77.3607 135.7 77.9607 136.144 78.2847 136.624ZM76.5927 141.196C77.6487 141.196 78.3087 140.32 78.3087 138.94C78.3087 137.548 77.6487 136.684 76.5927 136.684C75.4407 136.684 74.8887 137.74 74.8887 138.94C74.8887 140.14 75.4407 141.196 76.5927 141.196ZM80.7236 133.516H82.0556V134.788H80.7236V133.516ZM80.8076 135.88H81.9836V142H80.8076V135.88ZM82.6579 135.88H83.9179L85.5139 140.788H85.5379L87.1099 135.88H88.3459L86.1619 142H84.8419L82.6579 135.88ZM88.9502 133.516H90.2822V134.788H88.9502V133.516ZM89.0342 135.88H90.2102V142H89.0342V135.88ZM95.8042 136.624H95.8282V133.42H97.0162V142H95.8282V141.28H95.8042C95.4802 141.712 94.8802 142.168 93.9202 142.168C92.3602 142.168 91.1842 140.956 91.1842 138.94C91.1842 136.924 92.3602 135.7 93.9202 135.7C94.8802 135.7 95.4802 136.144 95.8042 136.624ZM94.1122 141.196C95.1682 141.196 95.8282 140.32 95.8282 138.94C95.8282 137.548 95.1682 136.684 94.1122 136.684C92.9602 136.684 92.4082 137.74 92.4082 138.94C92.4082 140.14 92.9602 141.196 94.1122 141.196ZM99.4551 139.792C99.4551 140.62 99.8151 141.172 100.691 141.172C101.699 141.172 102.347 140.56 102.347 139.636V135.88H103.523V142H102.347V141.232H102.323C101.999 141.7 101.363 142.168 100.307 142.168C99.1791 142.168 98.2671 141.52 98.2671 140.116V135.88H99.4551V139.792ZM106.5 142.168C105.276 142.168 104.496 141.46 104.496 140.416C104.496 139.048 105.528 138.652 107.052 138.352C108.012 138.172 108.6 138.052 108.6 137.452C108.6 137.008 108.336 136.636 107.436 136.636C106.368 136.636 106.044 136.972 105.984 137.788H104.784C104.844 136.612 105.612 135.688 107.484 135.688C108.744 135.688 109.752 136.216 109.752 137.8V140.608C109.752 141.052 109.812 141.28 110.04 141.28C110.076 141.28 110.112 141.28 110.184 141.268V141.988C109.98 142.036 109.776 142.06 109.584 142.06C109.008 142.06 108.684 141.832 108.624 141.136H108.6C108.192 141.772 107.496 142.168 106.5 142.168ZM106.764 141.22C107.82 141.22 108.6 140.68 108.6 139.612V138.736C108.408 138.916 107.88 139.048 107.256 139.18C106.176 139.408 105.732 139.696 105.732 140.332C105.732 140.908 106.032 141.22 106.764 141.22ZM111.136 133.42H112.312V142H111.136V133.42ZM120.47 138.1C120.422 137.464 120.062 136.672 118.934 136.672C117.638 136.672 117.158 137.788 117.158 138.94C117.158 140.092 117.638 141.196 118.934 141.196C120.062 141.196 120.422 140.428 120.47 139.732H121.694C121.61 141.136 120.506 142.18 118.946 142.18C117.122 142.18 115.934 140.86 115.934 138.94C115.934 137.02 117.122 135.7 118.934 135.7C120.506 135.7 121.55 136.72 121.694 138.1H120.47ZM125.428 142.18C123.52 142.18 122.368 140.86 122.368 138.94C122.368 137.032 123.52 135.688 125.428 135.688C127.336 135.688 128.488 137.02 128.488 138.928C128.488 140.848 127.336 142.18 125.428 142.18ZM125.428 141.208C126.676 141.208 127.264 140.212 127.264 138.94C127.264 137.656 126.676 136.672 125.428 136.672C124.168 136.672 123.592 137.656 123.592 138.94C123.592 140.212 124.168 141.208 125.428 141.208ZM128.642 135.88H129.902L131.498 140.788H131.522L133.094 135.88H134.33L132.146 142H130.826L128.642 135.88ZM137.521 142.18C135.577 142.18 134.497 140.8 134.497 138.928C134.497 137.008 135.649 135.688 137.521 135.688C139.381 135.688 140.425 136.912 140.425 138.808C140.425 138.976 140.425 139.156 140.413 139.252H135.709C135.733 140.284 136.333 141.22 137.545 141.22C138.625 141.22 139.033 140.524 139.153 140.116H140.341C140.029 141.292 139.129 142.18 137.521 142.18ZM137.485 136.648C136.501 136.648 135.781 137.32 135.709 138.328H139.189C139.189 137.368 138.529 136.648 137.485 136.648ZM141.405 135.88H142.581V137.044H142.605C142.917 136.276 143.421 135.736 144.249 135.736C144.465 135.736 144.633 135.748 144.813 135.772V136.9C144.657 136.876 144.549 136.864 144.417 136.864C143.349 136.864 142.581 137.668 142.581 138.832V142H141.405V135.88ZM147.012 142.168C145.788 142.168 145.008 141.46 145.008 140.416C145.008 139.048 146.04 138.652 147.564 138.352C148.524 138.172 149.112 138.052 149.112 137.452C149.112 137.008 148.848 136.636 147.948 136.636C146.88 136.636 146.556 136.972 146.496 137.788H145.296C145.356 136.612 146.124 135.688 147.996 135.688C149.256 135.688 150.264 136.216 150.264 137.8V140.608C150.264 141.052 150.324 141.28 150.552 141.28C150.588 141.28 150.624 141.28 150.696 141.268V141.988C150.492 142.036 150.288 142.06 150.096 142.06C149.52 142.06 149.196 141.832 149.136 141.136H149.112C148.704 141.772 148.008 142.168 147.012 142.168ZM147.276 141.22C148.332 141.22 149.112 140.68 149.112 139.612V138.736C148.92 138.916 148.392 139.048 147.768 139.18C146.688 139.408 146.244 139.696 146.244 140.332C146.244 140.908 146.544 141.22 147.276 141.22ZM155.909 141.592V140.764H155.885C155.549 141.256 154.985 141.688 154.001 141.688C152.477 141.688 151.301 140.656 151.301 138.7C151.301 136.732 152.477 135.7 154.001 135.7C154.985 135.7 155.549 136.168 155.885 136.6H155.909V135.88H157.085V141.52C157.085 143.368 155.969 144.196 154.217 144.196C152.465 144.196 151.589 143.356 151.469 142.252H152.681C152.801 142.804 153.221 143.236 154.217 143.236C155.333 143.236 155.909 142.744 155.909 141.592ZM154.217 136.684C153.065 136.684 152.525 137.548 152.525 138.7C152.525 139.852 153.065 140.716 154.217 140.716C155.273 140.716 155.897 140.032 155.897 138.7C155.897 137.356 155.273 136.684 154.217 136.684ZM161.099 142.18C159.155 142.18 158.075 140.8 158.075 138.928C158.075 137.008 159.227 135.688 161.099 135.688C162.959 135.688 164.003 136.912 164.003 138.808C164.003 138.976 164.003 139.156 163.991 139.252H159.287C159.311 140.284 159.911 141.22 161.123 141.22C162.203 141.22 162.611 140.524 162.731 140.116H163.919C163.607 141.292 162.707 142.18 161.099 142.18ZM161.063 136.648C160.079 136.648 159.359 137.32 159.287 138.328H162.767C162.767 137.368 162.107 136.648 161.063 136.648Z" fill="black"/>
<path d="M64.768 178V169.42H68.032C70.408 169.42 71.848 170.956 71.848 173.716C71.848 176.476 70.432 178 68.056 178H64.768ZM66.088 170.56V176.86H67.972C69.964 176.86 70.48 175.372 70.48 173.716C70.48 172.06 69.964 170.56 67.972 170.56H66.088ZM75.7395 178.18C73.7955 178.18 72.7155 176.8 72.7155 174.928C72.7155 173.008 73.8675 171.688 75.7395 171.688C77.5995 171.688 78.6435 172.912 78.6435 174.808C78.6435 174.976 78.6435 175.156 78.6315 175.252H73.9275C73.9515 176.284 74.5515 177.22 75.7635 177.22C76.8435 177.22 77.2515 176.524 77.3715 176.116H78.5595C78.2475 177.292 77.3475 178.18 75.7395 178.18ZM75.7035 172.648C74.7195 172.648 73.9995 173.32 73.9275 174.328H77.4075C77.4075 173.368 76.7475 172.648 75.7035 172.648ZM79.624 178V171.88H80.8V172.648H80.824C81.148 172.18 81.784 171.7 82.84 171.7C83.968 171.7 84.88 172.348 84.88 173.752V178H83.692V174.076C83.692 173.26 83.332 172.708 82.456 172.708C81.448 172.708 80.8 173.32 80.8 174.244V178H79.624ZM85.5441 171.88H86.4321V169.912H87.6081V171.88H88.7841V172.852H87.6081V176.308C87.6081 176.956 87.7881 177.1 88.2921 177.1C88.4841 177.1 88.5801 177.088 88.7961 177.052V178C88.4841 178.06 88.3041 178.072 88.0401 178.072C87.0441 178.072 86.4321 177.688 86.4321 176.272V172.852H85.5441V171.88ZM91.4067 178.168C90.1827 178.168 89.4027 177.46 89.4027 176.416C89.4027 175.048 90.4347 174.652 91.9587 174.352C92.9187 174.172 93.5067 174.052 93.5067 173.452C93.5067 173.008 93.2427 172.636 92.3427 172.636C91.2747 172.636 90.9507 172.972 90.8907 173.788H89.6907C89.7507 172.612 90.5187 171.688 92.3907 171.688C93.6507 171.688 94.6587 172.216 94.6587 173.8V176.608C94.6587 177.052 94.7187 177.28 94.9467 177.28C94.9827 177.28 95.0187 177.28 95.0907 177.268V177.988C94.8867 178.036 94.6827 178.06 94.4907 178.06C93.9147 178.06 93.5907 177.832 93.5307 177.136H93.5067C93.0987 177.772 92.4027 178.168 91.4067 178.168ZM91.6707 177.22C92.7267 177.22 93.5067 176.68 93.5067 175.612V174.736C93.3147 174.916 92.7867 175.048 92.1627 175.18C91.0827 175.408 90.6387 175.696 90.6387 176.332C90.6387 176.908 90.9387 177.22 91.6707 177.22ZM96.042 169.42H97.218V178H96.042V169.42ZM105.376 174.1C105.328 173.464 104.968 172.672 103.84 172.672C102.544 172.672 102.064 173.788 102.064 174.94C102.064 176.092 102.544 177.196 103.84 177.196C104.968 177.196 105.328 176.428 105.376 175.732H106.6C106.516 177.136 105.412 178.18 103.852 178.18C102.028 178.18 100.84 176.86 100.84 174.94C100.84 173.02 102.028 171.7 103.84 171.7C105.412 171.7 106.456 172.72 106.6 174.1H105.376ZM109.266 178.168C108.042 178.168 107.262 177.46 107.262 176.416C107.262 175.048 108.294 174.652 109.818 174.352C110.778 174.172 111.366 174.052 111.366 173.452C111.366 173.008 111.102 172.636 110.202 172.636C109.134 172.636 108.81 172.972 108.75 173.788H107.55C107.61 172.612 108.378 171.688 110.25 171.688C111.51 171.688 112.518 172.216 112.518 173.8V176.608C112.518 177.052 112.578 177.28 112.806 177.28C112.842 177.28 112.878 177.28 112.95 177.268V177.988C112.746 178.036 112.542 178.06 112.35 178.06C111.774 178.06 111.45 177.832 111.39 177.136H111.366C110.958 177.772 110.262 178.168 109.266 178.168ZM109.53 177.22C110.586 177.22 111.366 176.68 111.366 175.612V174.736C111.174 174.916 110.646 175.048 110.022 175.18C108.942 175.408 108.498 175.696 108.498 176.332C108.498 176.908 108.798 177.22 109.53 177.22ZM113.901 171.88H115.077V173.044H115.101C115.413 172.276 115.917 171.736 116.745 171.736C116.961 171.736 117.129 171.748 117.309 171.772V172.9C117.153 172.876 117.045 172.864 116.913 172.864C115.845 172.864 115.077 173.668 115.077 174.832V178H113.901V171.88ZM120.599 178.18C118.655 178.18 117.575 176.8 117.575 174.928C117.575 173.008 118.727 171.688 120.599 171.688C122.459 171.688 123.503 172.912 123.503 174.808C123.503 174.976 123.503 175.156 123.491 175.252H118.787C118.811 176.284 119.411 177.22 120.623 177.22C121.703 177.22 122.111 176.524 122.231 176.116H123.419C123.107 177.292 122.207 178.18 120.599 178.18ZM120.563 172.648C119.579 172.648 118.859 173.32 118.787 174.328H122.267C122.267 173.368 121.607 172.648 120.563 172.648Z" fill="black"/>
<rect opacity="0.2" x="20" y="50" width="32" height="32" rx="6.4" fill="#FD1774"/>
<g clip-path="url(#clip0_2663_5103)">
<path fill-rule="evenodd" clip-rule="evenodd" d="M36.5271 59.2516C37.7564 60.4375 38.4003 61.9622 38.4003 63.5998C38.4003 65.2375 37.6978 66.7622 36.5271 67.948L36.0003 68.3998L35.4734 67.948C34.2442 66.7622 33.6003 65.2375 33.6003 63.5998C33.6003 61.9622 34.2442 60.381 35.4734 59.2516L36.0003 58.7998L36.5271 59.2516ZM29.4303 65.9997H28.8008V66.7079C28.8008 68.4784 29.3778 70.0718 30.4795 71.3111C31.5811 72.5505 32.9975 73.1997 34.5188 73.1997H34.5713H35.2008V72.4915C35.2008 70.721 34.6237 69.1275 33.5221 67.8882C32.4205 66.6489 31.0041 65.9997 29.4303 65.9997ZM43.2008 65.9997H42.5713C41.05 65.9997 39.5811 66.6489 38.4795 67.8882C37.3778 69.1275 36.8008 70.78 36.8008 72.4915V73.1997H37.4303H37.4827C39.0041 73.1997 40.4205 72.5505 41.5221 71.3111C42.6237 70.0718 43.2008 68.4193 43.2008 66.7079V65.9997Z" fill="#FD1774"/>
</g>
<rect opacity="0.2" x="20" y="86" width="32" height="32" rx="4.70588" fill="#64D71E"/>
<path d="M42.277 96.6273C40.6068 95.0064 37.8991 95.0064 36.2289 96.6273L36.0002 96.8492L35.7715 96.6273C34.1013 95.0064 31.3936 95.0064 29.7234 96.6273C28.0532 98.2481 28.0532 100.876 29.7234 102.497L32.976 105.653L35.3447 107.952C35.7099 108.306 36.2905 108.306 36.6556 107.952L39.0242 105.653L42.2769 102.497C43.9471 100.876 43.9471 98.2481 42.277 96.6273ZM38.7089 102.707C38.7089 102.839 38.598 102.947 38.4614 102.947H37.1021V104.266C37.1021 104.399 36.9912 104.506 36.8546 104.506H36.0002H35.146C35.0093 104.506 34.8985 104.399 34.8985 104.266V102.947H33.5392C33.4026 102.947 33.2917 102.839 33.2917 102.707V101.049C33.2917 100.916 33.4026 100.809 33.5392 100.809H34.8985V99.4896C34.8985 99.357 35.0093 99.2494 35.146 99.2494H36.0002H36.8544C36.9911 99.2494 37.1019 99.357 37.1019 99.4896V100.809H38.4612C38.5978 100.809 38.7087 100.916 38.7087 101.049L38.7089 102.707Z" fill="#64D71E"/>
<rect opacity="0.2" x="20" y="122" width="32" height="32" rx="4.70588" fill="#8800FF"/>
<path d="M38.8335 132.09H38.8177C37.7886 132.092 36.7917 132.452 35.9945 133.111C35.0955 132.313 34.2438 131.882 33.4551 131.882C32.9195 131.881 32.3891 131.989 31.8959 132.2C31.4026 132.411 30.9566 132.721 30.5846 133.111C30.0492 133.683 29.6781 134.393 29.5114 135.163C29.3447 135.933 29.3885 136.735 29.6383 137.481C29.6383 137.481 29.6383 137.513 29.654 137.513H31.6571L32.6034 136.014C32.6476 135.94 32.7101 135.879 32.7848 135.837C32.8595 135.795 32.9438 135.773 33.0293 135.774C33.1091 135.78 33.1864 135.804 33.255 135.846C33.3235 135.888 33.3813 135.945 33.4236 136.014L34.7642 138.614L36.1995 136.221C36.237 136.16 36.2877 136.108 36.3478 136.069C36.4078 136.031 36.4758 136.006 36.5465 135.998C36.6174 135.991 36.6889 135.998 36.7567 136.02C36.8246 136.042 36.8872 136.078 36.9408 136.125L38.2499 137.402C38.3387 137.489 38.3902 137.608 38.3931 137.733C38.3961 137.859 38.3503 137.98 38.2657 138.071C38.2227 138.118 38.1708 138.156 38.1131 138.182C38.0554 138.209 37.9931 138.223 37.9299 138.224C37.8667 138.226 37.8038 138.214 37.745 138.191C37.6862 138.167 37.6326 138.132 37.5875 138.087L36.7042 137.226L35.127 139.826C35.088 139.898 35.031 139.958 34.9617 140C34.8925 140.042 34.8135 140.064 34.7327 140.065H34.7169C34.6314 140.059 34.5489 140.031 34.4772 139.984C34.4054 139.936 34.3468 139.871 34.3068 139.794L32.9504 137.178L32.3038 138.215C32.2623 138.286 32.2051 138.346 32.1366 138.39C32.0681 138.434 31.9903 138.462 31.9095 138.47H30.0957C30.2376 138.63 30.4111 138.869 30.6004 139.06L35.6633 143.989C35.7068 144.033 35.7587 144.066 35.8157 144.088C35.8727 144.11 35.9336 144.12 35.9945 144.117C36.1193 144.115 36.2383 144.064 36.3257 143.974L41.4044 139.013C42.1635 138.229 42.5886 137.175 42.5886 136.078C42.5886 134.98 42.1635 133.927 41.4044 133.143C41.0682 132.801 40.6672 132.531 40.2253 132.35C39.7835 132.169 39.3101 132.081 38.8335 132.09Z" fill="#8800FF"/>
<rect opacity="0.2" x="20" y="158" width="32" height="32" rx="4.70588" fill="#01B8C7"/>
<path d="M41.1772 170.941C41.1772 171.668 40.9949 172.297 40.8186 172.904C40.6481 173.492 40.487 174.048 40.487 174.68C40.487 177.78 39.4486 180.118 38.0713 180.118C36.8872 180.118 36.7834 178.686 36.6916 177.423C36.6043 176.215 36.5035 175.359 36.0007 175.359C35.4979 175.359 35.3971 176.215 35.3098 177.423C35.218 178.686 35.1141 180.118 33.9301 180.118C32.5528 180.118 31.5144 177.78 31.5144 174.68C31.5144 174.048 31.3533 173.492 31.1828 172.904C31.0064 172.297 30.8242 171.668 30.8242 170.941C30.8242 169.671 31.6808 167.882 33.585 167.882C34.5865 167.882 35.246 168.207 35.6818 168.422C35.8036 168.482 35.9551 168.556 36.0062 168.562C36.0459 168.556 36.1974 168.482 36.3192 168.422C36.7558 168.207 37.4149 167.882 38.4164 167.882C40.3206 167.882 41.1772 169.671 41.1772 170.941Z" fill="#01B8C7"/>
<path d="M0 133H188V197C188 203.627 182.627 209 176 209H12C5.37258 209 0 203.627 0 197V133Z" fill="url(#paint0_linear_2663_5103)"/>
<defs>
<linearGradient id="paint0_linear_2663_5103" x1="94" y1="133" x2="94" y2="209" gradientUnits="userSpaceOnUse">
<stop stop-color="white" stop-opacity="0"/>
<stop offset="0.84" stop-color="white"/>
</linearGradient>
<clipPath id="clip0_2663_5103">
<rect width="16" height="16" fill="white" transform="translate(28 58)"/>
</clipPath>
</defs>
</svg>
