<svg width="1128" height="900" viewBox="0 0 1128 900" fill="none" xmlns="http://www.w3.org/2000/svg">
<rect width="1128" height="900" fill="#EDD9FF"/>
<path d="M144 200C144 177.909 161.909 160 184 160H944C966.091 160 984 177.909 984 200V900H144V200Z" fill="#FDFDFD"/>
<rect opacity="0.1" x="308" y="430" width="460" height="20" rx="10" fill="black"/>
<rect opacity="0.1" x="852" y="430" width="64" height="20" rx="10" fill="black"/>
<rect opacity="0.1" x="852" y="542" width="64" height="20" rx="10" fill="black"/>
<rect opacity="0.1" x="852" y="654" width="64" height="20" rx="10" fill="black"/>
<path opacity="0.1" d="M212 384H916" stroke="black" stroke-width="2" stroke-linecap="round"/>
<rect x="212" y="408" width="64" height="64" rx="16" fill="#E8F9DD"/>
<path fill-rule="evenodd" clip-rule="evenodd" d="M231.499 435.555L227.332 439.999L239.832 453.333L260.665 431.11L256.499 426.666L239.832 444.444L231.499 435.555Z" fill="#64D71E"/>
<rect opacity="0.1" x="308" y="542" width="288" height="20" rx="10" fill="black"/>
<path opacity="0.1" d="M212 496H916" stroke="black" stroke-width="2" stroke-linecap="round"/>
<rect x="212" y="520" width="64" height="64" rx="16" fill="#E8F9DD"/>
<path fill-rule="evenodd" clip-rule="evenodd" d="M231.499 547.555L227.332 551.999L239.832 565.333L260.665 543.11L256.499 538.666L239.832 556.444L231.499 547.555Z" fill="#64D71E"/>
<rect opacity="0.1" x="308" y="654" width="408" height="20" rx="10" fill="black"/>
<path opacity="0.1" d="M212 608H916" stroke="black" stroke-width="2" stroke-linecap="round"/>
<rect x="212" y="632" width="64" height="64" rx="16" fill="#E8F9DD"/>
<path fill-rule="evenodd" clip-rule="evenodd" d="M231.499 659.555L227.332 663.999L239.832 677.333L260.665 655.11L256.499 650.666L239.832 668.444L231.499 659.555Z" fill="#64D71E"/>
<path d="M417.712 289.2C423.232 290.6 428.432 291.92 428.432 297.96C428.432 302.88 425.072 306.56 417.952 306.56C410.712 306.56 405.592 302.8 405.312 296.36H409.872C410.192 300.2 412.472 302.8 417.832 302.8C422.392 302.8 423.832 300.8 423.832 298.2C423.832 294.56 421.032 294.04 415.832 292.72C411.352 291.56 406.432 290.08 406.432 284.64C406.432 279.68 410.272 276.84 416.432 276.84C422.952 276.84 427.192 280.16 427.632 285.92H423.032C422.592 282.48 420.632 280.6 416.432 280.6C412.872 280.6 410.992 281.92 410.992 284.4C410.992 287.6 414.032 288.28 417.712 289.2ZM435.426 298.64C435.426 301.4 436.626 303.24 439.546 303.24C442.906 303.24 445.066 301.2 445.066 298.12V285.6H448.986V306H445.066V303.44H444.986C443.906 305 441.786 306.56 438.266 306.56C434.506 306.56 431.466 304.4 431.466 299.72V285.6H435.426V298.64ZM467.39 293C467.23 290.88 466.03 288.24 462.27 288.24C457.95 288.24 456.35 291.96 456.35 295.8C456.35 299.64 457.95 303.32 462.27 303.32C466.03 303.32 467.23 300.76 467.39 298.44H471.47C471.19 303.12 467.51 306.6 462.31 306.6C456.23 306.6 452.27 302.2 452.27 295.8C452.27 289.4 456.23 285 462.27 285C467.51 285 470.99 288.4 471.47 293H467.39ZM488.836 293C488.676 290.88 487.476 288.24 483.716 288.24C479.396 288.24 477.796 291.96 477.796 295.8C477.796 299.64 479.396 303.32 483.716 303.32C487.476 303.32 488.676 300.76 488.836 298.44H492.916C492.636 303.12 488.956 306.6 483.756 306.6C477.676 306.6 473.716 302.2 473.716 295.8C473.716 289.4 477.676 285 483.716 285C488.956 285 492.436 288.4 492.916 293H488.836ZM505.241 306.6C498.761 306.6 495.161 302 495.161 295.76C495.161 289.36 499.001 284.96 505.241 284.96C511.441 284.96 514.921 289.04 514.921 295.36C514.921 295.92 514.921 296.52 514.881 296.84H499.201C499.281 300.28 501.281 303.4 505.321 303.4C508.921 303.4 510.281 301.08 510.681 299.72H514.641C513.601 303.64 510.601 306.6 505.241 306.6ZM505.121 288.16C501.841 288.16 499.441 290.4 499.201 293.76H510.801C510.801 290.56 508.601 288.16 505.121 288.16ZM526.677 293.68C530.397 294.56 534.477 295.64 534.477 300.2C534.477 304.16 531.437 306.56 526.077 306.56C519.877 306.56 516.797 303.36 516.677 299.2H520.637C520.837 301.56 522.237 303.4 526.037 303.4C529.477 303.4 530.397 301.88 530.397 300.4C530.397 297.84 527.677 297.56 525.037 297C521.477 296.2 517.397 295.12 517.397 290.88C517.397 287.36 520.237 285 525.197 285C530.757 285 533.437 288 533.717 291.52H529.757C529.477 289.96 528.677 288.16 525.237 288.16C522.637 288.16 521.477 289.2 521.477 290.72C521.477 292.84 523.757 293 526.677 293.68ZM546.325 293.68C550.045 294.56 554.125 295.64 554.125 300.2C554.125 304.16 551.085 306.56 545.725 306.56C539.525 306.56 536.445 303.36 536.325 299.2H540.285C540.485 301.56 541.885 303.4 545.685 303.4C549.125 303.4 550.045 301.88 550.045 300.4C550.045 297.84 547.325 297.56 544.685 297C541.125 296.2 537.045 295.12 537.045 290.88C537.045 287.36 539.885 285 544.845 285C550.405 285 553.085 288 553.365 291.52H549.405C549.125 289.96 548.325 288.16 544.885 288.16C542.285 288.16 541.125 289.2 541.125 290.72C541.125 292.84 543.405 293 546.325 293.68ZM562.144 306H558.224V288.84H555.424V285.6H558.224V283.12C558.224 278.4 560.184 277.12 563.504 277.12C564.224 277.12 564.864 277.2 565.984 277.36V280.52C565.184 280.44 564.864 280.4 564.304 280.4C562.664 280.4 562.144 280.88 562.144 283.04V285.6H565.984V288.84H562.144V306ZM572.77 298.64C572.77 301.4 573.97 303.24 576.89 303.24C580.25 303.24 582.41 301.2 582.41 298.12V285.6H586.33V306H582.41V303.44H582.33C581.25 305 579.13 306.56 575.61 306.56C571.85 306.56 568.81 304.4 568.81 299.72V285.6H572.77V298.64ZM590.728 277.4H594.648V306H590.728V277.4ZM628.243 287.12C627.723 284.32 625.963 280.64 620.483 280.64C614.163 280.64 611.763 286 611.763 291.68C611.763 297.4 614.163 302.76 620.483 302.76C626.003 302.76 627.963 299.08 628.243 295.6H632.843C632.203 301.96 627.763 306.56 620.523 306.56C612.403 306.56 607.203 300.32 607.203 291.72C607.203 283.08 612.443 276.84 620.563 276.84C627.763 276.84 632.163 281.4 632.843 287.12H628.243ZM636.197 277.4H640.117V306H636.197V277.4ZM650.004 306.56C645.924 306.56 643.324 304.2 643.324 300.72C643.324 296.16 646.764 294.84 651.844 293.84C655.044 293.24 657.004 292.84 657.004 290.84C657.004 289.36 656.124 288.12 653.124 288.12C649.564 288.12 648.484 289.24 648.284 291.96H644.284C644.484 288.04 647.044 284.96 653.284 284.96C657.484 284.96 660.844 286.72 660.844 292V301.36C660.844 302.84 661.044 303.6 661.804 303.6C661.924 303.6 662.044 303.6 662.284 303.56V305.96C661.604 306.12 660.924 306.2 660.284 306.2C658.364 306.2 657.284 305.44 657.084 303.12H657.004C655.644 305.24 653.324 306.56 650.004 306.56ZM650.884 303.4C654.404 303.4 657.004 301.6 657.004 298.04V295.12C656.364 295.72 654.604 296.16 652.524 296.6C648.924 297.36 647.444 298.32 647.444 300.44C647.444 302.36 648.444 303.4 650.884 303.4ZM665.175 277.72H669.615V281.96H665.175V277.72ZM665.455 285.6H669.375V306H665.455V285.6ZM673.736 306V285.6H677.656V288.16H677.736C678.816 286.6 680.696 285 683.776 285C686.616 285 688.336 286.28 689.176 288.56H689.256C690.736 286.6 692.776 285 695.936 285C700.056 285 702.136 287.48 702.136 291.84V306H698.216V292.92C698.216 290.2 697.656 288.36 694.656 288.36C691.736 288.36 689.896 290.4 689.896 293.48V306H685.976V292.92C685.976 290.2 685.416 288.36 682.416 288.36C679.496 288.36 677.656 290.4 677.656 293.48V306H673.736ZM714.919 293.68C718.639 294.56 722.719 295.64 722.719 300.2C722.719 304.16 719.679 306.56 714.319 306.56C708.119 306.56 705.039 303.36 704.919 299.2H708.879C709.079 301.56 710.479 303.4 714.279 303.4C717.719 303.4 718.639 301.88 718.639 300.4C718.639 297.84 715.919 297.56 713.279 297C709.719 296.2 705.639 295.12 705.639 290.88C705.639 287.36 708.479 285 713.439 285C718.999 285 721.679 288 721.959 291.52H717.999C717.719 289.96 716.919 288.16 713.479 288.16C710.879 288.16 709.719 289.2 709.719 290.72C709.719 292.84 711.999 293 714.919 293.68Z" fill="black"/>
<path d="M0 528H1128V780C1128 846.274 1074.27 900 1008 900H120C53.7258 900 0 846.274 0 780V528Z" fill="url(#paint0_linear_2668_5338)"/>
<defs>
<linearGradient id="paint0_linear_2668_5338" x1="564" y1="528" x2="564" y2="900" gradientUnits="userSpaceOnUse">
<stop stop-color="#EDD9FF" stop-opacity="0"/>
<stop offset="0.59" stop-color="#EDD9FF"/>
</linearGradient>
</defs>
</svg>
