<svg width="160" height="122" viewBox="0 0 160 122" fill="none" xmlns="http://www.w3.org/2000/svg">
<rect width="160" height="122" fill="white"/>
<path d="M22.436 29.162H27.294V30.492H22.436V33.67H28.12V35H20.896V24.99H27.98V26.32H22.436V29.162ZM29.2729 35V27.86H30.6449V28.756H30.6729C31.0509 28.21 31.7929 27.65 33.0249 27.65C34.3409 27.65 35.4049 28.406 35.4049 30.044V35H34.0189V30.422C34.0189 29.47 33.5989 28.826 32.5769 28.826C31.4009 28.826 30.6449 29.54 30.6449 30.618V35H29.2729ZM36.1797 27.86H37.2157V25.564H38.5877V27.86H39.9597V28.994H38.5877V33.026C38.5877 33.782 38.7977 33.95 39.3857 33.95C39.6097 33.95 39.7217 33.936 39.9737 33.894V35C39.6097 35.07 39.3997 35.084 39.0917 35.084C37.9297 35.084 37.2157 34.636 37.2157 32.984V28.994H36.1797V27.86ZM44.1003 35.21C41.8323 35.21 40.5723 33.6 40.5723 31.416C40.5723 29.176 41.9163 27.636 44.1003 27.636C46.2703 27.636 47.4883 29.064 47.4883 31.276C47.4883 31.472 47.4883 31.682 47.4743 31.794H41.9863C42.0143 32.998 42.7143 34.09 44.1283 34.09C45.3883 34.09 45.8643 33.278 46.0043 32.802H47.3903C47.0263 34.174 45.9763 35.21 44.1003 35.21ZM44.0583 28.756C42.9103 28.756 42.0703 29.54 41.9863 30.716H46.0463C46.0463 29.596 45.2763 28.756 44.0583 28.756ZM48.6323 27.86H50.0043V29.218H50.0323C50.3963 28.322 50.9843 27.692 51.9503 27.692C52.2023 27.692 52.3983 27.706 52.6083 27.734V29.05C52.4263 29.022 52.3003 29.008 52.1463 29.008C50.9003 29.008 50.0043 29.946 50.0043 31.304V35H48.6323V27.86ZM53.2559 27.86H54.2919V25.564H55.6639V27.86H57.0359V28.994H55.6639V33.026C55.6639 33.782 55.8739 33.95 56.4619 33.95C56.6859 33.95 56.7979 33.936 57.0499 33.894V35C56.6859 35.07 56.4759 35.084 56.1679 35.084C55.0059 35.084 54.2919 34.636 54.2919 32.984V28.994H53.2559V27.86ZM60.0956 35.196C58.6676 35.196 57.7576 34.37 57.7576 33.152C57.7576 31.556 58.9616 31.094 60.7396 30.744C61.8596 30.534 62.5456 30.394 62.5456 29.694C62.5456 29.176 62.2376 28.742 61.1876 28.742C59.9416 28.742 59.5636 29.134 59.4936 30.086H58.0936C58.1636 28.714 59.0596 27.636 61.2436 27.636C62.7136 27.636 63.8896 28.252 63.8896 30.1V33.376C63.8896 33.894 63.9596 34.16 64.2256 34.16C64.2676 34.16 64.3096 34.16 64.3936 34.146V34.986C64.1556 35.042 63.9176 35.07 63.6936 35.07C63.0216 35.07 62.6436 34.804 62.5736 33.992H62.5456C62.0696 34.734 61.2576 35.196 60.0956 35.196ZM60.4036 34.09C61.6356 34.09 62.5456 33.46 62.5456 32.214V31.192C62.3216 31.402 61.7056 31.556 60.9776 31.71C59.7176 31.976 59.1996 32.312 59.1996 33.054C59.1996 33.726 59.5496 34.09 60.4036 34.09ZM65.4054 25.102H66.9594V26.586H65.4054V25.102ZM65.5034 27.86H66.8754V35H65.5034V27.86ZM68.4018 35V27.86H69.7738V28.756H69.8018C70.1798 28.21 70.9218 27.65 72.1538 27.65C73.4698 27.65 74.5338 28.406 74.5338 30.044V35H73.1478V30.422C73.1478 29.47 72.7278 28.826 71.7058 28.826C70.5298 28.826 69.7738 29.54 69.7738 30.618V35H68.4018ZM76.0034 35V27.86H77.3754V28.756H77.4034C77.7814 28.21 78.4394 27.65 79.5174 27.65C80.5114 27.65 81.1134 28.098 81.4074 28.896H81.4354C81.9534 28.21 82.6674 27.65 83.7734 27.65C85.2154 27.65 85.9434 28.518 85.9434 30.044V35H84.5714V30.422C84.5714 29.47 84.3754 28.826 83.3254 28.826C82.3034 28.826 81.6594 29.54 81.6594 30.618V35H80.2874V30.422C80.2874 29.47 80.0914 28.826 79.0414 28.826C78.0194 28.826 77.3754 29.54 77.3754 30.618V35H76.0034ZM90.5574 35.21C88.2894 35.21 87.0294 33.6 87.0294 31.416C87.0294 29.176 88.3734 27.636 90.5574 27.636C92.7274 27.636 93.9454 29.064 93.9454 31.276C93.9454 31.472 93.9454 31.682 93.9314 31.794H88.4434C88.4714 32.998 89.1714 34.09 90.5854 34.09C91.8454 34.09 92.3214 33.278 92.4614 32.802H93.8474C93.4834 34.174 92.4334 35.21 90.5574 35.21ZM90.5154 28.756C89.3674 28.756 88.5274 29.54 88.4434 30.716H92.5034C92.5034 29.596 91.7334 28.756 90.5154 28.756ZM95.0893 35V27.86H96.4613V28.756H96.4893C96.8673 28.21 97.6093 27.65 98.8413 27.65C100.157 27.65 101.221 28.406 101.221 30.044V35H99.8353V30.422C99.8353 29.47 99.4153 28.826 98.3933 28.826C97.2173 28.826 96.4613 29.54 96.4613 30.618V35H95.0893ZM101.996 27.86H103.032V25.564H104.404V27.86H105.776V28.994H104.404V33.026C104.404 33.782 104.614 33.95 105.202 33.95C105.426 33.95 105.538 33.936 105.79 33.894V35C105.426 35.07 105.216 35.084 104.908 35.084C103.746 35.084 103.032 34.636 103.032 32.984V28.994H101.996V27.86Z" fill="black"/>
<path d="M61.844 63.936H58.256L57.548 66H56.156L59.348 57.42H60.776L63.992 66H62.552L61.844 63.936ZM58.64 62.82H61.46L60.068 58.644H60.044L58.64 62.82ZM64.7685 59.88H65.9445V61.044H65.9685C66.2805 60.276 66.7845 59.736 67.6125 59.736C67.8285 59.736 67.9965 59.748 68.1765 59.772V60.9C68.0205 60.876 67.9125 60.864 67.7805 60.864C66.7125 60.864 65.9445 61.668 65.9445 62.832V66H64.7685V59.88ZM68.7316 59.88H69.6196V57.912H70.7956V59.88H71.9716V60.852H70.7956V64.308C70.7956 64.956 70.9756 65.1 71.4796 65.1C71.6716 65.1 71.7676 65.088 71.9836 65.052V66C71.6716 66.06 71.4916 66.072 71.2276 66.072C70.2316 66.072 69.6196 65.688 69.6196 64.272V60.852H68.7316V59.88ZM75.5179 62.304C76.6339 62.568 77.8579 62.892 77.8579 64.26C77.8579 65.448 76.9459 66.168 75.3379 66.168C73.4779 66.168 72.5539 65.208 72.5179 63.96H73.7059C73.7659 64.668 74.1859 65.22 75.3259 65.22C76.3579 65.22 76.6339 64.764 76.6339 64.32C76.6339 63.552 75.8179 63.468 75.0259 63.3C73.9579 63.06 72.7339 62.736 72.7339 61.464C72.7339 60.408 73.5859 59.7 75.0739 59.7C76.7419 59.7 77.5459 60.6 77.6299 61.656H76.4419C76.3579 61.188 76.1179 60.648 75.0859 60.648C74.3059 60.648 73.9579 60.96 73.9579 61.416C73.9579 62.052 74.6419 62.1 75.5179 62.304ZM86.6772 61.8H87.8052C87.6852 62.664 87.4092 63.588 86.9172 64.368L88.2732 66H86.8452L86.2212 65.232C85.6092 65.796 84.8052 66.168 83.7612 66.168C82.0572 66.168 81.0972 65.196 81.0972 63.912C81.0972 62.616 82.0812 61.944 83.0652 61.38C82.4772 60.648 82.0692 60.06 82.0692 59.28C82.0692 58.26 82.7892 57.252 84.2172 57.252C85.5852 57.24 86.3532 58.176 86.3532 59.268C86.3532 60.3 85.6692 60.864 84.5532 61.524L86.1732 63.468C86.4252 62.964 86.5812 62.376 86.6772 61.8ZM83.2212 59.292C83.2212 59.796 83.5452 60.288 83.9892 60.852C84.7932 60.372 85.2012 59.952 85.2012 59.352C85.2012 58.764 84.8412 58.296 84.2172 58.296C83.5692 58.296 83.2212 58.776 83.2212 59.292ZM82.3092 63.756C82.3092 64.512 82.8612 65.052 83.8572 65.052C84.5532 65.052 85.0932 64.788 85.5132 64.38L83.6172 62.064C82.8132 62.556 82.3092 63.06 82.3092 63.756ZM95.9351 62.1C95.8871 61.464 95.5271 60.672 94.3991 60.672C93.1031 60.672 92.6231 61.788 92.6231 62.94C92.6231 64.092 93.1031 65.196 94.3991 65.196C95.5271 65.196 95.8871 64.428 95.9351 63.732H97.1591C97.0751 65.136 95.9711 66.18 94.4111 66.18C92.5871 66.18 91.3991 64.86 91.3991 62.94C91.3991 61.02 92.5871 59.7 94.3991 59.7C95.9711 59.7 97.0151 60.72 97.1591 62.1H95.9351ZM99.2247 63.792C99.2247 64.62 99.5847 65.172 100.461 65.172C101.469 65.172 102.117 64.56 102.117 63.636V59.88H103.293V66H102.117V65.232H102.093C101.769 65.7 101.133 66.168 100.077 66.168C98.9487 66.168 98.0367 65.52 98.0367 64.116V59.88H99.2247V63.792ZM104.612 57.42H105.788V66H104.612V57.42ZM106.618 59.88H107.506V57.912H108.682V59.88H109.858V60.852H108.682V64.308C108.682 64.956 108.862 65.1 109.366 65.1C109.558 65.1 109.654 65.088 109.87 65.052V66C109.558 66.06 109.378 66.072 109.114 66.072C108.118 66.072 107.506 65.688 107.506 64.272V60.852H106.618V59.88ZM111.893 63.792C111.893 64.62 112.253 65.172 113.129 65.172C114.137 65.172 114.785 64.56 114.785 63.636V59.88H115.961V66H114.785V65.232H114.761C114.437 65.7 113.801 66.168 112.745 66.168C111.617 66.168 110.705 65.52 110.705 64.116V59.88H111.893V63.792ZM117.28 59.88H118.456V61.044H118.48C118.792 60.276 119.296 59.736 120.124 59.736C120.34 59.736 120.508 59.748 120.688 59.772V60.9C120.532 60.876 120.424 60.864 120.292 60.864C119.224 60.864 118.456 61.668 118.456 62.832V66H117.28V59.88ZM123.978 66.18C122.034 66.18 120.954 64.8 120.954 62.928C120.954 61.008 122.106 59.688 123.978 59.688C125.838 59.688 126.882 60.912 126.882 62.808C126.882 62.976 126.882 63.156 126.87 63.252H122.166C122.19 64.284 122.79 65.22 124.002 65.22C125.082 65.22 125.49 64.524 125.61 64.116H126.798C126.486 65.292 125.586 66.18 123.978 66.18ZM123.942 60.648C122.958 60.648 122.238 61.32 122.166 62.328H125.646C125.646 61.368 124.986 60.648 123.942 60.648Z" fill="black"/>
<path d="M58.088 88.996H62.252V90.136H58.088V92.86H62.96V94H56.768V85.42H62.84V86.56H58.088V88.996ZM63.9482 94V87.88H65.1242V88.648H65.1482C65.4722 88.18 66.1082 87.7 67.1642 87.7C68.2922 87.7 69.2042 88.348 69.2042 89.752V94H68.0162V90.076C68.0162 89.26 67.6562 88.708 66.7802 88.708C65.7722 88.708 65.1242 89.32 65.1242 90.244V94H63.9482ZM69.8683 87.88H70.7563V85.912H71.9323V87.88H73.1083V88.852H71.9323V92.308C71.9323 92.956 72.1123 93.1 72.6163 93.1C72.8083 93.1 72.9043 93.088 73.1203 93.052V94C72.8083 94.06 72.6283 94.072 72.3643 94.072C71.3683 94.072 70.7563 93.688 70.7563 92.272V88.852H69.8683V87.88ZM76.6574 94.18C74.7134 94.18 73.6334 92.8 73.6334 90.928C73.6334 89.008 74.7854 87.688 76.6574 87.688C78.5174 87.688 79.5614 88.912 79.5614 90.808C79.5614 90.976 79.5614 91.156 79.5494 91.252H74.8454C74.8694 92.284 75.4694 93.22 76.6814 93.22C77.7614 93.22 78.1694 92.524 78.2894 92.116H79.4774C79.1654 93.292 78.2654 94.18 76.6574 94.18ZM76.6214 88.648C75.6374 88.648 74.9174 89.32 74.8454 90.328H78.3254C78.3254 89.368 77.6654 88.648 76.6214 88.648ZM80.542 87.88H81.718V89.044H81.742C82.054 88.276 82.558 87.736 83.386 87.736C83.602 87.736 83.77 87.748 83.95 87.772V88.9C83.794 88.876 83.686 88.864 83.554 88.864C82.486 88.864 81.718 89.668 81.718 90.832V94H80.542V87.88ZM84.5051 87.88H85.3931V85.912H86.5691V87.88H87.7451V88.852H86.5691V92.308C86.5691 92.956 86.7491 93.1 87.2531 93.1C87.4451 93.1 87.5411 93.088 87.7571 93.052V94C87.4451 94.06 87.2651 94.072 87.0011 94.072C86.0051 94.072 85.3931 93.688 85.3931 92.272V88.852H84.5051V87.88ZM90.3676 94.168C89.1436 94.168 88.3636 93.46 88.3636 92.416C88.3636 91.048 89.3956 90.652 90.9196 90.352C91.8796 90.172 92.4676 90.052 92.4676 89.452C92.4676 89.008 92.2036 88.636 91.3036 88.636C90.2356 88.636 89.9116 88.972 89.8516 89.788H88.6516C88.7116 88.612 89.4796 87.688 91.3516 87.688C92.6116 87.688 93.6196 88.216 93.6196 89.8V92.608C93.6196 93.052 93.6796 93.28 93.9076 93.28C93.9436 93.28 93.9796 93.28 94.0516 93.268V93.988C93.8476 94.036 93.6436 94.06 93.4516 94.06C92.8756 94.06 92.5516 93.832 92.4916 93.136H92.4676C92.0596 93.772 91.3636 94.168 90.3676 94.168ZM90.6316 93.22C91.6876 93.22 92.4676 92.68 92.4676 91.612V90.736C92.2756 90.916 91.7476 91.048 91.1236 91.18C90.0436 91.408 89.5996 91.696 89.5996 92.332C89.5996 92.908 89.8996 93.22 90.6316 93.22ZM94.9189 85.516H96.2509V86.788H94.9189V85.516ZM95.0029 87.88H96.1789V94H95.0029V87.88ZM97.4873 94V87.88H98.6633V88.648H98.6873C99.0113 88.18 99.6473 87.7 100.703 87.7C101.831 87.7 102.743 88.348 102.743 89.752V94H101.555V90.076C101.555 89.26 101.195 88.708 100.319 88.708C99.3113 88.708 98.6633 89.32 98.6633 90.244V94H97.4873ZM104.003 94V87.88H105.179V88.648H105.203C105.527 88.18 106.091 87.7 107.015 87.7C107.867 87.7 108.383 88.084 108.635 88.768H108.659C109.103 88.18 109.715 87.7 110.663 87.7C111.899 87.7 112.523 88.444 112.523 89.752V94H111.347V90.076C111.347 89.26 111.179 88.708 110.279 88.708C109.403 88.708 108.851 89.32 108.851 90.244V94H107.675V90.076C107.675 89.26 107.507 88.708 106.607 88.708C105.731 88.708 105.179 89.32 105.179 90.244V94H104.003ZM116.478 94.18C114.534 94.18 113.454 92.8 113.454 90.928C113.454 89.008 114.606 87.688 116.478 87.688C118.338 87.688 119.382 88.912 119.382 90.808C119.382 90.976 119.382 91.156 119.37 91.252H114.666C114.69 92.284 115.29 93.22 116.502 93.22C117.582 93.22 117.99 92.524 118.11 92.116H119.298C118.986 93.292 118.086 94.18 116.478 94.18ZM116.442 88.648C115.458 88.648 114.738 89.32 114.666 90.328H118.146C118.146 89.368 117.486 88.648 116.442 88.648ZM120.362 94V87.88H121.538V88.648H121.562C121.886 88.18 122.522 87.7 123.578 87.7C124.706 87.7 125.618 88.348 125.618 89.752V94H124.43V90.076C124.43 89.26 124.07 88.708 123.194 88.708C122.186 88.708 121.538 89.32 121.538 90.244V94H120.362ZM126.282 87.88H127.17V85.912H128.346V87.88H129.522V88.852H128.346V92.308C128.346 92.956 128.526 93.1 129.03 93.1C129.222 93.1 129.318 93.088 129.534 93.052V94C129.222 94.06 129.042 94.072 128.778 94.072C127.782 94.072 127.17 93.688 127.17 92.272V88.852H126.282V87.88Z" fill="black"/>
<rect opacity="0.2" x="20" y="50" width="24" height="24" rx="3.52941" fill="#FFB800"/>
<g clip-path="url(#clip0_2663_5130)">
<path d="M32.6697 59.0269L32.8734 60.8601C32.9554 60.7972 33.0528 60.7574 33.1554 60.7446C33.258 60.7319 33.3621 60.7468 33.4571 60.7877C33.552 60.8286 33.6344 60.8941 33.6956 60.9774C33.7568 61.0607 33.7947 61.1589 33.8053 61.2617C33.816 61.3646 33.799 61.4684 33.7562 61.5625C33.7133 61.6566 33.6462 61.7376 33.5616 61.7971C33.4771 61.8566 33.3782 61.8925 33.2751 61.901C33.1721 61.9096 33.0686 61.8905 32.9754 61.8458C33.0095 62.3315 32.9405 62.8189 32.7731 63.276C33.2273 63.1974 33.6923 63.2052 34.1435 63.2991C35.1678 63.5177 36.287 64.3009 35.777 64.731C35.3038 65.1298 35.0062 64.2747 33.9819 64.056C33.1838 63.8857 32.6316 64.2459 32.2989 64.1506C32.2735 64.1849 32.2509 64.2207 32.2241 64.2542C32.0251 64.5019 31.7933 64.7213 31.5352 64.9063C31.8553 65.4382 32.3281 65.8614 32.892 66.1209C33.456 66.3805 34.0849 66.4643 34.6972 66.3616C35.3094 66.2589 35.8765 65.9743 36.3249 65.5449C36.7732 65.1155 37.0819 64.5612 37.211 63.9539L38.019 60.1689L32.6697 59.0269ZM36.439 62.0082C36.415 62.1205 36.3583 62.2231 36.2759 62.3032C36.1936 62.3832 36.0894 62.437 35.9765 62.4578C35.8636 62.4786 35.747 62.4654 35.6416 62.42C35.5361 62.3746 35.4465 62.2989 35.3841 62.2025C35.3217 62.1062 35.2892 61.9935 35.2908 61.8787C35.2924 61.7639 35.3281 61.6521 35.3932 61.5576C35.4583 61.463 35.55 61.3899 35.6566 61.3474C35.7633 61.305 35.8802 61.2951 35.9925 61.3191C36.0671 61.335 36.1378 61.3654 36.2006 61.4087C36.2634 61.4519 36.3171 61.5071 36.3585 61.5711C36.4 61.6351 36.4285 61.7067 36.4423 61.7817C36.4561 61.8567 36.455 61.9337 36.439 62.0082Z" fill="#FFB800"/>
<path d="M32.582 61.7363L32.1546 57.8896L26 58.5735L26.4274 62.4202C26.4723 62.8243 26.5964 63.2156 26.7925 63.5718C26.9887 63.928 27.253 64.242 27.5705 64.496C28.2118 65.009 29.0305 65.2462 29.8466 65.1556C30.2508 65.1107 30.6421 64.9866 30.9982 64.7905C31.3544 64.5943 31.6685 64.33 31.9225 64.0125C32.1765 63.695 32.3654 63.3305 32.4786 62.94C32.5918 62.5495 32.6269 62.1405 32.582 61.7363ZM30.5945 59.6208C30.7535 59.6088 30.9108 59.6603 31.0318 59.7641C31.1529 59.8679 31.2278 60.0154 31.2402 60.1744C31.2781 60.5155 30.9818 60.2031 30.6632 60.2385C30.3445 60.2739 30.124 60.6436 30.0863 60.3024C30.0635 60.1446 30.1042 59.9842 30.1994 59.8564C30.2947 59.7286 30.4368 59.644 30.5945 59.6208ZM27.3935 60.6018C27.3793 60.5233 27.3814 60.4428 27.3997 60.3651C27.4179 60.2875 27.4519 60.2144 27.4996 60.1505C27.5473 60.0866 27.6076 60.0331 27.6768 59.9934C27.746 59.9538 27.8226 59.9288 27.9018 59.92C27.9811 59.9112 28.0613 59.9187 28.1376 59.9422C28.2138 59.9657 28.2843 60.0047 28.3449 60.0566C28.4054 60.1085 28.4547 60.1723 28.4895 60.244C28.5244 60.3158 28.5441 60.3939 28.5475 60.4736C28.5854 60.8147 28.2892 60.5023 27.9705 60.5377C27.6518 60.5731 27.4314 60.943 27.3935 60.6018ZM29.9191 63.6002C28.9631 63.7065 28.0673 63.1972 27.9844 62.4276C27.9391 62.0072 28.976 62.5264 29.9321 62.4202C30.8881 62.314 31.2929 61.299 31.4188 61.7948C31.6092 62.545 30.8751 63.494 29.9191 63.6002Z" fill="#FFB800"/>
</g>
<rect opacity="0.2" x="20" y="78" width="24" height="24" rx="4.8" fill="#8800FF"/>
<path d="M34.7023 89.0017L30.8656 86.444C30.0682 85.9123 29 86.484 29 87.4424V92.558C29 93.5164 30.0682 94.0881 30.8656 93.5564L34.7023 90.9987C35.4148 90.5237 35.4148 89.4767 34.7023 89.0017Z" fill="#8800FF"/>
<defs>
<clipPath id="clip0_2663_5130">
<rect width="12" height="12" fill="white" transform="translate(26 56)"/>
</clipPath>
</defs>
</svg>
