<svg width="226" height="112" viewBox="0 0 226 112" fill="none" xmlns="http://www.w3.org/2000/svg">
<rect width="226" height="112" fill="white"/>
<path d="M23.528 35V26.32H20.294V24.99H28.316V26.32H25.082V35H23.528ZM27.6323 27.86H29.0043V29.218H29.0323C29.3963 28.322 29.9843 27.692 30.9503 27.692C31.2023 27.692 31.3983 27.706 31.6083 27.734V29.05C31.4263 29.022 31.3003 29.008 31.1463 29.008C29.9003 29.008 29.0043 29.946 29.0043 31.304V35H27.6323V27.86ZM35.446 35.21C33.178 35.21 31.918 33.6 31.918 31.416C31.918 29.176 33.262 27.636 35.446 27.636C37.616 27.636 38.834 29.064 38.834 31.276C38.834 31.472 38.834 31.682 38.82 31.794H33.332C33.36 32.998 34.06 34.09 35.474 34.09C36.734 34.09 37.21 33.278 37.35 32.802H38.736C38.372 34.174 37.322 35.21 35.446 35.21ZM35.404 28.756C34.256 28.756 33.416 29.54 33.332 30.716H37.392C37.392 29.596 36.622 28.756 35.404 28.756ZM39.978 35V27.86H41.35V28.756H41.378C41.756 28.21 42.498 27.65 43.73 27.65C45.046 27.65 46.11 28.406 46.11 30.044V35H44.724V30.422C44.724 29.47 44.304 28.826 43.282 28.826C42.106 28.826 41.35 29.54 41.35 30.618V35H39.978ZM52.5795 28.728H52.6075V24.99H53.9935V35H52.6075V34.16H52.5795C52.2015 34.664 51.5015 35.196 50.3815 35.196C48.5615 35.196 47.1895 33.782 47.1895 31.43C47.1895 29.078 48.5615 27.65 50.3815 27.65C51.5015 27.65 52.2015 28.168 52.5795 28.728ZM50.6055 34.062C51.8375 34.062 52.6075 33.04 52.6075 31.43C52.6075 29.806 51.8375 28.798 50.6055 28.798C49.2615 28.798 48.6175 30.03 48.6175 31.43C48.6175 32.83 49.2615 34.062 50.6055 34.062ZM55.4249 25.102H56.9789V26.586H55.4249V25.102ZM55.5229 27.86H56.8949V35H55.5229V27.86ZM58.4214 35V27.86H59.7934V28.756H59.8214C60.1994 28.21 60.9414 27.65 62.1734 27.65C63.4894 27.65 64.5534 28.406 64.5534 30.044V35H63.1674V30.422C63.1674 29.47 62.7474 28.826 61.7254 28.826C60.5494 28.826 59.7934 29.54 59.7934 30.618V35H58.4214ZM71.0089 34.524V33.558H70.9809C70.5889 34.132 69.9309 34.636 68.7829 34.636C67.0049 34.636 65.6329 33.432 65.6329 31.15C65.6329 28.854 67.0049 27.65 68.7829 27.65C69.9309 27.65 70.5889 28.196 70.9809 28.7H71.0089V27.86H72.3809V34.44C72.3809 36.596 71.0789 37.562 69.0349 37.562C66.9909 37.562 65.9689 36.582 65.8289 35.294H67.2429C67.3829 35.938 67.8729 36.442 69.0349 36.442C70.3369 36.442 71.0089 35.868 71.0089 34.524ZM69.0349 28.798C67.6909 28.798 67.0609 29.806 67.0609 31.15C67.0609 32.494 67.6909 33.502 69.0349 33.502C70.2669 33.502 70.9949 32.704 70.9949 31.15C70.9949 29.582 70.2669 28.798 69.0349 28.798ZM84.1571 28.392C83.9751 27.412 83.3591 26.124 81.4411 26.124C79.2291 26.124 78.3891 28 78.3891 29.988C78.3891 31.99 79.2291 33.866 81.4411 33.866C83.3731 33.866 84.0591 32.578 84.1571 31.36H85.7671C85.5431 33.586 83.9891 35.196 81.4551 35.196C78.6131 35.196 76.7931 33.012 76.7931 30.002C76.7931 26.978 78.6271 24.794 81.4691 24.794C83.9891 24.794 85.5291 26.39 85.7671 28.392H84.1571ZM88.8749 35.196C87.4469 35.196 86.5369 34.37 86.5369 33.152C86.5369 31.556 87.7409 31.094 89.5189 30.744C90.6389 30.534 91.3249 30.394 91.3249 29.694C91.3249 29.176 91.0169 28.742 89.9669 28.742C88.7209 28.742 88.3429 29.134 88.2729 30.086H86.8729C86.9429 28.714 87.8389 27.636 90.0229 27.636C91.4929 27.636 92.6689 28.252 92.6689 30.1V33.376C92.6689 33.894 92.7389 34.16 93.0049 34.16C93.0469 34.16 93.0889 34.16 93.1729 34.146V34.986C92.9349 35.042 92.6969 35.07 92.4729 35.07C91.8009 35.07 91.4229 34.804 91.3529 33.992H91.3249C90.8489 34.734 90.0369 35.196 88.8749 35.196ZM89.1829 34.09C90.4149 34.09 91.3249 33.46 91.3249 32.214V31.192C91.1009 31.402 90.4849 31.556 89.7569 31.71C88.4969 31.976 87.9789 32.312 87.9789 33.054C87.9789 33.726 88.3289 34.09 89.1829 34.09ZM93.4512 27.86H94.4872V25.564H95.8592V27.86H97.2312V28.994H95.8592V33.026C95.8592 33.782 96.0692 33.95 96.6572 33.95C96.8812 33.95 96.9932 33.936 97.2452 33.894V35C96.8812 35.07 96.6712 35.084 96.3632 35.084C95.2012 35.084 94.4872 34.636 94.4872 32.984V28.994H93.4512V27.86ZM101.372 35.21C99.1038 35.21 97.8438 33.6 97.8438 31.416C97.8438 29.176 99.1878 27.636 101.372 27.636C103.542 27.636 104.76 29.064 104.76 31.276C104.76 31.472 104.76 31.682 104.746 31.794H99.2578C99.2858 32.998 99.9858 34.09 101.4 34.09C102.66 34.09 103.136 33.278 103.276 32.802H104.662C104.298 34.174 103.248 35.21 101.372 35.21ZM101.33 28.756C100.182 28.756 99.3418 29.54 99.2578 30.716H103.318C103.318 29.596 102.548 28.756 101.33 28.756ZM110.972 34.524V33.558H110.944C110.552 34.132 109.894 34.636 108.746 34.636C106.968 34.636 105.596 33.432 105.596 31.15C105.596 28.854 106.968 27.65 108.746 27.65C109.894 27.65 110.552 28.196 110.944 28.7H110.972V27.86H112.344V34.44C112.344 36.596 111.042 37.562 108.998 37.562C106.954 37.562 105.932 36.582 105.792 35.294H107.206C107.346 35.938 107.836 36.442 108.998 36.442C110.3 36.442 110.972 35.868 110.972 34.524ZM108.998 28.798C107.654 28.798 107.024 29.806 107.024 31.15C107.024 32.494 107.654 33.502 108.998 33.502C110.23 33.502 110.958 32.704 110.958 31.15C110.958 29.582 110.23 28.798 108.998 28.798ZM117.068 35.21C114.842 35.21 113.498 33.67 113.498 31.43C113.498 29.204 114.842 27.636 117.068 27.636C119.294 27.636 120.638 29.19 120.638 31.416C120.638 33.656 119.294 35.21 117.068 35.21ZM117.068 34.076C118.524 34.076 119.21 32.914 119.21 31.43C119.21 29.932 118.524 28.784 117.068 28.784C115.598 28.784 114.926 29.932 114.926 31.43C114.926 32.914 115.598 34.076 117.068 34.076ZM121.777 27.86H123.149V29.218H123.177C123.541 28.322 124.129 27.692 125.095 27.692C125.347 27.692 125.543 27.706 125.753 27.734V29.05C125.571 29.022 125.445 29.008 125.291 29.008C124.045 29.008 123.149 29.946 123.149 31.304V35H121.777V27.86ZM126.601 25.102H128.155V26.586H126.601V25.102ZM126.699 27.86H128.071V35H126.699V27.86ZM132.735 35.21C130.467 35.21 129.207 33.6 129.207 31.416C129.207 29.176 130.551 27.636 132.735 27.636C134.905 27.636 136.123 29.064 136.123 31.276C136.123 31.472 136.123 31.682 136.109 31.794H130.621C130.649 32.998 131.349 34.09 132.763 34.09C134.023 34.09 134.499 33.278 134.639 32.802H136.025C135.661 34.174 134.611 35.21 132.735 35.21ZM132.693 28.756C131.545 28.756 130.705 29.54 130.621 30.716H134.681C134.681 29.596 133.911 28.756 132.693 28.756ZM140.238 30.688C141.54 30.996 142.968 31.374 142.968 32.97C142.968 34.356 141.904 35.196 140.028 35.196C137.858 35.196 136.78 34.076 136.738 32.62H138.124C138.194 33.446 138.684 34.09 140.014 34.09C141.218 34.09 141.54 33.558 141.54 33.04C141.54 32.144 140.588 32.046 139.664 31.85C138.418 31.57 136.99 31.192 136.99 29.708C136.99 28.476 137.984 27.65 139.72 27.65C141.666 27.65 142.604 28.7 142.702 29.932H141.316C141.218 29.386 140.938 28.756 139.734 28.756C138.824 28.756 138.418 29.12 138.418 29.652C138.418 30.394 139.216 30.45 140.238 30.688Z" fill="black"/>
<path d="M77.844 66.936H74.256L73.548 69H72.156L75.348 60.42H76.776L79.992 69H78.552L77.844 66.936ZM74.64 65.82H77.46L76.068 61.644H76.044L74.64 65.82ZM84.6773 65.1C84.6293 64.464 84.2693 63.672 83.1413 63.672C81.8453 63.672 81.3652 64.788 81.3652 65.94C81.3652 67.092 81.8453 68.196 83.1413 68.196C84.2693 68.196 84.6293 67.428 84.6773 66.732H85.9013C85.8173 68.136 84.7133 69.18 83.1533 69.18C81.3293 69.18 80.1413 67.86 80.1413 65.94C80.1413 64.02 81.3293 62.7 83.1413 62.7C84.7133 62.7 85.7573 63.72 85.9013 65.1H84.6773ZM86.3019 62.88H87.1899V60.912H88.3659V62.88H89.5419V63.852H88.3659V67.308C88.3659 67.956 88.5459 68.1 89.0499 68.1C89.2419 68.1 89.3379 68.088 89.5539 68.052V69C89.2419 69.06 89.0619 69.072 88.7979 69.072C87.8019 69.072 87.1899 68.688 87.1899 67.272V63.852H86.3019V62.88ZM90.5166 60.516H91.8486V61.788H90.5166V60.516ZM90.6006 62.88H91.7766V69H90.6006V62.88ZM92.4509 62.88H93.7109L95.3069 67.788H95.3309L96.9029 62.88H98.1389L95.9549 69H94.6349L92.4509 62.88ZM101.329 69.18C99.3853 69.18 98.3053 67.8 98.3053 65.928C98.3053 64.008 99.4573 62.688 101.329 62.688C103.189 62.688 104.233 63.912 104.233 65.808C104.233 65.976 104.233 66.156 104.221 66.252H99.5173C99.5413 67.284 100.141 68.22 101.353 68.22C102.433 68.22 102.841 67.524 102.961 67.116H104.149C103.837 68.292 102.937 69.18 101.329 69.18ZM101.293 63.648C100.309 63.648 99.5893 64.32 99.5173 65.328H102.997C102.997 64.368 102.337 63.648 101.293 63.648ZM107.862 60.42H109.038V69H107.862V60.42ZM110.263 60.516H111.595V61.788H110.263V60.516ZM110.347 62.88H111.523V69H110.347V62.88ZM114.381 69H113.205V63.852H112.365V62.88H113.205V62.136C113.205 60.72 113.793 60.336 114.789 60.336C115.005 60.336 115.197 60.36 115.533 60.408V61.356C115.293 61.332 115.197 61.32 115.029 61.32C114.537 61.32 114.381 61.464 114.381 62.112V62.88H115.533V63.852H114.381V69ZM118.837 69.18C116.893 69.18 115.813 67.8 115.813 65.928C115.813 64.008 116.965 62.688 118.837 62.688C120.697 62.688 121.741 63.912 121.741 65.808C121.741 65.976 121.741 66.156 121.729 66.252H117.025C117.049 67.284 117.649 68.22 118.861 68.22C119.941 68.22 120.349 67.524 120.469 67.116H121.657C121.345 68.292 120.445 69.18 118.837 69.18ZM118.801 63.648C117.817 63.648 117.097 64.32 117.025 65.328H120.505C120.505 64.368 119.845 63.648 118.801 63.648Z" fill="black"/>
<path opacity="0.4" d="M73.63 79.17H72.53C72.53 77.89 73.4 76.95 75.1 76.95C76.33 76.95 77.4 77.63 77.4 78.85C77.4 79.59 77.02 80.05 76.35 80.33V80.35C77.26 80.64 77.64 81.24 77.64 82.05C77.64 83.39 76.65 84.14 75.13 84.14C73.35 84.14 72.35 83.22 72.35 81.64H73.45C73.45 82.59 73.85 83.21 75.06 83.21C76.15 83.21 76.51 82.77 76.51 82.03C76.51 81.08 75.83 80.85 75.14 80.85H74.49V79.96H75.1C75.78 79.96 76.27 79.65 76.27 78.9C76.27 78.36 75.95 77.88 75.09 77.88C73.93 77.88 73.63 78.5 73.63 79.17ZM78.111 77.09H82.961V77.92C81.391 79.23 80.271 81.79 80.271 84H79.131C79.131 81.71 80.551 79.13 81.781 78.04V78.02H78.111V77.09ZM91.0784 79.28C90.9484 78.58 90.5084 77.66 89.1384 77.66C87.5584 77.66 86.9584 79 86.9584 80.42C86.9584 81.85 87.5584 83.19 89.1384 83.19C90.5184 83.19 91.0084 82.27 91.0784 81.4H92.2284C92.0684 82.99 90.9584 84.14 89.1484 84.14C87.1184 84.14 85.8184 82.58 85.8184 80.43C85.8184 78.27 87.1284 76.71 89.1584 76.71C90.9584 76.71 92.0584 77.85 92.2284 79.28H91.0784ZM93.0669 76.85H94.0469V84H93.0669V76.85ZM96.5186 84.14C95.4986 84.14 94.8486 83.55 94.8486 82.68C94.8486 81.54 95.7086 81.21 96.9786 80.96C97.7786 80.81 98.2686 80.71 98.2686 80.21C98.2686 79.84 98.0486 79.53 97.2986 79.53C96.4086 79.53 96.1386 79.81 96.0886 80.49H95.0886C95.1386 79.51 95.7786 78.74 97.3386 78.74C98.3886 78.74 99.2286 79.18 99.2286 80.5V82.84C99.2286 83.21 99.2786 83.4 99.4686 83.4C99.4986 83.4 99.5286 83.4 99.5886 83.39V83.99C99.4186 84.03 99.2486 84.05 99.0886 84.05C98.6086 84.05 98.3386 83.86 98.2886 83.28H98.2686C97.9286 83.81 97.3486 84.14 96.5186 84.14ZM96.7386 83.35C97.6186 83.35 98.2686 82.9 98.2686 82.01V81.28C98.1086 81.43 97.6686 81.54 97.1486 81.65C96.2486 81.84 95.8786 82.08 95.8786 82.61C95.8786 83.09 96.1286 83.35 96.7386 83.35ZM100.311 76.93H101.421V77.99H100.311V76.93ZM100.381 78.9H101.361V84H100.381V78.9ZM102.452 84V78.9H103.432V79.54H103.452C103.722 79.15 104.192 78.75 104.962 78.75C105.672 78.75 106.102 79.07 106.312 79.64H106.332C106.702 79.15 107.212 78.75 108.002 78.75C109.032 78.75 109.552 79.37 109.552 80.46V84H108.572V80.73C108.572 80.05 108.432 79.59 107.682 79.59C106.952 79.59 106.492 80.1 106.492 80.87V84H105.512V80.73C105.512 80.05 105.372 79.59 104.622 79.59C103.892 79.59 103.432 80.1 103.432 80.87V84H102.452ZM112.747 80.92C113.677 81.14 114.697 81.41 114.697 82.55C114.697 83.54 113.937 84.14 112.597 84.14C111.047 84.14 110.277 83.34 110.247 82.3H111.237C111.287 82.89 111.637 83.35 112.587 83.35C113.447 83.35 113.677 82.97 113.677 82.6C113.677 81.96 112.997 81.89 112.337 81.75C111.447 81.55 110.427 81.28 110.427 80.22C110.427 79.34 111.137 78.75 112.377 78.75C113.767 78.75 114.437 79.5 114.507 80.38H113.517C113.447 79.99 113.247 79.54 112.387 79.54C111.737 79.54 111.447 79.8 111.447 80.18C111.447 80.71 112.017 80.75 112.747 80.92ZM117.587 76.93H118.697V77.99H117.587V76.93ZM117.657 78.9H118.637V84H117.657V78.9ZM119.727 84V78.9H120.707V79.54H120.727C120.997 79.15 121.527 78.75 122.407 78.75C123.347 78.75 124.107 79.29 124.107 80.46V84H123.117V80.73C123.117 80.05 122.817 79.59 122.087 79.59C121.247 79.59 120.707 80.1 120.707 80.87V84H119.727ZM126.965 78.9H127.705V77.26H128.685V78.9H129.665V79.71H128.685V82.59C128.685 83.13 128.835 83.25 129.255 83.25C129.415 83.25 129.495 83.24 129.675 83.21V84C129.415 84.05 129.265 84.06 129.045 84.06C128.215 84.06 127.705 83.74 127.705 82.56V79.71H126.965V78.9ZM133.937 80.73C133.937 80.05 133.637 79.59 132.907 79.59C132.067 79.59 131.527 80.1 131.527 80.87V84H130.547V76.85H131.527V79.54H131.547C131.817 79.15 132.347 78.75 133.227 78.75C134.167 78.75 134.927 79.29 134.927 80.46V84H133.937V80.73ZM138.218 84.15C136.598 84.15 135.698 83 135.698 81.44C135.698 79.84 136.658 78.74 138.218 78.74C139.768 78.74 140.638 79.76 140.638 81.34C140.638 81.48 140.638 81.63 140.628 81.71H136.708C136.728 82.57 137.228 83.35 138.238 83.35C139.138 83.35 139.478 82.77 139.578 82.43H140.568C140.308 83.41 139.558 84.15 138.218 84.15ZM138.188 79.54C137.368 79.54 136.768 80.1 136.708 80.94H139.608C139.608 80.14 139.058 79.54 138.188 79.54ZM144.663 83.37H144.643V85.77H143.663V78.9H144.643V79.5H144.663C144.943 79.14 145.433 78.75 146.233 78.75C147.533 78.75 148.523 79.77 148.523 81.45C148.523 83.13 147.533 84.14 146.233 84.14C145.433 84.14 144.943 83.78 144.663 83.37ZM146.073 79.57C145.193 79.57 144.653 80.29 144.653 81.45C144.653 82.6 145.193 83.33 146.073 83.33C147.033 83.33 147.493 82.45 147.493 81.45C147.493 80.45 147.033 79.57 146.073 79.57ZM150.776 84.14C149.756 84.14 149.106 83.55 149.106 82.68C149.106 81.54 149.966 81.21 151.236 80.96C152.036 80.81 152.526 80.71 152.526 80.21C152.526 79.84 152.306 79.53 151.556 79.53C150.666 79.53 150.396 79.81 150.346 80.49H149.346C149.396 79.51 150.036 78.74 151.596 78.74C152.646 78.74 153.486 79.18 153.486 80.5V82.84C153.486 83.21 153.536 83.4 153.726 83.4C153.756 83.4 153.786 83.4 153.846 83.39V83.99C153.676 84.03 153.506 84.05 153.346 84.05C152.866 84.05 152.596 83.86 152.546 83.28H152.526C152.186 83.81 151.606 84.14 150.776 84.14ZM150.996 83.35C151.876 83.35 152.526 82.9 152.526 82.01V81.28C152.366 81.43 151.926 81.54 151.406 81.65C150.506 81.84 150.136 82.08 150.136 82.61C150.136 83.09 150.386 83.35 150.996 83.35ZM156.761 80.92C157.691 81.14 158.711 81.41 158.711 82.55C158.711 83.54 157.951 84.14 156.611 84.14C155.061 84.14 154.291 83.34 154.261 82.3H155.251C155.301 82.89 155.651 83.35 156.601 83.35C157.461 83.35 157.691 82.97 157.691 82.6C157.691 81.96 157.011 81.89 156.351 81.75C155.461 81.55 154.441 81.28 154.441 80.22C154.441 79.34 155.151 78.75 156.391 78.75C157.781 78.75 158.451 79.5 158.521 80.38H157.531C157.461 79.99 157.261 79.54 156.401 79.54C155.751 79.54 155.461 79.8 155.461 80.18C155.461 80.71 156.031 80.75 156.761 80.92ZM159.026 78.9H159.766V77.26H160.746V78.9H161.726V79.71H160.746V82.59C160.746 83.13 160.896 83.25 161.316 83.25C161.476 83.25 161.556 83.24 161.736 83.21V84C161.476 84.05 161.326 84.06 161.106 84.06C160.276 84.06 159.766 83.74 159.766 82.56V79.71H159.026V78.9ZM165.876 79.17H164.776C164.776 77.89 165.646 76.95 167.346 76.95C168.576 76.95 169.646 77.63 169.646 78.85C169.646 79.59 169.266 80.05 168.596 80.33V80.35C169.506 80.64 169.886 81.24 169.886 82.05C169.886 83.39 168.896 84.14 167.376 84.14C165.596 84.14 164.596 83.22 164.596 81.64H165.696C165.696 82.59 166.096 83.21 167.306 83.21C168.396 83.21 168.756 82.77 168.756 82.03C168.756 81.08 168.076 80.85 167.386 80.85H166.736V79.96H167.346C168.026 79.96 168.516 79.65 168.516 78.9C168.516 78.36 168.196 77.88 167.336 77.88C166.176 77.88 165.876 78.5 165.876 79.17ZM173.511 84.14C171.581 84.14 170.761 82.53 170.761 80.55C170.761 78.57 171.581 76.95 173.511 76.95C175.441 76.95 176.261 78.57 176.261 80.55C176.261 82.53 175.441 84.14 173.511 84.14ZM173.511 83.21C174.761 83.21 175.131 81.97 175.131 80.55C175.131 79.13 174.761 77.88 173.511 77.88C172.271 77.88 171.891 79.13 171.891 80.55C171.891 81.97 172.271 83.21 173.511 83.21ZM183.113 79.52H183.133V76.85H184.123V84H183.133V83.4H183.113C182.843 83.76 182.343 84.14 181.543 84.14C180.243 84.14 179.263 83.13 179.263 81.45C179.263 79.77 180.243 78.75 181.543 78.75C182.343 78.75 182.843 79.12 183.113 79.52ZM181.703 83.33C182.583 83.33 183.133 82.6 183.133 81.45C183.133 80.29 182.583 79.57 181.703 79.57C180.743 79.57 180.283 80.45 180.283 81.45C180.283 82.45 180.743 83.33 181.703 83.33ZM186.597 84.14C185.577 84.14 184.927 83.55 184.927 82.68C184.927 81.54 185.787 81.21 187.057 80.96C187.857 80.81 188.347 80.71 188.347 80.21C188.347 79.84 188.127 79.53 187.377 79.53C186.487 79.53 186.217 79.81 186.167 80.49H185.167C185.217 79.51 185.857 78.74 187.417 78.74C188.467 78.74 189.307 79.18 189.307 80.5V82.84C189.307 83.21 189.357 83.4 189.547 83.4C189.577 83.4 189.607 83.4 189.667 83.39V83.99C189.497 84.03 189.327 84.05 189.167 84.05C188.687 84.05 188.417 83.86 188.367 83.28H188.347C188.007 83.81 187.427 84.14 186.597 84.14ZM186.817 83.35C187.697 83.35 188.347 82.9 188.347 82.01V81.28C188.187 81.43 187.747 81.54 187.227 81.65C186.327 81.84 185.957 82.08 185.957 82.61C185.957 83.09 186.207 83.35 186.817 83.35ZM191.737 83.95L189.667 78.9H190.737L192.227 82.8H192.247L193.657 78.9H194.677L192.667 84.12C192.167 85.38 191.677 85.79 190.887 85.79C190.667 85.79 190.517 85.77 190.257 85.72V84.92C190.427 84.94 190.517 84.95 190.677 84.95C191.077 84.95 191.527 84.75 191.737 83.95ZM197.298 80.92C198.228 81.14 199.248 81.41 199.248 82.55C199.248 83.54 198.488 84.14 197.148 84.14C195.598 84.14 194.828 83.34 194.798 82.3H195.788C195.838 82.89 196.188 83.35 197.138 83.35C197.998 83.35 198.228 82.97 198.228 82.6C198.228 81.96 197.548 81.89 196.888 81.75C195.998 81.55 194.978 81.28 194.978 80.22C194.978 79.34 195.688 78.75 196.928 78.75C198.318 78.75 198.988 79.5 199.058 80.38H198.068C197.998 79.99 197.798 79.54 196.938 79.54C196.288 79.54 195.998 79.8 195.998 80.18C195.998 80.71 196.568 80.75 197.298 80.92Z" fill="black"/>
<rect opacity="0.2" x="20" y="52" width="40" height="40" rx="4.70588" fill="#FFB800"/>
<g clip-path="url(#clip0_2663_5031)">
<path d="M47.0754 65.2349C47.0754 66.7138 45.875 67.882 44.425 67.882C42.978 67.882 41.7812 66.711 41.7812 65.2349C41.7812 63.7732 42.968 62.5879 44.425 62.5879C45.8886 62.5879 47.0754 63.7732 47.0754 65.2349Z" fill="#FFB800"/>
<path d="M38.1159 69.2677C38.1882 69.1701 38.1177 69.0319 37.9962 69.0332L33.4505 69.0807C32.8554 69.0807 32.2917 68.5698 32.2917 67.8496C32.2917 67.1746 32.8152 66.6184 33.4505 66.6184H38.1387C41.5584 66.4652 43.1947 69.0241 43.6341 69.3301C44.0164 69.6988 44.4039 70.2091 44.9216 70.2091H48.2358C48.8873 70.2091 49.4165 70.7351 49.4206 71.3865C49.4247 72.0438 48.893 72.5787 48.2358 72.5787H43.2684C43.0876 72.5787 42.9158 72.4994 42.7986 72.3617C42.5386 72.0564 42.061 72.0763 41.8273 72.4022L41.3145 73.1172C41.1107 73.4014 41.122 73.7869 41.3421 74.0587C41.7807 74.6004 42.6949 75.7287 42.64 75.6608C43.4988 76.5857 43.3812 78.3418 42.3753 79.0918L39.7125 81.1394C39.2596 81.4706 38.6596 81.4644 38.2126 81.1207C37.8655 80.8394 37.689 80.4207 37.689 80.002C37.689 79.5645 37.8831 79.1271 38.2714 78.8521L40.1164 77.3919C40.3047 77.2482 40.34 76.9607 40.1871 76.7669C39.0718 75.3667 37.7038 75.5303 37.2517 75.4546L33.04 80.8541C32.5608 81.496 31.6887 81.5771 31.1106 81.0916C30.5165 80.5854 30.4106 79.6667 30.8871 79.0292L38.1159 69.2677Z" fill="#FFB800"/>
</g>
<defs>
<clipPath id="clip0_2663_5031">
<rect width="20" height="20" fill="white" transform="translate(30 62)"/>
</clipPath>
</defs>
</svg>
