<svg width="1128" height="900" viewBox="0 0 1128 900" fill="none" xmlns="http://www.w3.org/2000/svg">
<rect width="1128" height="900" fill="#EDD9FF"/>
<path d="M144 200C144 177.909 161.909 160 184 160H944C966.091 160 984 177.909 984 200V900H144V200Z" fill="#FDFDFD"/>
<path d="M416.962 287.12C416.442 284.32 414.682 280.64 409.202 280.64C402.882 280.64 400.482 286 400.482 291.68C400.482 297.4 402.882 302.76 409.202 302.76C414.722 302.76 416.682 299.08 416.962 295.6H421.562C420.922 301.96 416.482 306.56 409.242 306.56C401.122 306.56 395.922 300.32 395.922 291.72C395.922 283.08 401.162 276.84 409.282 276.84C416.482 276.84 420.882 281.4 421.562 287.12H416.962ZM430.442 306.56C426.362 306.56 423.762 304.2 423.762 300.72C423.762 296.16 427.202 294.84 432.282 293.84C435.482 293.24 437.442 292.84 437.442 290.84C437.442 289.36 436.562 288.12 433.562 288.12C430.002 288.12 428.922 289.24 428.722 291.96H424.722C424.922 288.04 427.482 284.96 433.722 284.96C437.922 284.96 441.282 286.72 441.282 292V301.36C441.282 302.84 441.482 303.6 442.242 303.6C442.362 303.6 442.482 303.6 442.722 303.56V305.96C442.042 306.12 441.362 306.2 440.722 306.2C438.802 306.2 437.722 305.44 437.522 303.12H437.442C436.082 305.24 433.762 306.56 430.442 306.56ZM431.322 303.4C434.842 303.4 437.442 301.6 437.442 298.04V295.12C436.802 295.72 435.042 296.16 432.962 296.6C429.362 297.36 427.882 298.32 427.882 300.44C427.882 302.36 428.882 303.4 431.322 303.4ZM443.517 285.6H446.477V279.04H450.397V285.6H454.317V288.84H450.397V300.36C450.397 302.52 450.997 303 452.677 303C453.317 303 453.637 302.96 454.357 302.84V306C453.317 306.2 452.717 306.24 451.837 306.24C448.517 306.24 446.477 304.96 446.477 300.24V288.84H443.517V285.6ZM466.147 306.6C459.667 306.6 456.067 302 456.067 295.76C456.067 289.36 459.907 284.96 466.147 284.96C472.347 284.96 475.827 289.04 475.827 295.36C475.827 295.92 475.827 296.52 475.787 296.84H460.107C460.187 300.28 462.187 303.4 466.227 303.4C469.827 303.4 471.187 301.08 471.587 299.72H475.547C474.507 303.64 471.507 306.6 466.147 306.6ZM466.027 288.16C462.747 288.16 460.347 290.4 460.107 293.76H471.707C471.707 290.56 469.507 288.16 466.027 288.16ZM493.576 304.64V301.88H493.496C492.376 303.52 490.496 304.96 487.216 304.96C482.136 304.96 478.216 301.52 478.216 295C478.216 288.44 482.136 285 487.216 285C490.496 285 492.376 286.56 493.496 288H493.576V285.6H497.496V304.4C497.496 310.56 493.776 313.32 487.936 313.32C482.096 313.32 479.176 310.52 478.776 306.84H482.816C483.216 308.68 484.616 310.12 487.936 310.12C491.656 310.12 493.576 308.48 493.576 304.64ZM487.936 288.28C484.096 288.28 482.296 291.16 482.296 295C482.296 298.84 484.096 301.72 487.936 301.72C491.456 301.72 493.536 299.44 493.536 295C493.536 290.52 491.456 288.28 487.936 288.28ZM510.994 306.6C504.634 306.6 500.794 302.2 500.794 295.8C500.794 289.44 504.634 284.96 510.994 284.96C517.354 284.96 521.194 289.4 521.194 295.76C521.194 302.16 517.354 306.6 510.994 306.6ZM510.994 303.36C515.154 303.36 517.114 300.04 517.114 295.8C517.114 291.52 515.154 288.24 510.994 288.24C506.794 288.24 504.874 291.52 504.874 295.8C504.874 300.04 506.794 303.36 510.994 303.36ZM524.447 285.6H528.367V289.48H528.447C529.487 286.92 531.167 285.12 533.927 285.12C534.647 285.12 535.207 285.16 535.807 285.24V289C535.287 288.92 534.927 288.88 534.487 288.88C530.927 288.88 528.367 291.56 528.367 295.44V306H524.447V285.6ZM545.106 305.8L536.826 285.6H541.106L547.066 301.2H547.146L552.786 285.6H556.866L548.826 306.48C546.826 311.52 544.866 313.16 541.706 313.16C540.826 313.16 540.226 313.08 539.186 312.88V309.68C539.866 309.76 540.226 309.8 540.866 309.8C542.466 309.8 544.266 309 545.106 305.8ZM579.282 289.2C584.802 290.6 590.002 291.92 590.002 297.96C590.002 302.88 586.642 306.56 579.522 306.56C572.282 306.56 567.162 302.8 566.882 296.36H571.442C571.762 300.2 574.042 302.8 579.402 302.8C583.962 302.8 585.402 300.8 585.402 298.2C585.402 294.56 582.602 294.04 577.402 292.72C572.922 291.56 568.002 290.08 568.002 284.64C568.002 279.68 571.842 276.84 578.002 276.84C584.522 276.84 588.762 280.16 589.202 285.92H584.602C584.162 282.48 582.202 280.6 578.002 280.6C574.442 280.6 572.562 281.92 572.562 284.4C572.562 287.6 575.602 288.28 579.282 289.2ZM597.236 303.48H597.156V313.08H593.236V285.6H597.156V288H597.236C598.356 286.56 600.316 285 603.516 285C608.716 285 612.676 289.08 612.676 295.8C612.676 302.52 608.716 306.56 603.516 306.56C600.316 306.56 598.356 305.12 597.236 303.48ZM602.876 288.28C599.356 288.28 597.196 291.16 597.196 295.8C597.196 300.4 599.356 303.32 602.876 303.32C606.716 303.32 608.556 299.8 608.556 295.8C608.556 291.8 606.716 288.28 602.876 288.28ZM625.132 306.6C618.652 306.6 615.052 302 615.052 295.76C615.052 289.36 618.892 284.96 625.132 284.96C631.332 284.96 634.812 289.04 634.812 295.36C634.812 295.92 634.812 296.52 634.772 296.84H619.092C619.172 300.28 621.172 303.4 625.212 303.4C628.812 303.4 630.172 301.08 630.572 299.72H634.532C633.492 303.64 630.492 306.6 625.132 306.6ZM625.012 288.16C621.732 288.16 619.332 290.4 619.092 293.76H630.692C630.692 290.56 628.492 288.16 625.012 288.16ZM638.08 306V285.6H642V288.16H642.08C643.16 286.6 645.28 285 648.8 285C652.56 285 655.6 287.16 655.6 291.84V306H651.64V292.92C651.64 290.2 650.44 288.36 647.52 288.36C644.16 288.36 642 290.4 642 293.48V306H638.08ZM674.084 288.08H674.164V277.4H678.124V306H674.164V303.6H674.084C673.004 305.04 671.004 306.56 667.804 306.56C662.604 306.56 658.684 302.52 658.684 295.8C658.684 289.08 662.604 285 667.804 285C671.004 285 673.004 286.48 674.084 288.08ZM668.444 303.32C671.964 303.32 674.164 300.4 674.164 295.8C674.164 291.16 671.964 288.28 668.444 288.28C664.604 288.28 662.764 291.8 662.764 295.8C662.764 299.8 664.604 303.32 668.444 303.32ZM682.214 277.72H686.654V281.96H682.214V277.72ZM682.494 285.6H686.414V306H682.494V285.6ZM690.775 306V285.6H694.695V288.16H694.775C695.855 286.6 697.975 285 701.495 285C705.255 285 708.295 287.16 708.295 291.84V306H704.335V292.92C704.335 290.2 703.135 288.36 700.215 288.36C696.855 288.36 694.695 290.4 694.695 293.48V306H690.775ZM726.74 304.64V301.88H726.66C725.54 303.52 723.66 304.96 720.38 304.96C715.3 304.96 711.38 301.52 711.38 295C711.38 288.44 715.3 285 720.38 285C723.66 285 725.54 286.56 726.66 288H726.74V285.6H730.66V304.4C730.66 310.56 726.94 313.32 721.1 313.32C715.26 313.32 712.34 310.52 711.94 306.84H715.98C716.38 308.68 717.78 310.12 721.1 310.12C724.82 310.12 726.74 308.48 726.74 304.64ZM721.1 288.28C717.26 288.28 715.46 291.16 715.46 295C715.46 298.84 717.26 301.72 721.1 301.72C724.62 301.72 726.7 299.44 726.7 295C726.7 290.52 724.62 288.28 721.1 288.28Z" fill="black"/>
<path d="M364.145 627.127V664.281C432.643 660.19 487.468 605.365 491.564 536.867H454.404C450.445 584.883 412.166 623.168 364.145 627.127Z" fill="#8800FF"/>
<path d="M347.675 430.136V392.982C316.347 394.855 287.88 407.342 265.816 426.891L292.092 453.167C307.353 440.251 326.572 431.877 347.675 430.136Z" fill="#64D71E"/>
<path d="M454.404 520.396H491.564C487.468 451.898 432.643 397.073 364.145 392.982V430.136C412.166 434.095 450.445 472.381 454.404 520.396Z" fill="#01B8C7"/>
<path d="M257.066 528.63C257.066 504.299 265.857 482.026 280.437 464.806L254.167 438.535C232.915 462.521 220 494.063 220 528.63C220 600.923 276.45 660.025 347.672 664.281V627.127C296.938 622.943 257.066 580.446 257.066 528.63Z" fill="#FFB800"/>
<path d="M600.176 426.992H608.504V429.272H600.176V434.72H609.92V437H597.536V419.84H609.68V422.12H600.176V426.992ZM611.896 437V424.76H614.248V426.296H614.296C614.944 425.36 616.216 424.4 618.328 424.4C620.584 424.4 622.408 425.696 622.408 428.504V437H620.032V429.152C620.032 427.52 619.312 426.416 617.56 426.416C615.544 426.416 614.248 427.64 614.248 429.488V437H611.896ZM623.737 424.76H625.513V420.824H627.865V424.76H630.217V426.704H627.865V433.616C627.865 434.912 628.225 435.2 629.233 435.2C629.617 435.2 629.809 435.176 630.241 435.104V437C629.617 437.12 629.257 437.144 628.729 437.144C626.737 437.144 625.513 436.376 625.513 433.544V426.704H623.737V424.76ZM637.315 437.36C633.427 437.36 631.267 434.6 631.267 430.856C631.267 427.016 633.571 424.376 637.315 424.376C641.035 424.376 643.123 426.824 643.123 430.616C643.123 430.952 643.123 431.312 643.099 431.504H633.691C633.739 433.568 634.939 435.44 637.363 435.44C639.523 435.44 640.339 434.048 640.579 433.232H642.955C642.331 435.584 640.531 437.36 637.315 437.36ZM637.243 426.296C635.275 426.296 633.835 427.64 633.691 429.656H640.651C640.651 427.736 639.331 426.296 637.243 426.296ZM645.084 424.76H647.436V427.088H647.484C648.108 425.552 649.116 424.472 650.772 424.472C651.204 424.472 651.54 424.496 651.9 424.544V426.8C651.588 426.752 651.372 426.728 651.108 426.728C648.972 426.728 647.436 428.336 647.436 430.664V437H645.084V424.76ZM653.01 424.76H654.786V420.824H657.138V424.76H659.49V426.704H657.138V433.616C657.138 434.912 657.498 435.2 658.506 435.2C658.89 435.2 659.082 435.176 659.514 435.104V437C658.89 437.12 658.53 437.144 658.002 437.144C656.01 437.144 654.786 436.376 654.786 433.544V426.704H653.01V424.76ZM664.735 437.336C662.287 437.336 660.727 435.92 660.727 433.832C660.727 431.096 662.791 430.304 665.839 429.704C667.759 429.344 668.935 429.104 668.935 427.904C668.935 427.016 668.407 426.272 666.607 426.272C664.471 426.272 663.823 426.944 663.703 428.576H661.303C661.423 426.224 662.959 424.376 666.703 424.376C669.223 424.376 671.239 425.432 671.239 428.6V434.216C671.239 435.104 671.359 435.56 671.815 435.56C671.887 435.56 671.959 435.56 672.103 435.536V436.976C671.695 437.072 671.287 437.12 670.903 437.12C669.751 437.12 669.103 436.664 668.983 435.272H668.935C668.119 436.544 666.727 437.336 664.735 437.336ZM665.263 435.44C667.375 435.44 668.935 434.36 668.935 432.224V430.472C668.551 430.832 667.495 431.096 666.247 431.36C664.087 431.816 663.199 432.392 663.199 433.664C663.199 434.816 663.799 435.44 665.263 435.44ZM673.838 420.032H676.502V422.576H673.838V420.032ZM674.006 424.76H676.358V437H674.006V424.76ZM678.975 437V424.76H681.327V426.296H681.375C682.023 425.36 683.295 424.4 685.407 424.4C687.663 424.4 689.487 425.696 689.487 428.504V437H687.111V429.152C687.111 427.52 686.391 426.416 684.639 426.416C682.623 426.416 681.327 427.64 681.327 429.488V437H678.975ZM692.006 437V424.76H694.358V426.296H694.406C695.054 425.36 696.182 424.4 698.03 424.4C699.734 424.4 700.766 425.168 701.27 426.536H701.318C702.206 425.36 703.43 424.4 705.326 424.4C707.798 424.4 709.046 425.888 709.046 428.504V437H706.694V429.152C706.694 427.52 706.358 426.416 704.558 426.416C702.806 426.416 701.702 427.64 701.702 429.488V437H699.35V429.152C699.35 427.52 699.014 426.416 697.214 426.416C695.462 426.416 694.358 427.64 694.358 429.488V437H692.006ZM716.956 437.36C713.068 437.36 710.908 434.6 710.908 430.856C710.908 427.016 713.212 424.376 716.956 424.376C720.676 424.376 722.764 426.824 722.764 430.616C722.764 430.952 722.764 431.312 722.74 431.504H713.332C713.38 433.568 714.58 435.44 717.004 435.44C719.164 435.44 719.98 434.048 720.22 433.232H722.596C721.972 435.584 720.172 437.36 716.956 437.36ZM716.884 426.296C714.916 426.296 713.476 427.64 713.332 429.656H720.292C720.292 427.736 718.972 426.296 716.884 426.296ZM724.725 437V424.76H727.077V426.296H727.125C727.773 425.36 729.045 424.4 731.157 424.4C733.413 424.4 735.237 425.696 735.237 428.504V437H732.861V429.152C732.861 427.52 732.141 426.416 730.389 426.416C728.373 426.416 727.077 427.64 727.077 429.488V437H724.725ZM736.565 424.76H738.341V420.824H740.693V424.76H743.045V426.704H740.693V433.616C740.693 434.912 741.053 435.2 742.061 435.2C742.445 435.2 742.637 435.176 743.069 435.104V437C742.445 437.12 742.085 437.144 741.557 437.144C739.565 437.144 738.341 436.376 738.341 433.544V426.704H736.565V424.76Z" fill="black"/>
<path d="M607.688 508.872H600.512L599.096 513H596.312L602.696 495.84H605.552L611.984 513H609.104L607.688 508.872ZM601.28 506.64H606.92L604.136 498.288H604.088L601.28 506.64ZM621.355 505.2C621.259 503.928 620.539 502.344 618.283 502.344C615.691 502.344 614.73 504.576 614.73 506.88C614.73 509.184 615.691 511.392 618.283 511.392C620.539 511.392 621.259 509.856 621.355 508.464H623.803C623.635 511.272 621.427 513.36 618.307 513.36C614.659 513.36 612.283 510.72 612.283 506.88C612.283 503.04 614.659 500.4 618.283 500.4C621.427 500.4 623.515 502.44 623.803 505.2H621.355ZM624.604 500.76H626.38V496.824H628.732V500.76H631.084V502.704H628.732V509.616C628.732 510.912 629.092 511.2 630.1 511.2C630.484 511.2 630.676 511.176 631.108 511.104V513C630.484 513.12 630.124 513.144 629.596 513.144C627.604 513.144 626.38 512.376 626.38 509.544V502.704H624.604V500.76ZM633.033 496.032H635.697V498.576H633.033V496.032ZM633.201 500.76H635.553V513H633.201V500.76ZM636.902 500.76H639.422L642.614 510.576H642.662L645.806 500.76H648.278L643.91 513H641.27L636.902 500.76ZM654.659 513.36C650.771 513.36 648.611 510.6 648.611 506.856C648.611 503.016 650.915 500.376 654.659 500.376C658.379 500.376 660.467 502.824 660.467 506.616C660.467 506.952 660.467 507.312 660.443 507.504H651.035C651.083 509.568 652.283 511.44 654.707 511.44C656.867 511.44 657.683 510.048 657.923 509.232H660.299C659.675 511.584 657.875 513.36 654.659 513.36ZM654.587 502.296C652.619 502.296 651.179 503.64 651.035 505.656H657.995C657.995 503.736 656.675 502.296 654.587 502.296ZM668.013 495.84H670.653V510.72H679.341V513H668.013V495.84ZM680.893 496.032H683.557V498.576H680.893V496.032ZM681.061 500.76H683.413V513H681.061V500.76ZM689.129 513H686.777V502.704H685.097V500.76H686.777V499.272C686.777 496.44 687.953 495.672 689.945 495.672C690.377 495.672 690.761 495.72 691.433 495.816V497.712C690.953 497.664 690.761 497.64 690.425 497.64C689.441 497.64 689.129 497.928 689.129 499.224V500.76H691.433V502.704H689.129V513ZM698.041 513.36C694.153 513.36 691.993 510.6 691.993 506.856C691.993 503.016 694.297 500.376 698.041 500.376C701.761 500.376 703.849 502.824 703.849 506.616C703.849 506.952 703.849 507.312 703.825 507.504H694.417C694.465 509.568 695.665 511.44 698.089 511.44C700.249 511.44 701.065 510.048 701.305 509.232H703.681C703.057 511.584 701.257 513.36 698.041 513.36ZM697.969 502.296C696.001 502.296 694.561 503.64 694.417 505.656H701.377C701.377 503.736 700.057 502.296 697.969 502.296Z" fill="black"/>
<path d="M609.632 577.672C609.32 575.992 608.264 573.784 604.976 573.784C601.184 573.784 599.744 577 599.744 580.408C599.744 583.84 601.184 587.056 604.976 587.056C608.288 587.056 609.464 584.848 609.632 582.76H612.392C612.008 586.576 609.344 589.336 605 589.336C600.128 589.336 597.008 585.592 597.008 580.432C597.008 575.248 600.152 571.504 605.024 571.504C609.344 571.504 611.984 574.24 612.392 577.672H609.632ZM617.72 589.336C615.272 589.336 613.712 587.92 613.712 585.832C613.712 583.096 615.776 582.304 618.824 581.704C620.744 581.344 621.92 581.104 621.92 579.904C621.92 579.016 621.392 578.272 619.592 578.272C617.456 578.272 616.808 578.944 616.688 580.576H614.288C614.408 578.224 615.944 576.376 619.688 576.376C622.208 576.376 624.224 577.432 624.224 580.6V586.216C624.224 587.104 624.344 587.56 624.8 587.56C624.872 587.56 624.944 587.56 625.088 587.536V588.976C624.68 589.072 624.272 589.12 623.888 589.12C622.736 589.12 622.088 588.664 621.968 587.272H621.92C621.104 588.544 619.712 589.336 617.72 589.336ZM618.248 587.44C620.36 587.44 621.92 586.36 621.92 584.224V582.472C621.536 582.832 620.48 583.096 619.232 583.36C617.072 583.816 616.184 584.392 616.184 585.664C616.184 586.816 616.784 587.44 618.248 587.44ZM626.99 576.76H629.342V579.088H629.39C630.014 577.552 631.022 576.472 632.678 576.472C633.11 576.472 633.446 576.496 633.806 576.544V578.8C633.494 578.752 633.278 578.728 633.014 578.728C630.878 578.728 629.342 580.336 629.342 582.664V589H626.99V576.76ZM647.586 578.92C650.898 579.76 654.018 580.552 654.018 584.176C654.018 587.128 652.002 589.336 647.73 589.336C643.386 589.336 640.314 587.08 640.146 583.216H642.882C643.074 585.52 644.442 587.08 647.658 587.08C650.394 587.08 651.258 585.88 651.258 584.32C651.258 582.136 649.578 581.824 646.458 581.032C643.77 580.336 640.818 579.448 640.818 576.184C640.818 573.208 643.122 571.504 646.818 571.504C650.73 571.504 653.274 573.496 653.538 576.952H650.778C650.514 574.888 649.338 573.76 646.818 573.76C644.682 573.76 643.554 574.552 643.554 576.04C643.554 577.96 645.378 578.368 647.586 578.92ZM661.502 589.36C657.614 589.36 655.454 586.6 655.454 582.856C655.454 579.016 657.758 576.376 661.502 576.376C665.222 576.376 667.31 578.824 667.31 582.616C667.31 582.952 667.31 583.312 667.286 583.504H657.878C657.926 585.568 659.126 587.44 661.55 587.44C663.71 587.44 664.526 586.048 664.766 585.232H667.142C666.518 587.584 664.718 589.36 661.502 589.36ZM661.43 578.296C659.462 578.296 658.022 579.64 657.878 581.656H664.838C664.838 579.736 663.518 578.296 661.43 578.296ZM669.271 576.76H671.623V579.088H671.671C672.295 577.552 673.303 576.472 674.959 576.472C675.391 576.472 675.727 576.496 676.087 576.544V578.8C675.775 578.752 675.559 578.728 675.295 578.728C673.159 578.728 671.623 580.336 671.623 582.664V589H669.271V576.76ZM676.699 576.76H679.219L682.411 586.576H682.459L685.603 576.76H688.075L683.707 589H681.067L676.699 576.76ZM689.283 572.032H691.947V574.576H689.283V572.032ZM689.451 576.76H691.803V589H689.451V576.76ZM702.823 581.2C702.727 579.928 702.007 578.344 699.751 578.344C697.159 578.344 696.199 580.576 696.199 582.88C696.199 585.184 697.159 587.392 699.751 587.392C702.007 587.392 702.727 585.856 702.823 584.464H705.271C705.103 587.272 702.895 589.36 699.775 589.36C696.127 589.36 693.751 586.72 693.751 582.88C693.751 579.04 696.127 576.4 699.751 576.4C702.895 576.4 704.983 578.44 705.271 581.2H702.823ZM712.666 589.36C708.778 589.36 706.618 586.6 706.618 582.856C706.618 579.016 708.922 576.376 712.666 576.376C716.386 576.376 718.474 578.824 718.474 582.616C718.474 582.952 718.474 583.312 718.45 583.504H709.042C709.09 585.568 710.29 587.44 712.714 587.44C714.874 587.44 715.69 586.048 715.93 585.232H718.306C717.682 587.584 715.882 589.36 712.666 589.36ZM712.594 578.296C710.626 578.296 709.186 579.64 709.042 581.656H716.002C716.002 579.736 714.682 578.296 712.594 578.296ZM725.528 581.608C727.76 582.136 730.208 582.784 730.208 585.52C730.208 587.896 728.384 589.336 725.168 589.336C721.448 589.336 719.6 587.416 719.528 584.92H721.904C722.024 586.336 722.864 587.44 725.144 587.44C727.208 587.44 727.76 586.528 727.76 585.64C727.76 584.104 726.128 583.936 724.544 583.6C722.408 583.12 719.96 582.472 719.96 579.928C719.96 577.816 721.664 576.4 724.64 576.4C727.976 576.4 729.584 578.2 729.752 580.312H727.376C727.208 579.376 726.728 578.296 724.664 578.296C723.104 578.296 722.408 578.92 722.408 579.832C722.408 581.104 723.776 581.2 725.528 581.608Z" fill="black"/>
<path d="M597.536 665V647.84H604.688C608.48 647.84 610.52 649.616 610.52 652.784C610.52 654.968 609.2 656.552 607.328 656.984V657.032C611.288 657.776 609.824 664.544 610.76 664.832V665H607.928C607.16 664.28 608.792 658.28 604.592 658.28H600.176V665H597.536ZM600.176 650.12V656H604.112C606.536 656 607.856 654.944 607.856 652.976C607.856 651.128 606.8 650.12 604.16 650.12H600.176ZM618.284 665.36C614.396 665.36 612.236 662.6 612.236 658.856C612.236 655.016 614.54 652.376 618.284 652.376C622.004 652.376 624.092 654.824 624.092 658.616C624.092 658.952 624.092 659.312 624.068 659.504H614.66C614.708 661.568 615.908 663.44 618.332 663.44C620.492 663.44 621.308 662.048 621.548 661.232H623.924C623.3 663.584 621.5 665.36 618.284 665.36ZM618.212 654.296C616.244 654.296 614.804 655.64 614.66 657.656H621.62C621.62 655.736 620.3 654.296 618.212 654.296ZM626.053 665V652.76H628.405V654.296H628.453C629.101 653.36 630.229 652.4 632.077 652.4C633.781 652.4 634.813 653.168 635.317 654.536H635.365C636.253 653.36 637.477 652.4 639.373 652.4C641.845 652.4 643.093 653.888 643.093 656.504V665H640.741V657.152C640.741 655.52 640.405 654.416 638.605 654.416C636.853 654.416 635.749 655.64 635.749 657.488V665H633.397V657.152C633.397 655.52 633.061 654.416 631.261 654.416C629.509 654.416 628.405 655.64 628.405 657.488V665H626.053ZM651.074 665.36C647.258 665.36 644.954 662.72 644.954 658.88C644.954 655.064 647.258 652.376 651.074 652.376C654.89 652.376 657.194 655.04 657.194 658.856C657.194 662.696 654.89 665.36 651.074 665.36ZM651.074 663.416C653.57 663.416 654.746 661.424 654.746 658.88C654.746 656.312 653.57 654.344 651.074 654.344C648.554 654.344 647.402 656.312 647.402 658.88C647.402 661.424 648.554 663.416 651.074 663.416ZM658.073 652.76H659.849V648.824H662.201V652.76H664.553V654.704H662.201V661.616C662.201 662.912 662.561 663.2 663.569 663.2C663.953 663.2 664.145 663.176 664.577 663.104V665C663.953 665.12 663.593 665.144 663.065 665.144C661.073 665.144 659.849 664.376 659.849 661.544V654.704H658.073V652.76ZM671.651 665.36C667.763 665.36 665.603 662.6 665.603 658.856C665.603 655.016 667.907 652.376 671.651 652.376C675.371 652.376 677.459 654.824 677.459 658.616C677.459 658.952 677.459 659.312 677.435 659.504H668.027C668.075 661.568 669.275 663.44 671.699 663.44C673.859 663.44 674.675 662.048 674.915 661.232H677.291C676.667 663.584 674.867 665.36 671.651 665.36ZM671.579 654.296C669.611 654.296 668.171 655.64 668.027 657.656H674.987C674.987 655.736 673.667 654.296 671.579 654.296ZM683.973 647.84H686.709L689.733 661.352H689.781L693.357 647.84H696.141L699.717 661.352H699.765L702.789 647.84H705.525L701.253 665H698.421L694.773 651.2H694.725L691.077 665H688.245L683.973 647.84ZM711.262 665.36C707.446 665.36 705.142 662.72 705.142 658.88C705.142 655.064 707.446 652.376 711.262 652.376C715.078 652.376 717.382 655.04 717.382 658.856C717.382 662.696 715.078 665.36 711.262 665.36ZM711.262 663.416C713.758 663.416 714.934 661.424 714.934 658.88C714.934 656.312 713.758 654.344 711.262 654.344C708.742 654.344 707.59 656.312 707.59 658.88C707.59 661.424 708.742 663.416 711.262 663.416ZM719.334 652.76H721.686V655.088H721.734C722.358 653.552 723.366 652.472 725.022 652.472C725.454 652.472 725.79 652.496 726.15 652.544V654.8C725.838 654.752 725.622 654.728 725.358 654.728C723.222 654.728 721.686 656.336 721.686 658.664V665H719.334V652.76ZM727.771 665V647.84H730.123V657.944L735.475 652.76H738.163L733.459 657.248L738.667 665H735.907L731.899 658.736L730.123 660.44V665H727.771Z" fill="black"/>
<path opacity="0.4" d="M814.648 439.424V437.288C811.312 436.952 808.792 435.008 808.624 431.528H811.072C811.24 433.616 812.44 434.888 814.648 435.176V429.44L814.6 429.416C812.104 428.744 809.296 427.712 809.296 424.832C809.296 422.12 811.36 420.344 814.648 420.224V418.52H816.088V420.296C819.016 420.632 821.056 422.456 821.248 425.576H818.8C818.584 423.776 817.648 422.744 816.088 422.432V427.52C819.376 428.48 821.68 429.344 821.68 432.656C821.68 435.176 819.808 437.192 816.088 437.336V439.424H814.648ZM811.744 424.592C811.744 426.008 812.92 426.56 814.648 427.088V422.336C812.872 422.432 811.744 423.248 811.744 424.592ZM819.208 432.728C819.208 431.144 818.2 430.496 816.088 429.848V435.248C818.392 435.128 819.208 434.12 819.208 432.728ZM826.323 426.272H823.683C823.683 422.744 825.579 420.08 829.779 420.08C832.779 420.08 835.227 421.88 835.227 425.048C835.227 428.264 832.611 429.896 830.211 431.384C828.603 432.344 827.067 433.256 826.587 434.72V434.768H835.035V437H823.251C823.251 433.88 825.147 431.744 828.315 429.752C831.123 428.048 832.515 427.352 832.515 425.144C832.515 423.776 831.987 422.312 829.707 422.312C827.115 422.312 826.323 423.992 826.323 426.272ZM844.017 425.84C847.161 425.84 849.345 428.168 849.345 431.336C849.345 435.008 846.705 437.336 843.297 437.336C839.337 437.336 837.177 434.936 837.081 432.152H839.721C839.889 433.664 840.777 435.104 843.153 435.104C845.265 435.104 846.657 433.808 846.657 431.336C846.657 429.008 845.385 427.952 843.321 427.952C841.977 427.952 840.753 428.408 839.961 429.44H837.297L839.073 420.416H848.505V422.648H841.065L840.153 427.232V427.28C841.017 426.392 842.241 425.84 844.017 425.84ZM854.003 428.216L854.051 428.24C854.915 426.848 856.451 426.056 858.323 426.056C861.563 426.056 863.795 428.312 863.795 431.576C863.795 434.792 861.539 437.336 857.843 437.336C853.115 437.336 851.411 433.808 851.411 428.744C851.411 423.296 853.787 420.08 857.891 420.08C861.011 420.08 863.027 422.144 863.339 424.616H860.651C860.459 423.248 859.643 422.24 857.891 422.24C854.795 422.24 854.051 425.12 854.003 427.976V428.216ZM857.795 435.176C859.955 435.176 861.155 433.808 861.155 431.72C861.155 429.536 859.883 428.24 857.939 428.24C855.683 428.24 854.291 429.68 854.291 431.768C854.291 433.784 855.539 435.176 857.795 435.176ZM865.728 434.384H868.344V437H865.728V434.384ZM876.773 437.336C873.173 437.336 870.413 435.68 870.413 432.32C870.413 430.04 871.901 428.888 873.485 428.192V428.144C872.309 427.52 871.229 426.464 871.229 424.592C871.229 421.736 873.557 420.08 876.773 420.08C879.989 420.08 882.317 421.736 882.317 424.592C882.317 426.464 881.213 427.52 880.061 428.144V428.192C881.621 428.888 883.133 430.04 883.133 432.32C883.133 435.68 880.373 437.336 876.773 437.336ZM876.773 427.16C878.645 427.16 879.749 426.368 879.749 424.688C879.749 423.032 878.645 422.192 876.773 422.192C874.901 422.192 873.797 423.032 873.797 424.688C873.797 426.368 874.901 427.16 876.773 427.16ZM876.773 435.176C879.077 435.176 880.445 434.072 880.445 432.176C880.445 430.328 879.077 429.224 876.773 429.224C874.469 429.224 873.101 430.328 873.101 432.176C873.101 434.072 874.469 435.176 876.773 435.176ZM884.307 420.416H895.947V422.408C892.179 425.552 889.491 431.696 889.491 437H886.755C886.755 431.504 890.163 425.312 893.115 422.696V422.648H884.307V420.416Z" fill="black"/>
<path opacity="0.4" d="M814.648 515.424V513.288C811.312 512.952 808.792 511.008 808.624 507.528H811.072C811.24 509.616 812.44 510.888 814.648 511.176V505.44L814.6 505.416C812.104 504.744 809.296 503.712 809.296 500.832C809.296 498.12 811.36 496.344 814.648 496.224V494.52H816.088V496.296C819.016 496.632 821.056 498.456 821.248 501.576H818.8C818.584 499.776 817.648 498.744 816.088 498.432V503.52C819.376 504.48 821.68 505.344 821.68 508.656C821.68 511.176 819.808 513.192 816.088 513.336V515.424H814.648ZM811.744 500.592C811.744 502.008 812.92 502.56 814.648 503.088V498.336C812.872 498.432 811.744 499.248 811.744 500.592ZM819.208 508.728C819.208 507.144 818.2 506.496 816.088 505.848V511.248C818.392 511.128 819.208 510.12 819.208 508.728ZM826.323 502.272H823.683C823.683 498.744 825.579 496.08 829.779 496.08C832.779 496.08 835.227 497.88 835.227 501.048C835.227 504.264 832.611 505.896 830.211 507.384C828.603 508.344 827.067 509.256 826.587 510.72V510.768H835.035V513H823.251C823.251 509.88 825.147 507.744 828.315 505.752C831.123 504.048 832.515 503.352 832.515 501.144C832.515 499.776 831.987 498.312 829.707 498.312C827.115 498.312 826.323 499.992 826.323 502.272ZM843.714 513.336C839.082 513.336 837.114 509.472 837.114 504.72C837.114 499.968 839.082 496.08 843.714 496.08C848.346 496.08 850.314 499.968 850.314 504.72C850.314 509.472 848.346 513.336 843.714 513.336ZM843.714 511.104C846.714 511.104 847.602 508.128 847.602 504.72C847.602 501.312 846.714 498.312 843.714 498.312C840.738 498.312 839.826 501.312 839.826 504.72C839.826 508.128 840.738 511.104 843.714 511.104ZM859.181 501.84C862.325 501.84 864.509 504.168 864.509 507.336C864.509 511.008 861.869 513.336 858.461 513.336C854.501 513.336 852.341 510.936 852.245 508.152H854.885C855.053 509.664 855.941 511.104 858.317 511.104C860.429 511.104 861.821 509.808 861.821 507.336C861.821 505.008 860.549 503.952 858.485 503.952C857.141 503.952 855.917 504.408 855.125 505.44H852.461L854.237 496.416H863.669V498.648H856.229L855.317 503.232V503.28C856.181 502.392 857.405 501.84 859.181 501.84ZM866.549 510.384H869.165V513H866.549V510.384ZM874.185 501.408H871.545C871.545 498.336 873.633 496.08 877.713 496.08C880.665 496.08 883.233 497.712 883.233 500.64C883.233 502.416 882.321 503.52 880.713 504.192V504.24C882.897 504.936 883.809 506.376 883.809 508.32C883.809 511.536 881.433 513.336 877.785 513.336C873.513 513.336 871.113 511.128 871.113 507.336H873.753C873.753 509.616 874.713 511.104 877.617 511.104C880.233 511.104 881.097 510.048 881.097 508.272C881.097 505.992 879.465 505.44 877.809 505.44H876.249V503.304H877.713C879.345 503.304 880.521 502.56 880.521 500.76C880.521 499.464 879.753 498.312 877.689 498.312C874.905 498.312 874.185 499.8 874.185 501.408ZM892.51 513.336C887.878 513.336 885.91 509.472 885.91 504.72C885.91 499.968 887.878 496.08 892.51 496.08C897.142 496.08 899.11 499.968 899.11 504.72C899.11 509.472 897.142 513.336 892.51 513.336ZM892.51 511.104C895.51 511.104 896.398 508.128 896.398 504.72C896.398 501.312 895.51 498.312 892.51 498.312C889.534 498.312 888.622 501.312 888.622 504.72C888.622 508.128 889.534 511.104 892.51 511.104Z" fill="black"/>
<path opacity="0.4" d="M814.648 591.424V589.288C811.312 588.952 808.792 587.008 808.624 583.528H811.072C811.24 585.616 812.44 586.888 814.648 587.176V581.44L814.6 581.416C812.104 580.744 809.296 579.712 809.296 576.832C809.296 574.12 811.36 572.344 814.648 572.224V570.52H816.088V572.296C819.016 572.632 821.056 574.456 821.248 577.576H818.8C818.584 575.776 817.648 574.744 816.088 574.432V579.52C819.376 580.48 821.68 581.344 821.68 584.656C821.68 587.176 819.808 589.192 816.088 589.336V591.424H814.648ZM811.744 576.592C811.744 578.008 812.92 578.56 814.648 579.088V574.336C812.872 574.432 811.744 575.248 811.744 576.592ZM819.208 584.728C819.208 583.144 818.2 582.496 816.088 581.848V587.248C818.392 587.128 819.208 586.12 819.208 584.728ZM827.379 572.416H829.443V589H826.851V576.688C826.155 577.36 824.859 577.48 823.371 577.48V575.368C826.299 575.296 827.187 574.408 827.379 572.416ZM834.901 578.272H832.261C832.261 574.744 834.157 572.08 838.357 572.08C841.357 572.08 843.805 573.88 843.805 577.048C843.805 580.264 841.189 581.896 838.789 583.384C837.181 584.344 835.645 585.256 835.165 586.72V586.768H843.613V589H831.829C831.829 585.88 833.725 583.744 836.893 581.752C839.701 580.048 841.093 579.352 841.093 577.144C841.093 575.776 840.565 574.312 838.285 574.312C835.693 574.312 834.901 575.992 834.901 578.272ZM855.398 589H852.782V585.208H844.91V582.808L852.782 572.416H855.398V582.976H857.702V585.208H855.398V589ZM852.782 575.752L847.286 582.976H852.782V575.752ZM859.424 586.384H862.04V589H859.424V586.384ZM870.362 589.336C865.73 589.336 863.762 585.472 863.762 580.72C863.762 575.968 865.73 572.08 870.362 572.08C874.994 572.08 876.962 575.968 876.962 580.72C876.962 585.472 874.994 589.336 870.362 589.336ZM870.362 587.104C873.362 587.104 874.25 584.128 874.25 580.72C874.25 577.312 873.362 574.312 870.362 574.312C867.386 574.312 866.474 577.312 866.474 580.72C866.474 584.128 867.386 587.104 870.362 587.104ZM885.924 589.336C881.292 589.336 879.324 585.472 879.324 580.72C879.324 575.968 881.292 572.08 885.924 572.08C890.556 572.08 892.524 575.968 892.524 580.72C892.524 585.472 890.556 589.336 885.924 589.336ZM885.924 587.104C888.924 587.104 889.812 584.128 889.812 580.72C889.812 577.312 888.924 574.312 885.924 574.312C882.948 574.312 882.036 577.312 882.036 580.72C882.036 584.128 882.948 587.104 885.924 587.104Z" fill="black"/>
<path opacity="0.4" d="M814.648 667.424V665.288C811.312 664.952 808.792 663.008 808.624 659.528H811.072C811.24 661.616 812.44 662.888 814.648 663.176V657.44L814.6 657.416C812.104 656.744 809.296 655.712 809.296 652.832C809.296 650.12 811.36 648.344 814.648 648.224V646.52H816.088V648.296C819.016 648.632 821.056 650.456 821.248 653.576H818.8C818.584 651.776 817.648 650.744 816.088 650.432V655.52C819.376 656.48 821.68 657.344 821.68 660.656C821.68 663.176 819.808 665.192 816.088 665.336V667.424H814.648ZM811.744 652.592C811.744 654.008 812.92 654.56 814.648 655.088V650.336C812.872 650.432 811.744 651.248 811.744 652.592ZM819.208 660.728C819.208 659.144 818.2 658.496 816.088 657.848V663.248C818.392 663.128 819.208 662.12 819.208 660.728ZM833.427 657.2L833.379 657.176C832.515 658.568 830.979 659.36 829.107 659.36C825.867 659.36 823.635 657.104 823.635 653.84C823.635 650.624 825.891 648.08 829.587 648.08C834.315 648.08 836.019 651.608 836.019 656.672C836.019 662.12 833.643 665.336 829.539 665.336C826.419 665.336 824.403 663.272 824.091 660.8H826.779C826.971 662.168 827.787 663.176 829.539 663.176C832.635 663.176 833.379 660.296 833.427 657.44V657.2ZM829.635 650.24C827.475 650.24 826.275 651.608 826.275 653.696C826.275 655.88 827.547 657.176 829.491 657.176C831.747 657.176 833.139 655.736 833.139 653.648C833.139 651.632 831.891 650.24 829.635 650.24ZM837.034 648.416H848.674V650.408C844.906 653.552 842.218 659.696 842.218 665H839.482C839.482 659.504 842.89 653.312 845.842 650.696V650.648H837.034V648.416ZM848.338 662.384H850.954V665H848.338V662.384ZM852.127 648.416H863.767V650.408C859.999 653.552 857.311 659.696 857.311 665H854.575C854.575 659.504 857.983 653.312 860.935 650.696V650.648H852.127V648.416ZM869.144 648.416H871.208V665H868.616V652.688C867.92 653.36 866.624 653.48 865.136 653.48V651.368C868.064 651.296 868.952 650.408 869.144 648.416Z" fill="black"/>
<path opacity="0.1" d="M556 464L908 464" stroke="black" stroke-width="2"/>
<path opacity="0.1" d="M556 540L908 540" stroke="black" stroke-width="2"/>
<path opacity="0.1" d="M556 616L908 616" stroke="black" stroke-width="2"/>
<path opacity="0.1" d="M556 692L908 692" stroke="black" stroke-width="2"/>
<circle cx="568" cy="428" r="12" fill="#FFB800"/>
<circle cx="568" cy="504" r="12" fill="#01B8C7"/>
<circle cx="568" cy="580" r="12" fill="#8800FF"/>
<circle cx="568" cy="656" r="12" fill="#64D71E"/>
<path d="M0 528H1128V780C1128 846.274 1074.27 900 1008 900H120C53.7258 900 0 846.274 0 780V528Z" fill="url(#paint0_linear_2668_5311)"/>
<defs>
<linearGradient id="paint0_linear_2668_5311" x1="564" y1="528" x2="564" y2="900" gradientUnits="userSpaceOnUse">
<stop stop-color="#EDD9FF" stop-opacity="0"/>
<stop offset="0.59" stop-color="#EDD9FF"/>
</linearGradient>
</defs>
</svg>
