<svg width="1128" height="900" viewBox="0 0 1128 900" fill="none" xmlns="http://www.w3.org/2000/svg">
<rect width="1128" height="900" fill="#EDD9FF"/>
<path d="M144 200C144 177.909 161.909 160 184 160H944C966.091 160 984 177.909 984 200V900H144V200Z" fill="#FDFDFD"/>
<rect opacity="0.1" x="316" y="352" width="494" height="20" rx="10" fill="black"/>
<rect opacity="0.1" x="272" y="602" width="220" height="12" rx="6" fill="black"/>
<rect opacity="0.1" x="272" y="630" width="220" height="12" rx="6" fill="black"/>
<rect opacity="0.1" x="308" y="658" width="148" height="12" rx="6" fill="black"/>
<path d="M327.128 554.324H336.844V556.984H327.128V563.34H338.496V566H324.048V545.98H338.216V548.64H327.128V554.324ZM340.802 566V551.72H343.546V553.512H343.602C344.358 552.42 345.674 551.3 347.83 551.3C349.818 551.3 351.022 552.196 351.61 553.792H351.666C352.702 552.42 354.13 551.3 356.342 551.3C359.226 551.3 360.682 553.036 360.682 556.088V566H357.938V556.844C357.938 554.94 357.546 553.652 355.446 553.652C353.402 553.652 352.114 555.08 352.114 557.236V566H349.37V556.844C349.37 554.94 348.978 553.652 346.878 553.652C344.834 553.652 343.546 555.08 343.546 557.236V566H340.802ZM366.434 564.236H366.378V570.956H363.634V551.72H366.378V553.4H366.434C367.218 552.392 368.59 551.3 370.83 551.3C374.47 551.3 377.242 554.156 377.242 558.86C377.242 563.564 374.47 566.392 370.83 566.392C368.59 566.392 367.218 565.384 366.434 564.236ZM370.382 553.596C367.918 553.596 366.406 555.612 366.406 558.86C366.406 562.08 367.918 564.124 370.382 564.124C373.07 564.124 374.358 561.66 374.358 558.86C374.358 556.06 373.07 553.596 370.382 553.596ZM379.52 545.98H382.264V566H379.52V545.98ZM391.677 566.42C387.225 566.42 384.537 563.34 384.537 558.86C384.537 554.408 387.225 551.272 391.677 551.272C396.129 551.272 398.817 554.38 398.817 558.832C398.817 563.312 396.129 566.42 391.677 566.42ZM391.677 564.152C394.589 564.152 395.961 561.828 395.961 558.86C395.961 555.864 394.589 553.568 391.677 553.568C388.737 553.568 387.393 555.864 387.393 558.86C387.393 561.828 388.737 564.152 391.677 564.152ZM404.974 565.86L399.178 551.72H402.174L406.346 562.64H406.402L410.35 551.72H413.206L407.578 566.336C406.178 569.864 404.806 571.012 402.594 571.012C401.978 571.012 401.558 570.956 400.83 570.816V568.576C401.306 568.632 401.558 568.66 402.006 568.66C403.126 568.66 404.386 568.1 404.974 565.86ZM420.632 566.42C416.096 566.42 413.576 563.2 413.576 558.832C413.576 554.352 416.264 551.272 420.632 551.272C424.972 551.272 427.408 554.128 427.408 558.552C427.408 558.944 427.408 559.364 427.38 559.588H416.404C416.46 561.996 417.86 564.18 420.688 564.18C423.208 564.18 424.16 562.556 424.44 561.604H427.212C426.484 564.348 424.384 566.42 420.632 566.42ZM420.548 553.512C418.252 553.512 416.572 555.08 416.404 557.432H424.524C424.524 555.192 422.984 553.512 420.548 553.512ZM436.136 566.42C431.6 566.42 429.08 563.2 429.08 558.832C429.08 554.352 431.768 551.272 436.136 551.272C440.476 551.272 442.912 554.128 442.912 558.552C442.912 558.944 442.912 559.364 442.884 559.588H431.908C431.964 561.996 433.364 564.18 436.192 564.18C438.712 564.18 439.664 562.556 439.944 561.604H442.716C441.988 564.348 439.888 566.42 436.136 566.42ZM436.052 553.512C433.756 553.512 432.076 555.08 431.908 557.432H440.028C440.028 555.192 438.488 553.512 436.052 553.512Z" fill="black"/>
<rect x="213" y="497" width="338" height="254" rx="23" stroke="black" stroke-opacity="0.2" stroke-width="2"/>
<rect x="577.5" y="497.5" width="337" height="253" rx="22.5" fill="#EDD9FF" fill-opacity="0.62" stroke="#8800FF" stroke-width="3"/>
<rect opacity="0.1" x="636" y="602" width="220" height="12" rx="6" fill="black"/>
<rect opacity="0.1" x="636" y="630" width="220" height="12" rx="6" fill="black"/>
<rect opacity="0.1" x="672" y="658" width="148" height="12" rx="6" fill="black"/>
<path d="M677.837 561.184H669.465L667.813 566H664.565L672.013 545.98H675.345L682.849 566H679.489L677.837 561.184ZM670.361 558.58H676.941L673.693 548.836H673.637L670.361 558.58ZM693.977 553.456H694.033V545.98H696.805V566H694.033V564.32H693.977C693.221 565.328 691.821 566.392 689.581 566.392C685.941 566.392 683.197 563.564 683.197 558.86C683.197 554.156 685.941 551.3 689.581 551.3C691.821 551.3 693.221 552.336 693.977 553.456ZM690.029 564.124C692.493 564.124 694.033 562.08 694.033 558.86C694.033 555.612 692.493 553.596 690.029 553.596C687.341 553.596 686.053 556.06 686.053 558.86C686.053 561.66 687.341 564.124 690.029 564.124ZM699.864 566V551.72H702.608V553.512H702.664C703.42 552.42 704.736 551.3 706.892 551.3C708.88 551.3 710.084 552.196 710.672 553.792H710.728C711.764 552.42 713.192 551.3 715.404 551.3C718.288 551.3 719.744 553.036 719.744 556.088V566H717V556.844C717 554.94 716.608 553.652 714.508 553.652C712.464 553.652 711.176 555.08 711.176 557.236V566H708.432V556.844C708.432 554.94 708.04 553.652 705.94 553.652C703.896 553.652 702.608 555.08 702.608 557.236V566H699.864ZM722.5 546.204H725.608V549.172H722.5V546.204ZM722.696 551.72H725.44V566H722.696V551.72ZM728.493 566V551.72H731.237V553.512H731.293C732.049 552.42 733.533 551.3 735.997 551.3C738.629 551.3 740.757 552.812 740.757 556.088V566H737.985V556.844C737.985 554.94 737.145 553.652 735.101 553.652C732.749 553.652 731.237 555.08 731.237 557.236V566H728.493ZM743.5 546.204H746.608V549.172H743.5V546.204ZM743.696 551.72H746.44V566H743.696V551.72ZM755.489 557.376C758.093 557.992 760.949 558.748 760.949 561.94C760.949 564.712 758.821 566.392 755.069 566.392C750.729 566.392 748.573 564.152 748.489 561.24H751.261C751.401 562.892 752.381 564.18 755.041 564.18C757.449 564.18 758.093 563.116 758.093 562.08C758.093 560.288 756.189 560.092 754.341 559.7C751.849 559.14 748.993 558.384 748.993 555.416C748.993 552.952 750.981 551.3 754.453 551.3C758.345 551.3 760.221 553.4 760.417 555.864H757.645C757.449 554.772 756.889 553.512 754.481 553.512C752.661 553.512 751.849 554.24 751.849 555.304C751.849 556.788 753.445 556.9 755.489 557.376ZM761.83 551.72H763.902V547.128H766.646V551.72H769.39V553.988H766.646V562.052C766.646 563.564 767.066 563.9 768.242 563.9C768.69 563.9 768.914 563.872 769.418 563.788V566C768.69 566.14 768.27 566.168 767.654 566.168C765.33 566.168 763.902 565.272 763.902 561.968V553.988H761.83V551.72ZM771.724 551.72H774.468V554.436H774.524C775.252 552.644 776.428 551.384 778.36 551.384C778.864 551.384 779.256 551.412 779.676 551.468V554.1C779.312 554.044 779.06 554.016 778.752 554.016C776.26 554.016 774.468 555.892 774.468 558.608V566H771.724V551.72ZM784.806 566.392C781.95 566.392 780.13 564.74 780.13 562.304C780.13 559.112 782.538 558.188 786.094 557.488C788.334 557.068 789.706 556.788 789.706 555.388C789.706 554.352 789.09 553.484 786.99 553.484C784.498 553.484 783.742 554.268 783.602 556.172H780.802C780.942 553.428 782.734 551.272 787.102 551.272C790.042 551.272 792.394 552.504 792.394 556.2V562.752C792.394 563.788 792.534 564.32 793.066 564.32C793.15 564.32 793.234 564.32 793.402 564.292V565.972C792.926 566.084 792.45 566.14 792.002 566.14C790.658 566.14 789.902 565.608 789.762 563.984H789.706C788.754 565.468 787.13 566.392 784.806 566.392ZM785.422 564.18C787.886 564.18 789.706 562.92 789.706 560.428V558.384C789.258 558.804 788.026 559.112 786.57 559.42C784.05 559.952 783.014 560.624 783.014 562.108C783.014 563.452 783.714 564.18 785.422 564.18ZM793.959 551.72H796.031V547.128H798.775V551.72H801.519V553.988H798.775V562.052C798.775 563.564 799.195 563.9 800.371 563.9C800.819 563.9 801.043 563.872 801.547 563.788V566C800.819 566.14 800.399 566.168 799.783 566.168C797.459 566.168 796.031 565.272 796.031 561.968V553.988H793.959V551.72ZM809.884 566.42C805.432 566.42 802.744 563.34 802.744 558.86C802.744 554.408 805.432 551.272 809.884 551.272C814.336 551.272 817.024 554.38 817.024 558.832C817.024 563.312 814.336 566.42 809.884 566.42ZM809.884 564.152C812.796 564.152 814.168 561.828 814.168 558.86C814.168 555.864 812.796 553.568 809.884 553.568C806.944 553.568 805.6 555.864 805.6 558.86C805.6 561.828 806.944 564.152 809.884 564.152ZM819.302 551.72H822.046V554.436H822.102C822.83 552.644 824.006 551.384 825.938 551.384C826.442 551.384 826.834 551.412 827.254 551.468V554.1C826.89 554.044 826.638 554.016 826.33 554.016C823.838 554.016 822.046 555.892 822.046 558.608V566H819.302V551.72Z" fill="black"/>
<rect opacity="0.1" x="384" y="392" width="358" height="20" rx="10" fill="black"/>
<path d="M686.635 277.4H690.955V285.16L689.955 298.2H687.675L686.635 285.16V277.4ZM686.635 301.64H690.995V306H686.635V301.64Z" fill="black"/>
<path d="M672.208 305.801L663.928 285.601H668.208L674.168 301.201H674.248L679.888 285.601H683.968L675.928 306.481C673.928 311.521 671.968 313.161 668.808 313.161C667.928 313.161 667.328 313.081 666.288 312.881V309.681C666.968 309.761 667.328 309.801 667.968 309.801C669.568 309.801 671.368 309.001 672.208 305.801Z" fill="black"/>
<path d="M657.63 288.08H657.71V277.4H661.67V306H657.71V303.6H657.63C656.55 305.04 654.55 306.56 651.35 306.56C646.15 306.56 642.23 302.52 642.23 295.8C642.23 289.08 646.15 285 651.35 285C654.55 285 656.55 286.48 657.63 288.08ZM651.99 303.32C655.51 303.32 657.71 300.4 657.71 295.8C657.71 291.16 655.51 288.28 651.99 288.28C648.15 288.28 646.31 291.8 646.31 295.8C646.31 299.8 648.15 303.32 651.99 303.32Z" fill="black"/>
<path d="M630.162 306.6C623.682 306.6 620.082 302 620.082 295.76C620.082 289.36 623.922 284.96 630.162 284.96C636.362 284.96 639.842 289.04 639.842 295.36C639.842 295.92 639.842 296.52 639.802 296.84H624.122C624.202 300.28 626.202 303.4 630.242 303.4C633.842 303.4 635.202 301.08 635.602 299.72H639.562C638.522 303.64 635.522 306.6 630.162 306.6ZM630.042 288.16C626.762 288.16 624.362 290.4 624.122 293.76H635.722C635.722 290.56 633.522 288.16 630.042 288.16Z" fill="black"/>
<path d="M610.447 306V281.2H601.207V277.4H624.127V281.2H614.887V306H610.447Z" fill="black"/>
<path d="M580.165 306.6C573.805 306.6 569.965 302.2 569.965 295.8C569.965 289.44 573.805 284.96 580.165 284.96C586.525 284.96 590.365 289.4 590.365 295.76C590.365 302.16 586.525 306.6 580.165 306.6ZM580.165 303.36C584.325 303.36 586.285 300.04 586.285 295.8C586.285 291.52 584.325 288.24 580.165 288.24C575.965 288.24 574.045 291.52 574.045 295.8C574.045 300.04 575.965 303.36 580.165 303.36Z" fill="black"/>
<path d="M557.416 285.6H560.376V279.04H564.296V285.6H568.216V288.84H564.296V300.36C564.296 302.52 564.896 303 566.576 303C567.216 303 567.536 302.96 568.256 302.84V306C567.216 306.2 566.616 306.24 565.736 306.24C562.416 306.24 560.376 304.96 560.376 300.24V288.84H557.416V285.6Z" fill="black"/>
<path d="M536.998 306.6C530.518 306.6 526.918 302 526.918 295.76C526.918 289.36 530.758 284.96 536.998 284.96C543.198 284.96 546.678 289.04 546.678 295.36C546.678 295.92 546.678 296.52 546.638 296.84H530.958C531.038 300.28 533.038 303.4 537.078 303.4C540.678 303.4 542.038 301.08 542.438 299.72H546.398C545.358 303.64 542.358 306.6 536.998 306.6ZM536.878 288.16C533.598 288.16 531.198 290.4 530.958 293.76H542.558C542.558 290.56 540.358 288.16 536.878 288.16Z" fill="black"/>
<path d="M495.416 306V285.6H499.336V288.16H499.416C500.496 286.6 502.376 285 505.456 285C508.296 285 510.016 286.28 510.856 288.56H510.936C512.416 286.6 514.456 285 517.616 285C521.736 285 523.816 287.48 523.816 291.84V306H519.896V292.92C519.896 290.2 519.336 288.36 516.336 288.36C513.416 288.36 511.576 290.4 511.576 293.48V306H507.656V292.92C507.656 290.2 507.096 288.36 504.096 288.36C501.176 288.36 499.336 290.4 499.336 293.48V306H495.416Z" fill="black"/>
<path d="M481.962 306.6C475.602 306.6 471.762 302.2 471.762 295.8C471.762 289.44 475.602 284.96 481.962 284.96C488.322 284.96 492.162 289.4 492.162 295.76C492.162 302.16 488.322 306.6 481.962 306.6ZM481.962 303.36C486.122 303.36 488.082 300.04 488.082 295.8C488.082 291.52 486.122 288.24 481.962 288.24C477.762 288.24 475.842 291.52 475.842 295.8C475.842 300.04 477.762 303.36 481.962 303.36Z" fill="black"/>
<path d="M465.436 293C465.276 290.88 464.076 288.24 460.316 288.24C455.996 288.24 454.396 291.96 454.396 295.8C454.396 299.64 455.996 303.32 460.316 303.32C464.076 303.32 465.276 300.76 465.436 298.44H469.516C469.236 303.12 465.556 306.6 460.356 306.6C454.276 306.6 450.316 302.2 450.316 295.8C450.316 289.4 454.276 285 460.316 285C465.556 285 469.036 288.4 469.516 293H465.436Z" fill="black"/>
<path d="M443.15 277.4H447.07V306H443.15V277.4Z" fill="black"/>
<path d="M430.201 306.6C423.721 306.6 420.121 302 420.121 295.76C420.121 289.36 423.961 284.96 430.201 284.96C436.401 284.96 439.881 289.04 439.881 295.36C439.881 295.92 439.881 296.52 439.841 296.84H424.161C424.241 300.28 426.241 303.4 430.281 303.4C433.881 303.4 435.241 301.08 435.641 299.72H439.601C438.561 303.64 435.561 306.6 430.201 306.6ZM430.081 288.16C426.801 288.16 424.401 290.4 424.161 293.76H435.761C435.761 290.56 433.561 288.16 430.081 288.16Z" fill="black"/>
<path d="M384.84 277.4H389.4L394.44 299.92H394.52L400.48 277.4H405.12L411.08 299.92H411.16L416.2 277.4H420.76L413.64 306H408.92L402.84 283H402.76L396.68 306H391.96L384.84 277.4Z" fill="black"/>
<path d="M0 528H1128V780C1128 846.274 1074.27 900 1008 900H120C53.7258 900 0 846.274 0 780V528Z" fill="url(#paint0_linear_2668_5163)"/>
<path d="M741.673 297.987C741.673 297.987 740.697 302.047 736.635 305.684C735.781 306.448 734.962 307.031 734.242 307.51C731.609 309.263 728.245 309.488 725.41 308.084C725.378 308.068 725.347 308.052 725.315 308.036C722.12 306.426 718.101 302.417 718.101 302.417L710.273 294.586C710.273 294.586 708.391 293.02 710.075 291.45C710.089 291.437 710.103 291.424 710.116 291.411C710.942 290.664 712.21 290.702 712.998 291.489L718.896 297.384C719.66 297.638 719.349 296.931 719.349 296.931L708.124 285.714C708.124 285.714 705.979 283.523 707.615 281.758C708.366 280.947 709.301 281.006 710.012 281.239C710.553 281.416 711.039 281.733 711.442 282.136L721.116 291.803C722.007 292.015 721.51 290.901 721.51 290.901L709.422 278.821C709.422 278.821 707.811 276.931 709.253 275.43C710.652 273.974 712.56 275.684 712.56 275.684C712.56 275.684 723.461 286.917 723.97 287.086C724.16 287.15 724.297 287.065 724.393 286.934C724.584 286.674 724.36 286.491 724.134 286.26L716.663 278.621C716.663 278.621 713.011 275.341 714.712 273.535C716.521 271.614 720.056 275.485 720.056 275.485L728.623 284.047C728.623 284.047 731.798 288.301 734.21 283.866C736.002 280.571 734.73 277.435 737.36 276.841C739.989 276.248 742.11 277.858 740.668 280.147C739.226 282.436 739.904 287.183 739.904 287.183C739.904 287.183 742.99 294.131 741.673 297.987L741.673 297.987Z" fill="#FAC130"/>
<path d="M726.062 277C724.235 274.731 722.413 273.155 721.206 272.233C719.897 271.233 719.009 270.764 719 270.759L719.608 270C719.759 270.079 723.363 271.989 727 276.507L726.062 277Z" fill="#6B6B6B"/>
<path d="M727.111 277C724.329 271.372 720.043 268.918 720 268.894L720.479 268C720.526 268.027 721.655 268.666 723.149 270.041C724.52 271.303 726.475 273.455 728 276.54L727.111 277H727.111Z" fill="#6B6B6B"/>
<path d="M712.468 302C712.336 301.91 709.182 299.727 706 294.563L706.821 294C708.419 296.593 710.014 298.394 711.07 299.448C712.215 300.591 712.992 301.127 713 301.132L712.468 302Z" fill="#6B6B6B"/>
<path d="M711.521 304C711.474 303.973 710.345 303.334 708.851 301.959C707.48 300.696 705.525 298.545 704 295.46L704.889 295C707.671 300.628 711.957 303.082 712 303.106L711.521 304Z" fill="#6B6B6B"/>
<defs>
<linearGradient id="paint0_linear_2668_5163" x1="564" y1="528" x2="564" y2="900" gradientUnits="userSpaceOnUse">
<stop stop-color="#EDD9FF" stop-opacity="0"/>
<stop offset="0.59" stop-color="#EDD9FF"/>
</linearGradient>
</defs>
</svg>
