<svg width="1128" height="900" viewBox="0 0 1128 900" fill="none" xmlns="http://www.w3.org/2000/svg">
<rect width="1128" height="900" fill="#EDD9FF"/>
<path d="M144 200C144 177.909 161.909 160 184 160H944C966.091 160 984 177.909 984 200V900H144V200Z" fill="#FDFDFD"/>
<rect opacity="0.2" x="200" y="376" width="352" height="80" rx="16" fill="#01B8C7"/>
<rect opacity="0.1" x="201" y="481" width="350" height="78" rx="15" stroke="black" stroke-width="2"/>
<rect opacity="0.1" x="201" y="585" width="350" height="78" rx="15" stroke="black" stroke-width="2"/>
<rect x="208" y="384" width="64" height="64" rx="9.41176" fill="#01B8C7"/>
<path fill-rule="evenodd" clip-rule="evenodd" d="M238.99 406.152C239.276 408.857 237.968 411.213 236.068 411.414C234.168 411.614 232.395 409.584 232.109 406.879C231.822 404.174 233.13 401.818 235.03 401.617C236.93 401.417 238.703 403.447 238.99 406.152ZM247.88 406.891C248.167 404.186 246.859 401.83 244.959 401.629C243.059 401.429 241.286 403.459 240.999 406.164C240.713 408.869 242.021 411.225 243.921 411.426C245.821 411.626 247.594 409.596 247.88 406.891ZM250.439 423.751L250.343 423.431L250.151 422.919L250.023 422.599L249.67 421.96L249.19 421.352L248.549 420.776L247.813 420.105L247.204 419.529L246.627 418.889L246.147 418.25L245.698 417.578L245.218 416.683L244.93 416.075L244.577 415.403L244.129 414.668L243.616 413.996L243.264 413.644L242.912 413.325L242.431 412.973L241.854 412.717L241.118 412.461L240.381 412.365H239.612L238.875 412.461L237.818 412.845L236.793 413.548L236.121 414.22L235.704 414.86L235.288 415.595L234.743 416.715L234.231 417.706L233.654 418.474L232.949 419.369L230.867 421.288L230.675 421.448L230.195 422.12L229.81 422.887L229.586 423.847L229.458 424.71L229.426 425.67L229.522 426.309L229.81 427.205L230.227 428.036L230.675 428.612L231.252 429.188L232.02 429.699L232.917 430.115L233.59 430.275L234.615 430.307L235.608 430.083L236.217 429.795L236.473 429.603L237.05 429.284L237.594 428.964L238.075 428.676L238.587 428.452L239.004 428.26L239.484 428.132L239.997 428.1L240.605 428.196L241.054 428.292L241.79 428.644L242.687 429.092L243.424 429.571L244.097 429.955L244.769 430.243L245.41 430.371L245.955 430.403L246.403 430.371L247.108 430.179L248.005 429.763L248.645 429.316L249.318 428.644L249.799 428.004L250.215 427.141L250.471 426.309L250.567 425.606V424.87L250.535 424.454L250.439 423.751ZM254.233 414.905C254.822 412.267 253.787 409.793 251.922 409.378C250.057 408.963 248.068 410.765 247.48 413.403C246.891 416.041 247.926 418.516 249.791 418.93C251.656 419.345 253.645 417.543 254.233 414.905ZM232.518 413.403C233.107 416.041 232.072 418.516 230.207 418.93C228.342 419.345 226.353 417.543 225.765 414.905C225.176 412.267 226.211 409.792 228.076 409.378C229.941 408.963 231.93 410.765 232.518 413.403Z" fill="black"/>
<rect opacity="0.2" x="208" y="488" width="64" height="64" rx="9.41177" fill="#64D71E"/>
<path d="M247.98 516.431L251.916 512.963C252.729 512.246 253.373 511.357 253.801 510.361C254.229 509.366 254.432 508.287 254.393 507.204C254.38 506.784 254.207 506.384 253.91 506.087C253.613 505.79 253.213 505.617 252.793 505.604C251.709 505.566 250.631 505.768 249.635 506.196C248.639 506.624 247.75 507.268 247.033 508.081L243.564 512.016L229.483 507.012C229.133 506.889 228.754 506.867 228.392 506.95C228.029 507.033 227.698 507.216 227.435 507.479L225.765 509.124C225.704 509.183 225.658 509.256 225.63 509.336C225.602 509.416 225.592 509.501 225.601 509.585C225.61 509.669 225.638 509.75 225.683 509.822C225.728 509.894 225.789 509.955 225.861 510L238.373 517.916L232.466 524.609L229.995 524.814C229.532 524.854 229.097 525.056 228.766 525.383L227.838 526.336C227.77 526.406 227.721 526.491 227.696 526.585C227.67 526.678 227.668 526.777 227.692 526.871C227.715 526.965 227.761 527.052 227.827 527.123C227.893 527.194 227.976 527.247 228.069 527.277L231.615 528.384L232.722 531.955C232.755 532.045 232.81 532.125 232.882 532.189C232.955 532.252 233.042 532.296 233.136 532.316C233.23 532.337 233.327 532.333 233.419 532.305C233.511 532.278 233.595 532.228 233.663 532.159L234.616 531.206C234.943 530.875 235.145 530.441 235.186 529.977L235.391 527.507L242.085 521.601L249.977 534.137C250.022 534.208 250.083 534.269 250.155 534.314C250.227 534.359 250.308 534.387 250.392 534.396C250.476 534.405 250.562 534.396 250.642 534.367C250.722 534.339 250.794 534.293 250.854 534.233L252.518 532.569C252.781 532.306 252.964 531.975 253.047 531.613C253.13 531.25 253.108 530.872 252.985 530.521L247.98 516.431Z" fill="#64D71E"/>
<rect opacity="0.2" x="208" y="592" width="64" height="64" rx="9.41177" fill="#FD1774"/>
<path fill-rule="evenodd" clip-rule="evenodd" d="M241.053 610.505C243.511 612.877 244.799 615.926 244.799 619.202C244.799 622.477 243.394 625.526 241.053 627.898L239.999 628.802L238.946 627.898C236.487 625.526 235.199 622.477 235.199 619.202C235.199 615.926 236.487 612.764 238.946 610.505L239.999 609.602L241.053 610.505ZM226.861 624.002H225.602V625.418C225.602 628.959 226.756 632.146 228.959 634.625C231.162 637.103 233.995 638.402 237.038 638.402H237.143H238.402V636.985C238.402 633.444 237.247 630.257 235.044 627.779C232.841 625.3 230.008 624.002 226.861 624.002ZM254.402 624.002H253.143C250.1 624.002 247.162 625.3 244.959 627.779C242.756 630.257 241.602 633.562 241.602 636.985V638.402H242.861H242.965C246.008 638.402 248.841 637.103 251.044 634.625C253.247 632.146 254.402 628.841 254.402 625.418V624.002Z" fill="#FD1774"/>
<rect opacity="0.1" x="577" y="377" width="350" height="78" rx="15" stroke="black" stroke-width="2"/>
<rect opacity="0.2" x="576" y="480" width="352" height="80" rx="16" fill="#FFB800"/>
<rect opacity="0.1" x="577" y="585" width="350" height="78" rx="15" stroke="black" stroke-width="2"/>
<rect opacity="0.2" x="584" y="384" width="64" height="64" rx="9.41177" fill="#8800FF"/>
<g clip-path="url(#clip0_2668_5183)">
<path fill-rule="evenodd" clip-rule="evenodd" d="M618.452 400.03C625.042 400.482 630.427 405.717 630.992 412.269C631.407 416.487 629.863 420.365 627.151 423.077C625.758 424.47 625.042 426.391 625.042 428.349V430.872C625.042 431.7 624.365 432.378 623.536 432.378H612.992C612.163 432.378 611.486 431.7 611.486 430.872V428.613C611.486 427.784 610.808 427.106 609.979 427.106H606.59C605.762 427.106 605.084 426.428 605.084 425.6V420.139C605.084 419.575 604.745 419.01 604.218 418.784L600.941 417.315L603.502 412.759C603.879 412.081 604.142 411.365 604.293 410.612C605.686 404.248 611.561 399.578 618.452 400.03ZM622.752 415.65C622.735 415.672 622.719 415.693 622.702 415.715C622.316 416.194 621.793 416.754 621.215 417.287C620.306 418.139 619.259 418.965 618.184 419.685C618.102 419.738 617.992 419.765 617.881 419.765C617.771 419.765 617.661 419.738 617.578 419.685C616.477 418.965 615.457 418.166 614.548 417.287C613.86 416.646 613.408 416.119 613.126 415.79C613.103 415.764 613.081 415.739 613.061 415.715C612.4 414.889 611.656 413.929 611.38 412.57C611.215 411.691 611.325 411.105 611.38 410.812C611.386 410.793 611.393 410.772 611.4 410.748C611.493 410.434 611.71 409.705 612.427 409.16C613.116 408.6 613.86 408.52 614.135 408.494C615.099 408.387 616.091 408.653 616.972 409.293C617.358 409.586 617.661 409.879 617.881 410.199C618.102 409.906 618.405 409.586 618.79 409.293C619.672 408.653 620.636 408.387 621.628 408.494C621.903 408.52 622.647 408.6 623.336 409.16C624.059 409.734 624.273 410.449 624.365 410.756C624.372 410.776 624.377 410.795 624.382 410.812C624.437 411.105 624.548 411.718 624.382 412.57C624.114 413.895 623.4 414.815 622.752 415.65Z" fill="#8800FF"/>
</g>
<rect x="584" y="488" width="64" height="64" rx="9.41177" fill="#FFB800"/>
<path d="M628.194 526.357C627.242 522.904 623.369 523.333 623.327 523.341C623.308 523.341 623.285 523.349 623.266 523.36C621.721 524.145 620.402 524.334 619.232 523.932C617.771 523.434 616.567 522.05 615.324 519.44C615.167 519.107 614.98 518.775 614.773 518.446L611.198 512.751C609.24 509.627 606.95 507.821 606.927 507.802C606.847 507.744 606.728 507.756 606.667 507.833C604.576 510.443 602.844 513.215 604.312 515.836C604.434 516.053 604.572 516.308 604.698 516.594C604.702 516.602 604.702 516.606 604.706 516.613C604.797 516.811 604.878 517.023 604.947 517.24C605.933 520.406 605.876 525.982 605.826 531.375L605.818 532.036C605.818 532.09 605.837 532.137 605.876 532.172C605.91 532.206 605.96 532.229 606.006 532.229H607.267C607.317 532.229 607.367 532.206 607.401 532.168C607.436 532.133 607.455 532.083 607.455 532.032C607.267 526.256 607.241 520.828 608.927 517.971C609.646 518.465 612.571 520.592 613.194 522.722C613.611 523.704 613.974 524.764 614.318 525.819C614.322 525.831 614.326 525.842 614.33 525.854C614.452 526.229 614.571 526.604 614.689 526.975C615.637 529.968 616.375 532.334 617.63 532.226C620.906 532.315 623.782 531.843 626.183 530.814C626.68 530.602 627.074 530.207 627.288 529.713C627.636 528.908 627.999 527.721 628.187 527.087C628.21 527.006 628.225 526.929 628.229 526.844C628.236 526.824 628.236 526.801 628.232 526.782V526.763C628.244 526.627 628.229 526.488 628.194 526.357Z" fill="black"/>
<rect opacity="0.2" x="584" y="592" width="64" height="64" rx="9.41177" fill="#64D71E"/>
<path d="M625.656 619.788C625.478 620.099 625.085 620.206 624.778 620.026C624.47 619.846 624.365 619.448 624.543 619.137L628.014 613.046L626.919 612.405L623.448 618.497C623.27 618.808 622.878 618.914 622.571 618.735C622.263 618.555 622.158 618.157 622.336 617.846L625.806 611.755L624.712 611.114L621.241 617.205C621.063 617.517 620.671 617.623 620.363 617.444C620.056 617.264 619.951 616.866 620.128 616.555L623.599 610.463L622.607 609.883L618.206 617.608C617.225 619.33 617.526 621.443 618.806 622.82L615.624 628.404L605.917 611.367C605.641 610.883 605.031 610.718 604.554 610.998C603.77 611.456 603.244 612.19 602.991 613.18C601.749 618.037 607.827 628.502 608.525 629.679L609.03 630.532L613.157 628.118L614.472 630.426L610.631 637.167C610.287 637.771 610.492 638.542 611.087 638.89C611.682 639.238 612.443 639.032 612.787 638.428L615.909 632.949L619.102 638.553C619.378 639.037 619.988 639.203 620.466 638.923C620.943 638.644 621.107 638.025 620.831 637.542L617.061 630.927L620.963 624.08C622.779 624.516 624.735 623.724 625.717 622.002L630.118 614.277L629.127 613.697L625.656 619.788Z" fill="#64D71E"/>
<path d="M420.966 287.12C420.446 284.32 418.686 280.64 413.206 280.64C406.886 280.64 404.486 286 404.486 291.68C404.486 297.4 406.886 302.76 413.206 302.76C418.726 302.76 420.686 299.08 420.966 295.6H425.566C424.926 301.96 420.486 306.56 413.246 306.56C405.126 306.56 399.926 300.32 399.926 291.72C399.926 283.08 405.166 276.84 413.286 276.84C420.486 276.84 424.886 281.4 425.566 287.12H420.966ZM442.48 292.92C442.48 290.2 441.28 288.36 438.36 288.36C435 288.36 432.84 290.4 432.84 293.48V306H428.92V277.4H432.84V288.16H432.92C434 286.6 436.12 285 439.64 285C443.4 285 446.44 287.16 446.44 291.84V306H442.48V292.92ZM459.724 306.6C453.364 306.6 449.524 302.2 449.524 295.8C449.524 289.44 453.364 284.96 459.724 284.96C466.084 284.96 469.924 289.4 469.924 295.76C469.924 302.16 466.084 306.6 459.724 306.6ZM459.724 303.36C463.884 303.36 465.844 300.04 465.844 295.8C465.844 291.52 463.884 288.24 459.724 288.24C455.524 288.24 453.604 291.52 453.604 295.8C453.604 300.04 455.524 303.36 459.724 303.36ZM482.498 306.6C476.138 306.6 472.298 302.2 472.298 295.8C472.298 289.44 476.138 284.96 482.498 284.96C488.858 284.96 492.698 289.4 492.698 295.76C492.698 302.16 488.858 306.6 482.498 306.6ZM482.498 303.36C486.658 303.36 488.618 300.04 488.618 295.8C488.618 291.52 486.658 288.24 482.498 288.24C478.298 288.24 476.378 291.52 476.378 295.8C476.378 300.04 478.298 303.36 482.498 303.36ZM504.439 293.68C508.159 294.56 512.239 295.64 512.239 300.2C512.239 304.16 509.199 306.56 503.839 306.56C497.639 306.56 494.559 303.36 494.439 299.2H498.399C498.599 301.56 499.999 303.4 503.799 303.4C507.239 303.4 508.159 301.88 508.159 300.4C508.159 297.84 505.439 297.56 502.799 297C499.239 296.2 495.159 295.12 495.159 290.88C495.159 287.36 497.999 285 502.959 285C508.519 285 511.199 288 511.479 291.52H507.519C507.239 289.96 506.439 288.16 502.999 288.16C500.399 288.16 499.239 289.2 499.239 290.72C499.239 292.84 501.519 293 504.439 293.68ZM524.292 306.6C517.812 306.6 514.212 302 514.212 295.76C514.212 289.36 518.052 284.96 524.292 284.96C530.492 284.96 533.972 289.04 533.972 295.36C533.972 295.92 533.972 296.52 533.932 296.84H518.252C518.332 300.28 520.332 303.4 524.372 303.4C527.972 303.4 529.332 301.08 529.732 299.72H533.692C532.652 303.64 529.652 306.6 524.292 306.6ZM524.172 288.16C520.892 288.16 518.492 290.4 518.252 293.76H529.852C529.852 290.56 527.652 288.16 524.172 288.16ZM560.308 293C560.148 290.88 558.948 288.24 555.188 288.24C550.868 288.24 549.268 291.96 549.268 295.8C549.268 299.64 550.868 303.32 555.188 303.32C558.948 303.32 560.148 300.76 560.308 298.44H564.388C564.108 303.12 560.428 306.6 555.228 306.6C549.148 306.6 545.188 302.2 545.188 295.8C545.188 289.4 549.148 285 555.188 285C560.428 285 563.908 288.4 564.388 293H560.308ZM573.274 306.56C569.194 306.56 566.594 304.2 566.594 300.72C566.594 296.16 570.034 294.84 575.114 293.84C578.314 293.24 580.274 292.84 580.274 290.84C580.274 289.36 579.394 288.12 576.394 288.12C572.834 288.12 571.754 289.24 571.554 291.96H567.554C567.754 288.04 570.314 284.96 576.554 284.96C580.754 284.96 584.114 286.72 584.114 292V301.36C584.114 302.84 584.314 303.6 585.074 303.6C585.194 303.6 585.314 303.6 585.554 303.56V305.96C584.874 306.12 584.194 306.2 583.554 306.2C581.634 306.2 580.554 305.44 580.354 303.12H580.274C578.914 305.24 576.594 306.56 573.274 306.56ZM574.154 303.4C577.674 303.4 580.274 301.6 580.274 298.04V295.12C579.634 295.72 577.874 296.16 575.794 296.6C572.194 297.36 570.714 298.32 570.714 300.44C570.714 302.36 571.714 303.4 574.154 303.4ZM586.349 285.6H589.309V279.04H593.229V285.6H597.149V288.84H593.229V300.36C593.229 302.52 593.829 303 595.509 303C596.149 303 596.469 302.96 597.189 302.84V306C596.149 306.2 595.549 306.24 594.669 306.24C591.349 306.24 589.309 304.96 589.309 300.24V288.84H586.349V285.6ZM608.979 306.6C602.499 306.6 598.899 302 598.899 295.76C598.899 289.36 602.739 284.96 608.979 284.96C615.179 284.96 618.659 289.04 618.659 295.36C618.659 295.92 618.659 296.52 618.619 296.84H602.939C603.019 300.28 605.019 303.4 609.059 303.4C612.659 303.4 614.019 301.08 614.419 299.72H618.379C617.339 303.64 614.339 306.6 608.979 306.6ZM608.859 288.16C605.579 288.16 603.179 290.4 602.939 293.76H614.539C614.539 290.56 612.339 288.16 608.859 288.16ZM636.408 304.64V301.88H636.328C635.208 303.52 633.328 304.96 630.048 304.96C624.968 304.96 621.048 301.52 621.048 295C621.048 288.44 624.968 285 630.048 285C633.328 285 635.208 286.56 636.328 288H636.408V285.6H640.328V304.4C640.328 310.56 636.608 313.32 630.768 313.32C624.928 313.32 622.008 310.52 621.608 306.84H625.648C626.048 308.68 627.448 310.12 630.768 310.12C634.488 310.12 636.408 308.48 636.408 304.64ZM630.768 288.28C626.928 288.28 625.128 291.16 625.128 295C625.128 298.84 626.928 301.72 630.768 301.72C634.288 301.72 636.368 299.44 636.368 295C636.368 290.52 634.288 288.28 630.768 288.28ZM653.826 306.6C647.466 306.6 643.626 302.2 643.626 295.8C643.626 289.44 647.466 284.96 653.826 284.96C660.186 284.96 664.026 289.4 664.026 295.76C664.026 302.16 660.186 306.6 653.826 306.6ZM653.826 303.36C657.986 303.36 659.946 300.04 659.946 295.8C659.946 291.52 657.986 288.24 653.826 288.24C649.626 288.24 647.706 291.52 647.706 295.8C647.706 300.04 649.626 303.36 653.826 303.36ZM667.279 285.6H671.199V289.48H671.279C672.319 286.92 673.999 285.12 676.759 285.12C677.479 285.12 678.039 285.16 678.639 285.24V289C678.119 288.92 677.759 288.88 677.319 288.88C673.759 288.88 671.199 291.56 671.199 295.44V306H667.279V285.6ZM681.062 277.72H685.502V281.96H681.062V277.72ZM681.342 285.6H685.262V306H681.342V285.6ZM698.589 306.6C692.109 306.6 688.509 302 688.509 295.76C688.509 289.36 692.349 284.96 698.589 284.96C704.789 284.96 708.269 289.04 708.269 295.36C708.269 295.92 708.269 296.52 708.229 296.84H692.549C692.629 300.28 694.629 303.4 698.669 303.4C702.269 303.4 703.629 301.08 704.029 299.72H707.989C706.949 303.64 703.949 306.6 698.589 306.6ZM698.469 288.16C695.189 288.16 692.789 290.4 692.549 293.76H704.149C704.149 290.56 701.949 288.16 698.469 288.16ZM720.025 293.68C723.745 294.56 727.825 295.64 727.825 300.2C727.825 304.16 724.785 306.56 719.425 306.56C713.225 306.56 710.145 303.36 710.025 299.2H713.985C714.185 301.56 715.585 303.4 719.385 303.4C722.825 303.4 723.745 301.88 723.745 300.4C723.745 297.84 721.025 297.56 718.385 297C714.825 296.2 710.745 295.12 710.745 290.88C710.745 287.36 713.585 285 718.545 285C724.105 285 726.785 288 727.065 291.52H723.105C722.825 289.96 722.025 288.16 718.585 288.16C715.985 288.16 714.825 289.2 714.825 290.72C714.825 292.84 717.105 293 720.025 293.68Z" fill="black"/>
<path d="M297.536 425V407.84H304.688C307.928 407.84 310.328 409.352 310.328 412.952C310.328 416.552 307.928 418.04 304.688 418.04H300.176V425H297.536ZM300.176 415.76H304.568C306.56 415.76 307.568 414.872 307.568 412.952C307.568 411.008 306.56 410.12 304.568 410.12H300.176V415.76ZM317.018 425.36C313.13 425.36 310.97 422.6 310.97 418.856C310.97 415.016 313.274 412.376 317.018 412.376C320.738 412.376 322.826 414.824 322.826 418.616C322.826 418.952 322.826 419.312 322.802 419.504H313.394C313.442 421.568 314.642 423.44 317.066 423.44C319.226 423.44 320.042 422.048 320.282 421.232H322.658C322.034 423.584 320.234 425.36 317.018 425.36ZM316.946 414.296C314.978 414.296 313.538 415.64 313.394 417.656H320.354C320.354 415.736 319.034 414.296 316.946 414.296ZM323.713 412.76H325.489V408.824H327.841V412.76H330.193V414.704H327.841V421.616C327.841 422.912 328.201 423.2 329.209 423.2C329.593 423.2 329.785 423.176 330.217 423.104V425C329.593 425.12 329.233 425.144 328.705 425.144C326.713 425.144 325.489 424.376 325.489 421.544V414.704H323.713V412.76ZM337.286 417.608C339.518 418.136 341.966 418.784 341.966 421.52C341.966 423.896 340.142 425.336 336.926 425.336C333.206 425.336 331.358 423.416 331.286 420.92H333.662C333.782 422.336 334.622 423.44 336.902 423.44C338.966 423.44 339.518 422.528 339.518 421.64C339.518 420.104 337.886 419.936 336.302 419.6C334.166 419.12 331.718 418.472 331.718 415.928C331.718 413.816 333.422 412.4 336.398 412.4C339.734 412.4 341.342 414.2 341.51 416.312H339.134C338.966 415.376 338.486 414.296 336.422 414.296C334.862 414.296 334.166 414.92 334.166 415.832C334.166 417.104 335.534 417.2 337.286 417.608Z" fill="black"/>
<path d="M302.048 529V514.12H296.504V511.84H310.256V514.12H304.712V529H302.048ZM309.084 516.76H311.436V519.088H311.484C312.108 517.552 313.116 516.472 314.772 516.472C315.204 516.472 315.54 516.496 315.9 516.544V518.8C315.588 518.752 315.372 518.728 315.108 518.728C312.972 518.728 311.436 520.336 311.436 522.664V529H309.084V516.76ZM320.298 529.336C317.85 529.336 316.29 527.92 316.29 525.832C316.29 523.096 318.354 522.304 321.402 521.704C323.322 521.344 324.498 521.104 324.498 519.904C324.498 519.016 323.97 518.272 322.17 518.272C320.034 518.272 319.386 518.944 319.266 520.576H316.866C316.986 518.224 318.522 516.376 322.266 516.376C324.786 516.376 326.802 517.432 326.802 520.6V526.216C326.802 527.104 326.922 527.56 327.378 527.56C327.45 527.56 327.522 527.56 327.666 527.536V528.976C327.258 529.072 326.85 529.12 326.466 529.12C325.314 529.12 324.666 528.664 324.546 527.272H324.498C323.682 528.544 322.29 529.336 320.298 529.336ZM320.826 527.44C322.938 527.44 324.498 526.36 324.498 524.224V522.472C324.114 522.832 323.058 523.096 321.81 523.36C319.65 523.816 318.762 524.392 318.762 525.664C318.762 526.816 319.362 527.44 320.826 527.44ZM327.667 516.76H330.187L333.379 526.576H333.427L336.571 516.76H339.043L334.675 529H332.035L327.667 516.76ZM345.424 529.36C341.536 529.36 339.376 526.6 339.376 522.856C339.376 519.016 341.68 516.376 345.424 516.376C349.144 516.376 351.232 518.824 351.232 522.616C351.232 522.952 351.232 523.312 351.208 523.504H341.8C341.848 525.568 343.048 527.44 345.472 527.44C347.632 527.44 348.448 526.048 348.688 525.232H351.064C350.44 527.584 348.64 529.36 345.424 529.36ZM345.352 518.296C343.384 518.296 341.944 519.64 341.8 521.656H348.76C348.76 519.736 347.44 518.296 345.352 518.296ZM353.193 511.84H355.545V529H353.193V511.84Z" fill="black"/>
<path d="M297.536 633V615.84H304.688C307.928 615.84 310.328 617.352 310.328 620.952C310.328 624.552 307.928 626.04 304.688 626.04H300.176V633H297.536ZM300.176 623.76H304.568C306.56 623.76 307.568 622.872 307.568 620.952C307.568 619.008 306.56 618.12 304.568 618.12H300.176V623.76ZM317.018 633.36C313.13 633.36 310.97 630.6 310.97 626.856C310.97 623.016 313.274 620.376 317.018 620.376C320.738 620.376 322.826 622.824 322.826 626.616C322.826 626.952 322.826 627.312 322.802 627.504H313.394C313.442 629.568 314.642 631.44 317.066 631.44C319.226 631.44 320.042 630.048 320.282 629.232H322.658C322.034 631.584 320.234 633.36 317.018 633.36ZM316.946 622.296C314.978 622.296 313.538 623.64 313.394 625.656H320.354C320.354 623.736 319.034 622.296 316.946 622.296ZM324.787 620.76H327.139V623.088H327.187C327.811 621.552 328.819 620.472 330.475 620.472C330.907 620.472 331.243 620.496 331.603 620.544V622.8C331.291 622.752 331.075 622.728 330.811 622.728C328.675 622.728 327.139 624.336 327.139 626.664V633H324.787V620.76ZM338.411 625.608C340.643 626.136 343.091 626.784 343.091 629.52C343.091 631.896 341.267 633.336 338.051 633.336C334.331 633.336 332.483 631.416 332.411 628.92H334.787C334.907 630.336 335.747 631.44 338.027 631.44C340.091 631.44 340.643 630.528 340.643 629.64C340.643 628.104 339.011 627.936 337.427 627.6C335.291 627.12 332.843 626.472 332.843 623.928C332.843 621.816 334.547 620.4 337.523 620.4C340.859 620.4 342.467 622.2 342.635 624.312H340.259C340.091 623.376 339.611 622.296 337.547 622.296C335.987 622.296 335.291 622.92 335.291 623.832C335.291 625.104 336.659 625.2 338.411 625.608ZM350.395 633.36C346.579 633.36 344.275 630.72 344.275 626.88C344.275 623.064 346.579 620.376 350.395 620.376C354.211 620.376 356.515 623.04 356.515 626.856C356.515 630.696 354.211 633.36 350.395 633.36ZM350.395 631.416C352.891 631.416 354.067 629.424 354.067 626.88C354.067 624.312 352.891 622.344 350.395 622.344C347.875 622.344 346.723 624.312 346.723 626.88C346.723 629.424 347.875 631.416 350.395 631.416ZM358.467 633V620.76H360.819V622.296H360.867C361.515 621.36 362.787 620.4 364.899 620.4C367.155 620.4 368.979 621.696 368.979 624.504V633H366.603V625.152C366.603 623.52 365.883 622.416 364.131 622.416C362.115 622.416 360.819 623.64 360.819 625.488V633H358.467ZM374.813 633.336C372.365 633.336 370.805 631.92 370.805 629.832C370.805 627.096 372.869 626.304 375.917 625.704C377.837 625.344 379.013 625.104 379.013 623.904C379.013 623.016 378.485 622.272 376.685 622.272C374.549 622.272 373.901 622.944 373.781 624.576H371.381C371.501 622.224 373.037 620.376 376.781 620.376C379.301 620.376 381.317 621.432 381.317 624.6V630.216C381.317 631.104 381.437 631.56 381.893 631.56C381.965 631.56 382.037 631.56 382.181 631.536V632.976C381.773 633.072 381.365 633.12 380.981 633.12C379.829 633.12 379.181 632.664 379.061 631.272H379.013C378.197 632.544 376.805 633.336 374.813 633.336ZM375.341 631.44C377.453 631.44 379.013 630.36 379.013 628.224V626.472C378.629 626.832 377.573 627.096 376.325 627.36C374.165 627.816 373.277 628.392 373.277 629.664C373.277 630.816 373.877 631.44 375.341 631.44ZM384.084 615.84H386.436V633H384.084V615.84ZM406.593 621.672C406.281 619.992 405.225 617.784 401.937 617.784C398.145 617.784 396.705 621 396.705 624.408C396.705 627.84 398.145 631.056 401.937 631.056C405.249 631.056 406.425 628.848 406.593 626.76H409.353C408.969 630.576 406.305 633.336 401.961 633.336C397.089 633.336 393.969 629.592 393.969 624.432C393.969 619.248 397.113 615.504 401.985 615.504C406.305 615.504 408.945 618.24 409.353 621.672H406.593ZM414.681 633.336C412.233 633.336 410.673 631.92 410.673 629.832C410.673 627.096 412.737 626.304 415.785 625.704C417.705 625.344 418.881 625.104 418.881 623.904C418.881 623.016 418.353 622.272 416.553 622.272C414.417 622.272 413.769 622.944 413.649 624.576H411.249C411.369 622.224 412.905 620.376 416.649 620.376C419.169 620.376 421.185 621.432 421.185 624.6V630.216C421.185 631.104 421.305 631.56 421.761 631.56C421.833 631.56 421.905 631.56 422.049 631.536V632.976C421.641 633.072 421.233 633.12 420.849 633.12C419.697 633.12 419.049 632.664 418.929 631.272H418.881C418.065 632.544 416.673 633.336 414.681 633.336ZM415.209 631.44C417.321 631.44 418.881 630.36 418.881 628.224V626.472C418.497 626.832 417.441 627.096 416.193 627.36C414.033 627.816 413.145 628.392 413.145 629.664C413.145 630.816 413.745 631.44 415.209 631.44ZM423.951 620.76H426.303V623.088H426.351C426.975 621.552 427.983 620.472 429.639 620.472C430.071 620.472 430.407 620.496 430.767 620.544V622.8C430.455 622.752 430.239 622.728 429.975 622.728C427.839 622.728 426.303 624.336 426.303 626.664V633H423.951V620.76ZM437.346 633.36C433.458 633.36 431.298 630.6 431.298 626.856C431.298 623.016 433.602 620.376 437.346 620.376C441.066 620.376 443.154 622.824 443.154 626.616C443.154 626.952 443.154 627.312 443.13 627.504H433.722C433.77 629.568 434.97 631.44 437.394 631.44C439.554 631.44 440.37 630.048 440.61 629.232H442.986C442.362 631.584 440.562 633.36 437.346 633.36ZM437.274 622.296C435.306 622.296 433.866 623.64 433.722 625.656H440.682C440.682 623.736 439.362 622.296 437.274 622.296Z" fill="black"/>
<path d="M673.536 425V407.84H677.016L681.96 421.328H682.008L686.976 407.84H690.456V425H687.864V411.68H687.816L683.088 425H680.904L676.176 411.68H676.128V425H673.536ZM698.573 425.36C694.685 425.36 692.525 422.6 692.525 418.856C692.525 415.016 694.829 412.376 698.573 412.376C702.293 412.376 704.381 414.824 704.381 418.616C704.381 418.952 704.381 419.312 704.357 419.504H694.949C694.997 421.568 696.197 423.44 698.621 423.44C700.781 423.44 701.597 422.048 701.837 421.232H704.213C703.589 423.584 701.789 425.36 698.573 425.36ZM698.501 414.296C696.533 414.296 695.093 415.64 694.949 417.656H701.909C701.909 415.736 700.589 414.296 698.501 414.296ZM706.342 425V412.76H708.694V414.296H708.742C709.39 413.36 710.662 412.4 712.774 412.4C715.03 412.4 716.854 413.696 716.854 416.504V425H714.478V417.152C714.478 415.52 713.758 414.416 712.006 414.416C709.99 414.416 708.694 415.64 708.694 417.488V425H706.342ZM718.182 412.76H719.958V408.824H722.31V412.76H724.662V414.704H722.31V421.616C722.31 422.912 722.67 423.2 723.678 423.2C724.062 423.2 724.254 423.176 724.686 423.104V425C724.062 425.12 723.702 425.144 723.174 425.144C721.182 425.144 719.958 424.376 719.958 421.544V414.704H718.182V412.76ZM729.907 425.336C727.459 425.336 725.899 423.92 725.899 421.832C725.899 419.096 727.963 418.304 731.011 417.704C732.931 417.344 734.107 417.104 734.107 415.904C734.107 415.016 733.579 414.272 731.779 414.272C729.643 414.272 728.995 414.944 728.875 416.576H726.475C726.595 414.224 728.131 412.376 731.875 412.376C734.395 412.376 736.411 413.432 736.411 416.6V422.216C736.411 423.104 736.531 423.56 736.987 423.56C737.059 423.56 737.131 423.56 737.275 423.536V424.976C736.867 425.072 736.459 425.12 736.075 425.12C734.923 425.12 734.275 424.664 734.155 423.272H734.107C733.291 424.544 731.899 425.336 729.907 425.336ZM730.435 423.44C732.547 423.44 734.107 422.36 734.107 420.224V418.472C733.723 418.832 732.667 419.096 731.419 419.36C729.259 419.816 728.371 420.392 728.371 421.664C728.371 422.816 728.971 423.44 730.435 423.44ZM739.178 407.84H741.53V425H739.178V407.84ZM749.591 407.84H752.231V415.016H760.655V407.84H763.319V425H760.655V417.296H752.231V425H749.591V407.84ZM771.44 425.36C767.552 425.36 765.392 422.6 765.392 418.856C765.392 415.016 767.696 412.376 771.44 412.376C775.16 412.376 777.248 414.824 777.248 418.616C777.248 418.952 777.248 419.312 777.224 419.504H767.816C767.864 421.568 769.064 423.44 771.488 423.44C773.648 423.44 774.464 422.048 774.704 421.232H777.08C776.456 423.584 774.656 425.36 771.44 425.36ZM771.368 414.296C769.4 414.296 767.96 415.64 767.816 417.656H774.776C774.776 415.736 773.456 414.296 771.368 414.296ZM782.665 425.336C780.217 425.336 778.657 423.92 778.657 421.832C778.657 419.096 780.721 418.304 783.769 417.704C785.689 417.344 786.865 417.104 786.865 415.904C786.865 415.016 786.337 414.272 784.537 414.272C782.401 414.272 781.753 414.944 781.633 416.576H779.233C779.353 414.224 780.889 412.376 784.633 412.376C787.153 412.376 789.169 413.432 789.169 416.6V422.216C789.169 423.104 789.289 423.56 789.745 423.56C789.817 423.56 789.889 423.56 790.033 423.536V424.976C789.625 425.072 789.217 425.12 788.833 425.12C787.681 425.12 787.033 424.664 786.913 423.272H786.865C786.049 424.544 784.657 425.336 782.665 425.336ZM783.193 423.44C785.305 423.44 786.865 422.36 786.865 420.224V418.472C786.481 418.832 785.425 419.096 784.177 419.36C782.017 419.816 781.129 420.392 781.129 421.664C781.129 422.816 781.729 423.44 783.193 423.44ZM791.936 407.84H794.288V425H791.936V407.84ZM795.948 412.76H797.724V408.824H800.076V412.76H802.428V414.704H800.076V421.616C800.076 422.912 800.436 423.2 801.444 423.2C801.828 423.2 802.02 423.176 802.452 423.104V425C801.828 425.12 801.468 425.144 800.94 425.144C798.948 425.144 797.724 424.376 797.724 421.544V414.704H795.948V412.76ZM812.681 417.152C812.681 415.52 811.961 414.416 810.209 414.416C808.193 414.416 806.897 415.64 806.897 417.488V425H804.545V407.84H806.897V414.296H806.945C807.593 413.36 808.865 412.4 810.977 412.4C813.233 412.4 815.057 413.696 815.057 416.504V425H812.681V417.152Z" fill="black"/>
<path d="M676.176 519.28H683.664V521.56H676.176V529H673.536V511.84H685.44V514.12H676.176V519.28ZM688.774 529.336C686.326 529.336 684.766 527.92 684.766 525.832C684.766 523.096 686.83 522.304 689.878 521.704C691.798 521.344 692.974 521.104 692.974 519.904C692.974 519.016 692.446 518.272 690.646 518.272C688.51 518.272 687.862 518.944 687.742 520.576H685.342C685.462 518.224 686.998 516.376 690.742 516.376C693.262 516.376 695.278 517.432 695.278 520.6V526.216C695.278 527.104 695.398 527.56 695.854 527.56C695.926 527.56 695.998 527.56 696.142 527.536V528.976C695.734 529.072 695.326 529.12 694.942 529.12C693.79 529.12 693.142 528.664 693.022 527.272H692.974C692.158 528.544 690.766 529.336 688.774 529.336ZM689.302 527.44C691.414 527.44 692.974 526.36 692.974 524.224V522.472C692.59 522.832 691.534 523.096 690.286 523.36C688.126 523.816 687.238 524.392 687.238 525.664C687.238 526.816 687.838 527.44 689.302 527.44ZM703.137 521.608C705.369 522.136 707.817 522.784 707.817 525.52C707.817 527.896 705.993 529.336 702.777 529.336C699.057 529.336 697.209 527.416 697.137 524.92H699.513C699.633 526.336 700.473 527.44 702.753 527.44C704.817 527.44 705.369 526.528 705.369 525.64C705.369 524.104 703.737 523.936 702.153 523.6C700.017 523.12 697.569 522.472 697.569 519.928C697.569 517.816 699.273 516.4 702.249 516.4C705.585 516.4 707.193 518.2 707.361 520.312H704.985C704.817 519.376 704.337 518.296 702.273 518.296C700.713 518.296 700.017 518.92 700.017 519.832C700.017 521.104 701.385 521.2 703.137 521.608ZM717.759 521.152C717.759 519.52 717.039 518.416 715.287 518.416C713.271 518.416 711.975 519.64 711.975 521.488V529H709.623V511.84H711.975V518.296H712.023C712.671 517.36 713.943 516.4 716.055 516.4C718.311 516.4 720.135 517.696 720.135 520.504V529H717.759V521.152ZM722.486 512.032H725.15V514.576H722.486V512.032ZM722.654 516.76H725.006V529H722.654V516.76ZM733.074 529.36C729.258 529.36 726.954 526.72 726.954 522.88C726.954 519.064 729.258 516.376 733.074 516.376C736.89 516.376 739.194 519.04 739.194 522.856C739.194 526.696 736.89 529.36 733.074 529.36ZM733.074 527.416C735.57 527.416 736.746 525.424 736.746 522.88C736.746 520.312 735.57 518.344 733.074 518.344C730.554 518.344 729.402 520.312 729.402 522.88C729.402 525.424 730.554 527.416 733.074 527.416ZM741.146 529V516.76H743.498V518.296H743.546C744.194 517.36 745.466 516.4 747.578 516.4C749.834 516.4 751.658 517.696 751.658 520.504V529H749.282V521.152C749.282 519.52 748.562 518.416 746.81 518.416C744.794 518.416 743.498 519.64 743.498 521.488V529H741.146Z" fill="black"/>
<path d="M685.632 621.672C685.32 619.992 684.264 617.784 680.976 617.784C677.184 617.784 675.744 621 675.744 624.408C675.744 627.84 677.184 631.056 680.976 631.056C684.288 631.056 685.464 628.848 685.632 626.76H688.392C688.008 630.576 685.344 633.336 681 633.336C676.128 633.336 673.008 629.592 673.008 624.432C673.008 619.248 676.152 615.504 681.024 615.504C685.344 615.504 687.984 618.24 688.392 621.672H685.632ZM692.731 628.584C692.731 630.24 693.451 631.344 695.203 631.344C697.219 631.344 698.515 630.12 698.515 628.272V620.76H700.867V633H698.515V631.464H698.467C697.819 632.4 696.547 633.336 694.435 633.336C692.179 633.336 690.355 632.04 690.355 629.232V620.76H692.731V628.584ZM703.506 615.84H705.858V633H703.506V615.84ZM708.307 616.032H710.971V618.576H708.307V616.032ZM708.475 620.76H710.827V633H708.475V620.76ZM713.443 633V620.76H715.795V622.296H715.843C716.491 621.36 717.763 620.4 719.875 620.4C722.131 620.4 723.955 621.696 723.955 624.504V633H721.579V625.152C721.579 623.52 720.859 622.416 719.107 622.416C717.091 622.416 715.795 623.64 715.795 625.488V633H713.443ZM729.79 633.336C727.342 633.336 725.782 631.92 725.782 629.832C725.782 627.096 727.846 626.304 730.894 625.704C732.814 625.344 733.99 625.104 733.99 623.904C733.99 623.016 733.462 622.272 731.662 622.272C729.526 622.272 728.878 622.944 728.758 624.576H726.358C726.478 622.224 728.014 620.376 731.758 620.376C734.278 620.376 736.294 621.432 736.294 624.6V630.216C736.294 631.104 736.414 631.56 736.87 631.56C736.942 631.56 737.014 631.56 737.158 631.536V632.976C736.75 633.072 736.342 633.12 735.958 633.12C734.806 633.12 734.158 632.664 734.038 631.272H733.99C733.174 632.544 731.782 633.336 729.79 633.336ZM730.318 631.44C732.43 631.44 733.99 630.36 733.99 628.224V626.472C733.606 626.832 732.55 627.096 731.302 627.36C729.142 627.816 728.254 628.392 728.254 629.664C728.254 630.816 728.854 631.44 730.318 631.44ZM739.061 620.76H741.413V623.088H741.461C742.085 621.552 743.093 620.472 744.749 620.472C745.181 620.472 745.517 620.496 745.877 620.544V622.8C745.565 622.752 745.349 622.728 745.085 622.728C742.949 622.728 741.413 624.336 741.413 626.664V633H739.061V620.76ZM751.456 632.88L746.488 620.76H749.056L752.632 630.12H752.68L756.064 620.76H758.512L753.688 633.288C752.488 636.312 751.312 637.296 749.416 637.296C748.888 637.296 748.528 637.248 747.904 637.128V635.208C748.312 635.256 748.528 635.28 748.912 635.28C749.872 635.28 750.952 634.8 751.456 632.88ZM771.961 622.92C775.273 623.76 778.393 624.552 778.393 628.176C778.393 631.128 776.377 633.336 772.105 633.336C767.761 633.336 764.689 631.08 764.521 627.216H767.257C767.449 629.52 768.817 631.08 772.033 631.08C774.769 631.08 775.633 629.88 775.633 628.32C775.633 626.136 773.953 625.824 770.833 625.032C768.145 624.336 765.193 623.448 765.193 620.184C765.193 617.208 767.497 615.504 771.193 615.504C775.105 615.504 777.649 617.496 777.913 620.952H775.153C774.889 618.888 773.713 617.76 771.193 617.76C769.057 617.76 767.929 618.552 767.929 620.04C767.929 621.96 769.753 622.368 771.961 622.92ZM782.59 628.584C782.59 630.24 783.31 631.344 785.062 631.344C787.078 631.344 788.374 630.12 788.374 628.272V620.76H790.726V633H788.374V631.464H788.326C787.678 632.4 786.406 633.336 784.294 633.336C782.038 633.336 780.214 632.04 780.214 629.232V620.76H782.59V628.584ZM795.765 631.488H795.717V633H793.365V615.84H795.717V622.2H795.765C796.437 621.336 797.613 620.4 799.533 620.4C802.653 620.4 805.029 622.848 805.029 626.88C805.029 630.912 802.653 633.336 799.533 633.336C797.613 633.336 796.437 632.472 795.765 631.488ZM799.149 622.368C797.037 622.368 795.741 624.096 795.741 626.88C795.741 629.64 797.037 631.392 799.149 631.392C801.453 631.392 802.557 629.28 802.557 626.88C802.557 624.48 801.453 622.368 799.149 622.368ZM812.075 625.608C814.307 626.136 816.755 626.784 816.755 629.52C816.755 631.896 814.931 633.336 811.715 633.336C807.995 633.336 806.147 631.416 806.075 628.92H808.451C808.571 630.336 809.411 631.44 811.691 631.44C813.755 631.44 814.307 630.528 814.307 629.64C814.307 628.104 812.675 627.936 811.091 627.6C808.955 627.12 806.507 626.472 806.507 623.928C806.507 621.816 808.211 620.4 811.187 620.4C814.523 620.4 816.131 622.2 816.299 624.312H813.923C813.755 623.376 813.275 622.296 811.211 622.296C809.651 622.296 808.955 622.92 808.955 623.832C808.955 625.104 810.323 625.2 812.075 625.608ZM827.011 625.2C826.915 623.928 826.195 622.344 823.939 622.344C821.347 622.344 820.387 624.576 820.387 626.88C820.387 629.184 821.347 631.392 823.939 631.392C826.195 631.392 826.915 629.856 827.011 628.464H829.459C829.291 631.272 827.083 633.36 823.963 633.36C820.315 633.36 817.939 630.72 817.939 626.88C817.939 623.04 820.315 620.4 823.939 620.4C827.083 620.4 829.171 622.44 829.459 625.2H827.011ZM831.334 620.76H833.686V623.088H833.734C834.358 621.552 835.366 620.472 837.022 620.472C837.454 620.472 837.79 620.496 838.15 620.544V622.8C837.838 622.752 837.622 622.728 837.358 622.728C835.222 622.728 833.686 624.336 833.686 626.664V633H831.334V620.76ZM839.603 616.032H842.267V618.576H839.603V616.032ZM839.771 620.76H842.123V633H839.771V620.76ZM847.14 631.488H847.092V637.248H844.74V620.76H847.092V622.2H847.14C847.812 621.336 848.988 620.4 850.908 620.4C854.028 620.4 856.404 622.848 856.404 626.88C856.404 630.912 854.028 633.336 850.908 633.336C848.988 633.336 847.812 632.472 847.14 631.488ZM850.524 622.368C848.412 622.368 847.116 624.096 847.116 626.88C847.116 629.64 848.412 631.392 850.524 631.392C852.828 631.392 853.932 629.28 853.932 626.88C853.932 624.48 852.828 622.368 850.524 622.368ZM857.284 620.76H859.06V616.824H861.412V620.76H863.764V622.704H861.412V629.616C861.412 630.912 861.772 631.2 862.78 631.2C863.164 631.2 863.356 631.176 863.788 631.104V633C863.164 633.12 862.804 633.144 862.276 633.144C860.284 633.144 859.06 632.376 859.06 629.544V622.704H857.284V620.76ZM865.713 616.032H868.377V618.576H865.713V616.032ZM865.881 620.76H868.233V633H865.881V620.76ZM876.301 633.36C872.485 633.36 870.181 630.72 870.181 626.88C870.181 623.064 872.485 620.376 876.301 620.376C880.117 620.376 882.421 623.04 882.421 626.856C882.421 630.696 880.117 633.36 876.301 633.36ZM876.301 631.416C878.797 631.416 879.973 629.424 879.973 626.88C879.973 624.312 878.797 622.344 876.301 622.344C873.781 622.344 872.629 624.312 872.629 626.88C872.629 629.424 873.781 631.416 876.301 631.416ZM884.373 633V620.76H886.725V622.296H886.773C887.421 621.36 888.693 620.4 890.805 620.4C893.061 620.4 894.885 621.696 894.885 624.504V633H892.509V625.152C892.509 623.52 891.789 622.416 890.037 622.416C888.021 622.416 886.725 623.64 886.725 625.488V633H884.373ZM902.544 625.608C904.776 626.136 907.224 626.784 907.224 629.52C907.224 631.896 905.4 633.336 902.184 633.336C898.464 633.336 896.616 631.416 896.544 628.92H898.92C899.04 630.336 899.88 631.44 902.16 631.44C904.224 631.44 904.776 630.528 904.776 629.64C904.776 628.104 903.144 627.936 901.56 627.6C899.424 627.12 896.976 626.472 896.976 623.928C896.976 621.816 898.68 620.4 901.656 620.4C904.992 620.4 906.6 622.2 906.768 624.312H904.392C904.224 623.376 903.744 622.296 901.68 622.296C900.12 622.296 899.424 622.92 899.424 623.832C899.424 625.104 900.792 625.2 902.544 625.608Z" fill="black"/>
<path d="M0 528H1128V780C1128 846.274 1074.27 900 1008 900H120C53.7258 900 0 846.274 0 780V528Z" fill="url(#paint0_linear_2668_5183)"/>
<defs>
<linearGradient id="paint0_linear_2668_5183" x1="564" y1="528" x2="564" y2="900" gradientUnits="userSpaceOnUse">
<stop stop-color="#EDD9FF" stop-opacity="0"/>
<stop offset="0.59" stop-color="#EDD9FF"/>
</linearGradient>
<clipPath id="clip0_2668_5183">
<rect width="32" height="32" fill="white" transform="translate(600 400)"/>
</clipPath>
</defs>
</svg>
