<svg width="226" height="148" viewBox="0 0 226 148" fill="none" xmlns="http://www.w3.org/2000/svg">
<rect width="226" height="148" fill="white"/>
<path d="M20.896 35V24.99H22.926L25.81 32.858H25.838L28.736 24.99H30.766V35H29.254V27.23H29.226L26.468 35H25.194L22.436 27.23H22.408V35H20.896ZM35.5427 35.21C33.3167 35.21 31.9727 33.67 31.9727 31.43C31.9727 29.204 33.3167 27.636 35.5427 27.636C37.7687 27.636 39.1127 29.19 39.1127 31.416C39.1127 33.656 37.7687 35.21 35.5427 35.21ZM35.5427 34.076C36.9987 34.076 37.6847 32.914 37.6847 31.43C37.6847 29.932 36.9987 28.784 35.5427 28.784C34.0727 28.784 33.4007 29.932 33.4007 31.43C33.4007 32.914 34.0727 34.076 35.5427 34.076ZM43.2221 30.688C44.5241 30.996 45.9521 31.374 45.9521 32.97C45.9521 34.356 44.8881 35.196 43.0121 35.196C40.8421 35.196 39.7641 34.076 39.7221 32.62H41.1081C41.1781 33.446 41.6681 34.09 42.9981 34.09C44.2021 34.09 44.5241 33.558 44.5241 33.04C44.5241 32.144 43.5721 32.046 42.6481 31.85C41.4021 31.57 39.9741 31.192 39.9741 29.708C39.9741 28.476 40.9681 27.65 42.7041 27.65C44.6501 27.65 45.5881 28.7 45.6861 29.932H44.3001C44.2021 29.386 43.9221 28.756 42.7181 28.756C41.8081 28.756 41.4021 29.12 41.4021 29.652C41.4021 30.394 42.2001 30.45 43.2221 30.688ZM46.3926 27.86H47.4286V25.564H48.8006V27.86H50.1726V28.994H48.8006V33.026C48.8006 33.782 49.0106 33.95 49.5986 33.95C49.8226 33.95 49.9346 33.936 50.1866 33.894V35C49.8226 35.07 49.6126 35.084 49.3046 35.084C48.1426 35.084 47.4286 34.636 47.4286 32.984V28.994H46.3926V27.86ZM54.5972 35V24.99H58.7692C60.6592 24.99 62.0592 25.872 62.0592 27.972C62.0592 30.072 60.6592 30.94 58.7692 30.94H56.1372V35H54.5972ZM56.1372 29.61H58.6992C59.8612 29.61 60.4492 29.092 60.4492 27.972C60.4492 26.838 59.8612 26.32 58.6992 26.32H56.1372V29.61ZM66.0037 35.21C63.7777 35.21 62.4337 33.67 62.4337 31.43C62.4337 29.204 63.7777 27.636 66.0037 27.636C68.2297 27.636 69.5737 29.19 69.5737 31.416C69.5737 33.656 68.2297 35.21 66.0037 35.21ZM66.0037 34.076C67.4597 34.076 68.1457 32.914 68.1457 31.43C68.1457 29.932 67.4597 28.784 66.0037 28.784C64.5337 28.784 63.8617 29.932 63.8617 31.43C63.8617 32.914 64.5337 34.076 66.0037 34.076ZM72.1124 34.118H72.0844V37.478H70.7124V27.86H72.0844V28.7H72.1124C72.5044 28.196 73.1904 27.65 74.3104 27.65C76.1304 27.65 77.5164 29.078 77.5164 31.43C77.5164 33.782 76.1304 35.196 74.3104 35.196C73.1904 35.196 72.5044 34.692 72.1124 34.118ZM74.0864 28.798C72.8544 28.798 72.0984 29.806 72.0984 31.43C72.0984 33.04 72.8544 34.062 74.0864 34.062C75.4304 34.062 76.0744 32.83 76.0744 31.43C76.0744 30.03 75.4304 28.798 74.0864 28.798ZM79.9717 32.424C79.9717 33.39 80.3917 34.034 81.4137 34.034C82.5897 34.034 83.3457 33.32 83.3457 32.242V27.86H84.7177V35H83.3457V34.104H83.3177C82.9397 34.65 82.1977 35.196 80.9657 35.196C79.6497 35.196 78.5857 34.44 78.5857 32.802V27.86H79.9717V32.424ZM86.2573 24.99H87.6293V35H86.2573V24.99ZM91.0897 35.196C89.6617 35.196 88.7517 34.37 88.7517 33.152C88.7517 31.556 89.9557 31.094 91.7337 30.744C92.8537 30.534 93.5397 30.394 93.5397 29.694C93.5397 29.176 93.2317 28.742 92.1817 28.742C90.9357 28.742 90.5577 29.134 90.4877 30.086H89.0877C89.1577 28.714 90.0537 27.636 92.2377 27.636C93.7077 27.636 94.8837 28.252 94.8837 30.1V33.376C94.8837 33.894 94.9537 34.16 95.2197 34.16C95.2617 34.16 95.3037 34.16 95.3877 34.146V34.986C95.1497 35.042 94.9117 35.07 94.6877 35.07C94.0157 35.07 93.6377 34.804 93.5677 33.992H93.5397C93.0637 34.734 92.2517 35.196 91.0897 35.196ZM91.3977 34.09C92.6297 34.09 93.5397 33.46 93.5397 32.214V31.192C93.3157 31.402 92.6997 31.556 91.9717 31.71C90.7117 31.976 90.1937 32.312 90.1937 33.054C90.1937 33.726 90.5437 34.09 91.3977 34.09ZM96.4975 27.86H97.8695V29.218H97.8975C98.2615 28.322 98.8495 27.692 99.8155 27.692C100.068 27.692 100.264 27.706 100.474 27.734V29.05C100.292 29.022 100.166 29.008 100.012 29.008C98.7655 29.008 97.8695 29.946 97.8695 31.304V35H96.4975V27.86ZM111.788 28.392C111.606 27.412 110.99 26.124 109.072 26.124C106.86 26.124 106.02 28 106.02 29.988C106.02 31.99 106.86 33.866 109.072 33.866C111.004 33.866 111.69 32.578 111.788 31.36H113.398C113.174 33.586 111.62 35.196 109.086 35.196C106.244 35.196 104.424 33.012 104.424 30.002C104.424 26.978 106.258 24.794 109.1 24.794C111.62 24.794 113.16 26.39 113.398 28.392H111.788ZM116.506 35.196C115.078 35.196 114.168 34.37 114.168 33.152C114.168 31.556 115.372 31.094 117.15 30.744C118.27 30.534 118.956 30.394 118.956 29.694C118.956 29.176 118.648 28.742 117.598 28.742C116.352 28.742 115.974 29.134 115.904 30.086H114.504C114.574 28.714 115.47 27.636 117.654 27.636C119.124 27.636 120.3 28.252 120.3 30.1V33.376C120.3 33.894 120.37 34.16 120.636 34.16C120.678 34.16 120.72 34.16 120.804 34.146V34.986C120.566 35.042 120.328 35.07 120.104 35.07C119.432 35.07 119.054 34.804 118.984 33.992H118.956C118.48 34.734 117.668 35.196 116.506 35.196ZM116.814 34.09C118.046 34.09 118.956 33.46 118.956 32.214V31.192C118.732 31.402 118.116 31.556 117.388 31.71C116.128 31.976 115.61 32.312 115.61 33.054C115.61 33.726 115.96 34.09 116.814 34.09ZM121.082 27.86H122.118V25.564H123.49V27.86H124.862V28.994H123.49V33.026C123.49 33.782 123.7 33.95 124.288 33.95C124.512 33.95 124.624 33.936 124.876 33.894V35C124.512 35.07 124.302 35.084 123.994 35.084C122.832 35.084 122.118 34.636 122.118 32.984V28.994H121.082V27.86ZM129.003 35.21C126.735 35.21 125.475 33.6 125.475 31.416C125.475 29.176 126.819 27.636 129.003 27.636C131.173 27.636 132.391 29.064 132.391 31.276C132.391 31.472 132.391 31.682 132.377 31.794H126.889C126.917 32.998 127.617 34.09 129.031 34.09C130.291 34.09 130.767 33.278 130.907 32.802H132.293C131.929 34.174 130.879 35.21 129.003 35.21ZM128.961 28.756C127.813 28.756 126.973 29.54 126.889 30.716H130.949C130.949 29.596 130.179 28.756 128.961 28.756ZM138.603 34.524V33.558H138.575C138.183 34.132 137.525 34.636 136.377 34.636C134.599 34.636 133.227 33.432 133.227 31.15C133.227 28.854 134.599 27.65 136.377 27.65C137.525 27.65 138.183 28.196 138.575 28.7H138.603V27.86H139.975V34.44C139.975 36.596 138.673 37.562 136.629 37.562C134.585 37.562 133.563 36.582 133.423 35.294H134.837C134.977 35.938 135.467 36.442 136.629 36.442C137.931 36.442 138.603 35.868 138.603 34.524ZM136.629 28.798C135.285 28.798 134.655 29.806 134.655 31.15C134.655 32.494 135.285 33.502 136.629 33.502C137.861 33.502 138.589 32.704 138.589 31.15C138.589 29.582 137.861 28.798 136.629 28.798ZM144.699 35.21C142.473 35.21 141.129 33.67 141.129 31.43C141.129 29.204 142.473 27.636 144.699 27.636C146.925 27.636 148.269 29.19 148.269 31.416C148.269 33.656 146.925 35.21 144.699 35.21ZM144.699 34.076C146.155 34.076 146.841 32.914 146.841 31.43C146.841 29.932 146.155 28.784 144.699 28.784C143.229 28.784 142.557 29.932 142.557 31.43C142.557 32.914 143.229 34.076 144.699 34.076ZM149.408 27.86H150.78V29.218H150.808C151.172 28.322 151.76 27.692 152.726 27.692C152.978 27.692 153.174 27.706 153.384 27.734V29.05C153.202 29.022 153.076 29.008 152.922 29.008C151.676 29.008 150.78 29.946 150.78 31.304V35H149.408V27.86ZM154.232 25.102H155.786V26.586H154.232V25.102ZM154.33 27.86H155.702V35H154.33V27.86ZM160.366 35.21C158.098 35.21 156.838 33.6 156.838 31.416C156.838 29.176 158.182 27.636 160.366 27.636C162.536 27.636 163.754 29.064 163.754 31.276C163.754 31.472 163.754 31.682 163.74 31.794H158.252C158.28 32.998 158.98 34.09 160.394 34.09C161.654 34.09 162.13 33.278 162.27 32.802H163.656C163.292 34.174 162.242 35.21 160.366 35.21ZM160.324 28.756C159.176 28.756 158.336 29.54 158.252 30.716H162.312C162.312 29.596 161.542 28.756 160.324 28.756ZM167.869 30.688C169.171 30.996 170.599 31.374 170.599 32.97C170.599 34.356 169.535 35.196 167.659 35.196C165.489 35.196 164.411 34.076 164.369 32.62H165.755C165.825 33.446 166.315 34.09 167.645 34.09C168.849 34.09 169.171 33.558 169.171 33.04C169.171 32.144 168.219 32.046 167.295 31.85C166.049 31.57 164.621 31.192 164.621 29.708C164.621 28.476 165.615 27.65 167.351 27.65C169.297 27.65 170.235 28.7 170.333 29.932H168.947C168.849 29.386 168.569 28.756 167.365 28.756C166.455 28.756 166.049 29.12 166.049 29.652C166.049 30.394 166.847 30.45 167.869 30.688Z" fill="black"/>
<path d="M56.768 66V57.42H60.344C61.964 57.42 63.164 58.176 63.164 59.976C63.164 61.776 61.964 62.52 60.344 62.52H58.088V66H56.768ZM58.088 61.38H60.284C61.28 61.38 61.784 60.936 61.784 59.976C61.784 59.004 61.28 58.56 60.284 58.56H58.088V61.38ZM66.509 66.18C64.565 66.18 63.485 64.8 63.485 62.928C63.485 61.008 64.637 59.688 66.509 59.688C68.369 59.688 69.413 60.912 69.413 62.808C69.413 62.976 69.413 63.156 69.401 63.252H64.697C64.721 64.284 65.321 65.22 66.533 65.22C67.613 65.22 68.021 64.524 68.141 64.116H69.329C69.017 65.292 68.117 66.18 66.509 66.18ZM66.473 60.648C65.489 60.648 64.769 61.32 64.697 62.328H68.177C68.177 61.368 67.517 60.648 66.473 60.648ZM70.3935 59.88H71.5695V61.044H71.5935C71.9055 60.276 72.4095 59.736 73.2375 59.736C73.4535 59.736 73.6215 59.748 73.8015 59.772V60.9C73.6455 60.876 73.5375 60.864 73.4055 60.864C72.3375 60.864 71.5695 61.668 71.5695 62.832V66H70.3935V59.88ZM77.2054 62.304C78.3214 62.568 79.5454 62.892 79.5454 64.26C79.5454 65.448 78.6334 66.168 77.0254 66.168C75.1654 66.168 74.2414 65.208 74.2054 63.96H75.3934C75.4534 64.668 75.8734 65.22 77.0134 65.22C78.0454 65.22 78.3214 64.764 78.3214 64.32C78.3214 63.552 77.5054 63.468 76.7134 63.3C75.6454 63.06 74.4214 62.736 74.4214 61.464C74.4214 60.408 75.2734 59.7 76.7614 59.7C78.4294 59.7 79.2334 60.6 79.3174 61.656H78.1294C78.0454 61.188 77.8054 60.648 76.7734 60.648C75.9934 60.648 75.6454 60.96 75.6454 61.416C75.6454 62.052 76.3294 62.1 77.2054 62.304ZM83.1973 66.18C81.2893 66.18 80.1373 64.86 80.1373 62.94C80.1373 61.032 81.2893 59.688 83.1973 59.688C85.1053 59.688 86.2573 61.02 86.2573 62.928C86.2573 64.848 85.1053 66.18 83.1973 66.18ZM83.1973 65.208C84.4453 65.208 85.0333 64.212 85.0333 62.94C85.0333 61.656 84.4453 60.672 83.1973 60.672C81.9373 60.672 81.3613 61.656 81.3613 62.94C81.3613 64.212 81.9373 65.208 83.1973 65.208ZM87.2334 66V59.88H88.4094V60.648H88.4334C88.7574 60.18 89.3934 59.7 90.4494 59.7C91.5774 59.7 92.4894 60.348 92.4894 61.752V66H91.3014V62.076C91.3014 61.26 90.9414 60.708 90.0654 60.708C89.0574 60.708 88.4094 61.32 88.4094 62.244V66H87.2334ZM95.4067 66.168C94.1827 66.168 93.4027 65.46 93.4027 64.416C93.4027 63.048 94.4347 62.652 95.9587 62.352C96.9187 62.172 97.5067 62.052 97.5067 61.452C97.5067 61.008 97.2427 60.636 96.3427 60.636C95.2747 60.636 94.9507 60.972 94.8907 61.788H93.6907C93.7507 60.612 94.5187 59.688 96.3907 59.688C97.6507 59.688 98.6587 60.216 98.6587 61.8V64.608C98.6587 65.052 98.7187 65.28 98.9467 65.28C98.9827 65.28 99.0187 65.28 99.0907 65.268V65.988C98.8867 66.036 98.6827 66.06 98.4907 66.06C97.9147 66.06 97.5907 65.832 97.5307 65.136H97.5067C97.0987 65.772 96.4027 66.168 95.4067 66.168ZM95.6707 65.22C96.7267 65.22 97.5067 64.68 97.5067 63.612V62.736C97.3147 62.916 96.7867 63.048 96.1627 63.18C95.0827 63.408 94.6387 63.696 94.6387 64.332C94.6387 64.908 94.9387 65.22 95.6707 65.22ZM100.042 57.42H101.218V66H100.042V57.42ZM109.376 62.1C109.328 61.464 108.968 60.672 107.84 60.672C106.544 60.672 106.064 61.788 106.064 62.94C106.064 64.092 106.544 65.196 107.84 65.196C108.968 65.196 109.328 64.428 109.376 63.732H110.6C110.516 65.136 109.412 66.18 107.852 66.18C106.028 66.18 104.84 64.86 104.84 62.94C104.84 61.02 106.028 59.7 107.84 59.7C109.412 59.7 110.456 60.72 110.6 62.1H109.376ZM113.266 66.168C112.042 66.168 111.262 65.46 111.262 64.416C111.262 63.048 112.294 62.652 113.818 62.352C114.778 62.172 115.366 62.052 115.366 61.452C115.366 61.008 115.102 60.636 114.202 60.636C113.134 60.636 112.81 60.972 112.75 61.788H111.55C111.61 60.612 112.378 59.688 114.25 59.688C115.51 59.688 116.518 60.216 116.518 61.8V64.608C116.518 65.052 116.578 65.28 116.806 65.28C116.842 65.28 116.878 65.28 116.95 65.268V65.988C116.746 66.036 116.542 66.06 116.35 66.06C115.774 66.06 115.45 65.832 115.39 65.136H115.366C114.958 65.772 114.262 66.168 113.266 66.168ZM113.53 65.22C114.586 65.22 115.366 64.68 115.366 63.612V62.736C115.174 62.916 114.646 63.048 114.022 63.18C112.942 63.408 112.498 63.696 112.498 64.332C112.498 64.908 112.798 65.22 113.53 65.22ZM117.901 59.88H119.077V61.044H119.101C119.413 60.276 119.917 59.736 120.745 59.736C120.961 59.736 121.129 59.748 121.309 59.772V60.9C121.153 60.876 121.045 60.864 120.913 60.864C119.845 60.864 119.077 61.668 119.077 62.832V66H117.901V59.88ZM124.599 66.18C122.655 66.18 121.575 64.8 121.575 62.928C121.575 61.008 122.727 59.688 124.599 59.688C126.459 59.688 127.503 60.912 127.503 62.808C127.503 62.976 127.503 63.156 127.491 63.252H122.787C122.811 64.284 123.411 65.22 124.623 65.22C125.703 65.22 126.111 64.524 126.231 64.116H127.419C127.107 65.292 126.207 66.18 124.599 66.18ZM124.563 60.648C123.579 60.648 122.859 61.32 122.787 62.328H126.267C126.267 61.368 125.607 60.648 124.563 60.648Z" fill="black"/>
<path d="M58.088 88.996H62.252V90.136H58.088V92.86H62.96V94H56.768V85.42H62.84V86.56H58.088V88.996ZM63.9482 94V87.88H65.1242V88.648H65.1482C65.4722 88.18 66.1082 87.7 67.1642 87.7C68.2922 87.7 69.2042 88.348 69.2042 89.752V94H68.0162V90.076C68.0162 89.26 67.6562 88.708 66.7802 88.708C65.7722 88.708 65.1242 89.32 65.1242 90.244V94H63.9482ZM69.8683 87.88H70.7563V85.912H71.9323V87.88H73.1083V88.852H71.9323V92.308C71.9323 92.956 72.1123 93.1 72.6163 93.1C72.8083 93.1 72.9043 93.088 73.1203 93.052V94C72.8083 94.06 72.6283 94.072 72.3643 94.072C71.3683 94.072 70.7563 93.688 70.7563 92.272V88.852H69.8683V87.88ZM76.6574 94.18C74.7134 94.18 73.6334 92.8 73.6334 90.928C73.6334 89.008 74.7854 87.688 76.6574 87.688C78.5174 87.688 79.5614 88.912 79.5614 90.808C79.5614 90.976 79.5614 91.156 79.5494 91.252H74.8454C74.8694 92.284 75.4694 93.22 76.6814 93.22C77.7614 93.22 78.1694 92.524 78.2894 92.116H79.4774C79.1654 93.292 78.2654 94.18 76.6574 94.18ZM76.6214 88.648C75.6374 88.648 74.9174 89.32 74.8454 90.328H78.3254C78.3254 89.368 77.6654 88.648 76.6214 88.648ZM80.542 87.88H81.718V89.044H81.742C82.054 88.276 82.558 87.736 83.386 87.736C83.602 87.736 83.77 87.748 83.95 87.772V88.9C83.794 88.876 83.686 88.864 83.554 88.864C82.486 88.864 81.718 89.668 81.718 90.832V94H80.542V87.88ZM84.5051 87.88H85.3931V85.912H86.5691V87.88H87.7451V88.852H86.5691V92.308C86.5691 92.956 86.7491 93.1 87.2531 93.1C87.4451 93.1 87.5411 93.088 87.7571 93.052V94C87.4451 94.06 87.2651 94.072 87.0011 94.072C86.0051 94.072 85.3931 93.688 85.3931 92.272V88.852H84.5051V87.88ZM90.3676 94.168C89.1436 94.168 88.3636 93.46 88.3636 92.416C88.3636 91.048 89.3956 90.652 90.9196 90.352C91.8796 90.172 92.4676 90.052 92.4676 89.452C92.4676 89.008 92.2036 88.636 91.3036 88.636C90.2356 88.636 89.9116 88.972 89.8516 89.788H88.6516C88.7116 88.612 89.4796 87.688 91.3516 87.688C92.6116 87.688 93.6196 88.216 93.6196 89.8V92.608C93.6196 93.052 93.6796 93.28 93.9076 93.28C93.9436 93.28 93.9796 93.28 94.0516 93.268V93.988C93.8476 94.036 93.6436 94.06 93.4516 94.06C92.8756 94.06 92.5516 93.832 92.4916 93.136H92.4676C92.0596 93.772 91.3636 94.168 90.3676 94.168ZM90.6316 93.22C91.6876 93.22 92.4676 92.68 92.4676 91.612V90.736C92.2756 90.916 91.7476 91.048 91.1236 91.18C90.0436 91.408 89.5996 91.696 89.5996 92.332C89.5996 92.908 89.8996 93.22 90.6316 93.22ZM94.9189 85.516H96.2509V86.788H94.9189V85.516ZM95.0029 87.88H96.1789V94H95.0029V87.88ZM97.4873 94V87.88H98.6633V88.648H98.6873C99.0113 88.18 99.6473 87.7 100.703 87.7C101.831 87.7 102.743 88.348 102.743 89.752V94H101.555V90.076C101.555 89.26 101.195 88.708 100.319 88.708C99.3113 88.708 98.6633 89.32 98.6633 90.244V94H97.4873ZM104.003 94V87.88H105.179V88.648H105.203C105.527 88.18 106.091 87.7 107.015 87.7C107.867 87.7 108.383 88.084 108.635 88.768H108.659C109.103 88.18 109.715 87.7 110.663 87.7C111.899 87.7 112.523 88.444 112.523 89.752V94H111.347V90.076C111.347 89.26 111.179 88.708 110.279 88.708C109.403 88.708 108.851 89.32 108.851 90.244V94H107.675V90.076C107.675 89.26 107.507 88.708 106.607 88.708C105.731 88.708 105.179 89.32 105.179 90.244V94H104.003ZM116.478 94.18C114.534 94.18 113.454 92.8 113.454 90.928C113.454 89.008 114.606 87.688 116.478 87.688C118.338 87.688 119.382 88.912 119.382 90.808C119.382 90.976 119.382 91.156 119.37 91.252H114.666C114.69 92.284 115.29 93.22 116.502 93.22C117.582 93.22 117.99 92.524 118.11 92.116H119.298C118.986 93.292 118.086 94.18 116.478 94.18ZM116.442 88.648C115.458 88.648 114.738 89.32 114.666 90.328H118.146C118.146 89.368 117.486 88.648 116.442 88.648ZM120.362 94V87.88H121.538V88.648H121.562C121.886 88.18 122.522 87.7 123.578 87.7C124.706 87.7 125.618 88.348 125.618 89.752V94H124.43V90.076C124.43 89.26 124.07 88.708 123.194 88.708C122.186 88.708 121.538 89.32 121.538 90.244V94H120.362ZM126.282 87.88H127.17V85.912H128.346V87.88H129.522V88.852H128.346V92.308C128.346 92.956 128.526 93.1 129.03 93.1C129.222 93.1 129.318 93.088 129.534 93.052V94C129.222 94.06 129.042 94.072 128.778 94.072C127.782 94.072 127.17 93.688 127.17 92.272V88.852H126.282V87.88Z" fill="black"/>
<path d="M58.088 116.996H62.252V118.136H58.088V120.86H62.96V122H56.768V113.42H62.84V114.56H58.088V116.996ZM65.4701 121.94L62.9861 115.88H64.2701L66.0581 120.56H66.0821L67.7741 115.88H68.9981L66.5861 122.144C65.9861 123.656 65.3981 124.148 64.4501 124.148C64.1861 124.148 64.0061 124.124 63.6941 124.064V123.104C63.8981 123.128 64.0061 123.14 64.1981 123.14C64.6781 123.14 65.2181 122.9 65.4701 121.94ZM72.1809 122.18C70.2369 122.18 69.1569 120.8 69.1569 118.928C69.1569 117.008 70.3089 115.688 72.1809 115.688C74.0409 115.688 75.0849 116.912 75.0849 118.808C75.0849 118.976 75.0849 119.156 75.0729 119.252H70.3689C70.3929 120.284 70.9929 121.22 72.2049 121.22C73.2849 121.22 73.6929 120.524 73.8129 120.116H75.0009C74.6889 121.292 73.7889 122.18 72.1809 122.18ZM72.1449 116.648C71.1609 116.648 70.4409 117.32 70.3689 118.328H73.8489C73.8489 117.368 73.1889 116.648 72.1449 116.648ZM82.9858 118.1C82.9378 117.464 82.5778 116.672 81.4498 116.672C80.1538 116.672 79.6738 117.788 79.6738 118.94C79.6738 120.092 80.1538 121.196 81.4498 121.196C82.5778 121.196 82.9378 120.428 82.9858 119.732H84.2098C84.1258 121.136 83.0218 122.18 81.4618 122.18C79.6378 122.18 78.4498 120.86 78.4498 118.94C78.4498 117.02 79.6378 115.7 81.4498 115.7C83.0218 115.7 84.0658 116.72 84.2098 118.1H82.9858ZM86.8754 122.168C85.6514 122.168 84.8714 121.46 84.8714 120.416C84.8714 119.048 85.9034 118.652 87.4274 118.352C88.3874 118.172 88.9754 118.052 88.9754 117.452C88.9754 117.008 88.7114 116.636 87.8114 116.636C86.7434 116.636 86.4194 116.972 86.3594 117.788H85.1594C85.2194 116.612 85.9874 115.688 87.8594 115.688C89.1194 115.688 90.1274 116.216 90.1274 117.8V120.608C90.1274 121.052 90.1874 121.28 90.4154 121.28C90.4514 121.28 90.4874 121.28 90.5594 121.268V121.988C90.3554 122.036 90.1514 122.06 89.9594 122.06C89.3834 122.06 89.0594 121.832 88.9994 121.136H88.9754C88.5674 121.772 87.8714 122.168 86.8754 122.168ZM87.1394 121.22C88.1954 121.22 88.9754 120.68 88.9754 119.612V118.736C88.7834 118.916 88.2554 119.048 87.6314 119.18C86.5514 119.408 86.1074 119.696 86.1074 120.332C86.1074 120.908 86.4074 121.22 87.1394 121.22ZM91.5107 115.88H92.6867V117.044H92.7107C93.0227 116.276 93.5267 115.736 94.3547 115.736C94.5707 115.736 94.7387 115.748 94.9187 115.772V116.9C94.7627 116.876 94.6547 116.864 94.5227 116.864C93.4547 116.864 92.6867 117.668 92.6867 118.832V122H91.5107V115.88ZM98.2082 122.18C96.2642 122.18 95.1842 120.8 95.1842 118.928C95.1842 117.008 96.3362 115.688 98.2082 115.688C100.068 115.688 101.112 116.912 101.112 118.808C101.112 118.976 101.112 119.156 101.1 119.252H96.3962C96.4202 120.284 97.0202 121.22 98.2322 121.22C99.3122 121.22 99.7202 120.524 99.8402 120.116H101.028C100.716 121.292 99.8162 122.18 98.2082 122.18ZM98.1722 116.648C97.1882 116.648 96.4682 117.32 96.3962 118.328H99.8762C99.8762 117.368 99.2162 116.648 98.1722 116.648Z" fill="black"/>
<rect opacity="0.2" x="20" y="50" width="24" height="24" rx="4.8" fill="#FD1774"/>
<g clip-path="url(#clip0_2663_5010)">
<path fill-rule="evenodd" clip-rule="evenodd" d="M32.3947 56.9389C33.3167 57.8283 33.7996 58.9719 33.7996 60.2001C33.7996 61.4283 33.2728 62.5719 32.3947 63.4613L31.9996 63.8001L31.6045 63.4613C30.6825 62.5719 30.1996 61.4283 30.1996 60.2001C30.1996 58.9719 30.6825 57.786 31.6045 56.9389L31.9996 56.6001L32.3947 56.9389ZM27.0717 62.0001H26.5996V62.5312C26.5996 63.8591 27.0324 65.0542 27.8586 65.9837C28.6849 66.9132 29.7472 67.4001 30.8881 67.4001H30.9275H31.3996V66.8689C31.3996 65.5411 30.9668 64.346 30.1406 63.4165C29.3144 62.487 28.2521 62.0001 27.0717 62.0001ZM37.3996 62.0001H36.9275C35.7865 62.0001 34.6849 62.487 33.8586 63.4165C33.0324 64.346 32.5996 65.5853 32.5996 66.8689V67.4001H33.0717H33.1111C34.2521 67.4001 35.3144 66.9132 36.1406 65.9837C36.9668 65.0542 37.3996 63.8149 37.3996 62.5312V62.0001Z" fill="#FD1774"/>
</g>
<rect opacity="0.2" x="20" y="78" width="24" height="24" rx="4.8" fill="#8800FF"/>
<path d="M34.7023 89.0017L30.8656 86.444C30.0682 85.9123 29 86.484 29 87.4424V92.558C29 93.5164 30.0682 94.0881 30.8656 93.5564L34.7023 90.9987C35.4148 90.5237 35.4148 89.4767 34.7023 89.0017Z" fill="#8800FF"/>
<rect opacity="0.2" x="20" y="106" width="24" height="24" rx="4.8" fill="#01B8C7"/>
<path d="M32.0006 113.765C28.4994 113.765 26.3535 118 26.3535 118C26.3535 118 28.4994 122.235 32.0006 122.235C35.5018 122.235 37.6476 118 37.6476 118C37.6476 118 35.5018 113.765 32.0006 113.765ZM32.0006 121.017C30.3818 121.017 29.0641 119.663 29.0641 118C29.0641 116.337 30.3818 114.983 32.0006 114.983C33.6194 114.983 34.937 116.337 34.937 118C34.937 119.663 33.6194 121.017 32.0006 121.017ZM33.7512 118C33.7512 118.986 32.9606 119.798 32.0006 119.798C31.0406 119.798 30.25 118.986 30.25 118C30.25 117.014 31.0406 116.201 32.0006 116.201C32.9606 116.201 33.7512 117.014 33.7512 118Z" fill="#01B8C7"/>
<defs>
<clipPath id="clip0_2663_5010">
<rect width="12" height="12" fill="white" transform="translate(26 56)"/>
</clipPath>
</defs>
</svg>
