<svg width="1128" height="900" viewBox="0 0 1128 900" fill="none" xmlns="http://www.w3.org/2000/svg">
<rect width="1128" height="900" fill="#EDD9FF"/>
<path d="M144 200C144 177.909 161.909 160 184 160H944C966.091 160 984 177.909 984 200V900H144V200Z" fill="#FDFDFD"/>
<path d="M282.872 410.324H292.588V412.984H282.872V419.34H294.24V422H279.792V401.98H293.96V404.64H282.872V410.324ZM296.546 422V407.72H299.29V409.512H299.346C300.102 408.42 301.418 407.3 303.574 407.3C305.562 407.3 306.766 408.196 307.354 409.792H307.41C308.446 408.42 309.874 407.3 312.086 407.3C314.97 407.3 316.426 409.036 316.426 412.088V422H313.682V412.844C313.682 410.94 313.29 409.652 311.19 409.652C309.146 409.652 307.858 411.08 307.858 413.236V422H305.114V412.844C305.114 410.94 304.722 409.652 302.622 409.652C300.578 409.652 299.29 411.08 299.29 413.236V422H296.546ZM323.246 422.392C320.39 422.392 318.57 420.74 318.57 418.304C318.57 415.112 320.978 414.188 324.534 413.488C326.774 413.068 328.146 412.788 328.146 411.388C328.146 410.352 327.53 409.484 325.43 409.484C322.938 409.484 322.182 410.268 322.042 412.172H319.242C319.382 409.428 321.174 407.272 325.542 407.272C328.482 407.272 330.834 408.504 330.834 412.2V418.752C330.834 419.788 330.974 420.32 331.506 420.32C331.59 420.32 331.674 420.32 331.842 420.292V421.972C331.366 422.084 330.89 422.14 330.442 422.14C329.098 422.14 328.342 421.608 328.202 419.984H328.146C327.194 421.468 325.57 422.392 323.246 422.392ZM323.862 420.18C326.326 420.18 328.146 418.92 328.146 416.428V414.384C327.698 414.804 326.466 415.112 325.01 415.42C322.49 415.952 321.454 416.624 321.454 418.108C321.454 419.452 322.154 420.18 323.862 420.18ZM333.865 402.204H336.973V405.172H333.865V402.204ZM334.061 407.72H336.805V422H334.061V407.72ZM339.968 401.98H342.712V422H339.968V401.98Z" fill="black"/>
<rect x="249" y="369" width="630" height="88" rx="15" stroke="black" stroke-opacity="0.2" stroke-width="2"/>
<path d="M279.792 536V515.98H283.32L292.616 531.38H292.672V515.98H295.78V536H292.252L282.928 520.6H282.872V536H279.792ZM302.847 536.392C299.991 536.392 298.171 534.74 298.171 532.304C298.171 529.112 300.579 528.188 304.135 527.488C306.375 527.068 307.747 526.788 307.747 525.388C307.747 524.352 307.131 523.484 305.031 523.484C302.539 523.484 301.783 524.268 301.643 526.172H298.843C298.983 523.428 300.775 521.272 305.143 521.272C308.083 521.272 310.435 522.504 310.435 526.2V532.752C310.435 533.788 310.575 534.32 311.107 534.32C311.191 534.32 311.275 534.32 311.443 534.292V535.972C310.967 536.084 310.491 536.14 310.043 536.14C308.699 536.14 307.943 535.608 307.803 533.984H307.747C306.795 535.468 305.171 536.392 302.847 536.392ZM303.463 534.18C305.927 534.18 307.747 532.92 307.747 530.428V528.384C307.299 528.804 306.067 529.112 304.611 529.42C302.091 529.952 301.055 530.624 301.055 532.108C301.055 533.452 301.755 534.18 303.463 534.18ZM313.663 536V521.72H316.407V523.512H316.463C317.219 522.42 318.535 521.3 320.691 521.3C322.679 521.3 323.883 522.196 324.471 523.792H324.527C325.563 522.42 326.991 521.3 329.203 521.3C332.087 521.3 333.543 523.036 333.543 526.088V536H330.799V526.844C330.799 524.94 330.407 523.652 328.307 523.652C326.263 523.652 324.975 525.08 324.975 527.236V536H322.231V526.844C322.231 524.94 321.839 523.652 319.739 523.652C317.695 523.652 316.407 525.08 316.407 527.236V536H313.663ZM342.771 536.42C338.235 536.42 335.715 533.2 335.715 528.832C335.715 524.352 338.403 521.272 342.771 521.272C347.111 521.272 349.547 524.128 349.547 528.552C349.547 528.944 349.547 529.364 349.519 529.588H338.543C338.599 531.996 339.999 534.18 342.827 534.18C345.347 534.18 346.299 532.556 346.579 531.604H349.351C348.623 534.348 346.523 536.42 342.771 536.42ZM342.687 523.512C340.391 523.512 338.711 525.08 338.543 527.432H346.663C346.663 525.192 345.123 523.512 342.687 523.512Z" fill="black"/>
<rect x="249" y="483" width="630" height="88" rx="15" stroke="black" stroke-opacity="0.2" stroke-width="2"/>
<rect x="387.5" y="621.5" width="353" height="91" rx="22.5" fill="#EDD9FF" fill-opacity="0.62" stroke="#8800FF" stroke-width="3"/>
<path d="M463.85 664.24C467.714 665.22 471.354 666.144 471.354 670.372C471.354 673.816 469.002 676.392 464.018 676.392C458.95 676.392 455.366 673.76 455.17 669.252H458.362C458.586 671.94 460.182 673.76 463.934 673.76C467.126 673.76 468.134 672.36 468.134 670.54C468.134 667.992 466.174 667.628 462.534 666.704C459.398 665.892 455.954 664.856 455.954 661.048C455.954 657.576 458.642 655.588 462.954 655.588C467.518 655.588 470.486 657.912 470.794 661.944H467.574C467.266 659.536 465.894 658.22 462.954 658.22C460.462 658.22 459.146 659.144 459.146 660.88C459.146 663.12 461.274 663.596 463.85 664.24ZM480.085 676.42C475.549 676.42 473.029 673.2 473.029 668.832C473.029 664.352 475.717 661.272 480.085 661.272C484.425 661.272 486.861 664.128 486.861 668.552C486.861 668.944 486.861 669.364 486.833 669.588H475.857C475.913 671.996 477.313 674.18 480.141 674.18C482.661 674.18 483.613 672.556 483.893 671.604H486.665C485.937 674.348 483.837 676.42 480.085 676.42ZM480.001 663.512C477.705 663.512 476.025 665.08 475.857 667.432H483.977C483.977 665.192 482.437 663.512 480.001 663.512ZM489.149 676V661.72H491.893V663.512H491.949C492.705 662.42 494.189 661.3 496.653 661.3C499.285 661.3 501.413 662.812 501.413 666.088V676H498.641V666.844C498.641 664.94 497.801 663.652 495.757 663.652C493.405 663.652 491.893 665.08 491.893 667.236V676H489.149ZM514.352 663.456H514.408V655.98H517.18V676H514.408V674.32H514.352C513.596 675.328 512.196 676.392 509.956 676.392C506.316 676.392 503.572 673.564 503.572 668.86C503.572 664.156 506.316 661.3 509.956 661.3C512.196 661.3 513.596 662.336 514.352 663.456ZM510.404 674.124C512.868 674.124 514.408 672.08 514.408 668.86C514.408 665.612 512.868 663.596 510.404 663.596C507.716 663.596 506.428 666.06 506.428 668.86C506.428 671.66 507.716 674.124 510.404 674.124ZM526.059 656.204H529.167V659.172H526.059V656.204ZM526.255 661.72H528.999V676H526.255V661.72ZM532.052 676V661.72H534.796V663.512H534.852C535.608 662.42 537.092 661.3 539.556 661.3C542.188 661.3 544.316 662.812 544.316 666.088V676H541.544V666.844C541.544 664.94 540.704 663.652 538.66 663.652C536.308 663.652 534.796 665.08 534.796 667.236V676H532.052ZM545.283 661.72H548.223L551.947 673.172H552.003L555.671 661.72H558.555L553.459 676H550.379L545.283 661.72ZM559.965 656.204H563.073V659.172H559.965V656.204ZM560.161 661.72H562.905V676H560.161V661.72ZM564.842 661.72H566.914V657.128H569.658V661.72H572.402V663.988H569.658V672.052C569.658 673.564 570.078 673.9 571.254 673.9C571.702 673.9 571.926 673.872 572.43 673.788V676C571.702 676.14 571.282 676.168 570.666 676.168C568.342 676.168 566.914 675.272 566.914 671.968V663.988H564.842V661.72ZM578.521 676.392C575.665 676.392 573.845 674.74 573.845 672.304C573.845 669.112 576.253 668.188 579.809 667.488C582.049 667.068 583.421 666.788 583.421 665.388C583.421 664.352 582.805 663.484 580.705 663.484C578.213 663.484 577.457 664.268 577.317 666.172H574.517C574.657 663.428 576.449 661.272 580.817 661.272C583.757 661.272 586.109 662.504 586.109 666.2V672.752C586.109 673.788 586.249 674.32 586.781 674.32C586.865 674.32 586.949 674.32 587.117 674.292V675.972C586.641 676.084 586.165 676.14 585.717 676.14C584.373 676.14 583.617 675.608 583.477 673.984H583.421C582.469 675.468 580.845 676.392 578.521 676.392ZM579.137 674.18C581.601 674.18 583.421 672.92 583.421 670.428V668.384C582.973 668.804 581.741 669.112 580.285 669.42C577.765 669.952 576.729 670.624 576.729 672.108C576.729 673.452 577.429 674.18 579.137 674.18ZM587.674 661.72H589.746V657.128H592.49V661.72H595.234V663.988H592.49V672.052C592.49 673.564 592.91 673.9 594.086 673.9C594.534 673.9 594.758 673.872 595.262 673.788V676C594.534 676.14 594.114 676.168 593.498 676.168C591.174 676.168 589.746 675.272 589.746 671.968V663.988H587.674V661.72ZM597.508 656.204H600.616V659.172H597.508V656.204ZM597.704 661.72H600.448V676H597.704V661.72ZM609.861 676.42C605.409 676.42 602.721 673.34 602.721 668.86C602.721 664.408 605.409 661.272 609.861 661.272C614.313 661.272 617.001 664.38 617.001 668.832C617.001 673.312 614.313 676.42 609.861 676.42ZM609.861 674.152C612.773 674.152 614.145 671.828 614.145 668.86C614.145 665.864 612.773 663.568 609.861 663.568C606.921 663.568 605.577 665.864 605.577 668.86C605.577 671.828 606.921 674.152 609.861 674.152ZM619.278 676V661.72H622.022V663.512H622.078C622.834 662.42 624.318 661.3 626.782 661.3C629.414 661.3 631.542 662.812 631.542 666.088V676H628.77V666.844C628.77 664.94 627.93 663.652 625.886 663.652C623.534 663.652 622.022 665.08 622.022 667.236V676H619.278ZM640.477 667.376C643.081 667.992 645.937 668.748 645.937 671.94C645.937 674.712 643.809 676.392 640.057 676.392C635.717 676.392 633.561 674.152 633.477 671.24H636.249C636.389 672.892 637.369 674.18 640.029 674.18C642.437 674.18 643.081 673.116 643.081 672.08C643.081 670.288 641.177 670.092 639.329 669.7C636.837 669.14 633.981 668.384 633.981 665.416C633.981 662.952 635.969 661.3 639.441 661.3C643.333 661.3 645.209 663.4 645.405 665.864H642.633C642.437 664.772 641.877 663.512 639.469 663.512C637.649 663.512 636.837 664.24 636.837 665.304C636.837 666.788 638.433 666.9 640.477 667.376ZM654.224 676V661.72H656.968V663.512H657.024C657.78 662.42 659.264 661.3 661.728 661.3C664.36 661.3 666.488 662.812 666.488 666.088V676H663.716V666.844C663.716 664.94 662.876 663.652 660.832 663.652C658.48 663.652 656.968 665.08 656.968 667.236V676H654.224ZM675.787 676.42C671.335 676.42 668.647 673.34 668.647 668.86C668.647 664.408 671.335 661.272 675.787 661.272C680.239 661.272 682.927 664.38 682.927 668.832C682.927 673.312 680.239 676.42 675.787 676.42ZM675.787 674.152C678.699 674.152 680.071 671.828 680.071 668.86C680.071 665.864 678.699 663.568 675.787 663.568C672.847 663.568 671.503 665.864 671.503 668.86C671.503 671.828 672.847 674.152 675.787 674.152ZM683.428 661.72H686.396L689.42 672.78H689.476L692.444 661.72H695.216L698.184 672.78H698.268L701.292 661.72H704.176L699.724 676H696.896L693.816 664.996H693.76L690.68 676H687.852L683.428 661.72Z" fill="black"/>
<path d="M437.835 656.166L430.251 677.833L425.918 668.083L416.168 663.749L437.835 656.166Z" stroke="#0D0D0D" stroke-width="2.33333" stroke-linecap="round" stroke-linejoin="round"/>
<path d="M437.835 656.166L425.918 668.083" stroke="#0D0D0D" stroke-width="2.33333" stroke-linecap="round" stroke-linejoin="round"/>
<path d="M447.609 299.12H435.649L433.289 306H428.649L439.289 277.4H444.049L454.769 306H449.969L447.609 299.12ZM436.929 295.4H446.329L441.689 281.48H441.609L436.929 295.4ZM470.666 288.08H470.746V277.4H474.706V306H470.746V303.6H470.666C469.586 305.04 467.586 306.56 464.386 306.56C459.186 306.56 455.266 302.52 455.266 295.8C455.266 289.08 459.186 285 464.386 285C467.586 285 469.586 286.48 470.666 288.08ZM465.026 303.32C468.546 303.32 470.746 300.4 470.746 295.8C470.746 291.16 468.546 288.28 465.026 288.28C461.186 288.28 459.346 291.8 459.346 295.8C459.346 299.8 461.186 303.32 465.026 303.32ZM493.362 288.08H493.442V277.4H497.402V306H493.442V303.6H493.362C492.282 305.04 490.282 306.56 487.082 306.56C481.882 306.56 477.962 302.52 477.962 295.8C477.962 289.08 481.882 285 487.082 285C490.282 285 492.282 286.48 493.362 288.08ZM487.722 303.32C491.242 303.32 493.442 300.4 493.442 295.8C493.442 291.16 491.242 288.28 487.722 288.28C483.882 288.28 482.042 291.8 482.042 295.8C482.042 299.8 483.882 303.32 487.722 303.32ZM519.565 306.6C513.085 306.6 509.485 302 509.485 295.76C509.485 289.36 513.325 284.96 519.565 284.96C525.765 284.96 529.245 289.04 529.245 295.36C529.245 295.92 529.245 296.52 529.205 296.84H513.525C513.605 300.28 515.605 303.4 519.645 303.4C523.245 303.4 524.605 301.08 525.005 299.72H528.965C527.925 303.64 524.925 306.6 519.565 306.6ZM519.445 288.16C516.165 288.16 513.765 290.4 513.525 293.76H525.125C525.125 290.56 522.925 288.16 519.445 288.16ZM532.514 306V285.6H536.434V288.16H536.514C537.594 286.6 539.474 285 542.554 285C545.394 285 547.114 286.28 547.954 288.56H548.034C549.514 286.6 551.554 285 554.714 285C558.834 285 560.914 287.48 560.914 291.84V306H556.994V292.92C556.994 290.2 556.434 288.36 553.434 288.36C550.514 288.36 548.674 290.4 548.674 293.48V306H544.754V292.92C544.754 290.2 544.194 288.36 541.194 288.36C538.274 288.36 536.434 290.4 536.434 293.48V306H532.514ZM569.131 303.48H569.051V313.08H565.131V285.6H569.051V288H569.131C570.251 286.56 572.211 285 575.411 285C580.611 285 584.571 289.08 584.571 295.8C584.571 302.52 580.611 306.56 575.411 306.56C572.211 306.56 570.251 305.12 569.131 303.48ZM574.771 288.28C571.251 288.28 569.091 291.16 569.091 295.8C569.091 300.4 571.251 303.32 574.771 303.32C578.611 303.32 580.451 299.8 580.451 295.8C580.451 291.8 578.611 288.28 574.771 288.28ZM587.826 277.4H591.746V306H587.826V277.4ZM605.193 306.6C598.833 306.6 594.993 302.2 594.993 295.8C594.993 289.44 598.833 284.96 605.193 284.96C611.553 284.96 615.393 289.4 615.393 295.76C615.393 302.16 611.553 306.6 605.193 306.6ZM605.193 303.36C609.353 303.36 611.313 300.04 611.313 295.8C611.313 291.52 609.353 288.24 605.193 288.24C600.993 288.24 599.073 291.52 599.073 295.8C599.073 300.04 600.993 303.36 605.193 303.36ZM624.188 305.8L615.908 285.6H620.188L626.148 301.2H626.228L631.868 285.6H635.948L627.908 306.48C625.908 311.52 623.948 313.16 620.788 313.16C619.908 313.16 619.308 313.08 618.268 312.88V309.68C618.948 309.76 619.308 309.8 619.948 309.8C621.548 309.8 623.348 309 624.188 305.8ZM646.557 306.6C640.077 306.6 636.477 302 636.477 295.76C636.477 289.36 640.317 284.96 646.557 284.96C652.757 284.96 656.237 289.04 656.237 295.36C656.237 295.92 656.237 296.52 656.197 296.84H640.517C640.597 300.28 642.597 303.4 646.637 303.4C650.237 303.4 651.597 301.08 651.997 299.72H655.957C654.917 303.64 651.917 306.6 646.557 306.6ZM646.437 288.16C643.157 288.16 640.757 290.4 640.517 293.76H652.117C652.117 290.56 649.917 288.16 646.437 288.16ZM668.706 306.6C662.226 306.6 658.626 302 658.626 295.76C658.626 289.36 662.466 284.96 668.706 284.96C674.906 284.96 678.386 289.04 678.386 295.36C678.386 295.92 678.386 296.52 678.346 296.84H662.666C662.746 300.28 664.746 303.4 668.786 303.4C672.386 303.4 673.746 301.08 674.146 299.72H678.106C677.066 303.64 674.066 306.6 668.706 306.6ZM668.586 288.16C665.306 288.16 662.906 290.4 662.666 293.76H674.266C674.266 290.56 672.066 288.16 668.586 288.16ZM690.142 293.68C693.862 294.56 697.942 295.64 697.942 300.2C697.942 304.16 694.902 306.56 689.542 306.56C683.342 306.56 680.262 303.36 680.142 299.2H684.102C684.302 301.56 685.702 303.4 689.502 303.4C692.942 303.4 693.862 301.88 693.862 300.4C693.862 297.84 691.142 297.56 688.502 297C684.942 296.2 680.862 295.12 680.862 290.88C680.862 287.36 683.702 285 688.662 285C694.222 285 696.902 288 697.182 291.52H693.222C692.942 289.96 692.142 288.16 688.702 288.16C686.102 288.16 684.942 289.2 684.942 290.72C684.942 292.84 687.222 293 690.142 293.68Z" fill="black"/>
<path d="M0 528H1128V780C1128 846.274 1074.27 900 1008 900H120C53.7258 900 0 846.274 0 780V528Z" fill="url(#paint0_linear_2668_5293)"/>
<defs>
<linearGradient id="paint0_linear_2668_5293" x1="564" y1="528" x2="564" y2="900" gradientUnits="userSpaceOnUse">
<stop stop-color="#EDD9FF" stop-opacity="0"/>
<stop offset="0.59" stop-color="#EDD9FF"/>
</linearGradient>
</defs>
</svg>
