<svg width="132" height="133" viewBox="0 0 132 133" fill="none" xmlns="http://www.w3.org/2000/svg">
<rect width="132" height="133" fill="white"/>
<path d="M38.9391 32.592H34.7531L33.9271 35H32.3031L36.0271 24.99H37.6931L41.4451 35H39.7651L38.9391 32.592ZM35.2011 31.29H38.4911L36.8671 26.418H36.8391L35.2011 31.29ZM40.6406 27.86H42.1106L43.9726 33.586H44.0006L45.8346 27.86H47.2766L44.7286 35H43.1886L40.6406 27.86ZM52.8468 34.524V33.558H52.8188C52.4268 34.132 51.7688 34.636 50.6208 34.636C48.8428 34.636 47.4708 33.432 47.4708 31.15C47.4708 28.854 48.8428 27.65 50.6208 27.65C51.7688 27.65 52.4268 28.196 52.8188 28.7H52.8468V27.86H54.2188V34.44C54.2188 36.596 52.9168 37.562 50.8728 37.562C48.8288 37.562 47.8068 36.582 47.6668 35.294H49.0808C49.2208 35.938 49.7108 36.442 50.8728 36.442C52.1748 36.442 52.8468 35.868 52.8468 34.524ZM50.8728 28.798C49.5288 28.798 48.8988 29.806 48.8988 31.15C48.8988 32.494 49.5288 33.502 50.8728 33.502C52.1048 33.502 52.8328 32.704 52.8328 31.15C52.8328 29.582 52.1048 28.798 50.8728 28.798ZM61.571 35V26.32H58.337V24.99H66.359V26.32H63.125V35H61.571ZM68.4714 35.21C66.2034 35.21 64.9434 33.6 64.9434 31.416C64.9434 29.176 66.2874 27.636 68.4714 27.636C70.6414 27.636 71.8594 29.064 71.8594 31.276C71.8594 31.472 71.8594 31.682 71.8454 31.794H66.3574C66.3854 32.998 67.0854 34.09 68.4994 34.09C69.7594 34.09 70.2354 33.278 70.3754 32.802H71.7614C71.3974 34.174 70.3474 35.21 68.4714 35.21ZM68.4294 28.756C67.2814 28.756 66.4414 29.54 66.3574 30.716H70.4174C70.4174 29.596 69.6474 28.756 68.4294 28.756ZM73.0034 35V27.86H74.3754V28.756H74.4034C74.7814 28.21 75.5234 27.65 76.7554 27.65C78.0714 27.65 79.1354 28.406 79.1354 30.044V35H77.7494V30.422C77.7494 29.47 77.3294 28.826 76.3074 28.826C75.1314 28.826 74.3754 29.54 74.3754 30.618V35H73.0034ZM81.9756 32.424C81.9756 33.39 82.3956 34.034 83.4176 34.034C84.5936 34.034 85.3496 33.32 85.3496 32.242V27.86H86.7216V35H85.3496V34.104H85.3216C84.9436 34.65 84.2016 35.196 82.9696 35.196C81.6536 35.196 80.5896 34.44 80.5896 32.802V27.86H81.9756V32.424ZM88.2612 27.86H89.6332V29.218H89.6612C90.0252 28.322 90.6132 27.692 91.5792 27.692C91.8312 27.692 92.0272 27.706 92.2372 27.734V29.05C92.0552 29.022 91.9292 29.008 91.7752 29.008C90.5292 29.008 89.6332 29.946 89.6332 31.304V35H88.2612V27.86ZM96.075 35.21C93.807 35.21 92.547 33.6 92.547 31.416C92.547 29.176 93.891 27.636 96.075 27.636C98.245 27.636 99.463 29.064 99.463 31.276C99.463 31.472 99.463 31.682 99.449 31.794H93.961C93.989 32.998 94.689 34.09 96.103 34.09C97.363 34.09 97.839 33.278 97.979 32.802H99.365C99.001 34.174 97.951 35.21 96.075 35.21ZM96.033 28.756C94.885 28.756 94.045 29.54 93.961 30.716H98.021C98.021 29.596 97.251 28.756 96.033 28.756Z" fill="black"/>
<path d="M52.0972 106.93L49.1992 99.86H50.6972L52.7832 105.32H52.8112L54.7852 99.86H56.2132L53.3992 107.168C52.6992 108.932 52.0132 109.506 50.9072 109.506C50.5992 109.506 50.3892 109.478 50.0252 109.408V108.288C50.2632 108.316 50.3892 108.33 50.6132 108.33C51.1732 108.33 51.8032 108.05 52.0972 106.93ZM59.9265 107.21C57.6585 107.21 56.3985 105.6 56.3985 103.416C56.3985 101.176 57.7425 99.636 59.9265 99.636C62.0965 99.636 63.3145 101.064 63.3145 103.276C63.3145 103.472 63.3145 103.682 63.3005 103.794H57.8125C57.8405 104.998 58.5405 106.09 59.9545 106.09C61.2145 106.09 61.6905 105.278 61.8305 104.802H63.2165C62.8525 106.174 61.8025 107.21 59.9265 107.21ZM59.8845 100.756C58.7365 100.756 57.8965 101.54 57.8125 102.716H61.8725C61.8725 101.596 61.1025 100.756 59.8845 100.756ZM66.4745 107.196C65.0465 107.196 64.1365 106.37 64.1365 105.152C64.1365 103.556 65.3405 103.094 67.1185 102.744C68.2385 102.534 68.9245 102.394 68.9245 101.694C68.9245 101.176 68.6165 100.742 67.5665 100.742C66.3205 100.742 65.9425 101.134 65.8725 102.086H64.4725C64.5425 100.714 65.4385 99.636 67.6225 99.636C69.0925 99.636 70.2685 100.252 70.2685 102.1V105.376C70.2685 105.894 70.3385 106.16 70.6045 106.16C70.6465 106.16 70.6885 106.16 70.7725 106.146V106.986C70.5345 107.042 70.2965 107.07 70.0725 107.07C69.4005 107.07 69.0225 106.804 68.9525 105.992H68.9245C68.4485 106.734 67.6365 107.196 66.4745 107.196ZM66.7825 106.09C68.0145 106.09 68.9245 105.46 68.9245 104.214V103.192C68.7005 103.402 68.0845 103.556 67.3565 103.71C66.0965 103.976 65.5785 104.312 65.5785 105.054C65.5785 105.726 65.9285 106.09 66.7825 106.09ZM71.8823 99.86H73.2543V101.218H73.2823C73.6463 100.322 74.2343 99.692 75.2003 99.692C75.4523 99.692 75.6483 99.706 75.8583 99.734V101.05C75.6763 101.022 75.5503 101.008 75.3963 101.008C74.1503 101.008 73.2543 101.946 73.2543 103.304V107H71.8823V99.86ZM79.8295 102.688C81.1315 102.996 82.5595 103.374 82.5595 104.97C82.5595 106.356 81.4955 107.196 79.6195 107.196C77.4495 107.196 76.3715 106.076 76.3295 104.62H77.7155C77.7855 105.446 78.2755 106.09 79.6055 106.09C80.8095 106.09 81.1315 105.558 81.1315 105.04C81.1315 104.144 80.1795 104.046 79.2555 103.85C78.0095 103.57 76.5815 103.192 76.5815 101.708C76.5815 100.476 77.5755 99.65 79.3115 99.65C81.2575 99.65 82.1955 100.7 82.2935 101.932H80.9075C80.8095 101.386 80.5295 100.756 79.3255 100.756C78.4155 100.756 78.0095 101.12 78.0095 101.652C78.0095 102.394 78.8075 102.45 79.8295 102.688Z" fill="#01B8C7"/>
<path d="M42.2826 85C42.2826 80.162 45.0979 76.103 50.7286 72.823L52.1226 72.003C53.8719 71.019 55.1429 70.24 55.9356 69.666C56.7556 69.0647 57.3843 68.3813 57.8216 67.616C58.2589 66.8233 58.4776 65.8257 58.4776 64.623C58.4776 63.147 58.0949 61.9033 57.3296 60.892C56.5643 59.8807 55.1976 59.375 53.2296 59.375C50.9336 59.375 49.3073 60.031 48.3506 61.343C47.4213 62.655 46.9566 64.4043 46.9566 66.591H43.1026C43.1026 63.5023 43.9636 60.9877 45.6856 59.047C47.4076 57.079 49.9496 56.095 53.3116 56.095C54.9516 56.095 56.4549 56.4367 57.8216 57.12C59.1883 57.776 60.2816 58.7463 61.1016 60.031C61.9216 61.3157 62.3316 62.8327 62.3316 64.582C62.3316 66.2767 61.9353 67.7663 61.1426 69.051C60.3499 70.3083 59.3796 71.3743 58.2316 72.249C57.0836 73.0963 55.5939 74.0393 53.7626 75.078C51.6579 76.2807 50.0453 77.3467 48.9246 78.276C47.8313 79.2053 47.1069 80.326 46.7516 81.638V81.72H61.9216V85H42.2826ZM68.219 85H64.283V81.064H68.219V85ZM80.2496 85.574C78.1722 85.574 76.3682 85.1777 74.8376 84.385C73.3069 83.565 72.1316 82.499 71.3116 81.187C70.4916 79.8477 70.0542 78.399 69.9996 76.841H73.8536C74.0449 78.4263 74.6189 79.7383 75.5756 80.777C76.5596 81.7883 78.0629 82.294 80.0856 82.294C82.0809 82.294 83.6526 81.6927 84.8006 80.49C85.9759 79.2873 86.5636 77.5653 86.5636 75.324C86.5636 73.274 86.0306 71.757 84.9646 70.773C83.8986 69.7617 82.4089 69.256 80.4956 69.256C77.7622 69.256 75.6986 70.1443 74.3046 71.921H70.3686L73.3206 56.669H88.9006V59.949H76.3136L74.6326 68.518V68.6C76.1632 66.8507 78.4046 65.976 81.3566 65.976C83.1059 65.976 84.6639 66.386 86.0306 67.206C87.4246 68.026 88.5042 69.1467 89.2696 70.568C90.0349 71.9893 90.4176 73.5747 90.4176 75.324C90.4176 77.3193 89.9666 79.096 89.0646 80.654C88.1899 82.212 86.9736 83.4283 85.4156 84.303C83.8576 85.1503 82.1356 85.574 80.2496 85.574Z" fill="#01B8C7"/>
<g opacity="0.4">
<path d="M99.2188 70.5H107.76" stroke="#01B8C7" stroke-width="1.70833" stroke-linecap="round"/>
<path d="M99.2188 65.375L105.198 59.3958" stroke="#01B8C7" stroke-width="1.70833" stroke-linecap="round"/>
<path d="M105.197 81.604L99.2181 75.6248" stroke="#01B8C7" stroke-width="1.70833" stroke-linecap="round"/>
<path d="M32.7773 70.499H24.2357" stroke="#01B8C7" stroke-width="1.70833" stroke-linecap="round"/>
<path d="M32.7773 65.374L26.7982 59.3949" stroke="#01B8C7" stroke-width="1.70833" stroke-linecap="round"/>
<path d="M26.7988 81.6035L32.778 75.6243" stroke="#01B8C7" stroke-width="1.70833" stroke-linecap="round"/>
</g>
</svg>
